<svg width="10" height="13" viewBox="0 0 10 13" fill="none" xmlns="http://www.w3.org/2000/svg">
    <path d="M5 4.6955L4.46967 5.22583C4.76256 5.51872 5.23744 5.51872 5.53033 5.22583L5 4.6955ZM9.03033 1.72583C9.32322 1.43293 9.32322 0.958059 9.03033 0.665166C8.73744 0.372272 8.26256 0.372272 7.96967 0.665166L9.03033 1.72583ZM2.03033 0.665166C1.73744 0.372272 1.26256 0.372272 0.96967 0.665166C0.676777 0.958059 0.676777 1.43293 0.96967 1.72583L2.03033 0.665166ZM7.96967 0.665166L4.46967 4.16517L5.53033 5.22583L9.03033 1.72583L7.96967 0.665166ZM5.53033 4.16517L2.03033 0.665166L0.96967 1.72583L4.46967 5.22583L5.53033 4.16517Z" fill="white"/>
    <path d="M5 12.1725L4.46967 12.7028C4.76256 12.9957 5.23744 12.9957 5.53033 12.7028L5 12.1725ZM9.03033 9.20282C9.32322 8.90992 9.32322 8.43505 9.03033 8.14216C8.73744 7.84926 8.26256 7.84926 7.96967 8.14216L9.03033 9.20282ZM2.03033 8.14216C1.73744 7.84926 1.26256 7.84926 0.96967 8.14216C0.676777 8.43505 0.676777 8.90992 0.96967 9.20282L2.03033 8.14216ZM7.96967 8.14216L4.46967 11.6422L5.53033 12.7028L9.03033 9.20282L7.96967 8.14216ZM5.53033 11.6422L2.03033 8.14216L0.96967 9.20282L4.46967 12.7028L5.53033 11.6422Z" fill="white"/>
</svg>
