<svg width="76" height="46" viewBox="0 0 76 46" fill="none" xmlns="http://www.w3.org/2000/svg">
  <path fill-rule="evenodd" clip-rule="evenodd" d="M22.9707 45.5117C34.576 45.5117 44.1358 36.7535 45.4009 25.4861H45.4751L52.5348 34.222H55.8551L48.6342 25.4216C52.7282 24.9381 54.9847 22.3592 54.9847 18.6198C54.9847 14.558 52.3414 11.6568 47.3448 11.6568H42.5252C38.6229 4.90802 31.3271 0.367187 22.9707 0.367187C10.5044 0.367187 0.398438 10.4731 0.398438 22.9395C0.398438 35.4058 10.5044 45.5117 22.9707 45.5117ZM43.7903 14.2034C43.4212 13.3249 42.9981 12.4746 42.5252 11.6568H38.4154V34.222H41.091V25.4861H45.4009C45.4889 24.7023 45.5368 23.9065 45.5424 23.1006H47.0869C50.6651 23.1006 52.2769 21.1664 52.2769 18.6198C52.2769 16.1054 50.6329 14.2034 47.0869 14.2034H43.7903ZM43.7903 14.2034C44.9191 16.8906 45.543 19.8422 45.543 22.9395C45.543 22.9932 45.5428 23.0469 45.5424 23.1006H41.091V14.2034H43.7903ZM75.6832 18.8777C75.6832 14.7192 72.8786 11.6568 67.882 11.6568H58.8237V34.222H61.4993V26.2275H67.882C72.8786 26.2275 75.6832 23.0361 75.6832 18.8777ZM72.9753 18.9099C72.9753 21.4888 71.3635 23.6808 67.7853 23.6808H61.4993V14.2034H67.7853C71.3635 14.2034 72.9753 16.331 72.9753 18.9099ZM33.9056 22.4882L21.9138 22.4882V24.7769H31.1977C30.8109 29.2577 27.4261 32.0945 22.9776 32.0945C17.6908 32.0945 14.1126 28.1295 14.1126 23.0039C14.1126 17.7172 17.8843 13.8489 22.9776 13.8489C26.5558 13.8489 29.4892 15.7831 30.8431 18.7488L33.7122 18.7488C32.1648 14.2357 28.1031 11.3022 23.0098 11.3022C16.4014 11.3022 11.4048 16.2344 11.4048 22.9395C11.4048 29.6446 16.3692 34.5767 22.8164 34.5767C27.0715 34.5767 30.4241 32.3846 31.5523 28.9354L31.5523 34.2221H33.9056V22.4882Z" fill="black"/>
</svg>
