<svg width="19" height="18" viewBox="0 0 19 18" fill="none" xmlns="http://www.w3.org/2000/svg">
    <path d="M2.11621 13.1096C2.11621 12.6953 1.78042 12.3596 1.36621 12.3596C0.951997 12.3596 0.616211 12.6953 0.616211 13.1096H2.11621ZM18.1162 13.1054C18.1162 12.6912 17.7804 12.3554 17.3662 12.3554C16.952 12.3554 16.6162 12.6912 16.6162 13.1054H18.1162ZM10.1162 1.60541C10.1162 1.19119 9.78042 0.855408 9.36621 0.855408C8.952 0.855408 8.61621 1.19119 8.61621 1.60541H10.1162ZM9.36621 12.6054L8.83588 13.1357C9.12877 13.4286 9.60365 13.4286 9.89654 13.1357L9.36621 12.6054ZM13.3965 9.63574C13.6894 9.34284 13.6894 8.86797 13.3965 8.57508C13.1036 8.28218 12.6288 8.28218 12.3359 8.57508L13.3965 9.63574ZM6.39654 8.57508C6.10365 8.28218 5.62877 8.28218 5.33588 8.57508C5.04299 8.86797 5.04299 9.34284 5.33588 9.63574L6.39654 8.57508ZM0.616211 13.1096V14.1054H2.11621V13.1096H0.616211ZM4.36621 17.8554H14.3662V16.3554H4.36621V17.8554ZM18.1162 14.1054V13.1054H16.6162V14.1054H18.1162ZM14.3662 17.8554C16.4373 17.8554 18.1162 16.1765 18.1162 14.1054H16.6162C16.6162 15.348 15.6089 16.3554 14.3662 16.3554V17.8554ZM0.616211 14.1054C0.616211 16.1765 2.29514 17.8554 4.36621 17.8554V16.3554C3.12357 16.3554 2.11621 15.348 2.11621 14.1054H0.616211ZM8.61621 1.60541V12.6054H10.1162V1.60541H8.61621ZM12.3359 8.57508L8.83588 12.0751L9.89654 13.1357L13.3965 9.63574L12.3359 8.57508ZM9.89654 12.0751L6.39654 8.57508L5.33588 9.63574L8.83588 13.1357L9.89654 12.0751Z" fill="white"/>
</svg>
