<svg width="76" height="46" viewBox="0 0 76 46" fill="none" xmlns="http://www.w3.org/2000/svg">
<path fill-rule="evenodd" clip-rule="evenodd" d="M22.6025 45.5576C34.2079 45.5576 43.7676 36.7994 45.0327 25.532H45.1069L52.1666 34.2679H55.4869L48.2661 25.4675C52.36 24.984 54.6166 22.4051 54.6166 18.6657C54.6166 14.6039 51.9732 11.7027 46.9766 11.7027H42.1571C38.2547 4.95391 30.9589 0.413086 22.6025 0.413086C10.1362 0.413086 0.0302734 10.519 0.0302734 22.9854C0.0302734 35.4517 10.1362 45.5576 22.6025 45.5576ZM43.4221 14.2493C43.053 13.3708 42.63 12.5205 42.1571 11.7027H38.0472V34.2679H40.7228V25.532H45.0327C45.1207 24.7482 45.1686 23.9524 45.1742 23.1465H46.7187C50.2969 23.1465 51.9087 21.2123 51.9087 18.6657C51.9087 16.1513 50.2647 14.2493 46.7187 14.2493H43.4221ZM43.4221 14.2493C44.551 16.9365 45.1748 19.8881 45.1748 22.9854C45.1748 23.0391 45.1746 23.0928 45.1742 23.1465H40.7228V14.2493H43.4221ZM75.315 18.9236C75.315 14.7651 72.5104 11.7027 67.5139 11.7027H58.4555V34.2679H61.1311V26.2734H67.5139C72.5104 26.2734 75.315 23.082 75.315 18.9236ZM72.6072 18.9558C72.6072 21.5347 70.9954 23.7267 67.4172 23.7267H61.1311V14.2493H67.4172C70.9954 14.2493 72.6072 16.3769 72.6072 18.9558ZM33.5374 22.5341L21.5456 22.5341V24.8228H30.8296C30.4428 29.3036 27.058 32.1404 22.6094 32.1404C17.3227 32.1404 13.7445 28.1754 13.7445 23.0498C13.7445 17.7631 17.5161 13.8948 22.6094 13.8948C26.1876 13.8948 29.1211 15.829 30.475 18.7947L33.344 18.7947C31.7967 14.2816 27.7349 11.3481 22.6416 11.3481C16.0332 11.3481 11.0366 16.2803 11.0366 22.9854C11.0366 29.6905 16.001 34.6226 22.4482 34.6226C26.7034 34.6226 30.0559 32.4305 31.1842 28.9813L31.1842 34.268H33.5374V22.5341Z" fill="white"/>
</svg>
