<svg width="41" height="493" viewBox="0 0 41 493" fill="none" xmlns="http://www.w3.org/2000/svg">
  <path d="M19.8672 33L24.4402 20.675H26.4462L31.0872 33H29.2172L28.2482 30.331H22.5872L21.6352 33H19.8672ZM25.3922 22.426L23.1142 28.852H27.7042L25.3922 22.426ZM35.6968 33H34.1498V23.361H31.2938V22.307C33.0448 22.256 33.9798 22.001 34.6428 20.675H35.6968V33Z" fill="#35CB00"/>
  <path d="M17.8672 87.7L22.4402 75.375H24.4462L29.0872 87.7H27.2172L26.2482 85.031H20.5872L19.6352 87.7H17.8672ZM23.3922 77.126L21.1142 83.552H25.7042L23.3922 77.126ZM34.2238 75.154C36.5018 75.154 38.1338 76.293 38.1338 78.384C38.1338 81.24 35.1588 83.756 31.7078 86.255H38.4738V87.7H29.5998V86.306C33.9518 83.093 36.5018 80.781 36.5018 78.588C36.5018 77.296 35.6688 76.446 34.1898 76.446C32.8638 76.446 31.5888 77.177 31.5378 79.217H29.9398C29.8888 76.769 31.5888 75.154 34.2238 75.154Z" fill="#75D652"/>
  <path d="M17.8672 142.4L22.4402 130.075H24.4462L29.0872 142.4H27.2172L26.2482 139.731H20.5872L19.6352 142.4H17.8672ZM23.3922 131.826L21.1142 138.252H25.7042L23.3922 131.826ZM33.8838 141.329C35.5158 141.329 36.6718 140.496 36.6718 138.949C36.6718 137.181 35.0908 136.603 33.1188 136.603H32.8638V135.192H33.0678C35.2268 135.192 36.3488 134.597 36.3488 133.152C36.3488 131.843 35.2608 131.146 33.9518 131.146C32.3028 131.146 31.4018 132.132 31.2658 133.543H29.6678C29.8548 131.367 31.4018 129.854 33.9858 129.854C36.1108 129.854 37.9808 130.721 37.9808 132.982C37.9808 134.257 37.2668 135.311 35.9748 135.838C37.8108 136.433 38.3208 137.623 38.3208 138.932C38.3208 141.414 36.2298 142.621 33.8668 142.621C30.9428 142.621 29.6678 140.819 29.4808 138.762H31.0788C31.2658 140.275 32.1328 141.329 33.8838 141.329Z" fill="#B7DE86"/>
  <path d="M21.3292 197.1V184.775H25.7662C28.0612 184.775 30.1012 185.37 30.1012 187.818C30.1012 188.991 29.6082 190.045 28.7412 190.538C29.9142 191.031 30.6112 191.949 30.6112 193.462C30.6112 196.08 28.6562 197.1 26.1912 197.1H21.3292ZM23.0632 191.422V195.638H26.2082C27.9762 195.638 28.8262 194.89 28.8262 193.479C28.8262 192.034 27.9592 191.422 26.1062 191.422H23.0632ZM23.0632 186.237V190.045H26.0382C27.4662 190.045 28.3502 189.501 28.3502 188.056C28.3502 186.781 27.4152 186.237 26.0382 186.237H23.0632ZM35.8961 197.1H34.3491V187.461H31.4931V186.407C33.2441 186.356 34.1791 186.101 34.8421 184.775H35.8961V197.1Z" fill="#D6E15A"/>
  <path d="M19.3292 251.8V239.475H23.7662C26.0612 239.475 28.1012 240.07 28.1012 242.518C28.1012 243.691 27.6082 244.745 26.7412 245.238C27.9142 245.731 28.6112 246.649 28.6112 248.162C28.6112 250.78 26.6562 251.8 24.1912 251.8H19.3292ZM21.0632 246.122V250.338H24.2082C25.9762 250.338 26.8262 249.59 26.8262 248.179C26.8262 246.734 25.9592 246.122 24.1062 246.122H21.0632ZM21.0632 240.937V244.745H24.0382C25.4662 244.745 26.3502 244.201 26.3502 242.756C26.3502 241.481 25.4152 240.937 24.0382 240.937H21.0632ZM34.4231 239.254C36.7011 239.254 38.3331 240.393 38.3331 242.484C38.3331 245.34 35.3581 247.856 31.9071 250.355H38.6731V251.8H29.7991V250.406C34.1511 247.193 36.7011 244.881 36.7011 242.688C36.7011 241.396 35.8681 240.546 34.3891 240.546C33.0631 240.546 31.7881 241.277 31.7371 243.317H30.1391C30.0881 240.869 31.7881 239.254 34.4231 239.254Z" fill="#F2DC8D"/>
  <path d="M19.3292 306.5V294.175H23.7662C26.0612 294.175 28.1012 294.77 28.1012 297.218C28.1012 298.391 27.6082 299.445 26.7412 299.938C27.9142 300.431 28.6112 301.349 28.6112 302.862C28.6112 305.48 26.6562 306.5 24.1912 306.5H19.3292ZM21.0632 300.822V305.038H24.2082C25.9762 305.038 26.8262 304.29 26.8262 302.879C26.8262 301.434 25.9592 300.822 24.1062 300.822H21.0632ZM21.0632 295.637V299.445H24.0382C25.4662 299.445 26.3502 298.901 26.3502 297.456C26.3502 296.181 25.4152 295.637 24.0382 295.637H21.0632ZM34.0831 305.429C35.7151 305.429 36.8711 304.596 36.8711 303.049C36.8711 301.281 35.2901 300.703 33.3181 300.703H33.0631V299.292H33.2671C35.4261 299.292 36.5481 298.697 36.5481 297.252C36.5481 295.943 35.4601 295.246 34.1511 295.246C32.5021 295.246 31.6011 296.232 31.4651 297.643H29.8671C30.0541 295.467 31.6011 293.954 34.1851 293.954C36.3101 293.954 38.1801 294.821 38.1801 297.082C38.1801 298.357 37.4661 299.411 36.1741 299.938C38.0101 300.533 38.5201 301.723 38.5201 303.032C38.5201 305.514 36.4291 306.721 34.0661 306.721C31.1421 306.721 29.8671 304.919 29.6801 302.862H31.2781C31.4651 304.375 32.3321 305.429 34.0831 305.429Z" fill="#FFC700"/>
  <path d="M29.4822 357.273H31.1652C30.6212 359.993 28.4962 361.421 25.8272 361.421C22.2912 361.421 20.2342 358.752 20.2342 355.012C20.2342 351.204 22.4952 348.654 25.9632 348.654C28.5132 348.654 30.5532 350.167 31.0972 352.802H29.4142C29.0572 351.255 27.8332 350.116 25.8782 350.116C23.7022 350.116 22.0022 351.816 22.0022 355.012C22.0022 358.14 23.6342 359.959 25.9292 359.959C27.9012 359.959 29.0912 358.854 29.4822 357.273ZM36.3091 361.2H34.7621V351.561H31.9061V350.507C33.6571 350.456 34.5921 350.201 35.2551 348.875H36.3091V361.2Z" fill="#FF9B3F"/>
  <path d="M27.4822 411.973H29.1652C28.6212 414.693 26.4962 416.121 23.8272 416.121C20.2912 416.121 18.2342 413.452 18.2342 409.712C18.2342 405.904 20.4952 403.354 23.9632 403.354C26.5132 403.354 28.5532 404.867 29.0972 407.502H27.4142C27.0572 405.955 25.8332 404.816 23.8782 404.816C21.7022 404.816 20.0022 406.516 20.0022 409.712C20.0022 412.84 21.6342 414.659 23.9292 414.659C25.9012 414.659 27.0912 413.554 27.4822 411.973ZM34.8361 403.354C37.1141 403.354 38.7461 404.493 38.7461 406.584C38.7461 409.44 35.7711 411.956 32.3201 414.455H39.0861V415.9H30.2121V414.506C34.5641 411.293 37.1141 408.981 37.1141 406.788C37.1141 405.496 36.2811 404.646 34.8021 404.646C33.4761 404.646 32.2011 405.377 32.1501 407.417H30.5521C30.5011 404.969 32.2011 403.354 34.8361 403.354Z" fill="#FF632F"/>
  <path d="M27.4822 466.673H29.1652C28.6212 469.393 26.4962 470.821 23.8272 470.821C20.2912 470.821 18.2342 468.152 18.2342 464.412C18.2342 460.604 20.4952 458.054 23.9632 458.054C26.5132 458.054 28.5532 459.567 29.0972 462.202H27.4142C27.0572 460.655 25.8332 459.516 23.8782 459.516C21.7022 459.516 20.0022 461.216 20.0022 464.412C20.0022 467.54 21.6342 469.359 23.9292 469.359C25.9012 469.359 27.0912 468.254 27.4822 466.673ZM34.4961 469.529C36.1281 469.529 37.2841 468.696 37.2841 467.149C37.2841 465.381 35.7031 464.803 33.7311 464.803H33.4761V463.392H33.6801C35.8391 463.392 36.9611 462.797 36.9611 461.352C36.9611 460.043 35.8731 459.346 34.5641 459.346C32.9151 459.346 32.0141 460.332 31.8781 461.743H30.2801C30.4671 459.567 32.0141 458.054 34.5981 458.054C36.7231 458.054 38.5931 458.921 38.5931 461.182C38.5931 462.457 37.8791 463.511 36.5871 464.038C38.4231 464.633 38.9331 465.823 38.9331 467.132C38.9331 469.614 36.8421 470.821 34.4791 470.821C31.5551 470.821 30.2801 469.019 30.0931 466.962H31.6911C31.8781 468.475 32.7451 469.529 34.4961 469.529Z" fill="#FF3B29"/>
  <line x1="3.14453" y1="492.999" x2="3.14455" y2="438.317" stroke="#FF3B29" stroke-width="6"/>
  <line x1="3.14453" y1="438.317" x2="3.14455" y2="383.635" stroke="#FF632F" stroke-width="6"/>
  <line x1="3.14453" y1="383.636" x2="3.14455" y2="328.955" stroke="#FF9B3F" stroke-width="6"/>
  <line x1="3.14453" y1="328.953" x2="3.14455" y2="274.272" stroke="#FFC700" stroke-width="6"/>
  <line x1="3.14453" y1="274.272" x2="3.14455" y2="219.59" stroke="#F2DC8D" stroke-width="6"/>
  <line x1="3.14453" y1="219.591" x2="3.14455" y2="164.909" stroke="#D6E15A" stroke-width="6"/>
  <line x1="3.14453" y1="164.909" x2="3.14455" y2="110.228" stroke="#B7DE86" stroke-width="6"/>
  <line x1="3.14453" y1="110.227" x2="3.14455" y2="55.5452" stroke="#75D652" stroke-width="6"/>
  <line x1="3.14453" y1="55.5461" x2="3.14455" y2="0.864524" stroke="#35CB00" stroke-width="6"/>
</svg>
