<svg width="9" height="6" viewBox="0 0 9 6" fill="none" xmlns="http://www.w3.org/2000/svg">
    <path d="M4.49219 4.33252L3.96186 4.86285C4.25475 5.15574 4.72962 5.15574 5.02252 4.86285L4.49219 4.33252ZM8.52252 1.36285C8.81541 1.06996 8.81541 0.595083 8.52252 0.302189C8.22962 0.00929624 7.75475 0.00929624 7.46186 0.302189L8.52252 1.36285ZM1.52252 0.302189C1.22962 0.00929624 0.754751 0.00929624 0.461857 0.302189C0.168964 0.595083 0.168964 1.06996 0.461857 1.36285L1.52252 0.302189ZM7.46186 0.302189L3.96186 3.80219L5.02252 4.86285L8.52252 1.36285L7.46186 0.302189ZM5.02252 3.80219L1.52252 0.302189L0.461857 1.36285L3.96186 4.86285L5.02252 3.80219Z" fill="black"/>
</svg>
