<svg width="1280" height="1280" viewBox="0 0 1280 1280" fill="none" xmlns="http://www.w3.org/2000/svg">
<mask id="mask0_2009_69469" style="mask-type:alpha" maskUnits="userSpaceOnUse" x="100" y="100" width="1080" height="1080">
<circle cx="640" cy="640" r="539.433" fill="url(#paint0_radial_2009_69469)"/>
</mask>
<g mask="url(#mask0_2009_69469)">
<line x1="3.27835e-08" y1="1119.25" x2="1280" y2="1119.25" stroke="white" stroke-width="1.5"/>
<line x1="3.27835e-08" y1="1039.25" x2="1280" y2="1039.25" stroke="white" stroke-width="1.5"/>
<line x1="3.27835e-08" y1="959.249" x2="1280" y2="959.249" stroke="white" stroke-width="1.5"/>
<line x1="3.27835e-08" y1="879.249" x2="1280" y2="879.249" stroke="white" stroke-width="1.5"/>
<line x1="3.27835e-08" y1="799.249" x2="1280" y2="799.249" stroke="white" stroke-width="1.5"/>
<line x1="3.27835e-08" y1="719.249" x2="1280" y2="719.249" stroke="white" stroke-width="1.5"/>
<line x1="3.27835e-08" y1="639.249" x2="1280" y2="639.249" stroke="white" stroke-width="1.5"/>
<line x1="3.27835e-08" y1="559.249" x2="1280" y2="559.249" stroke="white" stroke-width="1.5"/>
<line x1="3.27835e-08" y1="479.249" x2="1280" y2="479.249" stroke="white" stroke-width="1.5"/>
<line x1="3.27835e-08" y1="399.248" x2="1280" y2="399.248" stroke="white" stroke-width="1.5"/>
<line x1="3.27835e-08" y1="319.248" x2="1280" y2="319.248" stroke="white" stroke-width="1.5"/>
<line x1="3.27835e-08" y1="239.248" x2="1280" y2="239.248" stroke="white" stroke-width="1.5"/>
<line x1="3.27835e-08" y1="159.248" x2="1280" y2="159.248" stroke="white" stroke-width="1.5"/>
<line x1="160.75" y1="3.27835e-08" x2="160.75" y2="1280" stroke="white" stroke-width="1.5"/>
<line x1="240.75" y1="3.27835e-08" x2="240.75" y2="1280" stroke="white" stroke-width="1.5"/>
<line x1="320.751" y1="3.27835e-08" x2="320.751" y2="1280" stroke="white" stroke-width="1.5"/>
<line x1="400.751" y1="3.27835e-08" x2="400.751" y2="1280" stroke="white" stroke-width="1.5"/>
<line x1="480.751" y1="3.27835e-08" x2="480.751" y2="1280" stroke="white" stroke-width="1.5"/>
<line x1="560.751" y1="3.27835e-08" x2="560.751" y2="1280" stroke="white" stroke-width="1.5"/>
<line x1="640.751" y1="3.27835e-08" x2="640.751" y2="1280" stroke="white" stroke-width="1.5"/>
<line x1="720.752" y1="3.27835e-08" x2="720.752" y2="1280" stroke="white" stroke-width="1.5"/>
<line x1="800.752" y1="3.27835e-08" x2="800.752" y2="1280" stroke="white" stroke-width="1.5"/>
<line x1="880.752" y1="3.27835e-08" x2="880.752" y2="1280" stroke="white" stroke-width="1.5"/>
<line x1="960.752" y1="3.27835e-08" x2="960.752" y2="1280" stroke="white" stroke-width="1.5"/>
<line x1="1040.75" y1="3.27835e-08" x2="1040.75" y2="1280" stroke="white" stroke-width="1.5"/>
<line x1="1120.75" y1="3.27835e-08" x2="1120.75" y2="1280" stroke="white" stroke-width="1.5"/>
</g>
<defs>
<radialGradient id="paint0_radial_2009_69469" cx="0" cy="0" r="1" gradientUnits="userSpaceOnUse" gradientTransform="translate(640 640) rotate(90) scale(539.433)">
<stop stop-color="white"/>
<stop offset="1" stop-color="white" stop-opacity="0"/>
</radialGradient>
</defs>
</svg>
