<svg width="156" height="181" viewBox="0 0 156 181" fill="none" xmlns="http://www.w3.org/2000/svg">
  <path d="M1.57749 18.0869V4.996H6.37153C7.3005 4.996 8.06968 5.14941 8.67906 5.45623C9.28843 5.75879 9.7444 6.17001 10.047 6.6899C10.3495 7.20552 10.5008 7.7872 10.5008 8.43492C10.5008 8.98038 10.4006 9.44061 10.2004 9.81561C10.0001 10.1863 9.73161 10.4846 9.39496 10.7105C9.06258 10.9321 8.6961 11.094 8.29553 11.1963V11.3241C8.73019 11.3454 9.1542 11.4861 9.56755 11.746C9.98516 12.0017 10.3303 12.366 10.6031 12.839C10.8758 13.3121 11.0122 13.8873 11.0122 14.5649C11.0122 15.2339 10.8545 15.8348 10.5391 16.3675C10.2281 16.8959 9.74653 17.3156 9.09454 17.6267C8.44255 17.9335 7.60945 18.0869 6.59525 18.0869H1.57749ZM3.55263 16.393H6.40349C7.34951 16.393 8.02707 16.2098 8.43616 15.8433C8.84525 15.4768 9.04979 15.0187 9.04979 14.469C9.04979 14.0557 8.94539 13.6764 8.73658 13.3312C8.52778 12.9861 8.22948 12.7112 7.8417 12.5067C7.45817 12.3021 7.00221 12.1998 6.4738 12.1998H3.55263V16.393ZM3.55263 10.6594H6.19894C6.64212 10.6594 7.04056 10.5741 7.39425 10.4037C7.75221 10.2332 8.03559 9.99458 8.2444 9.68777C8.45746 9.37669 8.564 9.01021 8.564 8.58833C8.564 8.04714 8.37437 7.59331 7.99511 7.22683C7.61585 6.86035 7.03417 6.67711 6.25008 6.67711H3.55263V10.6594ZM19.4209 14.0152V8.26873H21.3385V18.0869H19.4592V16.3866H19.357C19.1311 16.9108 18.7689 17.3476 18.2703 17.697C17.776 18.0422 17.1602 18.2148 16.423 18.2148C15.7923 18.2148 15.2341 18.0763 14.7483 17.7993C14.2668 17.518 13.8875 17.1025 13.6105 16.5528C13.3378 16.0031 13.2014 15.3234 13.2014 14.5138V8.26873H15.1126V14.2836C15.1126 14.9527 15.298 15.4854 15.6688 15.8817C16.0395 16.278 16.521 16.4761 17.1134 16.4761C17.4713 16.4761 17.8271 16.3866 18.1808 16.2077C18.5388 16.0287 18.8349 15.7581 19.0693 15.3959C19.308 15.0336 19.4251 14.5734 19.4209 14.0152ZM23.9065 18.0869V8.26873H25.8177V18.0869H23.9065ZM24.8717 6.75382C24.5393 6.75382 24.2538 6.64302 24.0152 6.42143C23.7808 6.19558 23.6636 5.92711 23.6636 5.61603C23.6636 5.30069 23.7808 5.03223 24.0152 4.81063C24.2538 4.58478 24.5393 4.47186 24.8717 4.47186C25.2041 4.47186 25.4875 4.58478 25.7218 4.81063C25.9605 5.03223 26.0798 5.30069 26.0798 5.61603C26.0798 5.92711 25.9605 6.19558 25.7218 6.42143C25.4875 6.64302 25.2041 6.75382 24.8717 6.75382ZM30.3001 4.996V18.0869H28.3889V4.996H30.3001ZM36.5468 18.2787C35.7542 18.2787 35.0468 18.0763 34.4246 17.6714C33.8067 17.2623 33.3209 16.6807 32.9672 15.9264C32.6178 15.1679 32.4431 14.2581 32.4431 13.197C32.4431 12.1359 32.6199 11.2282 32.9736 10.474C33.3316 9.71973 33.8216 9.14231 34.4438 8.74174C35.066 8.34118 35.7712 8.14089 36.5596 8.14089C37.1689 8.14089 37.659 8.24316 38.0297 8.44771C38.4047 8.64799 38.6945 8.88237 38.899 9.15083C39.1079 9.4193 39.2698 9.65581 39.3848 9.86035H39.4999V4.996H41.4111V18.0869H39.5446V16.5592H39.3848C39.2698 16.768 39.1036 17.0067 38.8863 17.2751C38.6732 17.5436 38.3792 17.778 38.0042 17.9782C37.6292 18.1785 37.1434 18.2787 36.5468 18.2787ZM36.9687 16.6487C37.5184 16.6487 37.9829 16.5038 38.3621 16.214C38.7456 15.92 39.0354 15.5131 39.2314 14.9932C39.4317 14.4733 39.5319 13.8682 39.5319 13.1778C39.5319 12.496 39.4338 11.8994 39.2378 11.3881C39.0418 10.8767 38.7542 10.4782 38.3749 10.1927C37.9956 9.90723 37.5269 9.76447 36.9687 9.76447C36.3934 9.76447 35.914 9.91362 35.5304 10.2119C35.1469 10.5102 34.8571 10.9172 34.6611 11.4328C34.4694 11.9484 34.3735 12.5301 34.3735 13.1778C34.3735 13.8341 34.4715 14.4243 34.6675 14.9484C34.8635 15.4726 35.1533 15.8881 35.5368 16.1949C35.9246 16.4974 36.4019 16.6487 36.9687 16.6487ZM55.1221 14.0152V8.26873H57.0397V18.0869H55.1604V16.3866H55.0581C54.8323 16.9108 54.4701 17.3476 53.9715 17.697C53.4772 18.0422 52.8614 18.2148 52.1242 18.2148C51.4935 18.2148 50.9353 18.0763 50.4495 17.7993C49.9679 17.518 49.5887 17.1025 49.3117 16.5528C49.039 16.0031 48.9026 15.3234 48.9026 14.5138V8.26873H50.8138V14.2836C50.8138 14.9527 50.9992 15.4854 51.3699 15.8817C51.7407 16.278 52.2222 16.4761 52.8145 16.4761C53.1725 16.4761 53.5283 16.3866 53.882 16.2077C54.24 16.0287 54.5361 15.7581 54.7705 15.3959C55.0091 15.0336 55.1263 14.5734 55.1221 14.0152ZM59.6077 21.7687V8.26873H61.4742V9.86035H61.634C61.7448 9.65581 61.9046 9.4193 62.1134 9.15083C62.3222 8.88237 62.6119 8.64799 62.9827 8.44771C63.3534 8.24316 63.8435 8.14089 64.4528 8.14089C65.2455 8.14089 65.9528 8.34118 66.575 8.74174C67.1972 9.14231 67.6851 9.71973 68.0388 10.474C68.3967 11.2282 68.5757 12.1359 68.5757 13.197C68.5757 14.2581 68.3989 15.1679 68.0452 15.9264C67.6915 16.6807 67.2057 17.2623 66.5878 17.6714C65.9699 18.0763 65.2646 18.2787 64.472 18.2787C63.8754 18.2787 63.3875 18.1785 63.0082 17.9782C62.6332 17.778 62.3392 17.5436 62.1261 17.2751C61.9131 17.0067 61.749 16.768 61.634 16.5592H61.5189V21.7687H59.6077ZM61.4805 13.1778C61.4805 13.8682 61.5807 14.4733 61.781 14.9932C61.9813 15.5131 62.271 15.92 62.6503 16.214C63.0296 16.5038 63.494 16.6487 64.0438 16.6487C64.6148 16.6487 65.0921 16.4974 65.4756 16.1949C65.8591 15.8881 66.1489 15.4726 66.3449 14.9484C66.5452 14.4243 66.6453 13.8341 66.6453 13.1778C66.6453 12.5301 66.5473 11.9484 66.3513 11.4328C66.1595 10.9172 65.8698 10.5102 65.482 10.2119C65.0984 9.91362 64.619 9.76447 64.0438 9.76447C63.4898 9.76447 63.021 9.90723 62.6375 10.1927C62.2582 10.4782 61.9706 10.8767 61.7746 11.3881C61.5786 11.8994 61.4805 12.496 61.4805 13.1778ZM78.338 18.3042C77.7158 18.3042 77.1533 18.1892 76.6505 17.9591C76.1476 17.7247 75.7492 17.3859 75.4552 16.9427C75.1654 16.4996 75.0205 15.9562 75.0205 15.3128C75.0205 14.7588 75.127 14.3028 75.3401 13.9449C75.5532 13.5869 75.8408 13.3035 76.203 13.0947C76.5652 12.8859 76.9701 12.7282 77.4175 12.6217C77.865 12.5152 78.3209 12.4342 78.7854 12.3788C79.3735 12.3106 79.8508 12.2552 80.2172 12.2126C80.5837 12.1657 80.85 12.0912 81.0162 11.9889C81.1824 11.8866 81.2655 11.7204 81.2655 11.4903V11.4456C81.2655 10.8873 81.1079 10.4548 80.7925 10.148C80.4814 9.84118 80.0169 9.68777 79.399 9.68777C78.7556 9.68777 78.2485 9.83052 77.8777 10.116C77.5113 10.3973 77.2577 10.7105 77.1171 11.0557L75.3209 10.6466C75.534 10.05 75.8451 9.56845 76.2542 9.20197C76.6675 8.83123 77.1427 8.56277 77.6796 8.39657C78.2165 8.22612 78.7812 8.14089 79.3735 8.14089C79.7655 8.14089 80.181 8.18777 80.6199 8.28152C81.0631 8.371 81.4765 8.5372 81.86 8.7801C82.2478 9.02299 82.5652 9.37029 82.8124 9.822C83.0596 10.2694 83.1831 10.8511 83.1831 11.567V18.0869H81.3167V16.7446H81.24C81.1164 16.9917 80.931 17.2346 80.6838 17.4733C80.4367 17.7119 80.1192 17.9101 79.7314 18.0677C79.3437 18.2254 78.8792 18.3042 78.338 18.3042ZM78.7535 16.7702C79.2819 16.7702 79.7336 16.6657 80.1086 16.4569C80.4878 16.2481 80.7755 15.9754 80.9715 15.6388C81.1718 15.2979 81.2719 14.9335 81.2719 14.5457V13.2801C81.2037 13.3483 81.0716 13.4122 80.8756 13.4719C80.6838 13.5273 80.4644 13.5763 80.2172 13.6189C79.9701 13.6572 79.7293 13.6934 79.4949 13.7275C79.2606 13.7574 79.0645 13.7829 78.9069 13.8042C78.5361 13.8511 78.1973 13.93 77.8905 14.0407C77.588 14.1515 77.3451 14.3113 77.1618 14.5202C76.9829 14.7247 76.8934 14.9974 76.8934 15.3383C76.8934 15.8113 77.0681 16.1693 77.4175 16.4122C77.7669 16.6508 78.2123 16.7702 78.7535 16.7702ZM85.7288 18.0869V8.26873H87.5761V9.82839H87.6783C87.8573 9.29998 88.1727 8.8845 88.6244 8.58194C89.0803 8.27512 89.596 8.12171 90.1712 8.12171C90.2906 8.12171 90.4312 8.12598 90.5931 8.1345C90.7593 8.14302 90.8893 8.15367 90.983 8.16646V9.99458C90.9063 9.97328 90.77 9.94984 90.5739 9.92427C90.3779 9.89444 90.1819 9.87953 89.9859 9.87953C89.5342 9.87953 89.1315 9.97541 88.7778 10.1672C88.4283 10.3547 88.1514 10.6167 87.9468 10.9534C87.7423 11.2858 87.64 11.665 87.64 12.0912V18.0869H85.7288ZM96.5169 18.2851C95.5496 18.2851 94.7165 18.0784 94.0177 17.665C93.3231 17.2474 92.7861 16.6615 92.4069 15.9072C92.0319 15.1487 91.8444 14.2602 91.8444 13.2417C91.8444 12.2361 92.0319 11.3497 92.4069 10.5827C92.7861 9.81561 93.3145 9.21689 93.9921 8.78649C94.6739 8.35609 95.4708 8.14089 96.3827 8.14089C96.9367 8.14089 97.4736 8.23251 97.9935 8.41575C98.5134 8.59899 98.98 8.88663 99.3934 9.27868C99.8067 9.67072 100.133 10.18 100.371 10.8064C100.61 11.4285 100.729 12.1849 100.729 13.0756V13.7531H92.9246V12.3213H98.8564C98.8564 11.8184 98.7542 11.3731 98.5496 10.9854C98.3451 10.5933 98.0574 10.2844 97.6867 10.0585C97.3202 9.83265 96.8898 9.71973 96.3955 9.71973C95.8586 9.71973 95.3898 9.85183 94.9892 10.116C94.5929 10.376 94.2861 10.7169 94.0688 11.1388C93.8557 11.5564 93.7492 12.0102 93.7492 12.5003V13.6189C93.7492 14.2751 93.8642 14.8334 94.0944 15.2936C94.3287 15.7538 94.6547 16.1054 95.0723 16.3483C95.49 16.5869 95.9779 16.7062 96.5361 16.7062C96.8983 16.7062 97.2286 16.6551 97.5269 16.5528C97.8252 16.4463 98.083 16.2886 98.3003 16.0798C98.5177 15.871 98.6838 15.6132 98.7989 15.3064L100.608 15.6324C100.463 16.165 100.203 16.6317 99.828 17.0322C99.4573 17.4285 98.9907 17.7375 98.4282 17.9591C97.8699 18.1764 97.2329 18.2851 96.5169 18.2851ZM105.707 18.3042C105.085 18.3042 104.522 18.1892 104.02 17.9591C103.517 17.7247 103.118 17.3859 102.824 16.9427C102.535 16.4996 102.39 15.9562 102.39 15.3128C102.39 14.7588 102.496 14.3028 102.709 13.9449C102.922 13.5869 103.21 13.3035 103.572 13.0947C103.934 12.8859 104.339 12.7282 104.787 12.6217C105.234 12.5152 105.69 12.4342 106.155 12.3788C106.743 12.3106 107.22 12.2552 107.586 12.2126C107.953 12.1657 108.219 12.0912 108.385 11.9889C108.552 11.8866 108.635 11.7204 108.635 11.4903V11.4456C108.635 10.8873 108.477 10.4548 108.162 10.148C107.851 9.84118 107.386 9.68777 106.768 9.68777C106.125 9.68777 105.618 9.83052 105.247 10.116C104.88 10.3973 104.627 10.7105 104.486 11.0557L102.69 10.6466C102.903 10.05 103.214 9.56845 103.623 9.20197C104.037 8.83123 104.512 8.56277 105.049 8.39657C105.586 8.22612 106.15 8.14089 106.743 8.14089C107.135 8.14089 107.55 8.18777 107.989 8.28152C108.432 8.371 108.846 8.5372 109.229 8.7801C109.617 9.02299 109.934 9.37029 110.182 9.822C110.429 10.2694 110.552 10.8511 110.552 11.567V18.0869H108.686V16.7446H108.609C108.486 16.9917 108.3 17.2346 108.053 17.4733C107.806 17.7119 107.488 17.9101 107.101 18.0677C106.713 18.2254 106.248 18.3042 105.707 18.3042ZM106.123 16.7702C106.651 16.7702 107.103 16.6657 107.478 16.4569C107.857 16.2481 108.145 15.9754 108.341 15.6388C108.541 15.2979 108.641 14.9335 108.641 14.5457V13.2801C108.573 13.3483 108.441 13.4122 108.245 13.4719C108.053 13.5273 107.834 13.5763 107.586 13.6189C107.339 13.6572 107.098 13.6934 106.864 13.7275C106.63 13.7574 106.434 13.7829 106.276 13.8042C105.905 13.8511 105.566 13.93 105.26 14.0407C104.957 14.1515 104.714 14.3113 104.531 14.5202C104.352 14.7247 104.263 14.9974 104.263 15.3383C104.263 15.8113 104.437 16.1693 104.787 16.4122C105.136 16.6508 105.581 16.7702 106.123 16.7702ZM120.455 10.6657L118.723 10.9726C118.65 10.751 118.535 10.54 118.378 10.3398C118.224 10.1395 118.016 9.97541 117.751 9.84757C117.487 9.71973 117.157 9.65581 116.761 9.65581C116.219 9.65581 115.768 9.77725 115.405 10.0202C115.043 10.2588 114.862 10.5677 114.862 10.947C114.862 11.2751 114.984 11.5393 115.226 11.7396C115.469 11.9399 115.861 12.104 116.403 12.2318L117.962 12.5898C118.866 12.7986 119.539 13.1203 119.982 13.555C120.425 13.9896 120.647 14.5542 120.647 15.2488C120.647 15.8369 120.476 16.3611 120.136 16.8213C119.799 17.2773 119.328 17.6352 118.723 17.8952C118.122 18.1551 117.425 18.2851 116.633 18.2851C115.533 18.2851 114.636 18.0507 113.942 17.5819C113.247 17.1089 112.821 16.4378 112.663 15.5684L114.511 15.2872C114.626 15.7687 114.862 16.1331 115.22 16.3802C115.578 16.6231 116.045 16.7446 116.62 16.7446C117.246 16.7446 117.747 16.6146 118.122 16.3547C118.497 16.0905 118.685 15.7687 118.685 15.3895C118.685 15.0827 118.57 14.8248 118.339 14.616C118.114 14.4072 117.766 14.2496 117.297 14.143L115.636 13.7787C114.719 13.5699 114.042 13.2375 113.603 12.7815C113.168 12.3256 112.951 11.7481 112.951 11.0493C112.951 10.4697 113.113 9.96262 113.437 9.52796C113.761 9.09331 114.208 8.75453 114.779 8.51163C115.35 8.26447 116.004 8.14089 116.741 8.14089C117.802 8.14089 118.638 8.371 119.247 8.83123C119.856 9.2872 120.259 9.8987 120.455 10.6657ZM124.691 16.496L124.6 17.1096C124.535 17.5415 124.437 18.0036 124.304 18.496C124.176 18.9884 124.041 19.4524 123.901 19.8881C123.761 20.3237 123.645 20.6702 123.554 20.9278H122.532C122.581 20.6854 122.645 20.3653 122.725 19.9676C122.804 19.5699 122.884 19.1248 122.964 18.6324C123.047 18.1437 123.115 17.6437 123.168 17.1324L123.236 16.496H124.691Z" fill="black"/>
  <path d="M7.54837 30.3142L6.34383 30.6551C6.26807 30.4543 6.15633 30.2593 6.0086 30.0699C5.86466 29.8767 5.66769 29.7176 5.41769 29.5926C5.16769 29.4676 4.84762 29.4051 4.45746 29.4051C3.92337 29.4051 3.4783 29.5282 3.12224 29.7744C2.76996 30.0168 2.59383 30.3256 2.59383 30.7006C2.59383 31.0339 2.71504 31.2971 2.95746 31.4903C3.19989 31.6835 3.57868 31.8445 4.09383 31.9733L5.38928 32.2915C6.16959 32.4809 6.75102 32.7706 7.1336 33.1608C7.51618 33.5471 7.70746 34.0452 7.70746 34.6551C7.70746 35.1551 7.56352 35.6021 7.27565 35.996C6.99156 36.3899 6.59383 36.7006 6.08246 36.9278C5.5711 37.1551 4.9764 37.2687 4.29837 37.2687C3.40822 37.2687 2.67148 37.0756 2.08815 36.6892C1.50481 36.3028 1.13549 35.7384 0.980191 34.996L2.25292 34.6778C2.37413 35.1475 2.6033 35.4998 2.94042 35.7346C3.28133 35.9695 3.7264 36.0869 4.27565 36.0869C4.90065 36.0869 5.39686 35.9543 5.76428 35.6892C6.13549 35.4202 6.3211 35.0983 6.3211 34.7233C6.3211 34.4202 6.21504 34.1665 6.00292 33.9619C5.7908 33.7536 5.46504 33.5983 5.02565 33.496L3.5711 33.1551C2.77186 32.9657 2.18474 32.6721 1.80974 32.2744C1.43852 31.8729 1.25292 31.371 1.25292 30.7687C1.25292 30.2763 1.39118 29.8407 1.66769 29.4619C1.94799 29.0831 2.32868 28.7858 2.80974 28.5699C3.29459 28.354 3.84383 28.246 4.45746 28.246C5.3211 28.246 5.99913 28.4354 6.49156 28.8142C6.98777 29.193 7.34004 29.693 7.54837 30.3142ZM15.6805 40.3596V35.746H15.5668C15.4684 35.9051 15.3282 36.1059 15.1464 36.3483C14.9646 36.5869 14.7051 36.8009 14.368 36.9903C14.0309 37.1759 13.582 37.2687 13.0214 37.2687C12.2941 37.2687 11.6521 37.085 11.0952 36.7176C10.5384 36.3464 10.1028 35.8237 9.78843 35.1494C9.47404 34.4714 9.31684 33.6702 9.31684 32.746C9.31684 31.8293 9.47404 31.0339 9.78843 30.3596C10.1028 29.6854 10.5403 29.1646 11.1009 28.7971C11.6615 28.4297 12.3093 28.246 13.0441 28.246C13.6123 28.246 14.0612 28.3407 14.3907 28.5301C14.724 28.7157 14.9778 28.9278 15.1521 29.1665C15.3301 29.4013 15.4684 29.5945 15.5668 29.746H15.7259V28.3596H17.0214V40.3596H15.6805ZM13.2032 36.0642C13.7411 36.0642 14.1956 35.924 14.5668 35.6437C14.9381 35.3596 15.2202 34.9676 15.4134 34.4676C15.6066 33.9638 15.7032 33.3824 15.7032 32.7233C15.7032 32.0718 15.6085 31.5017 15.4191 31.0131C15.2297 30.5206 14.9494 30.1381 14.5782 29.8653C14.207 29.5888 13.7487 29.4506 13.2032 29.4506C12.635 29.4506 12.1615 29.5964 11.7827 29.8881C11.4077 30.1759 11.1256 30.568 10.9362 31.0642C10.7506 31.5566 10.6577 32.1096 10.6577 32.7233C10.6577 33.3445 10.7524 33.9089 10.9418 34.4165C11.135 34.9202 11.4191 35.3218 11.7941 35.621C12.1729 35.9165 12.6426 36.0642 13.2032 36.0642ZM24.9759 33.5187V28.3596H26.3168V37.0869H24.9759V35.6096H24.885C24.6805 36.0528 24.3623 36.4297 23.9305 36.7403C23.4987 37.0471 22.9532 37.2006 22.2941 37.2006C21.7487 37.2006 21.2638 37.0812 20.8396 36.8426C20.4153 36.6002 20.082 36.2365 19.8396 35.7517C19.5971 35.2631 19.4759 34.6475 19.4759 33.9051V28.3596H20.8168V33.8142C20.8168 34.4506 20.9949 34.9581 21.3509 35.3369C21.7108 35.7157 22.1691 35.9051 22.7259 35.9051C23.0593 35.9051 23.3983 35.8199 23.743 35.6494C24.0915 35.479 24.3831 35.2176 24.618 34.8653C24.8566 34.5131 24.9759 34.0642 24.9759 33.5187ZM31.341 37.2915C30.788 37.2915 30.2861 37.1873 29.8353 36.979C29.3845 36.7668 29.0266 36.4619 28.7614 36.0642C28.4963 35.6627 28.3637 35.1778 28.3637 34.6096C28.3637 34.1096 28.4622 33.7043 28.6592 33.3937C28.8561 33.0793 29.1194 32.8331 29.4489 32.6551C29.7785 32.4771 30.1421 32.3445 30.5399 32.2574C30.9414 32.1665 31.3448 32.0945 31.7501 32.0415C32.2804 31.9733 32.7103 31.9221 33.0399 31.8881C33.3732 31.8502 33.6156 31.7877 33.7671 31.7006C33.9224 31.6134 34.0001 31.4619 34.0001 31.246V31.2006C34.0001 30.6399 33.8467 30.2043 33.5399 29.8937C33.2368 29.5831 32.7766 29.4278 32.1592 29.4278C31.519 29.4278 31.0171 29.568 30.6535 29.8483C30.2899 30.1286 30.0342 30.4278 29.8864 30.746L28.6137 30.2915C28.841 29.7612 29.144 29.3483 29.5228 29.0528C29.9054 28.7536 30.322 28.5452 30.7728 28.4278C31.2274 28.3066 31.6743 28.246 32.1137 28.246C32.394 28.246 32.716 28.2801 33.0796 28.3483C33.447 28.4127 33.8012 28.5471 34.1421 28.7517C34.4868 28.9562 34.7728 29.2649 35.0001 29.6778C35.2274 30.0907 35.341 30.6437 35.341 31.3369V37.0869H34.0001V35.9051H33.9319C33.841 36.0945 33.6895 36.2971 33.4774 36.5131C33.2652 36.729 32.983 36.9127 32.6308 37.0642C32.2785 37.2157 31.8486 37.2915 31.341 37.2915ZM31.5455 36.0869C32.0758 36.0869 32.5228 35.9827 32.8864 35.7744C33.2539 35.5661 33.5304 35.2971 33.716 34.9676C33.9054 34.6381 34.0001 34.2915 34.0001 33.9278V32.7006C33.9433 32.7687 33.8183 32.8312 33.6251 32.8881C33.4357 32.9411 33.216 32.9884 32.966 33.0301C32.7198 33.068 32.4792 33.1021 32.2444 33.1324C32.0133 33.1589 31.8258 33.1816 31.6819 33.2006C31.3334 33.246 31.0077 33.3199 30.7046 33.4221C30.4054 33.5206 30.163 33.6702 29.9774 33.871C29.7955 34.068 29.7046 34.3369 29.7046 34.6778C29.7046 35.1437 29.877 35.496 30.2217 35.7346C30.5702 35.9695 31.0114 36.0869 31.5455 36.0869ZM37.7884 37.0869V28.3596H39.0839V29.6778H39.1748C39.3339 29.246 39.6218 28.8956 40.0384 28.6267C40.4551 28.3577 40.9248 28.2233 41.4475 28.2233C41.546 28.2233 41.6691 28.2252 41.8168 28.229C41.9646 28.2327 42.0763 28.2384 42.1521 28.246V29.6096C42.1066 29.5983 42.0024 29.5812 41.8396 29.5585C41.6805 29.532 41.5119 29.5187 41.3339 29.5187C40.9096 29.5187 40.5309 29.6077 40.1975 29.7858C39.868 29.96 39.6066 30.2024 39.4134 30.5131C39.224 30.8199 39.1293 31.1702 39.1293 31.5642V37.0869H37.7884ZM47.135 37.2687C46.2941 37.2687 45.5687 37.0831 44.9589 36.7119C44.3528 36.3369 43.885 35.8142 43.5555 35.1437C43.2297 34.4695 43.0668 33.6854 43.0668 32.7915C43.0668 31.8975 43.2297 31.1096 43.5555 30.4278C43.885 29.7422 44.3434 29.2081 44.9305 28.8256C45.5214 28.4392 46.2108 28.246 46.9987 28.246C47.4532 28.246 47.9021 28.3218 48.3452 28.4733C48.7884 28.6248 49.1918 28.871 49.5555 29.2119C49.9191 29.549 50.2089 29.996 50.4248 30.5528C50.6407 31.1096 50.7487 31.7952 50.7487 32.6096V33.1778H44.0214V32.0187H49.385C49.385 31.5263 49.2865 31.0869 49.0896 30.7006C48.8964 30.3142 48.6199 30.0093 48.26 29.7858C47.904 29.5623 47.4835 29.4506 46.9987 29.4506C46.4646 29.4506 46.0024 29.5831 45.6123 29.8483C45.2259 30.1096 44.9286 30.4506 44.7202 30.871C44.5119 31.2915 44.4077 31.7422 44.4077 32.2233V32.996C44.4077 33.6551 44.5214 34.2138 44.7487 34.6721C44.9797 35.1267 45.2998 35.4733 45.7089 35.7119C46.118 35.9468 46.5934 36.0642 47.135 36.0642C47.4873 36.0642 47.8055 36.0149 48.0896 35.9165C48.3774 35.8142 48.6256 35.6627 48.8339 35.4619C49.0422 35.2574 49.2032 35.0036 49.3168 34.7006L50.6123 35.0642C50.4759 35.5036 50.2468 35.8899 49.9248 36.2233C49.6028 36.5528 49.2051 36.8104 48.7316 36.996C48.2581 37.1778 47.7259 37.2687 47.135 37.2687ZM57.2884 37.0869V28.3596H58.5839V29.7233H58.6975C58.8793 29.2574 59.1729 28.8956 59.5782 28.6381C59.9835 28.3767 60.4702 28.246 61.0384 28.246C61.6142 28.246 62.0934 28.3767 62.4759 28.6381C62.8623 28.8956 63.1634 29.2574 63.3793 29.7233H63.4702C63.6937 29.2725 64.029 28.9146 64.4759 28.6494C64.9229 28.3805 65.4589 28.246 66.0839 28.246C66.8642 28.246 67.5024 28.4903 67.9987 28.979C68.4949 29.4638 68.743 30.2195 68.743 31.246V37.0869H67.4021V31.246C67.4021 30.6021 67.2259 30.1418 66.8737 29.8653C66.5214 29.5888 66.1066 29.4506 65.6293 29.4506C65.0157 29.4506 64.5403 29.6362 64.2032 30.0074C63.8661 30.3748 63.6975 30.8407 63.6975 31.4051V37.0869H62.3339V31.1096C62.3339 30.6134 62.1729 30.2138 61.8509 29.9108C61.529 29.604 61.1142 29.4506 60.6066 29.4506C60.2581 29.4506 59.9324 29.5434 59.6293 29.729C59.3301 29.9146 59.0877 30.1721 58.9021 30.5017C58.7202 30.8274 58.6293 31.2043 58.6293 31.6324V37.0869H57.2884ZM74.8538 37.2687C74.0129 37.2687 73.2875 37.0831 72.6776 36.7119C72.0716 36.3369 71.6038 35.8142 71.2742 35.1437C70.9485 34.4695 70.7856 33.6854 70.7856 32.7915C70.7856 31.8975 70.9485 31.1096 71.2742 30.4278C71.6038 29.7422 72.0621 29.2081 72.6492 28.8256C73.2401 28.4392 73.9295 28.246 74.7174 28.246C75.172 28.246 75.6208 28.3218 76.064 28.4733C76.5072 28.6248 76.9106 28.871 77.2742 29.2119C77.6379 29.549 77.9276 29.996 78.1435 30.5528C78.3595 31.1096 78.4674 31.7952 78.4674 32.6096V33.1778H71.7401V32.0187H77.1038C77.1038 31.5263 77.0053 31.0869 76.8083 30.7006C76.6151 30.3142 76.3386 30.0093 75.9788 29.7858C75.6227 29.5623 75.2023 29.4506 74.7174 29.4506C74.1833 29.4506 73.7212 29.5831 73.331 29.8483C72.9447 30.1096 72.6473 30.4506 72.439 30.871C72.2307 31.2915 72.1265 31.7422 72.1265 32.2233V32.996C72.1265 33.6551 72.2401 34.2138 72.4674 34.6721C72.6985 35.1267 73.0185 35.4733 73.4276 35.7119C73.8367 35.9468 74.3121 36.0642 74.8538 36.0642C75.206 36.0642 75.5242 36.0149 75.8083 35.9165C76.0962 35.8142 76.3443 35.6627 76.5526 35.4619C76.761 35.2574 76.922 35.0036 77.0356 34.7006L78.331 35.0642C78.1947 35.5036 77.9655 35.8899 77.6435 36.2233C77.3216 36.5528 76.9238 36.8104 76.4504 36.996C75.9769 37.1778 75.4447 37.2687 74.8538 37.2687ZM84.3026 28.3596V29.496H79.7799V28.3596H84.3026ZM81.0981 26.2687H82.439V34.5869C82.439 34.9657 82.4939 35.2498 82.6038 35.4392C82.7174 35.6248 82.8613 35.7498 83.0356 35.8142C83.2136 35.8748 83.4011 35.9051 83.5981 35.9051C83.7458 35.9051 83.867 35.8975 83.9617 35.8824C84.0564 35.8634 84.1322 35.8483 84.189 35.8369L84.4617 37.0415C84.3708 37.0756 84.2439 37.1096 84.081 37.1437C83.9182 37.1816 83.7117 37.2006 83.4617 37.2006C83.0829 37.2006 82.7117 37.1191 82.3481 36.9562C81.9882 36.7934 81.689 36.5452 81.4504 36.2119C81.2155 35.8786 81.0981 35.4581 81.0981 34.9506V26.2687ZM89.885 37.2687C89.0441 37.2687 88.3187 37.0831 87.7089 36.7119C87.1028 36.3369 86.635 35.8142 86.3055 35.1437C85.9797 34.4695 85.8168 33.6854 85.8168 32.7915C85.8168 31.8975 85.9797 31.1096 86.3055 30.4278C86.635 29.7422 87.0934 29.2081 87.6805 28.8256C88.2714 28.4392 88.9608 28.246 89.7487 28.246C90.2032 28.246 90.6521 28.3218 91.0952 28.4733C91.5384 28.6248 91.9418 28.871 92.3055 29.2119C92.6691 29.549 92.9589 29.996 93.1748 30.5528C93.3907 31.1096 93.4987 31.7952 93.4987 32.6096V33.1778H86.7714V32.0187H92.135C92.135 31.5263 92.0365 31.0869 91.8396 30.7006C91.6464 30.3142 91.3699 30.0093 91.01 29.7858C90.654 29.5623 90.2335 29.4506 89.7487 29.4506C89.2146 29.4506 88.7524 29.5831 88.3623 29.8483C87.9759 30.1096 87.6786 30.4506 87.4702 30.871C87.2619 31.2915 87.1577 31.7422 87.1577 32.2233V32.996C87.1577 33.6551 87.2714 34.2138 87.4987 34.6721C87.7297 35.1267 88.0498 35.4733 88.4589 35.7119C88.868 35.9468 89.3434 36.0642 89.885 36.0642C90.2373 36.0642 90.5555 36.0149 90.8396 35.9165C91.1274 35.8142 91.3756 35.6627 91.5839 35.4619C91.7922 35.2574 91.9532 35.0036 92.0668 34.7006L93.3623 35.0642C93.2259 35.5036 92.9968 35.8899 92.6748 36.2233C92.3528 36.5528 91.9551 36.8104 91.4816 36.996C91.0081 37.1778 90.4759 37.2687 89.885 37.2687ZM95.5384 37.0869V28.3596H96.8339V29.6778H96.9248C97.0839 29.246 97.3718 28.8956 97.7884 28.6267C98.2051 28.3577 98.6748 28.2233 99.1975 28.2233C99.296 28.2233 99.4191 28.2252 99.5668 28.229C99.7146 28.2327 99.8263 28.2384 99.9021 28.246V29.6096C99.8566 29.5983 99.7524 29.5812 99.5896 29.5585C99.4305 29.532 99.2619 29.5187 99.0839 29.5187C98.6596 29.5187 98.2809 29.6077 97.9475 29.7858C97.618 29.96 97.3566 30.2024 97.1634 30.5131C96.974 30.8199 96.8793 31.1702 96.8793 31.5642V37.0869H95.5384ZM107.673 30.3142L106.469 30.6551C106.393 30.4543 106.281 30.2593 106.134 30.0699C105.99 29.8767 105.793 29.7176 105.543 29.5926C105.293 29.4676 104.973 29.4051 104.582 29.4051C104.048 29.4051 103.603 29.5282 103.247 29.7744C102.895 30.0168 102.719 30.3256 102.719 30.7006C102.719 31.0339 102.84 31.2971 103.082 31.4903C103.325 31.6835 103.704 31.8445 104.219 31.9733L105.514 32.2915C106.295 32.4809 106.876 32.7706 107.259 33.1608C107.641 33.5471 107.832 34.0452 107.832 34.6551C107.832 35.1551 107.689 35.6021 107.401 35.996C107.117 36.3899 106.719 36.7006 106.207 36.9278C105.696 37.1551 105.101 37.2687 104.423 37.2687C103.533 37.2687 102.796 37.0756 102.213 36.6892C101.63 36.3028 101.26 35.7384 101.105 34.996L102.378 34.6778C102.499 35.1475 102.728 35.4998 103.065 35.7346C103.406 35.9695 103.851 36.0869 104.401 36.0869C105.026 36.0869 105.522 35.9543 105.889 35.6892C106.26 35.4202 106.446 35.0983 106.446 34.7233C106.446 34.4202 106.34 34.1665 106.128 33.9619C105.916 33.7536 105.59 33.5983 105.151 33.496L103.696 33.1551C102.897 32.9657 102.31 32.6721 101.935 32.2744C101.564 31.8729 101.378 31.371 101.378 30.7687C101.378 30.2763 101.516 29.8407 101.793 29.4619C102.073 29.0831 102.454 28.7858 102.935 28.5699C103.42 28.354 103.969 28.246 104.582 28.246C105.446 28.246 106.124 28.4354 106.617 28.8142C107.113 29.193 107.465 29.693 107.673 30.3142Z" fill="black" fill-opacity="0.7"/>
  <path d="M31.2183 54.4556H3.92618V179.933H31.2183V54.4556Z" fill="url(#paint0_linear_72_549)" stroke="black" stroke-width="0.31992" stroke-miterlimit="2" stroke-linecap="square"/>
  <path d="M44.7442 56.8326V68.4661H43.3354V58.3095H43.2673L40.4271 60.1954V58.764L43.3354 56.8326H44.7442ZM51.8844 68.6251C51.0286 68.6251 50.2996 68.3922 49.6975 67.9264C49.0954 67.4568 48.6352 66.7771 48.3171 65.8872C47.999 64.9935 47.84 63.9142 47.84 62.6493C47.84 61.3921 47.999 60.3185 48.3171 59.4286C48.639 58.5348 49.101 57.8532 49.7032 57.3836C50.3091 56.9102 51.0362 56.6736 51.8844 56.6736C52.7327 56.6736 53.4579 56.9102 54.06 57.3836C54.6659 57.8532 55.1279 58.5348 55.446 59.4286C55.7679 60.3185 55.9289 61.3921 55.9289 62.6493C55.9289 63.9142 55.7698 64.9935 55.4517 65.8872C55.1336 66.7771 54.6735 67.4568 54.0714 67.9264C53.4693 68.3922 52.7403 68.6251 51.8844 68.6251ZM51.8844 67.3754C52.7327 67.3754 53.3916 66.9664 53.8612 66.1485C54.3308 65.3305 54.5656 64.1641 54.5656 62.6493C54.5656 61.642 54.4576 60.7843 54.2418 60.0761C54.0297 59.368 53.723 58.8283 53.3216 58.4572C52.9239 58.0861 52.4449 57.9005 51.8844 57.9005C51.0437 57.9005 50.3867 58.3152 49.9133 59.1445C49.44 59.9701 49.2033 61.1384 49.2033 62.6493C49.2033 63.6567 49.3093 64.5125 49.5214 65.2169C49.7334 65.9212 50.0383 66.4571 50.4359 66.8244C50.8373 67.1918 51.3202 67.3754 51.8844 67.3754ZM66.3808 68.6251C65.5249 68.6251 64.796 68.3922 64.1938 67.9264C63.5917 67.4568 63.1316 66.7771 62.8135 65.8872C62.4954 64.9935 62.3364 63.9142 62.3364 62.6493C62.3364 61.3921 62.4954 60.3185 62.8135 59.4286C63.1354 58.5348 63.5974 57.8532 64.1995 57.3836C64.8054 56.9102 65.5325 56.6736 66.3808 56.6736C67.2291 56.6736 67.9543 56.9102 68.5564 57.3836C69.1623 57.8532 69.6243 58.5348 69.9424 59.4286C70.2643 60.3185 70.4252 61.3921 70.4252 62.6493C70.4252 63.9142 70.2662 64.9935 69.9481 65.8872C69.63 66.7771 69.1699 67.4568 68.5677 67.9264C67.9656 68.3922 67.2366 68.6251 66.3808 68.6251ZM66.3808 67.3754C67.2291 67.3754 67.888 66.9664 68.3576 66.1485C68.8271 65.3305 69.0619 64.1641 69.0619 62.6493C69.0619 61.642 68.954 60.7843 68.7382 60.0761C68.5261 59.368 68.2193 58.8283 67.8179 58.4572C67.4203 58.0861 66.9413 57.9005 66.3808 57.9005C65.5401 57.9005 64.8831 58.3152 64.4097 59.1445C63.9363 59.9701 63.6996 61.1384 63.6996 62.6493C63.6996 63.6567 63.8057 64.5125 64.0177 65.2169C64.2298 65.9212 64.5347 66.4571 64.9323 66.8244C65.3337 67.1918 65.8165 67.3754 66.3808 67.3754ZM76.3783 68.6251C75.5224 68.6251 74.7935 68.3922 74.1913 67.9264C73.5892 67.4568 73.1291 66.7771 72.811 65.8872C72.4929 64.9935 72.3338 63.9142 72.3338 62.6493C72.3338 61.3921 72.4929 60.3185 72.811 59.4286C73.1329 58.5348 73.5949 57.8532 74.197 57.3836C74.8029 56.9102 75.53 56.6736 76.3783 56.6736C77.2266 56.6736 77.9518 56.9102 78.5539 57.3836C79.1598 57.8532 79.6218 58.5348 79.9399 59.4286C80.2618 60.3185 80.4227 61.3921 80.4227 62.6493C80.4227 63.9142 80.2637 64.9935 79.9456 65.8872C79.6275 66.7771 79.1674 67.4568 78.5652 67.9264C77.9631 68.3922 77.2341 68.6251 76.3783 68.6251ZM76.3783 67.3754C77.2266 67.3754 77.8855 66.9664 78.3551 66.1485C78.8246 65.3305 79.0594 64.1641 79.0594 62.6493C79.0594 61.642 78.9515 60.7843 78.7357 60.0761C78.5236 59.368 78.2168 58.8283 77.8154 58.4572C77.4178 58.0861 76.9388 57.9005 76.3783 57.9005C75.5376 57.9005 74.8806 58.3152 74.4072 59.1445C73.9338 59.9701 73.6971 61.1384 73.6971 62.6493C73.6971 63.6567 73.8032 64.5125 74.0152 65.2169C74.2273 65.9212 74.5322 66.4571 74.9298 66.8244C75.3312 67.1918 75.814 67.3754 76.3783 67.3754ZM86.3758 68.6251C85.5199 68.6251 84.791 68.3922 84.1888 67.9264C83.5867 67.4568 83.1266 66.7771 82.8085 65.8872C82.4904 64.9935 82.3313 63.9142 82.3313 62.6493C82.3313 61.3921 82.4904 60.3185 82.8085 59.4286C83.1304 58.5348 83.5924 57.8532 84.1945 57.3836C84.8004 56.9102 85.5275 56.6736 86.3758 56.6736C87.2241 56.6736 87.9492 56.9102 88.5514 57.3836C89.1573 57.8532 89.6193 58.5348 89.9374 59.4286C90.2593 60.3185 90.4202 61.3921 90.4202 62.6493C90.4202 63.9142 90.2612 64.9935 89.9431 65.8872C89.625 66.7771 89.1649 67.4568 88.5627 67.9264C87.9606 68.3922 87.2316 68.6251 86.3758 68.6251ZM86.3758 67.3754C87.2241 67.3754 87.883 66.9664 88.3526 66.1485C88.8221 65.3305 89.0569 64.1641 89.0569 62.6493C89.0569 61.642 88.949 60.7843 88.7331 60.0761C88.5211 59.368 88.2143 58.8283 87.8129 58.4572C87.4153 58.0861 86.9362 57.9005 86.3758 57.9005C85.5351 57.9005 84.878 58.3152 84.4047 59.1445C83.9313 59.9701 83.6946 61.1384 83.6946 62.6493C83.6946 63.6567 83.8007 64.5125 84.0127 65.2169C84.2248 65.9212 84.5297 66.4571 84.9273 66.8244C85.3287 67.1918 85.8115 67.3754 86.3758 67.3754Z" fill="black"/>
  <path d="M44.7442 162.657V174.291H43.3354V164.134H43.2673L40.4271 166.02V164.589L43.3354 162.657H44.7442Z" fill="black"/>
  <defs>
    <linearGradient id="paint0_linear_72_549" x1="-7.72292" y1="180.426" x2="-7.72292" y2="54.6313" gradientUnits="userSpaceOnUse">
      <stop stop-color="#FEF0D9"/>
      <stop offset="0.25" stop-color="#FDCC8A"/>
      <stop offset="0.5" stop-color="#FC8D59"/>
      <stop offset="0.75" stop-color="#E34A33"/>
      <stop offset="1" stop-color="#B30000"/>
    </linearGradient>
  </defs>
</svg>
