<svg width="156" height="181" viewBox="0 0 156 181" fill="none" xmlns="http://www.w3.org/2000/svg">
  <path d="M157.072 12.3707L156.976 13.0675C156.913 13.5788 156.804 14.1115 156.65 14.6655C156.501 15.2237 156.346 15.7415 156.184 16.2187C156.026 16.696 155.896 17.0753 155.794 17.3565H154.439C154.494 17.0923 154.571 16.7344 154.669 16.2827C154.767 15.8352 154.863 15.3345 154.957 14.7805C155.05 14.2265 155.121 13.6619 155.168 13.0866L155.231 12.3707H157.072Z" fill="black"/>
  <path d="M148.253 14.3587C147.286 14.3587 146.452 14.152 145.754 13.7386C145.059 13.321 144.522 12.7351 144.143 11.9808C143.768 11.2223 143.58 10.3338 143.58 9.31533C143.58 8.30965 143.768 7.42328 144.143 6.65624C144.522 5.88919 145.05 5.29047 145.728 4.86007C146.41 4.42968 147.207 4.21448 148.119 4.21448C148.673 4.21448 149.21 4.3061 149.729 4.48934C150.249 4.67257 150.716 4.96022 151.129 5.35226C151.543 5.74431 151.869 6.25354 152.107 6.87996C152.346 7.50212 152.465 8.25851 152.465 9.14914V9.82669H144.661V8.39488H150.592C150.592 7.89203 150.49 7.44672 150.286 7.05894C150.081 6.66689 149.793 6.35794 149.423 6.13209C149.056 5.90624 148.626 5.79331 148.131 5.79331C147.595 5.79331 147.126 5.92542 146.725 6.18962C146.329 6.44956 146.022 6.79047 145.805 7.21235C145.592 7.62996 145.485 8.0838 145.485 8.57385V9.69246C145.485 10.3487 145.6 10.9069 145.83 11.3672C146.065 11.8274 146.391 12.179 146.808 12.4219C147.226 12.6605 147.714 12.7798 148.272 12.7798C148.634 12.7798 148.965 12.7287 149.263 12.6264C149.561 12.5199 149.819 12.3622 150.036 12.1534C150.254 11.9446 150.42 11.6868 150.535 11.38L152.344 11.706C152.199 12.2386 151.939 12.7052 151.564 13.1058C151.193 13.5021 150.727 13.8111 150.164 14.0327C149.606 14.25 148.969 14.3587 148.253 14.3587Z" fill="black"/>
  <path d="M136.429 14.3523C135.637 14.3523 134.929 14.1498 134.307 13.745C133.689 13.3359 133.203 12.7542 132.85 12C132.5 11.2415 132.326 10.3317 132.326 9.27057C132.326 8.20949 132.502 7.30182 132.856 6.54756C133.214 5.7933 133.704 5.21589 134.326 4.81532C134.948 4.41475 135.654 4.21447 136.442 4.21447C137.051 4.21447 137.541 4.31674 137.912 4.52128C138.287 4.72157 138.577 4.95594 138.782 5.22441C138.99 5.49288 139.152 5.72938 139.267 5.93393H139.382V1.06958H141.294V14.1605H139.427V12.6328H139.267C139.152 12.8416 138.986 13.0802 138.769 13.3487C138.556 13.6172 138.262 13.8515 137.887 14.0518C137.512 14.2521 137.026 14.3523 136.429 14.3523ZM136.851 12.7223C137.401 12.7223 137.865 12.5774 138.245 12.2876C138.628 11.9936 138.918 11.5866 139.114 11.0667C139.314 10.5469 139.414 9.94174 139.414 9.2514C139.414 8.56958 139.316 7.97299 139.12 7.46163C138.924 6.95026 138.637 6.55182 138.257 6.26631C137.878 5.9808 137.409 5.83805 136.851 5.83805C136.276 5.83805 135.796 5.98719 135.413 6.28549C135.029 6.58378 134.74 6.99075 134.544 7.50637C134.352 8.022 134.256 8.60367 134.256 9.2514C134.256 9.90765 134.354 10.4978 134.55 11.022C134.746 11.5461 135.036 11.9616 135.419 12.2684C135.807 12.571 136.284 12.7223 136.851 12.7223Z" fill="black"/>
  <path d="M128.271 14.1605V4.34229H130.183V14.1605H128.271ZM129.237 2.82737C128.904 2.82737 128.619 2.71657 128.38 2.49498C128.146 2.26913 128.028 2.00067 128.028 1.68959C128.028 1.37425 128.146 1.10578 128.38 0.884188C128.619 0.658336 128.904 0.54541 129.237 0.54541C129.569 0.54541 129.852 0.658336 130.087 0.884188C130.325 1.10578 130.445 1.37425 130.445 1.68959C130.445 2.00067 130.325 2.26913 130.087 2.49498C129.852 2.71657 129.569 2.82737 129.237 2.82737Z" fill="black"/>
  <path d="M119.866 4.34229L122.033 8.16473L124.219 4.34229H126.309L123.247 9.25138L126.335 14.1605H124.244L122.033 10.4914L119.828 14.1605H117.731L120.786 9.25138L117.769 4.34229H119.866Z" fill="black"/>
  <path d="M112.034 14.3587C111.114 14.3587 110.31 14.1477 109.624 13.7258C108.938 13.304 108.405 12.7138 108.026 11.9552C107.647 11.1967 107.457 10.3104 107.457 9.29615C107.457 8.27769 107.647 7.38706 108.026 6.62428C108.405 5.86149 108.938 5.26916 109.624 4.84729C110.31 4.42542 111.114 4.21448 112.034 4.21448C112.954 4.21448 113.758 4.42542 114.444 4.84729C115.13 5.26916 115.663 5.86149 116.042 6.62428C116.421 7.38706 116.611 8.27769 116.611 9.29615C116.611 10.3104 116.421 11.1967 116.042 11.9552C115.663 12.7138 115.13 13.304 114.444 13.7258C113.758 14.1477 112.954 14.3587 112.034 14.3587ZM112.04 12.7543C112.637 12.7543 113.131 12.5966 113.523 12.2812C113.915 11.9659 114.205 11.5462 114.393 11.022C114.584 10.4979 114.68 9.92044 114.68 9.28976C114.68 8.66334 114.584 8.08806 114.393 7.56391C114.205 7.0355 113.915 6.61149 113.523 6.29189C113.131 5.97229 112.637 5.81249 112.04 5.81249C111.44 5.81249 110.941 5.97229 110.545 6.29189C110.153 6.61149 109.861 7.0355 109.669 7.56391C109.481 8.08806 109.388 8.66334 109.388 9.28976C109.388 9.92044 109.481 10.4979 109.669 11.022C109.861 11.5462 110.153 11.9659 110.545 12.2812C110.941 12.5966 111.44 12.7543 112.04 12.7543Z" fill="black"/>
  <path d="M99.0517 8.33095V14.1605H97.1405V4.34232H98.975V5.94033H99.0965C99.3223 5.42044 99.676 5.00283 100.158 4.68749C100.643 4.37215 101.255 4.21448 101.992 4.21448C102.661 4.21448 103.247 4.3551 103.75 4.63635C104.253 4.91334 104.643 5.32669 104.92 5.87641C105.197 6.42613 105.335 7.10581 105.335 7.91547V14.1605H103.424V8.14559C103.424 7.43394 103.239 6.87783 102.868 6.47726C102.497 6.07243 101.988 5.87002 101.34 5.87002C100.897 5.87002 100.503 5.9659 100.158 6.15766C99.8166 6.34942 99.546 6.63067 99.3458 7.00141C99.1497 7.36789 99.0517 7.81107 99.0517 8.33095Z" fill="black"/>
  <path d="M90.4305 14.3587C89.51 14.3587 88.7067 14.1477 88.0207 13.7258C87.3346 13.304 86.8019 12.7138 86.4227 11.9552C86.0434 11.1967 85.8538 10.3104 85.8538 9.29615C85.8538 8.27769 86.0434 7.38706 86.4227 6.62428C86.8019 5.86149 87.3346 5.26916 88.0207 4.84729C88.7067 4.42542 89.51 4.21448 90.4305 4.21448C91.3509 4.21448 92.1542 4.42542 92.8403 4.84729C93.5263 5.26916 94.059 5.86149 94.4383 6.62428C94.8175 7.38706 95.0072 8.27769 95.0072 9.29615C95.0072 10.3104 94.8175 11.1967 94.4383 11.9552C94.059 12.7138 93.5263 13.304 92.8403 13.7258C92.1542 14.1477 91.3509 14.3587 90.4305 14.3587ZM90.4369 12.7543C91.0335 12.7543 91.5278 12.5966 91.9198 12.2812C92.3119 11.9659 92.6016 11.5462 92.7891 11.022C92.9809 10.4979 93.0768 9.92044 93.0768 9.28976C93.0768 8.66334 92.9809 8.08806 92.7891 7.56391C92.6016 7.0355 92.3119 6.61149 91.9198 6.29189C91.5278 5.97229 91.0335 5.81249 90.4369 5.81249C89.836 5.81249 89.3374 5.97229 88.9411 6.29189C88.5491 6.61149 88.2572 7.0355 88.0654 7.56391C87.8779 8.08806 87.7842 8.66334 87.7842 9.28976C87.7842 9.92044 87.8779 10.4979 88.0654 11.022C88.2572 11.5462 88.5491 11.9659 88.9411 12.2812C89.3374 12.5966 89.836 12.7543 90.4369 12.7543Z" fill="black"/>
  <path d="M70.3866 14.1605V4.34232H72.2211V5.94033H72.3426C72.5471 5.39914 72.8816 4.97726 73.3461 4.67471C73.8106 4.36789 74.3667 4.21448 75.0144 4.21448C75.6707 4.21448 76.2204 4.36789 76.6636 4.67471C77.111 4.98152 77.4413 5.4034 77.6544 5.94033H77.7566C77.991 5.41618 78.3639 4.99857 78.8752 4.68749C79.3866 4.37215 79.996 4.21448 80.7034 4.21448C81.594 4.21448 82.3205 4.4936 82.883 5.05184C83.4498 5.61007 83.7332 6.45169 83.7332 7.57669V14.1605H81.822V7.75567C81.822 7.0909 81.6409 6.60936 81.2786 6.31107C80.9164 6.01277 80.4839 5.86363 79.9811 5.86363C79.3589 5.86363 78.8752 6.05539 78.5301 6.43891C78.1849 6.81817 78.0123 7.3061 78.0123 7.90269V14.1605H76.1075V7.63422C76.1075 7.10155 75.9413 6.67328 75.6089 6.34942C75.2765 6.02556 74.844 5.86363 74.3113 5.86363C73.9491 5.86363 73.6146 5.95951 73.3078 6.15127C73.0052 6.33877 72.7602 6.60084 72.5727 6.93749C72.3894 7.27414 72.2978 7.66405 72.2978 8.10723V14.1605H70.3866Z" fill="black"/>
  <path d="M56.7763 8.33095V14.1605H54.8651V4.34232H56.6996V5.94033H56.8211C57.0469 5.42044 57.4006 5.00283 57.8822 4.68749C58.368 4.37215 58.9795 4.21448 59.7167 4.21448C60.3857 4.21448 60.9716 4.3551 61.4745 4.63635C61.9773 4.91334 62.3672 5.32669 62.6442 5.87641C62.9212 6.42613 63.0597 7.10581 63.0597 7.91547V14.1605H61.1485V8.14559C61.1485 7.43394 60.9631 6.87783 60.5924 6.47726C60.2216 6.07243 59.7124 5.87002 59.0647 5.87002C58.6215 5.87002 58.2273 5.9659 57.8822 6.15766C57.5412 6.34942 57.2707 6.63067 57.0704 7.00141C56.8743 7.36789 56.7763 7.81107 56.7763 8.33095Z" fill="black"/>
  <path d="M48.1551 14.3587C47.2346 14.3587 46.4314 14.1477 45.7453 13.7258C45.0592 13.304 44.5265 12.7138 44.1473 11.9552C43.768 11.1967 43.5784 10.3104 43.5784 9.29615C43.5784 8.27769 43.768 7.38706 44.1473 6.62428C44.5265 5.86149 45.0592 5.26916 45.7453 4.84729C46.4314 4.42542 47.2346 4.21448 48.1551 4.21448C49.0755 4.21448 49.8788 4.42542 50.5649 4.84729C51.251 5.26916 51.7836 5.86149 52.1629 6.62428C52.5421 7.38706 52.7318 8.27769 52.7318 9.29615C52.7318 10.3104 52.5421 11.1967 52.1629 11.9552C51.7836 12.7138 51.251 13.304 50.5649 13.7258C49.8788 14.1477 49.0755 14.3587 48.1551 14.3587ZM48.1615 12.7543C48.7581 12.7543 49.2524 12.5966 49.6444 12.2812C50.0365 11.9659 50.3262 11.5462 50.5137 11.022C50.7055 10.4979 50.8014 9.92044 50.8014 9.28976C50.8014 8.66334 50.7055 8.08806 50.5137 7.56391C50.3262 7.0355 50.0365 6.61149 49.6444 6.29189C49.2524 5.97229 48.7581 5.81249 48.1615 5.81249C47.5606 5.81249 47.062 5.97229 46.6657 6.29189C46.2737 6.61149 45.9818 7.0355 45.79 7.56391C45.6025 8.08806 45.5088 8.66334 45.5088 9.28976C45.5088 9.92044 45.6025 10.4979 45.79 11.022C45.9818 11.5462 46.2737 11.9659 46.6657 12.2812C47.062 12.5966 47.5606 12.7543 48.1615 12.7543Z" fill="black"/>
  <path d="M32.9053 14.1605V1.06958H34.8165V5.93393H34.9316C35.0423 5.72938 35.2022 5.49288 35.411 5.22441C35.6198 4.95594 35.9095 4.72157 36.2803 4.52128C36.651 4.31674 37.1411 4.21447 37.7504 4.21447C38.5431 4.21447 39.2504 4.41475 39.8726 4.81532C40.4948 5.21589 40.9827 5.7933 41.3364 6.54756C41.6943 7.30182 41.8733 8.20949 41.8733 9.27057C41.8733 10.3317 41.6965 11.2415 41.3428 12C40.9891 12.7542 40.5033 13.3359 39.8854 13.745C39.2675 14.1498 38.5622 14.3523 37.7696 14.3523C37.173 14.3523 36.6851 14.2521 36.3058 14.0518C35.9308 13.8515 35.6368 13.6172 35.4237 13.3487C35.2107 13.0802 35.0466 12.8416 34.9316 12.6328H34.7718V14.1605H32.9053ZM34.7781 9.2514C34.7781 9.94174 34.8783 10.5469 35.0786 11.0667C35.2789 11.5866 35.5686 11.9936 35.9479 12.2876C36.3271 12.5774 36.7916 12.7223 37.3414 12.7223C37.9124 12.7223 38.3896 12.571 38.7732 12.2684C39.1567 11.9616 39.4465 11.5461 39.6425 11.022C39.8428 10.4978 39.9429 9.90765 39.9429 9.2514C39.9429 8.60367 39.8449 8.022 39.6489 7.50637C39.4571 6.99075 39.1673 6.58378 38.7796 6.28549C38.396 5.98719 37.9166 5.83805 37.3414 5.83805C36.7874 5.83805 36.3186 5.9808 35.9351 6.26631C35.5558 6.55182 35.2682 6.95026 35.0722 7.46163C34.8762 7.97299 34.7781 8.56958 34.7781 9.2514Z" fill="black"/>
  <path d="M25.8436 14.1605V4.34233H27.6909V5.90199H27.7932C27.9722 5.37358 28.2875 4.9581 28.7392 4.65554C29.1952 4.34872 29.7108 4.19531 30.2861 4.19531C30.4054 4.19531 30.546 4.19957 30.708 4.2081C30.8742 4.21662 31.0041 4.22727 31.0979 4.24006V6.06818C31.0212 6.04688 30.8848 6.02344 30.6888 5.99787C30.4928 5.96804 30.2968 5.95312 30.1007 5.95312C29.649 5.95312 29.2463 6.04901 28.8926 6.24077C28.5432 6.42827 28.2662 6.69034 28.0617 7.02699C27.8571 7.35938 27.7548 7.73864 27.7548 8.16477V14.1605H25.8436Z" fill="black"/>
  <path d="M18.4528 14.3778C17.8307 14.3778 17.2682 14.2628 16.7653 14.0327C16.2625 13.7983 15.8641 13.4595 15.57 13.0163C15.2803 12.5731 15.1354 12.0298 15.1354 11.3864C15.1354 10.8324 15.2419 10.3764 15.455 10.0185C15.668 9.6605 15.9557 9.37712 16.3179 9.16831C16.6801 8.95951 17.085 8.80184 17.5324 8.6953C17.9798 8.58877 18.4358 8.5078 18.9003 8.4524C19.4884 8.38422 19.9656 8.32882 20.3321 8.28621C20.6986 8.23934 20.9649 8.16476 21.1311 8.06249C21.2973 7.96022 21.3804 7.79402 21.3804 7.56391V7.51917C21.3804 6.96093 21.2227 6.5284 20.9074 6.22158C20.5963 5.91476 20.1318 5.76135 19.5139 5.76135C18.8705 5.76135 18.3634 5.90411 17.9926 6.18962C17.6261 6.47087 17.3726 6.78408 17.232 7.12925L15.4358 6.72016C15.6489 6.12357 15.96 5.64203 16.369 5.27556C16.7824 4.90482 17.2575 4.63635 17.7945 4.47016C18.3314 4.2997 18.896 4.21448 19.4884 4.21448C19.8804 4.21448 20.2959 4.26135 20.7348 4.3551C21.178 4.44459 21.5913 4.61078 21.9749 4.85368C22.3626 5.09658 22.6801 5.44388 22.9273 5.89559C23.1744 6.34303 23.298 6.92471 23.298 7.64061V14.1605H21.4315V12.8182H21.3548C21.2313 13.0653 21.0459 13.3082 20.7987 13.5469C20.5516 13.7855 20.2341 13.9837 19.8463 14.1413C19.4585 14.299 18.994 14.3778 18.4528 14.3778ZM18.8683 12.8437C19.3967 12.8437 19.8484 12.7393 20.2234 12.5305C20.6027 12.3217 20.8903 12.049 21.0864 11.7123C21.2867 11.3714 21.3868 11.0071 21.3868 10.6193V9.35368C21.3186 9.42186 21.1865 9.48578 20.9905 9.54544C20.7987 9.60084 20.5793 9.64985 20.3321 9.69246C20.085 9.73081 19.8442 9.76703 19.6098 9.80113C19.3754 9.83095 19.1794 9.85652 19.0217 9.87783C18.651 9.9247 18.3122 10.0035 18.0054 10.1143C17.7028 10.2251 17.46 10.3849 17.2767 10.5937C17.0977 10.7983 17.0082 11.071 17.0082 11.4119C17.0082 11.8849 17.183 12.2429 17.5324 12.4858C17.8818 12.7244 18.3271 12.8437 18.8683 12.8437Z" fill="black"/>
  <path d="M13.3856 5.3267H11.3912C11.3145 4.90057 11.1718 4.52557 10.963 4.2017C10.7542 3.87784 10.4985 3.60298 10.1959 3.37713C9.89338 3.15128 9.5546 2.98082 9.1796 2.86577C8.80886 2.75071 8.41468 2.69318 7.99707 2.69318C7.24281 2.69318 6.56738 2.88281 5.97079 3.26207C5.37846 3.64134 4.90971 4.19744 4.56454 4.9304C4.22363 5.66335 4.05318 6.55824 4.05318 7.61506C4.05318 8.6804 4.22363 9.57955 4.56454 10.3125C4.90971 11.0455 5.38059 11.5994 5.97718 11.9744C6.57378 12.3494 7.24494 12.5369 7.99068 12.5369C8.40403 12.5369 8.79608 12.4815 9.16681 12.3707C9.54181 12.2557 9.88059 12.0874 10.1831 11.8658C10.4857 11.6442 10.7414 11.3736 10.9502 11.054C11.1633 10.7301 11.3103 10.3594 11.3912 9.94176L13.3856 9.94815C13.279 10.5916 13.0724 11.1839 12.7655 11.7251C12.463 12.2621 12.0731 12.7266 11.5958 13.1186C11.1228 13.5064 10.5816 13.8068 9.97221 14.0199C9.36284 14.233 8.69807 14.3395 7.97789 14.3395C6.84437 14.3395 5.83443 14.071 4.94806 13.5341C4.0617 12.9929 3.36284 12.2195 2.85147 11.2138C2.34437 10.2081 2.09082 9.00852 2.09082 7.61506C2.09082 6.21733 2.3465 5.01776 2.85787 4.01634C3.36923 3.01065 4.06809 2.23935 4.95446 1.70241C5.84082 1.16122 6.84863 0.890625 7.97789 0.890625C8.6725 0.890625 9.32022 0.990767 9.92108 1.19105C10.5262 1.38707 11.0695 1.67685 11.551 2.06037C12.0326 2.43963 12.431 2.90412 12.7464 3.45384C13.0617 3.99929 13.2748 4.62358 13.3856 5.3267Z" fill="black"/>
  <path d="M45.1835 34.8092V33.7947L48.9932 29.6243C49.4403 29.1359 49.8085 28.7114 50.0978 28.3507C50.3871 27.9862 50.6012 27.6443 50.7402 27.325C50.883 27.0019 50.9544 26.6637 50.9544 26.3106C50.9544 25.9048 50.8567 25.5535 50.6613 25.2567C50.4697 24.9599 50.2067 24.7307 49.8724 24.5691C49.538 24.4076 49.1623 24.3268 48.7452 24.3268C48.3019 24.3268 47.9149 24.4189 47.5843 24.603C47.2574 24.7833 47.0038 25.0369 46.8235 25.3638C46.6469 25.6906 46.5586 26.0739 46.5586 26.5134H45.2286C45.2286 25.8372 45.3845 25.2435 45.6963 24.7326C46.0082 24.2216 46.4327 23.8233 46.97 23.5378C47.511 23.2523 48.1178 23.1095 48.7903 23.1095C49.4666 23.1095 50.0658 23.2523 50.5881 23.5378C51.1103 23.8233 51.5198 24.2085 51.8167 24.6931C52.1135 25.1778 52.2619 25.7169 52.2619 26.3106C52.2619 26.7351 52.1849 27.1503 52.0308 27.556C51.8805 27.9581 51.6175 28.407 51.2418 28.903C50.8699 29.3952 50.3533 29.9963 49.692 30.7064L47.0996 33.4791V33.5693H52.4648V34.8092H45.1835Z" fill="black"/>
  <path d="M31.4127 34.8091V26.1528H32.6977V27.5053H32.8104C32.9907 27.0432 33.2819 26.6844 33.6839 26.4289C34.0859 26.1697 34.5687 26.04 35.1323 26.04C35.7033 26.04 36.1786 26.1697 36.5581 26.4289C36.9413 26.6844 37.24 27.0432 37.4542 27.5053H37.5443C37.766 27.0582 38.0985 26.7032 38.5418 26.4402C38.9852 26.1734 39.5168 26.04 40.1367 26.04C40.9107 26.04 41.5438 26.2824 42.036 26.767C42.5281 27.248 42.7742 27.9975 42.7742 29.0157V34.8091H41.4442V29.0157C41.4442 28.377 41.2695 27.9205 40.9201 27.6462C40.5707 27.3719 40.1593 27.2348 39.6859 27.2348C39.0772 27.2348 38.6057 27.4189 38.2713 27.7871C37.937 28.1515 37.7698 28.6137 37.7698 29.1735V34.8091H36.4172V28.8804C36.4172 28.3882 36.2575 27.9919 35.9382 27.6913C35.6188 27.387 35.2074 27.2348 34.704 27.2348C34.3583 27.2348 34.0352 27.3269 33.7346 27.5109C33.4378 27.695 33.1973 27.9505 33.0133 28.2774C32.8329 28.6005 32.7427 28.9743 32.7427 29.3989V34.8091H31.4127Z" fill="black"/>
  <path d="M29.8361 22.7263L26.1166 36.545H24.8993L28.6188 22.7263H29.8361Z" fill="black"/>
  <path d="M19.5792 38.2356C18.9367 38.2356 18.3844 38.153 17.9223 37.9877C17.4602 37.8261 17.0751 37.612 16.767 37.3452C16.4627 37.0822 16.2203 36.8004 16.04 36.4999L17.0995 35.7559C17.2197 35.9137 17.3719 36.0941 17.556 36.297C17.7401 36.5036 17.9918 36.6821 18.3112 36.8324C18.6343 36.9864 19.057 37.0634 19.5792 37.0634C20.278 37.0634 20.8547 36.8943 21.3094 36.5562C21.764 36.2181 21.9913 35.6883 21.9913 34.9669V33.2086H21.8786C21.7809 33.3664 21.6419 33.5618 21.4615 33.7947C21.2849 34.0239 21.0295 34.2287 20.6951 34.409C20.3644 34.5856 19.9173 34.6739 19.3538 34.6739C18.655 34.6739 18.0275 34.5086 17.4715 34.178C16.9192 33.8473 16.4815 33.3664 16.1584 32.7352C15.839 32.104 15.6793 31.3376 15.6793 30.4359C15.6793 29.5492 15.8352 28.7771 16.1471 28.1196C16.4589 27.4583 16.8929 26.9474 17.4489 26.5867C18.005 26.2223 18.6474 26.04 19.3763 26.04C19.9399 26.04 20.387 26.134 20.7176 26.3218C21.052 26.5059 21.3075 26.7163 21.4841 26.953C21.6644 27.186 21.8034 27.3776 21.9011 27.5279H22.0364V26.1528H23.3213V35.0571C23.3213 35.801 23.1522 36.4059 22.8141 36.8718C22.4797 37.3414 22.0288 37.6852 21.4615 37.9031C20.898 38.1248 20.2705 38.2356 19.5792 38.2356ZM19.5341 33.4791C20.0676 33.4791 20.5185 33.357 20.8867 33.1128C21.2549 32.8686 21.5348 32.5173 21.7264 32.0589C21.918 31.6006 22.0138 31.052 22.0138 30.4133C22.0138 29.7896 21.9199 29.2392 21.732 28.7621C21.5442 28.2849 21.2662 27.9111 20.898 27.6406C20.5298 27.3701 20.0751 27.2348 19.5341 27.2348C18.9706 27.2348 18.5009 27.3776 18.1252 27.6631C17.7532 27.9487 17.4733 28.3319 17.2855 28.8128C17.1014 29.2937 17.0093 29.8272 17.0093 30.4133C17.0093 31.0145 17.1033 31.5461 17.2911 32.0082C17.4827 32.4666 17.7645 32.8273 18.1365 33.0903C18.5122 33.3495 18.9781 33.4791 19.5341 33.4791Z" fill="black"/>
  <path d="M2.29175 34.8091V26.1528H3.57668V27.5053H3.6894C3.86974 27.0432 4.16091 26.6844 4.56292 26.4289C4.96494 26.1697 5.44773 26.04 6.01129 26.04C6.58238 26.04 7.05765 26.1697 7.43712 26.4289C7.82035 26.6844 8.11904 27.0432 8.33319 27.5053H8.42336C8.64503 27.0582 8.97754 26.7032 9.42088 26.4402C9.86422 26.1734 10.3958 26.04 11.0158 26.04C11.7897 26.04 12.4228 26.2824 12.915 26.767C13.4072 27.248 13.6533 27.9975 13.6533 29.0157V34.8091H12.3232V29.0157C12.3232 28.377 12.1485 27.9205 11.7991 27.6462C11.4497 27.3719 11.0383 27.2348 10.5649 27.2348C9.95627 27.2348 9.48475 27.4189 9.15036 27.7871C8.81598 28.1515 8.64879 28.6137 8.64879 29.1735V34.8091H7.29623V28.8804C7.29623 28.3882 7.13655 27.9919 6.81719 27.6913C6.49784 27.387 6.08644 27.2348 5.58298 27.2348C5.23733 27.2348 4.91422 27.3269 4.61365 27.5109C4.31683 27.695 4.07638 27.9505 3.89228 28.2774C3.71194 28.6005 3.62177 28.9743 3.62177 29.3989V34.8091H2.29175Z" fill="black"/>
  <path d="M27.1088 52.1591H0.875366V172.769H27.1088V52.1591Z" fill="url(#paint0_linear_0_1)"/>
  <path fill-rule="evenodd" clip-rule="evenodd" d="M0.715454 51.9991H27.2688V172.929H0.715454V51.9991ZM1.03537 52.3191V172.609H26.9489V52.3191H1.03537Z" fill="black"/>
  <path d="M59.9764 66.5009C59.1963 66.5009 58.507 66.3626 57.9087 66.0862C57.3142 65.806 56.8503 65.4216 56.517 64.9331C56.1838 64.4408 56.019 63.8803 56.0228 63.2517C56.019 62.7594 56.1156 62.3049 56.3125 61.8884C56.5094 61.468 56.7783 61.1177 57.1191 60.8375C57.4637 60.5535 57.8481 60.3736 58.2722 60.2979V60.2297C57.7156 60.0858 57.2725 59.7734 56.943 59.2924C56.6136 58.8077 56.4507 58.2567 56.4545 57.6395C56.4507 57.0487 56.6003 56.5204 56.9033 56.0546C57.2062 55.5888 57.6228 55.2215 58.153 54.9526C58.6869 54.6838 59.2947 54.5493 59.9764 54.5493C60.6504 54.5493 61.2526 54.6838 61.7827 54.9526C62.3129 55.2215 62.7295 55.5888 63.0324 56.0546C63.3392 56.5204 63.4944 57.0487 63.4982 57.6395C63.4944 58.2567 63.3259 58.8077 62.9927 59.2924C62.6632 59.7734 62.2258 60.0858 61.6805 60.2297V60.2979C62.1008 60.3736 62.4795 60.5535 62.8166 60.8375C63.1536 61.1177 63.4225 61.468 63.6232 61.8884C63.8239 62.3049 63.9261 62.7594 63.9299 63.2517C63.9261 63.8803 63.7557 64.4408 63.4187 64.9331C63.0854 65.4216 62.6215 65.806 62.027 66.0862C61.4362 66.3626 60.7527 66.5009 59.9764 66.5009ZM59.9764 65.2512C60.5027 65.2512 60.9572 65.166 61.3397 64.9956C61.7221 64.8251 62.0175 64.5847 62.2258 64.2742C62.4341 63.9636 62.5401 63.6001 62.5439 63.1835C62.5401 62.7442 62.4265 62.3561 62.2031 62.019C61.9797 61.682 61.6748 61.4169 61.2885 61.2238C60.9061 61.0306 60.4687 60.9341 59.9764 60.9341C59.4803 60.9341 59.0372 61.0306 58.6472 61.2238C58.2609 61.4169 57.956 61.682 57.7326 62.019C57.513 62.3561 57.405 62.7442 57.4088 63.1835C57.405 63.6001 57.5054 63.9636 57.7099 64.2742C57.9182 64.5847 58.2154 64.8251 58.6017 64.9956C58.988 65.166 59.4462 65.2512 59.9764 65.2512ZM59.9764 59.7298C60.3929 59.7298 60.7622 59.6465 61.084 59.4799C61.4097 59.3133 61.6653 59.0804 61.8509 58.7812C62.0365 58.482 62.1311 58.1318 62.1349 57.7303C62.1311 57.3365 62.0384 56.9938 61.8566 56.7022C61.6748 56.4068 61.423 56.1796 61.1011 56.0205C60.7792 55.8577 60.4043 55.7763 59.9764 55.7763C59.5409 55.7763 59.1603 55.8577 58.8346 56.0205C58.5089 56.1796 58.2571 56.4068 58.0791 56.7022C57.9011 56.9938 57.814 57.3365 57.8178 57.7303C57.814 58.1318 57.903 58.482 58.0848 58.7812C58.2704 59.0804 58.526 59.3133 58.8516 59.4799C59.1773 59.6465 59.5522 59.7298 59.9764 59.7298Z" fill="black"/>
  <path d="M49.9718 54.5494C50.449 54.5531 50.9261 54.644 51.4033 54.822C51.8804 55 52.3159 55.2954 52.7098 55.7082C53.1036 56.1171 53.4198 56.6757 53.6584 57.3839C53.897 58.092 54.0163 58.9801 54.0163 60.048C54.0163 61.0818 53.9178 62.0001 53.7209 62.803C53.5277 63.602 53.2475 64.2761 52.8802 64.8252C52.5166 65.3743 52.0736 65.7909 51.551 66.0749C51.0322 66.3589 50.4452 66.5009 49.79 66.5009C49.1387 66.5009 48.5574 66.3722 48.0462 66.1146C47.5387 65.8533 47.1222 65.4917 46.7965 65.0297C46.4746 64.5639 46.2682 64.0243 46.1773 63.4108H47.5633C47.6883 63.9447 47.9363 64.3859 48.3075 64.7343C48.6824 65.0789 49.1766 65.2512 49.79 65.2512C50.6875 65.2512 51.3957 64.8593 51.9145 64.0754C52.4371 63.2915 52.6984 62.1838 52.6984 60.7524H52.6075C52.3955 61.0705 52.1436 61.345 51.852 61.576C51.5604 61.807 51.2367 61.985 50.8807 62.11C50.5247 62.2349 50.146 62.2974 49.7446 62.2974C49.0781 62.2974 48.4665 62.1327 47.9098 61.8032C47.3569 61.47 46.9139 61.0136 46.5806 60.4342C46.2512 59.8511 46.0864 59.1846 46.0864 58.4348C46.0864 57.7228 46.2455 57.0715 46.5636 56.4807C46.8855 55.8861 47.3361 55.4128 47.9155 55.0606C48.4987 54.7084 49.1841 54.538 49.9718 54.5494ZM49.9718 55.799C49.4947 55.799 49.0648 55.9183 48.6824 56.1569C48.3037 56.3917 48.0026 56.7098 47.7792 57.1112C47.5595 57.5088 47.4497 57.95 47.4497 58.4348C47.4497 58.9195 47.5558 59.3607 47.7678 59.7583C47.9837 60.1521 48.2772 60.4664 48.6483 60.7012C49.0232 60.9322 49.4492 61.0477 49.9264 61.0477C50.2861 61.0477 50.6213 60.9777 50.9318 60.8376C51.2423 60.6937 51.5131 60.4986 51.7441 60.2525C51.9789 60.0025 52.1626 59.7204 52.2951 59.4061C52.4276 59.088 52.4939 58.7566 52.4939 58.412C52.4939 57.9576 52.3841 57.5316 52.1644 57.1339C51.9486 56.7363 51.6494 56.4144 51.2669 56.1683C50.8883 55.9221 50.4565 55.799 49.9718 55.799Z" fill="black"/>
  <path d="M39.9899 54.5494C40.467 54.5531 40.9442 54.644 41.4213 54.822C41.8985 55 42.334 55.2954 42.7278 55.7082C43.1217 56.1171 43.4379 56.6757 43.6765 57.3839C43.915 58.092 44.0343 58.9801 44.0343 60.048C44.0343 61.0818 43.9359 62.0001 43.7389 62.803C43.5458 63.602 43.2656 64.2761 42.8982 64.8252C42.5347 65.3743 42.0916 65.7909 41.569 66.0749C41.0502 66.3589 40.4632 66.5009 39.8081 66.5009C39.1568 66.5009 38.5755 66.3722 38.0642 66.1146C37.5568 65.8533 37.1402 65.4917 36.8145 65.0297C36.4927 64.5639 36.2863 64.0243 36.1954 63.4108H37.5814C37.7064 63.9447 37.9544 64.3859 38.3255 64.7343C38.7004 65.0789 39.1946 65.2512 39.8081 65.2512C40.7056 65.2512 41.4138 64.8593 41.9326 64.0754C42.4552 63.2915 42.7165 62.1838 42.7165 60.7524H42.6256C42.4135 61.0705 42.1617 61.345 41.8701 61.576C41.5785 61.807 41.2547 61.985 40.8987 62.11C40.5428 62.2349 40.1641 62.2974 39.7627 62.2974C39.0962 62.2974 38.4846 62.1327 37.9279 61.8032C37.375 61.47 36.9319 61.0136 36.5987 60.4342C36.2692 59.8511 36.1045 59.1846 36.1045 58.4348C36.1045 57.7228 36.2635 57.0715 36.5816 56.4807C36.9035 55.8861 37.3542 55.4128 37.9336 55.0606C38.5168 54.7084 39.2022 54.538 39.9899 54.5494ZM39.9899 55.799C39.5127 55.799 39.0829 55.9183 38.7004 56.1569C38.3217 56.3917 38.0207 56.7098 37.7972 57.1112C37.5776 57.5088 37.4678 57.95 37.4678 58.4348C37.4678 58.9195 37.5738 59.3607 37.7859 59.7583C38.0017 60.1521 38.2952 60.4664 38.6664 60.7012C39.0413 60.9322 39.4673 61.0477 39.9444 61.0477C40.3042 61.0477 40.6393 60.9777 40.9499 60.8376C41.2604 60.6937 41.5312 60.4986 41.7622 60.2525C41.997 60.0025 42.1806 59.7204 42.3132 59.4061C42.4457 59.088 42.512 58.7566 42.512 58.412C42.512 57.9576 42.4022 57.5316 42.1825 57.1339C41.9667 56.7363 41.6675 56.4144 41.285 56.1683C40.9063 55.9221 40.4746 55.799 39.9899 55.799Z" fill="black"/>
  <path d="M59.1372 156.428V168.061H57.7284V157.905H57.6603L54.8201 159.79V158.359L57.7284 156.428H59.1372Z" fill="black"/>
  <path d="M48.9167 168.22C48.1366 168.22 47.4473 168.082 46.849 167.805C46.2545 167.525 45.7906 167.141 45.4573 166.652C45.1241 166.16 44.9593 165.6 44.9631 164.971C44.9593 164.479 45.0559 164.024 45.2528 163.608C45.4497 163.187 45.7186 162.837 46.0594 162.557C46.404 162.273 46.7884 162.093 47.2126 162.017V161.949C46.6559 161.805 46.2128 161.493 45.8833 161.012C45.5539 160.527 45.391 159.976 45.3948 159.359C45.391 158.768 45.5406 158.24 45.8436 157.774C46.1465 157.308 46.5631 156.941 47.0933 156.672C47.6272 156.403 48.235 156.269 48.9167 156.269C49.5907 156.269 50.1929 156.403 50.723 156.672C51.2532 156.941 51.6698 157.308 51.9727 157.774C52.2795 158.24 52.4347 158.768 52.4385 159.359C52.4347 159.976 52.2662 160.527 51.933 161.012C51.6035 161.493 51.1661 161.805 50.6208 161.949V162.017C51.0411 162.093 51.4198 162.273 51.7569 162.557C52.0939 162.837 52.3628 163.187 52.5635 163.608C52.7642 164.024 52.8664 164.479 52.8702 164.971C52.8664 165.6 52.696 166.16 52.359 166.652C52.0257 167.141 51.5618 167.525 50.9673 167.805C50.3765 168.082 49.693 168.22 48.9167 168.22ZM48.9167 166.97C49.4431 166.97 49.8975 166.885 50.28 166.715C50.6624 166.544 50.9578 166.304 51.1661 165.993C51.3744 165.683 51.4804 165.319 51.4842 164.903C51.4804 164.463 51.3668 164.075 51.1434 163.738C50.92 163.401 50.6151 163.136 50.2288 162.943C49.8464 162.75 49.409 162.653 48.9167 162.653C48.4206 162.653 47.9775 162.75 47.5875 162.943C47.2012 163.136 46.8963 163.401 46.6729 163.738C46.4533 164.075 46.3453 164.463 46.3491 164.903C46.3453 165.319 46.4457 165.683 46.6502 165.993C46.8585 166.304 47.1558 166.544 47.542 166.715C47.9283 166.885 48.3865 166.97 48.9167 166.97ZM48.9167 161.449C49.3332 161.449 49.7025 161.366 50.0244 161.199C50.35 161.033 50.6056 160.8 50.7912 160.5C50.9768 160.201 51.0714 159.851 51.0752 159.45C51.0714 159.056 50.9787 158.713 50.7969 158.421C50.6151 158.126 50.3633 157.899 50.0414 157.74C49.7195 157.577 49.3446 157.496 48.9167 157.496C48.4812 157.496 48.1006 157.577 47.7749 157.74C47.4492 157.899 47.1974 158.126 47.0194 158.421C46.8414 158.713 46.7543 159.056 46.7581 159.45C46.7543 159.851 46.8433 160.201 47.0251 160.5C47.2107 160.8 47.4663 161.033 47.792 161.199C48.1176 161.366 48.4925 161.449 48.9167 161.449Z" fill="black"/>
  <path d="M36.6499 168.061L41.8531 157.768V157.677H35.8546V156.428H43.3073V157.745L38.1268 168.061H36.6499Z" fill="black"/>
  <defs>
    <linearGradient id="paint0_linear_0_1" x1="-6.48279" y1="173.376" x2="-6.48279" y2="52.4614" gradientUnits="userSpaceOnUse">
      <stop stop-color="#F6EFF7" stop-opacity="0"/>
      <stop offset="0.0185185" stop-opacity="0"/>
      <stop offset="0.037037" stop-opacity="0"/>
      <stop offset="0.0555556" stop-opacity="0"/>
      <stop offset="0.0740741" stop-opacity="0"/>
      <stop offset="0.0925926" stop-opacity="0"/>
      <stop offset="0.111111" stop-opacity="0"/>
      <stop offset="0.12963" stop-opacity="0"/>
      <stop offset="0.148148" stop-opacity="0"/>
      <stop offset="0.166667" stop-color="#EBE8F3" stop-opacity="0"/>
      <stop offset="0.185185" stop-opacity="0"/>
      <stop offset="0.203704" stop-opacity="0"/>
      <stop offset="0.222222" stop-opacity="0"/>
      <stop offset="0.240741" stop-opacity="0"/>
      <stop offset="0.259259" stop-opacity="0"/>
      <stop offset="0.277778" stop-opacity="0"/>
      <stop offset="0.296296" stop-opacity="0"/>
      <stop offset="0.314815" stop-opacity="0"/>
      <stop offset="0.333333" stop-color="#E0E1EE" stop-opacity="0"/>
      <stop offset="0.351852" stop-opacity="0"/>
      <stop offset="0.37037" stop-opacity="0"/>
      <stop offset="0.388889" stop-opacity="0"/>
      <stop offset="0.407407" stop-opacity="0"/>
      <stop offset="0.425926" stop-opacity="0"/>
      <stop offset="0.444444" stop-opacity="0"/>
      <stop offset="0.462963" stop-opacity="0"/>
      <stop offset="0.481481" stop-opacity="0"/>
      <stop offset="0.5" stop-color="#D5D9EA" stop-opacity="0"/>
      <stop offset="0.518519" stop-color="#0000FF" stop-opacity="0.01"/>
      <stop offset="0.537037" stop-color="#8080FF" stop-opacity="0.01"/>
      <stop offset="0.555556" stop-color="#AAAAFF" stop-opacity="0.0117647"/>
      <stop offset="0.574074" stop-color="#9999CC" stop-opacity="0.0196078"/>
      <stop offset="0.592593" stop-color="#80AAD5" stop-opacity="0.0235294"/>
      <stop offset="0.611111" stop-color="#92B6DB" stop-opacity="0.027451"/>
      <stop offset="0.62963" stop-color="#8EAAC6" stop-opacity="0.0352941"/>
      <stop offset="0.648148" stop-color="#99B3CC" stop-opacity="0.0392157"/>
      <stop offset="0.666667" stop-color="#9DBDDA" stop-opacity="0.047364"/>
      <stop offset="0.685185" stop-color="#3C9AA1" stop-opacity="0.14902"/>
      <stop offset="0.703704" stop-color="#2B9195" stop-opacity="0.254902"/>
      <stop offset="0.722222" stop-color="#248D93" stop-opacity="0.360784"/>
      <stop offset="0.740741" stop-color="#228B92" stop-opacity="0.466667"/>
      <stop offset="0.759259" stop-color="#1F8C91" stop-opacity="0.572549"/>
      <stop offset="0.777778" stop-color="#1D8B8F" stop-opacity="0.678431"/>
      <stop offset="0.796296" stop-color="#1D8A8F" stop-opacity="0.784314"/>
      <stop offset="0.814815" stop-color="#1C898F" stop-opacity="0.890196"/>
      <stop offset="0.833333" stop-color="#1C898E"/>
      <stop offset="0.851852" stop-color="#198588"/>
      <stop offset="0.87037" stop-color="#168282"/>
      <stop offset="0.888889" stop-color="#137F7C"/>
      <stop offset="0.907407" stop-color="#107C76"/>
      <stop offset="0.925926" stop-color="#0D7870"/>
      <stop offset="0.944444" stop-color="#0A756A"/>
      <stop offset="0.962963" stop-color="#077264"/>
      <stop offset="0.981481" stop-color="#046F5F"/>
      <stop offset="1" stop-color="#016C59"/>
    </linearGradient>
  </defs>
</svg>