<svg width="156" height="181" viewBox="0 0 156 181" fill="none" xmlns="http://www.w3.org/2000/svg">
  <path d="M146.508 12.3707L146.412 13.0675C146.348 13.5788 146.239 14.1115 146.086 14.6655C145.937 15.2237 145.781 15.7415 145.619 16.2187C145.462 16.696 145.332 17.0753 145.23 17.3565H143.874C143.93 17.0923 144.006 16.7344 144.105 16.2827C144.203 15.8352 144.298 15.3345 144.392 14.7805C144.486 14.2265 144.556 13.6619 144.603 13.0866L144.667 12.3707H146.508Z" fill="black"/>
  <path d="M137.688 14.3587C136.721 14.3587 135.888 14.152 135.189 13.7386C134.495 13.321 133.958 12.7351 133.578 11.9808C133.203 11.2223 133.016 10.3338 133.016 9.31533C133.016 8.30965 133.203 7.42328 133.578 6.65624C133.958 5.88919 134.486 5.29047 135.164 4.86007C135.845 4.42968 136.642 4.21448 137.554 4.21448C138.108 4.21448 138.645 4.3061 139.165 4.48934C139.685 4.67257 140.152 4.96022 140.565 5.35226C140.978 5.74431 141.304 6.25354 141.543 6.87996C141.781 7.50212 141.901 8.25851 141.901 9.14914V9.82669H134.096V8.39488H140.028C140.028 7.89203 139.926 7.44672 139.721 7.05894C139.517 6.66689 139.229 6.35794 138.858 6.13209C138.492 5.90624 138.061 5.79331 137.567 5.79331C137.03 5.79331 136.561 5.92542 136.161 6.18962C135.764 6.44956 135.458 6.79047 135.24 7.21235C135.027 7.62996 134.921 8.0838 134.921 8.57385V9.69246C134.921 10.3487 135.036 10.9069 135.266 11.3672C135.5 11.8274 135.826 12.179 136.244 12.4219C136.661 12.6605 137.149 12.7798 137.708 12.7798C138.07 12.7798 138.4 12.7287 138.698 12.6264C138.997 12.5199 139.255 12.3622 139.472 12.1534C139.689 11.9446 139.855 11.6868 139.97 11.38L141.779 11.706C141.634 12.2386 141.375 12.7052 141 13.1058C140.629 13.5021 140.162 13.8111 139.6 14.0327C139.041 14.25 138.404 14.3587 137.688 14.3587Z" fill="black"/>
  <path d="M125.865 14.3523C125.072 14.3523 124.365 14.1498 123.743 13.745C123.125 13.3359 122.639 12.7542 122.285 12C121.936 11.2415 121.761 10.3317 121.761 9.27057C121.761 8.20949 121.938 7.30182 122.292 6.54756C122.65 5.7933 123.14 5.21589 123.762 4.81532C124.384 4.41475 125.089 4.21447 125.878 4.21447C126.487 4.21447 126.977 4.31674 127.348 4.52128C127.723 4.72157 128.013 4.95594 128.217 5.22441C128.426 5.49288 128.588 5.72938 128.703 5.93393H128.818V1.06958H130.729V14.1605H128.863V12.6328H128.703C128.588 12.8416 128.422 13.0802 128.204 13.3487C127.991 13.6172 127.697 13.8515 127.322 14.0518C126.947 14.2521 126.461 14.3523 125.865 14.3523ZM126.287 12.7223C126.836 12.7223 127.301 12.5774 127.68 12.2876C128.064 11.9936 128.353 11.5866 128.549 11.0667C128.75 10.5469 128.85 9.94174 128.85 9.2514C128.85 8.56958 128.752 7.97299 128.556 7.46163C128.36 6.95026 128.072 6.55182 127.693 6.26631C127.314 5.9808 126.845 5.83805 126.287 5.83805C125.711 5.83805 125.232 5.98719 124.848 6.28549C124.465 6.58378 124.175 6.99075 123.979 7.50637C123.787 8.022 123.692 8.60367 123.692 9.2514C123.692 9.90765 123.79 10.4978 123.986 11.022C124.182 11.5461 124.471 11.9616 124.855 12.2684C125.243 12.571 125.72 12.7223 126.287 12.7223Z" fill="black"/>
  <path d="M117.707 14.1605V4.34229H119.618V14.1605H117.707ZM118.672 2.82737C118.34 2.82737 118.054 2.71657 117.816 2.49498C117.581 2.26913 117.464 2.00067 117.464 1.68959C117.464 1.37425 117.581 1.10578 117.816 0.884188C118.054 0.658336 118.34 0.54541 118.672 0.54541C119.004 0.54541 119.288 0.658336 119.522 0.884188C119.761 1.10578 119.88 1.37425 119.88 1.68959C119.88 2.00067 119.761 2.26913 119.522 2.49498C119.288 2.71657 119.004 2.82737 118.672 2.82737Z" fill="black"/>
  <path d="M109.301 4.34229L111.468 8.16473L113.654 4.34229H115.745L112.683 9.25138L115.77 14.1605H113.68L111.468 10.4914L109.263 14.1605H107.167L110.222 9.25138L107.205 4.34229H109.301Z" fill="black"/>
  <path d="M101.47 14.3587C100.549 14.3587 99.7458 14.1477 99.0597 13.7258C98.3736 13.304 97.841 12.7138 97.4617 11.9552C97.0825 11.1967 96.8928 10.3104 96.8928 9.29615C96.8928 8.27769 97.0825 7.38706 97.4617 6.62428C97.841 5.86149 98.3736 5.26916 99.0597 4.84729C99.7458 4.42542 100.549 4.21448 101.47 4.21448C102.39 4.21448 103.193 4.42542 103.879 4.84729C104.565 5.26916 105.098 5.86149 105.477 6.62428C105.857 7.38706 106.046 8.27769 106.046 9.29615C106.046 10.3104 105.857 11.1967 105.477 11.9552C105.098 12.7138 104.565 13.304 103.879 13.7258C103.193 14.1477 102.39 14.3587 101.47 14.3587ZM101.476 12.7543C102.073 12.7543 102.567 12.5966 102.959 12.2812C103.351 11.9659 103.641 11.5462 103.828 11.022C104.02 10.4979 104.116 9.92044 104.116 9.28976C104.116 8.66334 104.02 8.08806 103.828 7.56391C103.641 7.0355 103.351 6.61149 102.959 6.29189C102.567 5.97229 102.073 5.81249 101.476 5.81249C100.875 5.81249 100.376 5.97229 99.9802 6.29189C99.5881 6.61149 99.2962 7.0355 99.1045 7.56391C98.917 8.08806 98.8232 8.66334 98.8232 9.28976C98.8232 9.92044 98.917 10.4979 99.1045 11.022C99.2962 11.5462 99.5881 11.9659 99.9802 12.2812C100.376 12.5966 100.875 12.7543 101.476 12.7543Z" fill="black"/>
  <path d="M92.8514 14.1605V4.34229H94.7626V14.1605H92.8514ZM93.8166 2.82737C93.4842 2.82737 93.1987 2.71657 92.9601 2.49498C92.7257 2.26913 92.6085 2.00067 92.6085 1.68959C92.6085 1.37425 92.7257 1.10578 92.9601 0.884188C93.1987 0.658336 93.4842 0.54541 93.8166 0.54541C94.149 0.54541 94.4324 0.658336 94.6668 0.884188C94.9054 1.10578 95.0247 1.37425 95.0247 1.68959C95.0247 2.00067 94.9054 2.26913 94.6668 2.49498C94.4324 2.71657 94.149 2.82737 93.8166 2.82737Z" fill="black"/>
  <path d="M85.2593 14.3523C84.4667 14.3523 83.7593 14.1498 83.1372 13.745C82.5193 13.3359 82.0335 12.7542 81.6798 12C81.3304 11.2415 81.1556 10.3317 81.1556 9.27057C81.1556 8.20949 81.3325 7.30182 81.6862 6.54756C82.0441 5.7933 82.5342 5.21589 83.1563 4.81532C83.7785 4.41475 84.4838 4.21447 85.2721 4.21447C85.8815 4.21447 86.3715 4.31674 86.7423 4.52128C87.1173 4.72157 87.4071 4.95594 87.6116 5.22441C87.8204 5.49288 87.9823 5.72938 88.0974 5.93393H88.2125V1.06958H90.1237V14.1605H88.2572V12.6328H88.0974C87.9823 12.8416 87.8161 13.0802 87.5988 13.3487C87.3857 13.6172 87.0917 13.8515 86.7167 14.0518C86.3417 14.2521 85.8559 14.3523 85.2593 14.3523ZM85.6812 12.7223C86.2309 12.7223 86.6954 12.5774 87.0747 12.2876C87.4582 11.9936 87.748 11.5866 87.944 11.0667C88.1443 10.5469 88.2444 9.94174 88.2444 9.2514C88.2444 8.56958 88.1464 7.97299 87.9504 7.46163C87.7544 6.95026 87.4667 6.55182 87.0875 6.26631C86.7082 5.9808 86.2394 5.83805 85.6812 5.83805C85.1059 5.83805 84.6265 5.98719 84.243 6.28549C83.8595 6.58378 83.5697 6.99075 83.3737 7.50637C83.1819 8.022 83.086 8.60367 83.086 9.2514C83.086 9.90765 83.184 10.4978 83.3801 11.022C83.5761 11.5461 83.8659 11.9616 84.2494 12.2684C84.6372 12.571 85.1144 12.7223 85.6812 12.7223Z" fill="black"/>
  <path d="M67.9736 8.33095V14.1605H66.0624V4.34232H67.8969V5.94033H68.0183C68.2442 5.42044 68.5979 5.00283 69.0794 4.68749C69.5652 4.37215 70.1767 4.21448 70.9139 4.21448C71.583 4.21448 72.1689 4.3551 72.6718 4.63635C73.1746 4.91334 73.5645 5.32669 73.8415 5.87641C74.1185 6.42613 74.257 7.10581 74.257 7.91547V14.1605H72.3458V8.14559C72.3458 7.43394 72.1604 6.87783 71.7897 6.47726C71.4189 6.07243 70.9097 5.87002 70.262 5.87002C69.8188 5.87002 69.4246 5.9659 69.0794 6.15766C68.7385 6.34942 68.4679 6.63067 68.2676 7.00141C68.0716 7.36789 67.9736 7.81107 67.9736 8.33095Z" fill="black"/>
  <path d="M59.7295 14.3587C58.7621 14.3587 57.929 14.152 57.2302 13.7386C56.5356 13.321 55.9986 12.7351 55.6194 11.9808C55.2444 11.2223 55.0569 10.3338 55.0569 9.31533C55.0569 8.30965 55.2444 7.42328 55.6194 6.65624C55.9986 5.88919 56.5271 5.29047 57.2046 4.86007C57.8864 4.42968 58.6833 4.21448 59.5952 4.21448C60.1492 4.21448 60.6861 4.3061 61.206 4.48934C61.7259 4.67257 62.1925 4.96022 62.6059 5.35226C63.0192 5.74431 63.3452 6.25354 63.5839 6.87996C63.8225 7.50212 63.9418 8.25851 63.9418 9.14914V9.82669H56.1371V8.39488H62.069C62.069 7.89203 61.9667 7.44672 61.7621 7.05894C61.5576 6.66689 61.27 6.35794 60.8992 6.13209C60.5327 5.90624 60.1023 5.79331 59.608 5.79331C59.0711 5.79331 58.6023 5.92542 58.2018 6.18962C57.8055 6.44956 57.4986 6.79047 57.2813 7.21235C57.0682 7.62996 56.9617 8.0838 56.9617 8.57385V9.69246C56.9617 10.3487 57.0768 10.9069 57.3069 11.3672C57.5413 11.8274 57.8673 12.179 58.2849 12.4219C58.7025 12.6605 59.1904 12.7798 59.7486 12.7798C60.1109 12.7798 60.4411 12.7287 60.7394 12.6264C61.0377 12.5199 61.2955 12.3622 61.5129 12.1534C61.7302 11.9446 61.8964 11.6868 62.0114 11.38L63.8204 11.706C63.6755 12.2386 63.4156 12.7052 63.0406 13.1058C62.6698 13.5021 62.2032 13.8111 61.6407 14.0327C61.0825 14.25 60.4454 14.3587 59.7295 14.3587Z" fill="black"/>
  <path d="M48.5051 18.0469C47.7252 18.0469 47.0541 17.9446 46.4916 17.74C45.9333 17.5355 45.4774 17.2649 45.1237 16.9283C44.77 16.5916 44.5058 16.223 44.3311 15.8224L45.9738 15.1449C46.0889 15.3324 46.2423 15.5305 46.4341 15.7393C46.6301 15.9524 46.8943 16.1335 47.2267 16.2827C47.5633 16.4318 47.9958 16.5064 48.5243 16.5064C49.2487 16.5064 49.8474 16.3295 50.3204 15.9758C50.7934 15.6264 51.0299 15.0682 51.0299 14.3011V12.3707H50.9085C50.7934 12.5795 50.6272 12.8118 50.4099 13.0675C50.1968 13.3231 49.9028 13.5447 49.5278 13.7322C49.1528 13.9197 48.6649 14.0135 48.064 14.0135C47.2885 14.0135 46.5896 13.8324 45.9674 13.4702C45.3495 13.1037 44.8595 12.5646 44.4973 11.853C44.1393 11.1371 43.9603 10.2571 43.9603 9.21306C43.9603 8.16902 44.1372 7.27414 44.4909 6.5284C44.8488 5.78266 45.3389 5.21164 45.961 4.81533C46.5832 4.41476 47.2885 4.21448 48.0768 4.21448C48.6862 4.21448 49.1784 4.31675 49.5534 4.5213C49.9284 4.72158 50.2203 4.95595 50.4291 5.22442C50.6421 5.49289 50.8062 5.72939 50.9213 5.93394H51.0619V4.34232H52.9348V14.3778C52.9348 15.2216 52.7387 15.9141 52.3467 16.4552C51.9546 16.9964 51.4241 17.397 50.7551 17.6569C50.0903 17.9169 49.3403 18.0469 48.5051 18.0469ZM48.4859 12.4283C49.0356 12.4283 49.5001 12.3004 49.8794 12.0447C50.2629 11.7848 50.5527 11.4141 50.7487 10.9325C50.949 10.4467 51.0491 9.86505 51.0491 9.18749C51.0491 8.52698 50.9511 7.9453 50.7551 7.44246C50.5591 6.93962 50.2714 6.54757 49.8921 6.26632C49.5129 5.98081 49.0441 5.83806 48.4859 5.83806C47.9106 5.83806 47.4312 5.9872 47.0477 6.2855C46.6642 6.57953 46.3744 6.9801 46.1784 7.4872C45.9866 7.99431 45.8907 8.56107 45.8907 9.18749C45.8907 9.83096 45.9887 10.3956 46.1848 10.8814C46.3808 11.3672 46.6706 11.7464 47.0541 12.0192C47.4419 12.2919 47.9191 12.4283 48.4859 12.4283Z" fill="black"/>
  <path d="M37.6785 14.3587C36.7581 14.3587 35.9548 14.1477 35.2687 13.7258C34.5826 13.304 34.05 12.7138 33.6707 11.9552C33.2914 11.1967 33.1018 10.3104 33.1018 9.29615C33.1018 8.27769 33.2914 7.38706 33.6707 6.62428C34.05 5.86149 34.5826 5.26916 35.2687 4.84729C35.9548 4.42542 36.7581 4.21448 37.6785 4.21448C38.599 4.21448 39.4022 4.42542 40.0883 4.84729C40.7744 5.26916 41.3071 5.86149 41.6863 6.62428C42.0656 7.38706 42.2552 8.27769 42.2552 9.29615C42.2552 10.3104 42.0656 11.1967 41.6863 11.9552C41.3071 12.7138 40.7744 13.304 40.0883 13.7258C39.4022 14.1477 38.599 14.3587 37.6785 14.3587ZM37.6849 12.7543C38.2815 12.7543 38.7758 12.5966 39.1679 12.2812C39.5599 11.9659 39.8497 11.5462 40.0372 11.022C40.2289 10.4979 40.3248 9.92044 40.3248 9.28976C40.3248 8.66334 40.2289 8.08806 40.0372 7.56391C39.8497 7.0355 39.5599 6.61149 39.1679 6.29189C38.7758 5.97229 38.2815 5.81249 37.6849 5.81249C37.084 5.81249 36.5855 5.97229 36.1892 6.29189C35.7971 6.61149 35.5052 7.0355 35.3135 7.56391C35.126 8.08806 35.0322 8.66334 35.0322 9.28976C35.0322 9.92044 35.126 10.4979 35.3135 11.022C35.5052 11.5462 35.7971 11.9659 36.1892 12.2812C36.5855 12.5966 37.084 12.7543 37.6849 12.7543Z" fill="black"/>
  <path d="M26.9862 14.1605V4.34233H28.8335V5.90199H28.9358C29.1148 5.37358 29.4301 4.9581 29.8818 4.65554C30.3378 4.34872 30.8534 4.19531 31.4287 4.19531C31.548 4.19531 31.6886 4.19957 31.8506 4.2081C32.0167 4.21662 32.1467 4.22727 32.2405 4.24006V6.06818C32.1638 6.04688 32.0274 6.02344 31.8314 5.99787C31.6354 5.96804 31.4393 5.95312 31.2433 5.95312C30.7916 5.95312 30.3889 6.04901 30.0352 6.24077C29.6858 6.42827 29.4088 6.69034 29.2042 7.02699C28.9997 7.35938 28.8974 7.73864 28.8974 8.16477V14.1605H26.9862Z" fill="black"/>
  <path d="M24.8721 4.34226V5.87635H19.5092V4.34226H24.8721ZM20.9474 1.98999H22.8586V11.2776C22.8586 11.6484 22.914 11.9275 23.0248 12.115C23.1356 12.2982 23.2783 12.4239 23.453 12.4921C23.632 12.556 23.8259 12.588 24.0347 12.588C24.1881 12.588 24.3224 12.5773 24.4374 12.556C24.5525 12.5347 24.642 12.5177 24.7059 12.5049L25.0511 14.0837C24.9403 14.1264 24.7826 14.169 24.578 14.2116C24.3735 14.2585 24.1178 14.284 23.811 14.2883C23.3082 14.2968 22.8394 14.2073 22.4048 14.0198C21.9701 13.8323 21.6185 13.5425 21.3501 13.1505C21.0816 12.7585 20.9474 12.2663 20.9474 11.6739V1.98999Z" fill="black"/>
  <path d="M15.8065 14.1605V4.34229H17.7177V14.1605H15.8065ZM16.7717 2.82737C16.4393 2.82737 16.1538 2.71657 15.9152 2.49498C15.6808 2.26913 15.5636 2.00067 15.5636 1.68959C15.5636 1.37425 15.6808 1.10578 15.9152 0.884188C16.1538 0.658336 16.4393 0.54541 16.7717 0.54541C17.1041 0.54541 17.3875 0.658336 17.6218 0.884188C17.8605 1.10578 17.9798 1.37425 17.9798 1.68959C17.9798 2.00067 17.8605 2.26913 17.6218 2.49498C17.3875 2.71657 17.1041 2.82737 16.7717 2.82737Z" fill="black"/>
  <path d="M13.0787 1.06958V14.1605H11.2634L4.60929 4.55964H4.48784V14.1605H2.5127V1.06958H4.34082L11.0013 10.6832H11.1228V1.06958H13.0787Z" fill="black"/>
  <path d="M45.1835 33.8092V32.7947L48.9932 28.6243C49.4403 28.1359 49.8085 27.7114 50.0978 27.3507C50.3871 26.9862 50.6012 26.6443 50.7402 26.325C50.883 26.0019 50.9544 25.6637 50.9544 25.3106C50.9544 24.9048 50.8567 24.5535 50.6613 24.2567C50.4697 23.9599 50.2067 23.7307 49.8724 23.5691C49.538 23.4076 49.1623 23.3268 48.7452 23.3268C48.3019 23.3268 47.9149 23.4189 47.5843 23.603C47.2574 23.7833 47.0038 24.0369 46.8235 24.3638C46.6469 24.6906 46.5586 25.0739 46.5586 25.5134H45.2286C45.2286 24.8372 45.3845 24.2435 45.6963 23.7326C46.0082 23.2216 46.4327 22.8233 46.97 22.5378C47.511 22.2523 48.1178 22.1095 48.7903 22.1095C49.4666 22.1095 50.0658 22.2523 50.5881 22.5378C51.1103 22.8233 51.5198 23.2085 51.8167 23.6931C52.1135 24.1778 52.2619 24.7169 52.2619 25.3106C52.2619 25.7351 52.1849 26.1503 52.0308 26.556C51.8805 26.9581 51.6175 27.407 51.2418 27.903C50.8699 28.3952 50.3533 28.9963 49.692 29.7064L47.0996 32.4791V32.5693H52.4648V33.8092H45.1835Z" fill="black"/>
  <path d="M31.4127 33.8091V25.1528H32.6977V26.5053H32.8104C32.9907 26.0432 33.2819 25.6844 33.6839 25.4289C34.0859 25.1697 34.5687 25.04 35.1323 25.04C35.7033 25.04 36.1786 25.1697 36.5581 25.4289C36.9413 25.6844 37.24 26.0432 37.4542 26.5053H37.5443C37.766 26.0582 38.0985 25.7032 38.5418 25.4402C38.9852 25.1734 39.5168 25.04 40.1367 25.04C40.9107 25.04 41.5438 25.2824 42.036 25.767C42.5281 26.248 42.7742 26.9975 42.7742 28.0157V33.8091H41.4442V28.0157C41.4442 27.377 41.2695 26.9205 40.9201 26.6462C40.5707 26.3719 40.1593 26.2348 39.6859 26.2348C39.0772 26.2348 38.6057 26.4189 38.2713 26.7871C37.937 27.1515 37.7698 27.6137 37.7698 28.1735V33.8091H36.4172V27.8804C36.4172 27.3882 36.2575 26.9919 35.9382 26.6913C35.6188 26.387 35.2074 26.2348 34.704 26.2348C34.3583 26.2348 34.0352 26.3269 33.7346 26.5109C33.4378 26.695 33.1973 26.9505 33.0133 27.2774C32.8329 27.6005 32.7427 27.9743 32.7427 28.3989V33.8091H31.4127Z" fill="black"/>
  <path d="M29.8361 21.7263L26.1166 35.545H24.8993L28.6188 21.7263H29.8361Z" fill="black"/>
  <path d="M19.5792 37.2356C18.9367 37.2356 18.3844 37.153 17.9223 36.9877C17.4602 36.8261 17.0751 36.612 16.767 36.3452C16.4627 36.0822 16.2203 35.8004 16.04 35.4999L17.0995 34.7559C17.2197 34.9137 17.3719 35.0941 17.556 35.297C17.7401 35.5036 17.9918 35.6821 18.3112 35.8324C18.6343 35.9864 19.057 36.0634 19.5792 36.0634C20.278 36.0634 20.8547 35.8943 21.3094 35.5562C21.764 35.2181 21.9913 34.6883 21.9913 33.9669V32.2086H21.8786C21.7809 32.3664 21.6419 32.5618 21.4615 32.7947C21.2849 33.0239 21.0295 33.2287 20.6951 33.409C20.3644 33.5856 19.9173 33.6739 19.3538 33.6739C18.655 33.6739 18.0275 33.5086 17.4715 33.178C16.9192 32.8473 16.4815 32.3664 16.1584 31.7352C15.839 31.104 15.6793 30.3376 15.6793 29.4359C15.6793 28.5492 15.8352 27.7771 16.1471 27.1196C16.4589 26.4583 16.8929 25.9474 17.4489 25.5867C18.005 25.2223 18.6474 25.04 19.3763 25.04C19.9399 25.04 20.387 25.134 20.7176 25.3218C21.052 25.5059 21.3075 25.7163 21.4841 25.953C21.6644 26.186 21.8034 26.3776 21.9011 26.5279H22.0364V25.1528H23.3213V34.0571C23.3213 34.801 23.1522 35.4059 22.8141 35.8718C22.4797 36.3414 22.0288 36.6852 21.4615 36.9031C20.898 37.1248 20.2705 37.2356 19.5792 37.2356ZM19.5341 32.4791C20.0676 32.4791 20.5185 32.357 20.8867 32.1128C21.2549 31.8686 21.5348 31.5173 21.7264 31.0589C21.918 30.6006 22.0138 30.052 22.0138 29.4133C22.0138 28.7896 21.9199 28.2392 21.732 27.7621C21.5442 27.2849 21.2662 26.9111 20.898 26.6406C20.5298 26.3701 20.0751 26.2348 19.5341 26.2348C18.9706 26.2348 18.5009 26.3776 18.1252 26.6631C17.7532 26.9487 17.4733 27.3319 17.2855 27.8128C17.1014 28.2937 17.0093 28.8272 17.0093 29.4133C17.0093 30.0145 17.1033 30.5461 17.2911 31.0082C17.4827 31.4666 17.7645 31.8273 18.1365 32.0903C18.5122 32.3495 18.9781 32.4791 19.5341 32.4791Z" fill="black"/>
  <path d="M2.29175 33.8091V25.1528H3.57668V26.5053H3.6894C3.86974 26.0432 4.16091 25.6844 4.56292 25.4289C4.96494 25.1697 5.44773 25.04 6.01129 25.04C6.58238 25.04 7.05765 25.1697 7.43712 25.4289C7.82035 25.6844 8.11904 26.0432 8.33319 26.5053H8.42336C8.64503 26.0582 8.97754 25.7032 9.42088 25.4402C9.86422 25.1734 10.3958 25.04 11.0158 25.04C11.7897 25.04 12.4228 25.2824 12.915 25.767C13.4072 26.248 13.6533 26.9975 13.6533 28.0157V33.8091H12.3232V28.0157C12.3232 27.377 12.1485 26.9205 11.7991 26.6462C11.4497 26.3719 11.0383 26.2348 10.5649 26.2348C9.95627 26.2348 9.48475 26.4189 9.15036 26.7871C8.81598 27.1515 8.64879 27.6137 8.64879 28.1735V33.8091H7.29623V27.8804C7.29623 27.3882 7.13655 26.9919 6.81719 26.6913C6.49784 26.387 6.08644 26.2348 5.58298 26.2348C5.23733 26.2348 4.91422 26.3269 4.61365 26.5109C4.31683 26.695 4.07638 26.9505 3.89228 27.2774C3.71194 27.6005 3.62177 27.9743 3.62177 28.3989V33.8091H2.29175Z" fill="black"/>
  <path d="M27.1088 52.1591H0.875366V172.769H27.1088V52.1591Z" fill="url(#paint0_linear_0_1)"/>
  <path fill-rule="evenodd" clip-rule="evenodd" d="M0.715454 51.9991H27.2688V172.929H0.715454V51.9991ZM1.03537 52.3191V172.609H26.9489V52.3191H1.03537Z" fill="black"/>
  <path d="M43.7219 66.3419V65.3195L47.5619 61.116C48.0125 60.6237 48.3836 60.1957 48.6752 59.8322C48.9668 59.4649 49.1827 59.1203 49.3228 58.7984C49.4667 58.4727 49.5386 58.1319 49.5386 57.7759C49.5386 57.3669 49.4402 57.0128 49.2433 56.7137C49.0501 56.4145 48.785 56.1835 48.448 56.0207C48.111 55.8578 47.7323 55.7764 47.3119 55.7764C46.8651 55.7764 46.475 55.8692 46.1418 56.0547C45.8123 56.2365 45.5567 56.4921 45.3749 56.8216C45.1969 57.1511 45.1079 57.5373 45.1079 57.9804H43.7674C43.7674 57.2987 43.9245 56.7004 44.2388 56.1854C44.5532 55.6704 44.9811 55.269 45.5226 54.9811C46.0679 54.6933 46.6795 54.5494 47.3574 54.5494C48.039 54.5494 48.643 54.6933 49.1694 54.9811C49.6958 55.269 50.1086 55.6571 50.4077 56.1456C50.7069 56.6341 50.8565 57.1776 50.8565 57.7759C50.8565 58.2038 50.7789 58.6223 50.6236 59.0313C50.4721 59.4365 50.207 59.889 49.8283 60.3889C49.4534 60.885 48.9327 61.4909 48.2662 62.2066L45.6533 65.0014V65.0923H51.061V66.3419H43.7219Z" fill="black"/>
  <path d="M40.3762 54.7085V66.3419H38.9674V56.1854H38.8993L36.0591 58.0713V56.6398L38.9674 54.7085H40.3762Z" fill="black"/>
  <path d="M40.3762 156.428V168.061H38.9674V157.905H38.8993L36.0591 159.79V158.359L38.9674 156.428H40.3762Z" fill="black"/>
  <defs>
    <linearGradient id="paint0_linear_0_1" x1="-6.48279" y1="173.376" x2="-6.48279" y2="52.4614" gradientUnits="userSpaceOnUse">
      <stop stop-color="#440154" stop-opacity="0"/>
      <stop offset="0.0181818" stop-opacity="0"/>
      <stop offset="0.0363636" stop-opacity="0"/>
      <stop offset="0.0545455" stop-opacity="0"/>
      <stop offset="0.0727273" stop-opacity="0"/>
      <stop offset="0.0909091" stop-color="#482173" stop-opacity="0"/>
      <stop offset="0.109091" stop-opacity="0"/>
      <stop offset="0.127273" stop-opacity="0"/>
      <stop offset="0.145455" stop-opacity="0"/>
      <stop offset="0.163636" stop-opacity="0"/>
      <stop offset="0.181818" stop-color="#423E85" stop-opacity="0"/>
      <stop offset="0.2" stop-color="#38578A" stop-opacity="0.196078"/>
      <stop offset="0.218182" stop-color="#38588B" stop-opacity="0.396078"/>
      <stop offset="0.236364" stop-color="#37578B" stop-opacity="0.596078"/>
      <stop offset="0.254545" stop-color="#37588B" stop-opacity="0.796078"/>
      <stop offset="0.272727" stop-color="#38588C"/>
      <stop offset="0.290909" stop-color="#355C8C"/>
      <stop offset="0.309091" stop-color="#33618C"/>
      <stop offset="0.327273" stop-color="#31658D"/>
      <stop offset="0.345455" stop-color="#2F6A8D"/>
      <stop offset="0.363636" stop-color="#2D6F8E"/>
      <stop offset="0.381818" stop-color="#2B738E"/>
      <stop offset="0.4" stop-color="#29778E"/>
      <stop offset="0.418182" stop-color="#287C8E"/>
      <stop offset="0.436364" stop-color="#26808E"/>
      <stop offset="0.454545" stop-color="#25858E"/>
      <stop offset="0.472727" stop-color="#23898D"/>
      <stop offset="0.490909" stop-color="#228D8C"/>
      <stop offset="0.509091" stop-color="#20928B"/>
      <stop offset="0.527273" stop-color="#1F968A"/>
      <stop offset="0.545455" stop-color="#1E9B89"/>
      <stop offset="0.563636" stop-color="#209F86"/>
      <stop offset="0.581818" stop-color="#23A384"/>
      <stop offset="0.6" stop-color="#25A782"/>
      <stop offset="0.618182" stop-color="#28AB80"/>
      <stop offset="0.636364" stop-color="#2BB07E"/>
      <stop offset="0.654545" stop-color="#32B379"/>
      <stop offset="0.672727" stop-color="#3AB775"/>
      <stop offset="0.690909" stop-color="#41BB71"/>
      <stop offset="0.709091" stop-color="#49BF6D"/>
      <stop offset="0.727273" stop-color="#51C469"/>
      <stop offset="0.745455" stop-color="#5BC762"/>
      <stop offset="0.763636" stop-color="#65CA5C"/>
      <stop offset="0.781818" stop-color="#70CD56"/>
      <stop offset="0.8" stop-color="#7AD050"/>
      <stop offset="0.818182" stop-color="#85D44A"/>
      <stop offset="0.836364" stop-color="#91D642"/>
      <stop offset="0.854545" stop-color="#9DD83A"/>
      <stop offset="0.872727" stop-color="#A9DB32"/>
      <stop offset="0.890909" stop-color="#B5DD2A"/>
      <stop offset="0.909091" stop-color="#C2E023"/>
      <stop offset="0.927273" stop-color="#CDE123"/>
      <stop offset="0.945455" stop-color="#D9E223"/>
      <stop offset="0.963636" stop-color="#E5E424"/>
      <stop offset="0.981818" stop-color="#F1E524"/>
      <stop offset="1" stop-color="#FDE725"/>
    </linearGradient>
  </defs>
</svg>