<svg width="156" height="181" viewBox="0 0 156 181" fill="none" xmlns="http://www.w3.org/2000/svg">
  <path d="M50.0735 11.89L49.9776 12.5867C49.9137 13.0981 49.805 13.6308 49.6516 14.1848C49.5024 14.743 49.3469 15.2608 49.185 15.738C49.0273 16.2153 48.8973 16.5946 48.7951 16.8758H47.4399C47.4953 16.6116 47.572 16.2537 47.6701 15.8019C47.7681 15.3545 47.8639 14.8538 47.9577 14.2998C48.0514 13.7458 48.1218 13.1812 48.1686 12.6059L48.2326 11.89H50.0735Z" fill="black"/>
  <path d="M38.7404 7.85024V13.6798H36.8292V3.86161H38.6637V5.45962H38.7851C39.011 4.93973 39.3647 4.52212 39.8462 4.20678C40.332 3.89144 40.9435 3.73376 41.6807 3.73376C42.3498 3.73376 42.9357 3.87439 43.4385 4.15564C43.9414 4.43263 44.3313 4.84598 44.6083 5.3957C44.8853 5.94541 45.0238 6.6251 45.0238 7.43476V13.6798H43.1125V7.66487C43.1125 6.95323 42.9272 6.39712 42.5564 5.99655C42.1857 5.59172 41.6765 5.3893 41.0287 5.3893C40.5856 5.3893 40.1914 5.48519 39.8462 5.67695C39.5053 5.86871 39.2347 6.14996 39.0344 6.5207C38.8384 6.88717 38.7404 7.33036 38.7404 7.85024Z" fill="black"/>
  <path d="M30.1191 13.8779C29.1986 13.8779 28.3953 13.667 27.7093 13.2451C27.0232 12.8233 26.4905 12.2331 26.1112 11.4745C25.732 10.716 25.5424 9.82964 25.5424 8.81544C25.5424 7.79697 25.732 6.90635 26.1112 6.14357C26.4905 5.38078 27.0232 4.78845 27.7093 4.36658C28.3953 3.9447 29.1986 3.73376 30.1191 3.73376C31.0395 3.73376 31.8428 3.9447 32.5289 4.36658C33.2149 4.78845 33.7476 5.38078 34.1269 6.14357C34.5061 6.90635 34.6958 7.79697 34.6958 8.81544C34.6958 9.82964 34.5061 10.716 34.1269 11.4745C33.7476 12.2331 33.2149 12.8233 32.5289 13.2451C31.8428 13.667 31.0395 13.8779 30.1191 13.8779ZM30.1255 12.2735C30.722 12.2735 31.2164 12.1159 31.6084 11.8005C32.0005 11.4852 32.2902 11.0654 32.4777 10.5413C32.6695 10.0171 32.7654 9.43973 32.7654 8.80905C32.7654 8.18263 32.6695 7.60734 32.4777 7.0832C32.2902 6.55479 32.0005 6.13078 31.6084 5.81118C31.2164 5.49158 30.722 5.33178 30.1255 5.33178C29.5246 5.33178 29.026 5.49158 28.6297 5.81118C28.2377 6.13078 27.9458 6.55479 27.754 7.0832C27.5665 7.60734 27.4728 8.18263 27.4728 8.80905C27.4728 9.43973 27.5665 10.0171 27.754 10.5413C27.9458 11.0654 28.2377 11.4852 28.6297 11.8005C29.026 12.1159 29.5246 12.2735 30.1255 12.2735Z" fill="black"/>
  <path d="M16.1285 13.6798V12.3694L21.4467 5.61305V5.52357H16.3011V3.86163H23.8309V5.2551L18.7173 11.9284V12.0179H24.0099V13.6798H16.1285Z" fill="black"/>
  <path d="M14.0239 7.13434C14.0239 8.53207 13.7682 9.73378 13.2569 10.7395C12.7455 11.7409 12.0445 12.5122 11.1539 13.0534C10.2675 13.5903 9.25971 13.8588 8.13045 13.8588C6.99693 13.8588 5.98485 13.5903 5.09423 13.0534C4.20786 12.5122 3.509 11.7387 2.99764 10.7331C2.48627 9.72738 2.23059 8.52781 2.23059 7.13434C2.23059 5.73662 2.48627 4.53704 2.99764 3.53562C3.509 2.52994 4.20786 1.75863 5.09423 1.2217C5.98485 0.680509 6.99693 0.409912 8.13045 0.409912C9.25971 0.409912 10.2675 0.680509 11.1539 1.2217C12.0445 1.75863 12.7455 2.52994 13.2569 3.53562C13.7682 4.53704 14.0239 5.73662 14.0239 7.13434ZM12.0679 7.13434C12.0679 6.069 11.8954 5.17199 11.5502 4.44329C11.2093 3.71034 10.7405 3.15636 10.1439 2.78136C9.55161 2.4021 8.88045 2.21247 8.13045 2.21247C7.37619 2.21247 6.70289 2.4021 6.11056 2.78136C5.51823 3.15636 5.04948 3.71034 4.70431 4.44329C4.3634 5.17199 4.19295 6.069 4.19295 7.13434C4.19295 8.19968 4.3634 9.09883 4.70431 9.83179C5.04948 10.5605 5.51823 11.1145 6.11056 11.4937C6.70289 11.8687 7.37619 12.0562 8.13045 12.0562C8.88045 12.0562 9.55161 11.8687 10.1439 11.4937C10.7405 11.1145 11.2093 10.5605 11.5502 9.83179C11.8954 9.09883 12.0679 8.19968 12.0679 7.13434Z" fill="black"/>
  <path d="M45.3232 32.3284V31.314L49.133 27.1436C49.5801 26.6552 49.9483 26.2306 50.2375 25.87C50.5268 25.5055 50.741 25.1636 50.88 24.8443C51.0228 24.5212 51.0942 24.183 51.0942 23.8298C51.0942 23.4241 50.9965 23.0728 50.8011 22.776C50.6095 22.4792 50.3465 22.25 50.0121 22.0884C49.6777 21.9269 49.302 21.8461 48.885 21.8461C48.4416 21.8461 48.0547 21.9381 47.724 22.1222C47.3972 22.3026 47.1436 22.5562 46.9632 22.8831C46.7866 23.2099 46.6983 23.5931 46.6983 24.0327H45.3683C45.3683 23.3565 45.5242 22.7628 45.8361 22.2519C46.1479 21.7409 46.5725 21.3426 47.1098 21.0571C47.6508 20.7716 48.2575 20.6288 48.9301 20.6288C49.6064 20.6288 50.2056 20.7716 50.7279 21.0571C51.2501 21.3426 51.6596 21.7277 51.9564 22.2124C52.2532 22.6971 52.4016 23.2362 52.4016 23.8298C52.4016 24.2544 52.3246 24.6696 52.1706 25.0753C52.0203 25.4773 51.7573 25.9263 51.3816 26.4223C51.0096 26.9144 50.493 27.5156 49.8318 28.2257L47.2394 30.9984V31.0886H52.6045V32.3284H45.3232Z" fill="black"/>
  <path d="M31.5524 32.3284V23.672H32.8374V25.0246H32.9501C33.1304 24.5625 33.4216 24.2037 33.8236 23.9482C34.2256 23.6889 34.7084 23.5593 35.272 23.5593C35.8431 23.5593 36.3183 23.6889 36.6978 23.9482C37.081 24.2037 37.3797 24.5625 37.5939 25.0246H37.684C37.9057 24.5775 38.2382 24.2225 38.6816 23.9595C39.1249 23.6927 39.6565 23.5593 40.2765 23.5593C41.0504 23.5593 41.6835 23.8017 42.1757 24.2863C42.6679 24.7672 42.9139 25.5168 42.9139 26.535V32.3284H41.5839V26.535C41.5839 25.8963 41.4092 25.4398 41.0598 25.1655C40.7104 24.8912 40.299 24.7541 39.8256 24.7541C39.2169 24.7541 38.7454 24.9382 38.411 25.3064C38.0767 25.6708 37.9095 26.133 37.9095 26.6928V32.3284H36.5569V26.3997C36.5569 25.9075 36.3972 25.5111 36.0779 25.2106C35.7585 24.9063 35.3471 24.7541 34.8437 24.7541C34.498 24.7541 34.1749 24.8461 33.8743 25.0302C33.5775 25.2143 33.3371 25.4698 33.153 25.7967C32.9726 26.1198 32.8824 26.4936 32.8824 26.9182V32.3284H31.5524Z" fill="black"/>
  <path d="M29.9759 20.2455L26.2563 34.0642H25.039L28.7585 20.2455H29.9759Z" fill="black"/>
  <path d="M19.719 35.7549C19.0765 35.7549 18.5242 35.6723 18.0621 35.507C17.6 35.3454 17.2149 35.1312 16.9068 34.8645C16.6025 34.6015 16.3601 34.3197 16.1798 34.0191L17.2393 33.2752C17.3595 33.433 17.5117 33.6134 17.6958 33.8163C17.8799 34.0229 18.1316 34.2014 18.451 34.3516C18.7741 34.5057 19.1967 34.5827 19.719 34.5827C20.4178 34.5827 20.9945 34.4136 21.4491 34.0755C21.9037 33.7374 22.131 33.2076 22.131 32.4862V30.7279H22.0183C21.9207 30.8857 21.7816 31.0811 21.6013 31.314C21.4247 31.5432 21.1692 31.748 20.8348 31.9283C20.5042 32.1049 20.0571 32.1932 19.4936 32.1932C18.7947 32.1932 18.1673 32.0279 17.6112 31.6972C17.0589 31.3666 16.6212 30.8857 16.2981 30.2545C15.9788 29.6233 15.8191 28.8569 15.8191 27.9552C15.8191 27.0685 15.975 26.2964 16.2869 25.6389C16.5987 24.9776 17.0326 24.4667 17.5887 24.106C18.1447 23.7415 18.7872 23.5593 19.5161 23.5593C20.0797 23.5593 20.5268 23.6533 20.8574 23.8411C21.1918 24.0252 21.4473 24.2356 21.6238 24.4723C21.8042 24.7052 21.9432 24.8969 22.0409 25.0471H22.1761V23.672H23.4611V32.5764C23.4611 33.3203 23.292 33.9252 22.9539 34.3911C22.6195 34.8607 22.1686 35.2045 21.6013 35.4224C21.0377 35.6441 20.4103 35.7549 19.719 35.7549ZM19.6739 30.9984C20.2074 30.9984 20.6583 30.8763 21.0265 30.6321C21.3947 30.3879 21.6746 30.0366 21.8662 29.5782C22.0578 29.1199 22.1536 28.5713 22.1536 27.9326C22.1536 27.3089 22.0597 26.7585 21.8718 26.2814C21.684 25.8042 21.4059 25.4304 21.0377 25.1599C20.6695 24.8893 20.2149 24.7541 19.6739 24.7541C19.1103 24.7541 18.6407 24.8969 18.265 25.1824C17.893 25.4679 17.6131 25.8512 17.4253 26.3321C17.2412 26.813 17.1491 27.3465 17.1491 27.9326C17.1491 28.5337 17.243 29.0654 17.4309 29.5275C17.6225 29.9859 17.9043 30.3466 18.2762 30.6096C18.652 30.8688 19.1178 30.9984 19.6739 30.9984Z" fill="black"/>
  <path d="M2.43152 32.3284V23.672H3.71645V25.0246H3.82917C4.00951 24.5625 4.30068 24.2037 4.7027 23.9482C5.10471 23.6889 5.5875 23.5593 6.15106 23.5593C6.72215 23.5593 7.19742 23.6889 7.57689 23.9482C7.96012 24.2037 8.25881 24.5625 8.47296 25.0246H8.56313C8.7848 24.5775 9.11731 24.2225 9.56065 23.9595C10.004 23.6927 10.5356 23.5593 11.1555 23.5593C11.9295 23.5593 12.5626 23.8017 13.0548 24.2863C13.5469 24.7672 13.793 25.5168 13.793 26.535V32.3284H12.463V26.535C12.463 25.8963 12.2883 25.4398 11.9389 25.1655C11.5895 24.8912 11.1781 24.7541 10.7047 24.7541C10.096 24.7541 9.62452 24.9382 9.29013 25.3064C8.95575 25.6708 8.78856 26.133 8.78856 26.6928V32.3284H7.436V26.3997C7.436 25.9075 7.27632 25.5111 6.95697 25.2106C6.63761 24.9063 6.22621 24.7541 5.72275 24.7541C5.3771 24.7541 5.05399 24.8461 4.75342 25.0302C4.4566 25.2143 4.21615 25.4698 4.03205 25.7967C3.85171 26.1198 3.76154 26.4936 3.76154 26.9182V32.3284H2.43152Z" fill="black"/>
  <path d="M27.2487 51.6783H1.01526V172.288H27.2487V51.6783Z" fill="url(#paint0_linear_0_1)"/>
  <path fill-rule="evenodd" clip-rule="evenodd" d="M0.855286 51.5184H27.4086V172.448H0.855286V51.5184ZM1.17521 51.8383V172.128H27.0887V51.8383H1.17521Z" fill="black"/>
  <path d="M74.5667 66.0198C73.8169 66.0198 73.1485 65.8911 72.5615 65.6336C71.9783 65.3761 71.5144 65.0182 71.1698 64.56C70.829 64.098 70.6435 63.5621 70.6132 62.9524H72.0446C72.0749 63.3273 72.2037 63.6511 72.4309 63.9238C72.6581 64.1927 72.9554 64.4009 73.3227 64.5486C73.69 64.6963 74.0971 64.7702 74.544 64.7702C75.0439 64.7702 75.4869 64.6831 75.8732 64.5089C76.2595 64.3347 76.5624 64.0923 76.7821 63.7818C77.0017 63.4712 77.1115 63.1115 77.1115 62.7025C77.1115 62.2746 77.0055 61.8978 76.7934 61.5721C76.5814 61.2426 76.2708 60.9851 75.8618 60.7996C75.4529 60.614 74.953 60.5212 74.3622 60.5212H73.4306V59.2715H74.3622C74.8242 59.2715 75.2294 59.1882 75.5778 59.0216C75.93 58.855 76.2046 58.6202 76.4015 58.3172C76.6022 58.0143 76.7025 57.6583 76.7025 57.2493C76.7025 56.8555 76.6154 56.5128 76.4412 56.2212C76.267 55.9296 76.0209 55.7024 75.7028 55.5395C75.3885 55.3767 75.0174 55.2953 74.5894 55.2953C74.188 55.2953 73.8093 55.3691 73.4534 55.5168C73.1012 55.6607 72.8134 55.8709 72.5899 56.1473C72.3665 56.42 72.2453 56.7494 72.2264 57.1357H70.8631C70.8858 56.526 71.0695 55.9921 71.4141 55.5338C71.7587 55.0718 72.2094 54.7121 72.766 54.4546C73.3265 54.1971 73.9419 54.0683 74.6122 54.0683C75.3317 54.0683 75.9489 54.2141 76.464 54.5057C76.979 54.7935 77.3747 55.1741 77.6512 55.6474C77.9276 56.1208 78.0658 56.632 78.0658 57.1812C78.0658 57.8363 77.8935 58.3949 77.5489 58.8569C77.2081 59.3189 76.7442 59.6389 76.1572 59.8169V59.9077C76.8919 60.0289 77.4656 60.3413 77.8784 60.845C78.2912 61.3449 78.4975 61.964 78.4975 62.7025C78.4975 63.3349 78.3252 63.903 77.9806 64.4066C77.6398 64.9065 77.174 65.3003 76.5833 65.5881C75.9925 65.8759 75.3203 66.0198 74.5667 66.0198Z" fill="black"/>
  <path d="M64.5394 66.0199C63.8729 66.0199 63.2727 65.8873 62.7387 65.6222C62.2048 65.3571 61.7769 64.9936 61.455 64.5316C61.1331 64.0696 60.957 63.5432 60.9267 62.9524H62.29C62.343 63.4788 62.5816 63.9143 63.0057 64.2589C63.4336 64.5998 63.9449 64.7702 64.5394 64.7702C65.0166 64.7702 65.4407 64.6585 65.8118 64.435C66.1867 64.2116 66.4802 63.9049 66.6923 63.5148C66.9082 63.121 67.0161 62.676 67.0161 62.1799C67.0161 61.6725 66.9044 61.2199 66.6809 60.8223C66.4613 60.4209 66.1583 60.1047 65.7721 59.8737C65.3858 59.6427 64.9446 59.5253 64.4485 59.5215C64.0926 59.5177 63.7271 59.5726 63.3522 59.6862C62.9773 59.796 62.6687 59.938 62.4263 60.1122L61.1085 59.9532L61.8128 54.2274H67.8568V55.477H62.9944L62.5854 58.908H62.6535C62.8921 58.7187 63.1913 58.5615 63.551 58.4365C63.9108 58.3116 64.2857 58.2491 64.6758 58.2491C65.3877 58.2491 66.022 58.4195 66.5787 58.7603C67.1392 59.0973 67.5784 59.5594 67.8965 60.1463C68.2184 60.7333 68.3794 61.4036 68.3794 62.1572C68.3794 62.8994 68.2127 63.5621 67.8795 64.1453C67.55 64.7247 67.0956 65.1829 66.5162 65.52C65.9368 65.8532 65.2779 66.0199 64.5394 66.0199Z" fill="black"/>
  <path d="M54.701 66.0198C53.8451 66.0198 53.1162 65.787 52.514 65.3212C51.9119 64.8516 51.4518 64.1718 51.1337 63.2819C50.8156 62.3882 50.6566 61.3089 50.6566 60.0441C50.6566 58.7868 50.8156 57.7132 51.1337 56.8233C51.4556 55.9296 51.9176 55.2479 52.5197 54.7783C53.1256 54.305 53.8527 54.0683 54.701 54.0683C55.5493 54.0683 56.2745 54.305 56.8766 54.7783C57.4825 55.2479 57.9445 55.9296 58.2626 56.8233C58.5845 57.7132 58.7454 58.7868 58.7454 60.0441C58.7454 61.3089 58.5864 62.3882 58.2683 63.2819C57.9502 64.1718 57.4901 64.8516 56.8879 65.3212C56.2858 65.787 55.5568 66.0198 54.701 66.0198ZM54.701 64.7702C55.5493 64.7702 56.2082 64.3612 56.6778 63.5432C57.1474 62.7252 57.3821 61.5588 57.3821 60.0441C57.3821 59.0367 57.2742 58.179 57.0584 57.4709C56.8463 56.7627 56.5395 56.2231 56.1381 55.8519C55.7405 55.4808 55.2615 55.2953 54.701 55.2953C53.8603 55.2953 53.2033 55.7099 52.7299 56.5393C52.2565 57.3648 52.0198 58.5331 52.0198 60.0441C52.0198 61.0514 52.1259 61.9072 52.338 62.6116C52.55 63.316 52.8549 63.8518 53.2525 64.2192C53.6539 64.5865 54.1367 64.7702 54.701 64.7702Z" fill="black"/>
  <path d="M40.2884 66.0198C39.8112 66.0123 39.3341 65.9214 38.8569 65.7472C38.3798 65.573 37.9443 65.2795 37.5504 64.8667C37.1566 64.4502 36.8404 63.8878 36.6018 63.1797C36.3632 62.4677 36.244 61.574 36.244 60.4985C36.244 59.4685 36.3405 58.5558 36.5337 57.7606C36.7268 56.9615 37.007 56.2893 37.3744 55.744C37.7417 55.1949 38.1848 54.7783 38.7036 54.4943C39.2262 54.2103 39.815 54.0683 40.4702 54.0683C41.1215 54.0683 41.7009 54.1989 42.2084 54.4602C42.7196 54.7178 43.1362 55.0775 43.4581 55.5395C43.7799 56.0015 43.9882 56.5336 44.0829 57.1357H42.6969C42.5681 56.6131 42.3182 56.1795 41.9471 55.8349C41.576 55.4903 41.0837 55.318 40.4702 55.318C39.5689 55.318 38.8588 55.7099 38.34 56.4938C37.825 57.2777 37.5656 58.3778 37.5618 59.7941H37.6527C37.8648 59.4722 38.1166 59.1977 38.4082 58.9705C38.7036 58.7395 39.0292 58.5615 39.3852 58.4365C39.7412 58.3116 40.118 58.2491 40.5156 58.2491C41.1821 58.2491 41.7918 58.4157 42.3447 58.7489C42.8976 59.0784 43.3407 59.5347 43.6739 60.1179C44.0072 60.6973 44.1738 61.3619 44.1738 62.1117C44.1738 62.8313 44.0128 63.4902 43.691 64.0885C43.3691 64.6831 42.9165 65.1564 42.3333 65.5086C41.7539 65.857 41.0723 66.0274 40.2884 66.0198ZM40.2884 64.7702C40.7656 64.7702 41.1935 64.6509 41.5722 64.4123C41.9546 64.1737 42.2557 63.8537 42.4753 63.4523C42.6988 63.0509 42.8105 62.604 42.8105 62.1117C42.8105 61.6308 42.7026 61.1934 42.4867 60.7996C42.2746 60.4019 41.9812 60.0857 41.6062 59.8509C41.2351 59.6162 40.811 59.4988 40.3338 59.4988C39.9741 59.4988 39.6389 59.5707 39.3284 59.7146C39.0179 59.8547 38.7452 60.0479 38.5104 60.294C38.2794 60.5402 38.0977 60.8223 37.9651 61.1404C37.8326 61.4547 37.7663 61.7861 37.7663 62.1345C37.7663 62.5965 37.8742 63.0282 38.0901 63.4296C38.3097 63.831 38.6089 64.1548 38.9876 64.4009C39.3701 64.6471 39.8037 64.7702 40.2884 64.7702Z" fill="black"/>
  <path d="M74.199 155.788C74.6761 155.792 75.1533 155.882 75.6304 156.06C76.1076 156.238 76.5431 156.534 76.9369 156.947C77.3308 157.356 77.647 157.914 77.8856 158.622C78.1241 159.33 78.2434 160.219 78.2434 161.286C78.2434 162.32 78.145 163.239 77.948 164.041C77.7549 164.84 77.4747 165.515 77.1073 166.064C76.7438 166.613 76.3007 167.029 75.7781 167.313C75.2593 167.597 74.6724 167.739 74.0172 167.739C73.3659 167.739 72.7846 167.611 72.2733 167.353C71.7659 167.092 71.3493 166.73 71.0236 166.268C70.7018 165.802 70.4954 165.263 70.4045 164.649H71.7905C71.9155 165.183 72.1635 165.624 72.5346 165.973C72.9095 166.317 73.4037 166.49 74.0172 166.49C74.9147 166.49 75.6229 166.098 76.1417 165.314C76.6643 164.53 76.9256 163.422 76.9256 161.991H76.8347C76.6226 162.309 76.3708 162.583 76.0792 162.814C75.7876 163.045 75.4638 163.223 75.1078 163.348C74.7519 163.473 74.3732 163.536 73.9718 163.536C73.3053 163.536 72.6937 163.371 72.137 163.042C71.5841 162.708 71.141 162.252 70.8078 161.673C70.4783 161.09 70.3136 160.423 70.3136 159.673C70.3136 158.961 70.4726 158.31 70.7907 157.719C71.1126 157.125 71.5633 156.651 72.1427 156.299C72.7259 155.947 73.4113 155.776 74.199 155.788ZM74.199 157.038C73.7218 157.038 73.292 157.157 72.9095 157.395C72.5308 157.63 72.2298 157.948 72.0064 158.35C71.7867 158.747 71.6769 159.188 71.6769 159.673C71.6769 160.158 71.7829 160.599 71.995 160.997C72.2109 161.391 72.5043 161.705 72.8755 161.94C73.2504 162.171 73.6764 162.286 74.1535 162.286C74.5133 162.286 74.8484 162.216 75.159 162.076C75.4695 161.932 75.7403 161.737 75.9713 161.491C76.2061 161.241 76.3897 160.959 76.5223 160.645C76.6548 160.326 76.7211 159.995 76.7211 159.65C76.7211 159.196 76.6113 158.77 76.3916 158.372C76.1758 157.975 75.8766 157.653 75.4941 157.407C75.1154 157.161 74.6837 157.038 74.199 157.038Z" fill="black"/>
  <path d="M64.3648 167.739C63.5847 167.739 62.8955 167.601 62.2971 167.325C61.7026 167.044 61.2387 166.66 60.9054 166.172C60.5722 165.679 60.4075 165.119 60.4112 164.49C60.4075 163.998 60.504 163.543 60.7009 163.127C60.8979 162.707 61.1667 162.356 61.5076 162.076C61.8522 161.792 62.2365 161.612 62.6607 161.536V161.468C62.104 161.324 61.6609 161.012 61.3315 160.531C61.002 160.046 60.8392 159.495 60.8429 158.878C60.8392 158.287 60.9887 157.759 61.2917 157.293C61.5947 156.827 62.0112 156.46 62.5414 156.191C63.0753 155.922 63.6831 155.788 64.3648 155.788C65.0389 155.788 65.641 155.922 66.1712 156.191C66.7013 156.46 67.1179 156.827 67.4208 157.293C67.7276 157.759 67.8829 158.287 67.8866 158.878C67.8829 159.495 67.7143 160.046 67.3811 160.531C67.0516 161.012 66.6142 161.324 66.0689 161.468V161.536C66.4893 161.612 66.868 161.792 67.205 162.076C67.542 162.356 67.8109 162.707 68.0116 163.127C68.2123 163.543 68.3146 163.998 68.3183 164.49C68.3146 165.119 68.1442 165.679 67.8071 166.172C67.4739 166.66 67.01 167.044 66.4154 167.325C65.8247 167.601 65.1411 167.739 64.3648 167.739ZM64.3648 166.49C64.8912 166.49 65.3456 166.404 65.7281 166.234C66.1106 166.064 66.406 165.823 66.6142 165.513C66.8225 165.202 66.9285 164.839 66.9323 164.422C66.9285 163.983 66.8149 163.595 66.5915 163.258C66.3681 162.921 66.0632 162.655 65.677 162.462C65.2945 162.269 64.8571 162.173 64.3648 162.173C63.8687 162.173 63.4256 162.269 63.0356 162.462C62.6493 162.655 62.3445 162.921 62.121 163.258C61.9014 163.595 61.7935 163.983 61.7973 164.422C61.7935 164.839 61.8938 165.202 62.0983 165.513C62.3066 165.823 62.6039 166.064 62.9901 166.234C63.3764 166.404 63.8346 166.49 64.3648 166.49ZM64.3648 160.968C64.7814 160.968 65.1506 160.885 65.4725 160.718C65.7981 160.552 66.0538 160.319 66.2393 160.02C66.4249 159.721 66.5196 159.37 66.5233 158.969C66.5196 158.575 66.4268 158.232 66.245 157.941C66.0632 157.645 65.8114 157.418 65.4895 157.259C65.1676 157.096 64.7927 157.015 64.3648 157.015C63.9293 157.015 63.5487 157.096 63.223 157.259C62.8974 157.418 62.6455 157.645 62.4675 157.941C62.2896 158.232 62.2025 158.575 62.2062 158.969C62.2025 159.37 62.2915 159.721 62.4732 160.02C62.6588 160.319 62.9144 160.552 63.2401 160.718C63.5658 160.885 63.9407 160.968 64.3648 160.968Z" fill="black"/>
  <path d="M54.3602 155.788C54.8373 155.792 55.3145 155.882 55.7916 156.06C56.2688 156.238 56.7043 156.534 57.0981 156.947C57.492 157.356 57.8082 157.914 58.0468 158.622C58.2853 159.33 58.4046 160.219 58.4046 161.286C58.4046 162.32 58.3062 163.239 58.1092 164.041C57.9161 164.84 57.6359 165.515 57.2685 166.064C56.905 166.613 56.4619 167.029 55.9393 167.313C55.4205 167.597 54.8335 167.739 54.1784 167.739C53.5271 167.739 52.9458 167.611 52.4345 167.353C51.9271 167.092 51.5105 166.73 51.1848 166.268C50.863 165.802 50.6566 165.263 50.5657 164.649H51.9517C52.0767 165.183 52.3247 165.624 52.6958 165.973C53.0707 166.317 53.5649 166.49 54.1784 166.49C55.0759 166.49 55.7841 166.098 56.3029 165.314C56.8255 164.53 57.0868 163.422 57.0868 161.991H56.9959C56.7838 162.309 56.532 162.583 56.2404 162.814C55.9488 163.045 55.625 163.223 55.269 163.348C54.9131 163.473 54.5344 163.536 54.133 163.536C53.4665 163.536 52.8549 163.371 52.2982 163.042C51.7453 162.708 51.3022 162.252 50.969 161.673C50.6395 161.09 50.4748 160.423 50.4748 159.673C50.4748 158.961 50.6338 158.31 50.9519 157.719C51.2738 157.125 51.7245 156.651 52.3039 156.299C52.8871 155.947 53.5725 155.776 54.3602 155.788ZM54.3602 157.038C53.883 157.038 53.4532 157.157 53.0707 157.395C52.692 157.63 52.391 157.948 52.1676 158.35C51.9479 158.747 51.8381 159.188 51.8381 159.673C51.8381 160.158 51.9441 160.599 52.1562 160.997C52.372 161.391 52.6655 161.705 53.0367 161.94C53.4116 162.171 53.8376 162.286 54.3147 162.286C54.6745 162.286 55.0096 162.216 55.3202 162.076C55.6307 161.932 55.9015 161.737 56.1325 161.491C56.3673 161.241 56.5509 160.959 56.6835 160.645C56.816 160.326 56.8823 159.995 56.8823 159.65C56.8823 159.196 56.7725 158.77 56.5528 158.372C56.337 157.975 56.0378 157.653 55.6553 157.407C55.2766 157.161 54.8449 157.038 54.3602 157.038Z" fill="black"/>
  <path d="M40.0612 167.739C39.3947 167.739 38.7945 167.607 38.2605 167.342C37.7266 167.077 37.2987 166.713 36.9768 166.251C36.6549 165.789 36.4788 165.263 36.4485 164.672H37.8118C37.8648 165.198 38.1034 165.634 38.5275 165.978C38.9554 166.319 39.4667 166.49 40.0612 166.49C40.5384 166.49 40.9625 166.378 41.3336 166.155C41.7085 165.931 42.002 165.624 42.2141 165.234C42.4299 164.841 42.5379 164.396 42.5379 163.899C42.5379 163.392 42.4262 162.939 42.2027 162.542C41.9831 162.14 41.6801 161.824 41.2939 161.593C40.9076 161.362 40.4664 161.245 39.9703 161.241C39.6144 161.237 39.2489 161.292 38.874 161.406C38.4991 161.516 38.1905 161.658 37.9481 161.832L36.6303 161.673L37.3346 155.947H43.3786V157.197H38.5161L38.1072 160.628H38.1753C38.4139 160.438 38.7131 160.281 39.0728 160.156C39.4326 160.031 39.8075 159.969 40.1975 159.969C40.9095 159.969 41.5438 160.139 42.1005 160.48C42.6609 160.817 43.1002 161.279 43.4183 161.866C43.7402 162.453 43.9012 163.123 43.9012 163.877C43.9012 164.619 43.7345 165.282 43.4013 165.865C43.0718 166.444 42.6174 166.902 42.038 167.24C41.4586 167.573 40.7997 167.739 40.0612 167.739Z" fill="black"/>
  <defs>
    <linearGradient id="paint0_linear_0_1" x1="-6.3429" y1="172.895" x2="-6.3429" y2="51.9807" gradientUnits="userSpaceOnUse">
      <stop stop-color="#EDF8FB"/>
      <stop offset="0.25" stop-color="#B2E2E2"/>
      <stop offset="0.5" stop-color="#66C2A4"/>
      <stop offset="0.75" stop-color="#2CA25F"/>
      <stop offset="1" stop-color="#006D2C"/>
    </linearGradient>
  </defs>
</svg>