<svg width="156" height="197" viewBox="0 0 156 197" fill="none" xmlns="http://www.w3.org/2000/svg">
  <path d="M89.1727 14.3588C88.2054 14.3588 87.3723 14.1521 86.6735 13.7388C85.9789 13.3211 85.4419 12.7352 85.0627 11.9809C84.6877 11.2224 84.5002 10.3339 84.5002 9.31546C84.5002 8.30978 84.6877 7.42341 85.0627 6.65637C85.4419 5.88932 85.9703 5.2906 86.6479 4.8602C87.3297 4.42981 88.1266 4.21461 89.0385 4.21461C89.5925 4.21461 90.1294 4.30623 90.6493 4.48946C91.1692 4.6727 91.6358 4.96034 92.0492 5.35239C92.4625 5.74444 92.7885 6.25367 93.0272 6.88009C93.2658 7.50225 93.3851 8.25864 93.3851 9.14927V9.82682H85.5804V8.395H91.5122C91.5122 7.89216 91.41 7.44685 91.2054 7.05907C91.0009 6.66702 90.7132 6.35807 90.3425 6.13222C89.976 5.90637 89.5456 5.79344 89.0513 5.79344C88.5144 5.79344 88.0456 5.92554 87.6451 6.18975C87.2487 6.44969 86.9419 6.7906 86.7246 7.21248C86.5115 7.63009 86.405 8.08392 86.405 8.57398V9.69259C86.405 10.3488 86.52 10.9071 86.7502 11.3673C86.9845 11.8275 87.3105 12.1791 87.7281 12.422C88.1458 12.6606 88.6337 12.7799 89.1919 12.7799C89.5541 12.7799 89.8844 12.7288 90.1827 12.6265C90.481 12.52 90.7388 12.3623 90.9561 12.1535C91.1735 11.9447 91.3396 11.6869 91.4547 11.3801L93.2637 11.7061C93.1188 12.2388 92.8588 12.7054 92.4838 13.1059C92.1131 13.5022 91.6465 13.8112 91.084 14.0328C90.5257 14.2501 89.8887 14.3588 89.1727 14.3588Z" fill="black"/>
  <path d="M82.9325 4.34245V5.87654H77.5696V4.34245H82.9325ZM79.0078 1.99017H80.919V11.2778C80.919 11.6486 80.9744 11.9277 81.0852 12.1152C81.196 12.2984 81.3388 12.4241 81.5135 12.4923C81.6925 12.5562 81.8863 12.5882 82.0952 12.5882C82.2486 12.5882 82.3828 12.5775 82.4978 12.5562C82.6129 12.5349 82.7024 12.5179 82.7663 12.5051L83.1115 14.0839C83.0007 14.1265 82.843 14.1692 82.6385 14.2118C82.4339 14.2586 82.1782 14.2842 81.8714 14.2885C81.3686 14.297 80.8998 14.2075 80.4652 14.02C80.0305 13.8325 79.679 13.5427 79.4105 13.1507C79.142 12.7586 79.0078 12.2665 79.0078 11.6741V1.99017Z" fill="black"/>
  <path d="M70.9586 14.378C70.3365 14.378 69.774 14.2629 69.2711 14.0328C68.7683 13.7984 68.3698 13.4596 68.0758 13.0165C67.786 12.5733 67.6411 12.0299 67.6411 11.3865C67.6411 10.8325 67.7477 10.3765 67.9607 10.0186C68.1738 9.66063 68.4615 9.37725 68.8237 9.16844C69.1859 8.95964 69.5907 8.80196 70.0382 8.69543C70.4856 8.5889 70.9416 8.50793 71.4061 8.45253C71.9941 8.38435 72.4714 8.32895 72.8379 8.28634C73.2044 8.23946 73.4707 8.16489 73.6369 8.06262C73.8031 7.96035 73.8862 7.79415 73.8862 7.56404V7.51929C73.8862 6.96106 73.7285 6.52853 73.4132 6.22171C73.1021 5.91489 72.6376 5.76148 72.0197 5.76148C71.3762 5.76148 70.8691 5.90424 70.4984 6.18975C70.1319 6.471 69.8784 6.78421 69.7377 7.12938L67.9416 6.72029C68.1546 6.1237 68.4657 5.64216 68.8748 5.27569C69.2882 4.90495 69.7633 4.63648 70.3002 4.47029C70.8372 4.29983 71.4018 4.21461 71.9941 4.21461C72.3862 4.21461 72.8016 4.26148 73.2406 4.35523C73.6838 4.44472 74.0971 4.61091 74.4806 4.85381C74.8684 5.09671 75.1859 5.44401 75.433 5.89571C75.6802 6.34316 75.8038 6.92483 75.8038 7.64074V14.1606H73.9373V12.8183H73.8606C73.737 13.0655 73.5516 13.3084 73.3045 13.547C73.0573 13.7856 72.7399 13.9838 72.3521 14.1415C71.9643 14.2991 71.4998 14.378 70.9586 14.378ZM71.3741 12.8439C71.9025 12.8439 72.3542 12.7395 72.7292 12.5307C73.1085 12.3218 73.3961 12.0491 73.5921 11.7125C73.7924 11.3716 73.8926 11.0072 73.8926 10.6194V9.35381C73.8244 9.42199 73.6923 9.48591 73.4963 9.54557C73.3045 9.60097 73.085 9.64998 72.8379 9.69259C72.5907 9.73094 72.3499 9.76716 72.1156 9.80125C71.8812 9.83108 71.6852 9.85665 71.5275 9.87796C71.1568 9.92483 70.818 10.0037 70.5112 10.1145C70.2086 10.2253 69.9657 10.3851 69.7825 10.5939C69.6035 10.7984 69.514 11.0711 69.514 11.412C69.514 11.8851 69.6887 12.243 70.0382 12.4859C70.3876 12.7246 70.8329 12.8439 71.3741 12.8439Z" fill="black"/>
  <path d="M65.5302 1.06972V14.1606H63.6189V1.06972H65.5302Z" fill="black"/>
  <path d="M59.1333 10.0889V4.34245H61.0509V14.1606H59.1717V12.4603H59.0694C58.8436 12.9845 58.4813 13.4213 57.9828 13.7707C57.4884 14.1159 56.8727 14.2885 56.1355 14.2885C55.5048 14.2885 54.9465 14.15 54.4607 13.873C53.9792 13.5917 53.5999 13.1763 53.323 12.6265C53.0502 12.0768 52.9139 11.3971 52.9139 10.5875V4.34245H54.8251V10.3574C54.8251 11.0264 55.0105 11.5591 55.3812 11.9554C55.7519 12.3517 56.2335 12.5498 56.8258 12.5498C57.1837 12.5498 57.5396 12.4603 57.8933 12.2814C58.2512 12.1024 58.5474 11.8318 58.7818 11.4696C59.0204 11.1074 59.1376 10.6471 59.1333 10.0889Z" fill="black"/>
  <path d="M46.8366 14.3588C45.8863 14.3588 45.0682 14.1436 44.3821 13.7132C43.7003 13.2785 43.1761 12.6798 42.8096 11.917C42.4432 11.1542 42.2599 10.2807 42.2599 9.29628C42.2599 8.29912 42.4474 7.41915 42.8224 6.65637C43.1974 5.88932 43.7258 5.2906 44.4076 4.8602C45.0895 4.42981 45.8927 4.21461 46.8174 4.21461C47.5632 4.21461 48.228 4.3531 48.8118 4.63009C49.3956 4.90282 49.8665 5.28634 50.2244 5.78066C50.5866 6.27498 50.8018 6.85239 50.87 7.5129H49.0099C48.9076 7.05267 48.6733 6.65637 48.3068 6.32398C47.9446 5.9916 47.4588 5.8254 46.8494 5.8254C46.3167 5.8254 45.8501 5.96603 45.4496 6.24728C45.0532 6.52427 44.7443 6.92057 44.5227 7.4362C44.3011 7.94756 44.1903 8.55267 44.1903 9.25154C44.1903 9.96745 44.299 10.5853 44.5163 11.1052C44.7336 11.6251 45.0405 12.0278 45.4368 12.3133C45.8373 12.5988 46.3082 12.7416 46.8494 12.7416C47.2116 12.7416 47.5397 12.6755 47.8338 12.5434C48.1321 12.4071 48.3814 12.2132 48.5816 11.9618C48.7862 11.7103 48.929 11.4078 49.0099 11.0541H50.87C50.8018 11.689 50.5951 12.2558 50.25 12.7544C49.9048 13.253 49.4424 13.645 48.8629 13.9305C48.2876 14.216 47.6122 14.3588 46.8366 14.3588Z" fill="black"/>
  <path d="M38.2186 14.1606V4.34245H40.1298V14.1606H38.2186ZM39.1838 2.82753C38.8514 2.82753 38.5659 2.71674 38.3272 2.49515C38.0928 2.26929 37.9757 2.00083 37.9757 1.68975C37.9757 1.37441 38.0928 1.10594 38.3272 0.88435C38.5659 0.658498 38.8514 0.545572 39.1838 0.545572C39.5161 0.545572 39.7995 0.658498 40.0339 0.88435C40.2725 1.10594 40.3919 1.37441 40.3919 1.68975C40.3919 2.00083 40.2725 2.26929 40.0339 2.49515C39.7995 2.71674 39.5161 2.82753 39.1838 2.82753Z" fill="black"/>
  <path d="M36.1044 4.34245V5.87654H30.7415V4.34245H36.1044ZM32.1797 1.99017H34.0909V11.2778C34.0909 11.6486 34.1463 11.9277 34.2571 12.1152C34.3679 12.2984 34.5106 12.4241 34.6853 12.4923C34.8643 12.5562 35.0582 12.5882 35.267 12.5882C35.4204 12.5882 35.5547 12.5775 35.6697 12.5562C35.7848 12.5349 35.8743 12.5179 35.9382 12.5051L36.2834 14.0839C36.1726 14.1265 36.0149 14.1692 35.8103 14.2118C35.6058 14.2586 35.3501 14.2842 35.0433 14.2885C34.5405 14.297 34.0717 14.2075 33.6371 14.02C33.2024 13.8325 32.8508 13.5427 32.5824 13.1507C32.3139 12.7586 32.1797 12.2665 32.1797 11.6741V1.99017Z" fill="black"/>
  <path d="M24.033 14.1606V4.34245H25.8803V5.90211H25.9826C26.1616 5.3737 26.4769 4.95821 26.9286 4.65566C27.3846 4.34884 27.9002 4.19543 28.4755 4.19543C28.5948 4.19543 28.7354 4.19969 28.8974 4.20821C29.0635 4.21674 29.1935 4.22739 29.2873 4.24017V6.0683C29.2106 6.04699 29.0742 6.02356 28.8782 5.99799C28.6822 5.96816 28.4861 5.95324 28.2901 5.95324C27.8384 5.95324 27.4357 6.04912 27.082 6.24088C26.7326 6.42838 26.4556 6.69046 26.251 7.02711C26.0465 7.35949 25.9442 7.73875 25.9442 8.16489V14.1606H24.033Z" fill="black"/>
  <path d="M16.6422 14.378C16.0201 14.378 15.4576 14.2629 14.9547 14.0328C14.4519 13.7984 14.0534 13.4596 13.7594 13.0165C13.4696 12.5733 13.3247 12.0299 13.3247 11.3865C13.3247 10.8325 13.4313 10.3765 13.6443 10.0186C13.8574 9.66063 14.1451 9.37725 14.5073 9.16844C14.8695 8.95964 15.2743 8.80196 15.7218 8.69543C16.1692 8.5889 16.6252 8.50793 17.0897 8.45253C17.6777 8.38435 18.155 8.32895 18.5215 8.28634C18.8879 8.23946 19.1543 8.16489 19.3205 8.06262C19.4867 7.96035 19.5698 7.79415 19.5698 7.56404V7.51929C19.5698 6.96106 19.4121 6.52853 19.0968 6.22171C18.7857 5.91489 18.3212 5.76148 17.7033 5.76148C17.0598 5.76148 16.5527 5.90424 16.182 6.18975C15.8155 6.471 15.562 6.78421 15.4213 7.12938L13.6252 6.72029C13.8382 6.1237 14.1493 5.64216 14.5584 5.27569C14.9718 4.90495 15.4469 4.63648 15.9838 4.47029C16.5208 4.29983 17.0854 4.21461 17.6777 4.21461C18.0698 4.21461 18.4852 4.26148 18.9242 4.35523C19.3674 4.44472 19.7807 4.61091 20.1642 4.85381C20.552 5.09671 20.8695 5.44401 21.1166 5.89571C21.3638 6.34316 21.4874 6.92483 21.4874 7.64074V14.1606H19.6209V12.8183H19.5442C19.4206 13.0655 19.2352 13.3084 18.9881 13.547C18.7409 13.7856 18.4235 13.9838 18.0357 14.1415C17.6479 14.2991 17.1834 14.378 16.6422 14.378ZM17.0577 12.8439C17.5861 12.8439 18.0378 12.7395 18.4128 12.5307C18.7921 12.3218 19.0797 12.0491 19.2757 11.7125C19.476 11.3716 19.5762 11.0072 19.5762 10.6194V9.35381C19.508 9.42199 19.3759 9.48591 19.1799 9.54557C18.9881 9.60097 18.7686 9.64998 18.5215 9.69259C18.2743 9.73094 18.0335 9.76716 17.7992 9.80125C17.5648 9.83108 17.3688 9.85665 17.2111 9.87796C16.8404 9.92483 16.5016 10.0037 16.1948 10.1145C15.8922 10.2253 15.6493 10.3851 15.4661 10.5939C15.2871 10.7984 15.1976 11.0711 15.1976 11.412C15.1976 11.8851 15.3723 12.243 15.7218 12.4859C16.0712 12.7246 16.5165 12.8439 17.0577 12.8439Z" fill="black"/>
  <path d="M2.51259 14.1606V1.06972H7.17878C8.19725 1.06972 9.041 1.25509 9.71003 1.62583C10.3791 1.99657 10.8798 2.50367 11.2122 3.14713C11.5445 3.78634 11.7107 4.50651 11.7107 5.30765C11.7107 6.11304 11.5424 6.83748 11.2058 7.48094C10.8734 8.12015 10.3705 8.62725 9.69725 9.00225C9.02821 9.37299 8.18659 9.55836 7.17239 9.55836H3.96358V7.88364H6.99341C7.63688 7.88364 8.1589 7.77284 8.55946 7.55125C8.96003 7.3254 9.25407 7.01858 9.44157 6.6308C9.62907 6.24301 9.72282 5.80196 9.72282 5.30765C9.72282 4.81333 9.62907 4.37441 9.44157 3.99088C9.25407 3.60736 8.9579 3.30694 8.55307 3.08961C8.1525 2.87228 7.62409 2.76361 6.96784 2.76361H4.48773V14.1606H2.51259Z" fill="black"/>
  <path d="M77.0806 36.0266C76.0707 36.0223 75.2077 35.756 74.4918 35.2276C73.7759 34.6992 73.2283 33.93 72.8491 32.9201C72.4698 31.9101 72.2802 30.6935 72.2802 29.2702C72.2802 27.8512 72.4698 26.6388 72.8491 25.6331C73.2326 24.6275 73.7823 23.8604 74.4982 23.332C75.2184 22.8036 76.0792 22.5394 77.0806 22.5394C78.082 22.5394 78.9407 22.8057 79.6566 23.3384C80.3725 23.8668 80.9201 24.6339 81.2993 25.6395C81.6829 26.641 81.8746 27.8512 81.8746 29.2702C81.8746 30.6978 81.685 31.9165 81.3057 32.9265C80.9265 33.9321 80.3789 34.7013 79.663 35.234C78.9471 35.7624 78.0863 36.0266 77.0806 36.0266ZM77.0806 34.3199C77.967 34.3199 78.6594 33.8874 79.158 33.0223C79.6608 32.1573 79.9123 30.9066 79.9123 29.2702C79.9123 28.1836 79.7972 27.2652 79.5671 26.5152C79.3412 25.761 79.0153 25.19 78.5891 24.8022C78.1672 24.4101 77.6644 24.2141 77.0806 24.2141C76.1985 24.2141 75.506 24.6488 75.0032 25.5181C74.5003 26.3874 74.2468 27.6381 74.2425 29.2702C74.2425 30.3611 74.3555 31.2837 74.5813 32.038C74.8114 32.788 75.1374 33.3569 75.5593 33.7446C75.9812 34.1282 76.4883 34.3199 77.0806 34.3199Z" fill="black"/>
  <path d="M68.9819 22.7184V35.8093H67.0003V24.6999H66.9236L63.7915 26.7454V24.8533L67.0579 22.7184H68.9819Z" fill="black"/>
  <path d="M52.3689 35.8093V25.9911H54.2162V27.5508H54.3185C54.4975 27.0223 54.8128 26.6069 55.2645 26.3043C55.7205 25.9975 56.2361 25.8441 56.8114 25.8441C56.9307 25.8441 57.0714 25.8483 57.2333 25.8569C57.3995 25.8654 57.5295 25.876 57.6232 25.8888V27.717C57.5465 27.6956 57.4101 27.6722 57.2141 27.6466C57.0181 27.6168 56.8221 27.6019 56.626 27.6019C56.1743 27.6019 55.7716 27.6978 55.4179 27.8895C55.0685 28.077 54.7915 28.3391 54.587 28.6758C54.3824 29.0081 54.2802 29.3874 54.2802 29.8135V35.8093H52.3689Z" fill="black"/>
  <path d="M46.036 36.0074C45.0687 36.0074 44.2356 35.8008 43.5367 35.3874C42.8421 34.9698 42.3052 34.3839 41.9259 33.6296C41.5509 32.8711 41.3634 31.9826 41.3634 30.9641C41.3634 29.9584 41.5509 29.0721 41.9259 28.305C42.3052 27.538 42.8336 26.9393 43.5112 26.5089C44.193 26.0785 44.9899 25.8633 45.9018 25.8633C46.4558 25.8633 46.9927 25.9549 47.5126 26.1381C48.0325 26.3214 48.4991 26.609 48.9124 27.001C49.3258 27.3931 49.6518 27.9023 49.8904 28.5287C50.1291 29.1509 50.2484 29.9073 50.2484 30.7979V31.4755H42.4437V30.0437H48.3755C48.3755 29.5408 48.2732 29.0955 48.0687 28.7077C47.8641 28.3157 47.5765 28.0067 47.2058 27.7809C46.8393 27.555 46.4089 27.4421 45.9146 27.4421C45.3776 27.4421 44.9089 27.5742 44.5083 27.8384C44.112 28.0983 43.8052 28.4393 43.5879 28.8611C43.3748 29.2787 43.2683 29.7326 43.2683 30.2226V31.3412C43.2683 31.9975 43.3833 32.5557 43.6134 33.016C43.8478 33.4762 44.1738 33.8277 44.5914 34.0706C45.009 34.3093 45.497 34.4286 46.0552 34.4286C46.4174 34.4286 46.7477 34.3775 47.046 34.2752C47.3443 34.1687 47.6021 34.011 47.8194 33.8022C48.0367 33.5934 48.2029 33.3356 48.318 33.0287L50.1269 33.3547C49.982 33.8874 49.7221 34.354 49.3471 34.7546C48.9764 35.1509 48.5097 35.4598 47.9472 35.6814C47.389 35.8988 46.7519 36.0074 46.036 36.0074Z" fill="black"/>
  <path d="M39.7958 25.9911V27.5252H34.4329V25.9911H39.7958ZM35.8711 23.6388H37.7823V32.9265C37.7823 33.2972 37.8377 33.5763 37.9485 33.7638C38.0593 33.9471 38.202 34.0728 38.3768 34.141C38.5557 34.2049 38.7496 34.2368 38.9584 34.2368C39.1118 34.2368 39.2461 34.2262 39.3611 34.2049C39.4762 34.1836 39.5657 34.1665 39.6296 34.1537L39.9748 35.7326C39.864 35.7752 39.7063 35.8178 39.5018 35.8604C39.2972 35.9073 39.0415 35.9329 38.7347 35.9371C38.2319 35.9456 37.7631 35.8562 37.3285 35.6687C36.8938 35.4812 36.5422 35.1914 36.2738 34.7993C36.0053 34.4073 35.8711 33.9151 35.8711 33.3228V23.6388Z" fill="black"/>
  <path d="M33.0985 25.9911V27.5252H27.7356V25.9911H33.0985ZM29.1738 23.6388H31.085V32.9265C31.085 33.2972 31.1404 33.5763 31.2512 33.7638C31.362 33.9471 31.5048 34.0728 31.6795 34.141C31.8585 34.2049 32.0524 34.2368 32.2612 34.2368C32.4146 34.2368 32.5488 34.2262 32.6639 34.2049C32.7789 34.1836 32.8684 34.1665 32.9323 34.1537L33.2775 35.7326C33.1667 35.7752 33.009 35.8178 32.8045 35.8604C32.5999 35.9073 32.3443 35.9329 32.0374 35.9371C31.5346 35.9456 31.0659 35.8562 30.6312 35.6687C30.1965 35.4812 29.845 35.1914 29.5765 34.7993C29.308 34.4073 29.1738 33.9151 29.1738 33.3228V23.6388Z" fill="black"/>
  <path d="M21.1246 36.0266C20.5025 36.0266 19.94 35.9116 19.4371 35.6814C18.9343 35.4471 18.5359 35.1083 18.2418 34.6651C17.952 34.2219 17.8072 33.6786 17.8072 33.0351C17.8072 32.4812 17.9137 32.0252 18.1268 31.6672C18.3398 31.3093 18.6275 31.0259 18.9897 30.8171C19.3519 30.6083 19.7567 30.4506 20.2042 30.3441C20.6516 30.2375 21.1076 30.1566 21.5721 30.1012C22.1601 30.033 22.6374 29.9776 23.0039 29.935C23.3704 29.8881 23.6367 29.8135 23.8029 29.7113C23.9691 29.609 24.0522 29.4428 24.0522 29.2127V29.1679C24.0522 28.6097 23.8945 28.1772 23.5792 27.8704C23.2681 27.5635 22.8036 27.4101 22.1857 27.4101C21.5422 27.4101 21.0351 27.5529 20.6644 27.8384C20.2979 28.1196 20.0444 28.4329 19.9038 28.778L18.1076 28.3689C18.3207 27.7723 18.6317 27.2908 19.0408 26.9243C19.4542 26.5536 19.9293 26.2851 20.4663 26.1189C21.0032 25.9485 21.5678 25.8633 22.1601 25.8633C22.5522 25.8633 22.9677 25.9101 23.4066 26.0039C23.8498 26.0934 24.2631 26.2596 24.6466 26.5025C25.0344 26.7454 25.3519 27.0927 25.5991 27.5444C25.8462 27.9918 25.9698 28.5735 25.9698 29.2894V35.8093H24.1033V34.467H24.0266C23.903 34.7141 23.7177 34.957 23.4705 35.1956C23.2234 35.4343 22.9059 35.6324 22.5181 35.7901C22.1303 35.9478 21.6658 36.0266 21.1246 36.0266ZM21.5401 34.4925C22.0685 34.4925 22.5202 34.3881 22.8952 34.1793C23.2745 33.9705 23.5621 33.6978 23.7582 33.3611C23.9584 33.0202 24.0586 32.6559 24.0586 32.2681V31.0025C23.9904 31.0706 23.8583 31.1346 23.6623 31.1942C23.4705 31.2496 23.2511 31.2986 23.0039 31.3412C22.7567 31.3796 22.516 31.4158 22.2816 31.4499C22.0472 31.4797 21.8512 31.5053 21.6935 31.5266C21.3228 31.5735 20.984 31.6523 20.6772 31.7631C20.3746 31.8739 20.1317 32.0337 19.9485 32.2425C19.7695 32.4471 19.68 32.7198 19.68 33.0607C19.68 33.5337 19.8547 33.8917 20.2042 34.1346C20.5536 34.3732 20.9989 34.4925 21.5401 34.4925Z" fill="black"/>
  <path d="M2.35918 35.8093V25.9911H4.19369V27.5891H4.31514C4.51969 27.0479 4.85421 26.626 5.31869 26.3235C5.78318 26.0167 6.33929 25.8633 6.98702 25.8633C7.64327 25.8633 8.19298 26.0167 8.63617 26.3235C9.08361 26.6303 9.41386 27.0522 9.62693 27.5891H9.72921C9.96358 27.065 10.3364 26.6473 10.8478 26.3363C11.3592 26.0209 11.9686 25.8633 12.6759 25.8633C13.5666 25.8633 14.2931 26.1424 14.8556 26.7006C15.4224 27.2589 15.7058 28.1005 15.7058 29.2255V35.8093H13.7945V29.4045C13.7945 28.7397 13.6134 28.2581 13.2512 27.9598C12.889 27.6616 12.4565 27.5124 11.9536 27.5124C11.3315 27.5124 10.8478 27.7042 10.5026 28.0877C10.1575 28.467 9.98489 28.9549 9.98489 29.5515V35.8093H8.08006V29.283C8.08006 28.7503 7.91386 28.3221 7.58148 27.9982C7.24909 27.6743 6.81656 27.5124 6.28389 27.5124C5.92168 27.5124 5.58716 27.6083 5.28034 27.8C4.97778 27.9875 4.73276 28.2496 4.54526 28.5863C4.36202 28.9229 4.2704 29.3128 4.2704 29.756V35.8093H2.35918Z" fill="black"/>
  <path d="M86.6637 39.4527V25.9911H88.575V31.7375C88.575 32.2233 88.6794 32.6516 88.8882 33.0223C89.1012 33.3931 89.3974 33.6829 89.7767 33.8917C90.1602 34.0962 90.6055 34.1985 91.1126 34.1985C91.6197 34.1985 92.0629 34.0941 92.4422 33.8853C92.8257 33.6765 93.1218 33.3888 93.3307 33.0223C93.5437 32.6516 93.6503 32.2233 93.6503 31.7375V25.9911H95.5615V35.8093H93.6822V34.3711H93.6055C93.3669 34.8569 93.0238 35.2297 92.5764 35.4897C92.1289 35.7454 91.641 35.8732 91.1126 35.8732C90.5842 35.8732 90.0963 35.7454 89.6488 35.4897C89.2057 35.2297 88.8605 34.8569 88.6133 34.3711H88.5366V39.4527H86.6637Z" fill="black"/>
  <path d="M114.127 34.0195L114.031 34.7162C113.967 35.2276 113.859 35.7603 113.705 36.3143C113.556 36.8725 113.4 37.3902 113.239 37.8675C113.081 38.3448 112.951 38.7241 112.849 39.0053H111.494C111.549 38.7411 111.626 38.3831 111.724 37.9314C111.822 37.484 111.918 36.9833 112.011 36.4293C112.105 35.8753 112.175 35.3107 112.222 34.7354L112.286 34.0195H114.127Z" fill="black"/>
  <path d="M95.7323 35.8093V25.9911H97.5668V27.5891H97.6883C97.8928 27.0479 98.2274 26.626 98.6918 26.3235C99.1563 26.0167 99.7124 25.8633 100.36 25.8633C101.016 25.8633 101.566 26.0167 102.009 26.3235C102.457 26.6303 102.787 27.0522 103 27.5891H103.102C103.337 27.065 103.71 26.6473 104.221 26.3363C104.732 26.0209 105.342 25.8633 106.049 25.8633C106.94 25.8633 107.666 26.1424 108.229 26.7006C108.796 27.2589 109.079 28.1005 109.079 29.2255V35.8093H107.168V29.4045C107.168 28.7397 106.987 28.2581 106.624 27.9598C106.262 27.6616 105.83 27.5124 105.327 27.5124C104.705 27.5124 104.221 27.7042 103.876 28.0877C103.531 28.467 103.358 28.9549 103.358 29.5515V35.8093H101.453V29.283C101.453 28.7503 101.287 28.3221 100.955 27.9982C100.622 27.6743 100.19 27.5124 99.657 27.5124C99.2948 27.5124 98.9603 27.6083 98.6535 27.8C98.3509 27.9875 98.1059 28.2496 97.9184 28.5863C97.7352 28.9229 97.6436 29.3128 97.6436 29.756V35.8093H95.7323Z" fill="black"/>
  <path d="M2.29167 58.7041V46.8015H3.62169V51.9187C3.62169 52.3884 3.71938 52.8016 3.91475 53.1586C4.11387 53.5117 4.3919 53.7879 4.74883 53.987C5.10951 54.1861 5.53031 54.2857 6.01122 54.2857C6.49213 54.2857 6.91105 54.1861 7.26797 53.987C7.62866 53.7841 7.90668 53.5061 8.10205 53.1529C8.30118 52.796 8.40074 52.3846 8.40074 51.9187V46.8015H9.73076V55.4579H8.40074V54.173H8.33312C8.10017 54.6276 7.77518 54.9751 7.35814 55.2156C6.9411 55.4523 6.49213 55.5706 6.01122 55.5706C5.53031 55.5706 5.08133 55.4523 4.66429 55.2156C4.25101 54.9751 3.92602 54.6276 3.68932 54.173H3.62169V58.7041H2.29167Z" fill="black"/>
  <path d="M44.3586 55.6157C43.6146 55.6157 42.9515 55.488 42.3692 55.2325C41.7906 54.977 41.3303 54.622 40.9884 54.1673C40.6503 53.709 40.4662 53.1773 40.4361 52.5725H41.8563C41.8864 52.9444 42.0141 53.2656 42.2395 53.5362C42.465 53.8029 42.7599 54.0095 43.1243 54.1561C43.4888 54.3026 43.8927 54.3759 44.336 54.3759C44.832 54.3759 45.2715 54.2895 45.6548 54.1166C46.038 53.9438 46.3386 53.7033 46.5565 53.3953C46.7744 53.0872 46.8833 52.7302 46.8833 52.3245C46.8833 51.8999 46.7781 51.5261 46.5677 51.203C46.3573 50.8761 46.0493 50.6206 45.6435 50.4365C45.2377 50.2524 44.7418 50.1604 44.1557 50.1604H43.2314V48.9205H44.1557C44.614 48.9205 45.0161 48.8379 45.3617 48.6726C45.7111 48.5073 45.9835 48.2743 46.1789 47.9737C46.378 47.6732 46.4776 47.32 46.4776 46.9142C46.4776 46.5235 46.3912 46.1835 46.2183 45.8942C46.0455 45.6049 45.8013 45.3795 45.4857 45.2179C45.1739 45.0563 44.8057 44.9756 44.3811 44.9756C43.9828 44.9756 43.6071 45.0488 43.254 45.1954C42.9046 45.3381 42.619 45.5466 42.3973 45.8209C42.1757 46.0914 42.0554 46.4183 42.0367 46.8015H40.6841C40.7066 46.1966 40.8889 45.6669 41.2308 45.2123C41.5727 44.7539 42.0198 44.397 42.572 44.1415C43.1281 43.886 43.7386 43.7583 44.4036 43.7583C45.1175 43.7583 45.7299 43.9029 46.2409 44.1922C46.7518 44.4777 47.1445 44.8553 47.4187 45.325C47.693 45.7946 47.8301 46.3018 47.8301 46.8466C47.8301 47.4966 47.6592 48.0508 47.3173 48.5091C46.9791 48.9675 46.5189 49.285 45.9365 49.4616V49.5517C46.6654 49.672 47.2346 49.9819 47.6442 50.4816C48.0537 50.9776 48.2584 51.5918 48.2584 52.3245C48.2584 52.9519 48.0875 53.5155 47.7456 54.0152C47.4075 54.5111 46.9453 54.9019 46.3592 55.1874C45.7731 55.4729 45.1062 55.6157 44.3586 55.6157Z" fill="black"/>
  <path d="M26.6879 55.4579V46.8015H27.9728V48.1541H28.0855C28.2659 47.692 28.5571 47.3332 28.9591 47.0777C29.3611 46.8184 29.8439 46.6888 30.4074 46.6888C30.9785 46.6888 31.4538 46.8184 31.8333 47.0777C32.2165 47.3332 32.5152 47.692 32.7293 48.1541H32.8195C33.0412 47.707 33.3737 47.3519 33.817 47.0889C34.2604 46.8222 34.792 46.6888 35.4119 46.6888C36.1859 46.6888 36.819 46.9311 37.3111 47.4158C37.8033 47.8967 38.0494 48.6463 38.0494 49.6644V55.4579H36.7194V49.6644C36.7194 49.0257 36.5447 48.5692 36.1953 48.295C35.8459 48.0207 35.4345 47.8836 34.9611 47.8836C34.3524 47.8836 33.8809 48.0677 33.5465 48.4359C33.2121 48.8003 33.0449 49.2624 33.0449 49.8222V55.4579H31.6924V49.5292C31.6924 49.037 31.5327 48.6406 31.2133 48.3401C30.894 48.0357 30.4826 47.8836 29.9791 47.8836C29.6335 47.8836 29.3104 47.9756 29.0098 48.1597C28.713 48.3438 28.4725 48.5993 28.2884 48.9262C28.1081 49.2493 28.0179 49.6231 28.0179 50.0477V55.4579H26.6879Z" fill="black"/>
  <path d="M25.1113 43.375L21.3918 57.1937H20.1745L23.894 43.375H25.1113Z" fill="black"/>
  <path d="M14.8544 58.8844C14.2119 58.8844 13.6596 58.8017 13.1975 58.6364C12.7354 58.4749 12.3503 58.2607 12.0422 57.994C11.7379 57.731 11.4955 57.4492 11.3152 57.1486L12.3747 56.4047C12.4949 56.5625 12.6471 56.7428 12.8312 56.9457C13.0153 57.1524 13.267 57.3308 13.5864 57.4811C13.9095 57.6352 14.3321 57.7122 14.8544 57.7122C15.5532 57.7122 16.1299 57.5431 16.5845 57.205C17.0391 56.8668 17.2665 56.3371 17.2665 55.6157V53.8574H17.1537C17.0561 54.0152 16.917 54.2106 16.7367 54.4435C16.5601 54.6727 16.3046 54.8774 15.9702 55.0578C15.6396 55.2344 15.1925 55.3227 14.629 55.3227C13.9301 55.3227 13.3027 55.1573 12.7466 54.8267C12.1943 54.4961 11.7566 54.0152 11.4335 53.384C11.1142 52.7528 10.9545 51.9863 10.9545 51.0846C10.9545 50.198 11.1104 49.4259 11.4223 48.7684C11.7341 48.1071 12.168 47.5961 12.7241 47.2355C13.2802 46.871 13.9226 46.6888 14.6515 46.6888C15.2151 46.6888 15.6622 46.7827 15.9928 46.9706C16.3272 47.1547 16.5827 47.3651 16.7592 47.6018C16.9396 47.8347 17.0786 48.0263 17.1763 48.1766H17.3115V46.8015H18.5965V55.7059C18.5965 56.4498 18.4274 57.0547 18.0893 57.5206C17.7549 57.9902 17.304 58.334 16.7367 58.5519C16.1731 58.7736 15.5457 58.8844 14.8544 58.8844ZM14.8093 54.1279C15.3428 54.1279 15.7937 54.0058 16.1619 53.7616C16.5301 53.5174 16.81 53.1661 17.0016 52.7077C17.1932 52.2493 17.289 51.7008 17.289 51.0621C17.289 50.4384 17.1951 49.888 17.0072 49.4108C16.8194 48.9337 16.5413 48.5599 16.1731 48.2893C15.8049 48.0188 15.3503 47.8836 14.8093 47.8836C14.2457 47.8836 13.7761 48.0263 13.4004 48.3119C13.0284 48.5974 12.7485 48.9806 12.5607 49.4616C12.3766 49.9425 12.2845 50.476 12.2845 51.0621C12.2845 51.6632 12.3784 52.1949 12.5663 52.657C12.7579 53.1154 13.0397 53.476 13.4117 53.739C13.7874 53.9983 14.2532 54.1279 14.8093 54.1279Z" fill="black"/>
  <path d="M27.1088 75.9942H0.875366V196.604H27.1088V75.9942Z" fill="url(#paint0_linear_0_1)"/>
  <path fill-rule="evenodd" clip-rule="evenodd" d="M0.715408 75.8342H27.2688V196.764H0.715408V75.8342ZM1.03533 76.1541V196.444H26.9488V76.1541H1.03533Z" fill="black"/>
  <path d="M57.9966 78.3571V89.9906H56.5879V79.834H56.5197L53.6795 81.7199V80.2884L56.5879 78.3571H57.9966Z" fill="black"/>
  <path d="M47.6527 90.1496C46.9028 90.1496 46.2344 90.0208 45.6475 89.7633C45.0643 89.5058 44.6004 89.148 44.2558 88.6897C43.915 88.2277 43.7294 87.6919 43.6991 87.0822H45.1306C45.1609 87.4571 45.2896 87.7809 45.5168 88.0535C45.744 88.3224 46.0413 88.5307 46.4086 88.6784C46.776 88.8261 47.1831 88.8999 47.6299 88.8999C48.1298 88.8999 48.5729 88.8128 48.9591 88.6386C49.3454 88.4644 49.6484 88.2221 49.868 87.9115C50.0876 87.601 50.1975 87.2412 50.1975 86.8323C50.1975 86.4043 50.0914 86.0275 49.8794 85.7019C49.6673 85.3724 49.3568 85.1149 48.9478 84.9293C48.5388 84.7438 48.0389 84.651 47.4482 84.651H46.5166V83.4013H47.4482C47.9102 83.4013 48.3154 83.318 48.6638 83.1514C49.0159 82.9847 49.2905 82.7499 49.4874 82.447C49.6881 82.144 49.7885 81.7881 49.7885 81.3791C49.7885 80.9852 49.7014 80.6425 49.5272 80.3509C49.353 80.0593 49.1068 79.8321 48.7887 79.6693C48.4744 79.5064 48.1033 79.425 47.6754 79.425C47.274 79.425 46.8953 79.4989 46.5393 79.6466C46.1871 79.7905 45.8993 80.0006 45.6759 80.2771C45.4524 80.5497 45.3313 80.8792 45.3123 81.2655H43.949C43.9718 80.6558 44.1554 80.1218 44.5 79.6636C44.8446 79.2016 45.2953 78.8418 45.852 78.5843C46.4124 78.3268 47.0278 78.1981 47.6981 78.1981C48.4176 78.1981 49.0349 78.3439 49.5499 78.6354C50.0649 78.9233 50.4607 79.3038 50.7371 79.7772C51.0136 80.2506 51.1518 80.7618 51.1518 81.3109C51.1518 81.9661 50.9795 82.5246 50.6349 82.9866C50.294 83.4486 49.8301 83.7686 49.2432 83.9466V84.0375C49.9778 84.1587 50.5515 84.4711 50.9643 84.9748C51.3771 85.4746 51.5835 86.0938 51.5835 86.8323C51.5835 87.4647 51.4112 88.0327 51.0666 88.5364C50.7257 89.0362 50.26 89.4301 49.6692 89.7179C49.0784 90.0057 48.4063 90.1496 47.6527 90.1496Z" fill="black"/>
  <path d="M40.3761 78.3571V89.9906H38.9673V79.834H38.8992L36.059 81.7199V80.2884L38.9673 78.3571H40.3761Z" fill="black"/>
  <path d="M49.7217 179.917C50.1989 179.921 50.676 180.012 51.1532 180.19C51.6303 180.368 52.0658 180.663 52.4597 181.076C52.8535 181.485 53.1697 182.044 53.4083 182.752C53.6469 183.46 53.7662 184.348 53.7662 185.416C53.7662 186.45 53.6677 187.368 53.4708 188.171C53.2777 188.97 52.9974 189.644 52.6301 190.193C52.2665 190.742 51.8235 191.159 51.3009 191.443C50.7821 191.727 50.1951 191.869 49.54 191.869C48.8886 191.869 48.3073 191.74 47.7961 191.483C47.2886 191.221 46.8721 190.86 46.5464 190.398C46.2245 189.932 46.0181 189.392 45.9272 188.779H47.3132C47.4382 189.313 47.6863 189.754 48.0574 190.102C48.4323 190.447 48.9265 190.619 49.54 190.619C50.4375 190.619 51.1456 190.227 51.6644 189.443C52.187 188.659 52.4483 187.552 52.4483 186.12H52.3574C52.1454 186.438 51.8935 186.713 51.6019 186.944C51.3103 187.175 50.9866 187.353 50.6306 187.478C50.2746 187.603 49.8959 187.665 49.4945 187.665C48.828 187.665 48.2164 187.501 47.6597 187.171C47.1068 186.838 46.6638 186.382 46.3305 185.802C46.0011 185.219 45.8363 184.552 45.8363 183.803C45.8363 183.091 45.9954 182.439 46.3135 181.849C46.6354 181.254 47.086 180.781 47.6654 180.428C48.2486 180.076 48.934 179.906 49.7217 179.917ZM49.7217 181.167C49.2446 181.167 48.8148 181.286 48.4323 181.525C48.0536 181.76 47.7525 182.078 47.5291 182.479C47.3094 182.877 47.1996 183.318 47.1996 183.803C47.1996 184.287 47.3057 184.729 47.5177 185.126C47.7336 185.52 48.0271 185.834 48.3982 186.069C48.7731 186.3 49.1991 186.416 49.6763 186.416C50.036 186.416 50.3712 186.346 50.6817 186.205C50.9922 186.062 51.263 185.867 51.494 185.62C51.7288 185.37 51.9125 185.088 52.045 184.774C52.1775 184.456 52.2438 184.125 52.2438 183.78C52.2438 183.325 52.134 182.899 51.9144 182.502C51.6985 182.104 51.3993 181.782 51.0169 181.536C50.6382 181.29 50.2065 181.167 49.7217 181.167Z" fill="black"/>
  <path d="M39.9216 191.869C39.2551 191.869 38.6549 191.736 38.1209 191.471C37.587 191.206 37.1591 190.843 36.8372 190.381C36.5153 189.919 36.3392 189.392 36.3089 188.801H37.6722C37.7252 189.328 37.9638 189.763 38.3879 190.108C38.8158 190.449 39.3271 190.619 39.9216 190.619C40.3988 190.619 40.8229 190.507 41.194 190.284C41.5689 190.061 41.8624 189.754 42.0745 189.364C42.2904 188.97 42.3983 188.525 42.3983 188.029C42.3983 187.521 42.2866 187.069 42.0631 186.671C41.8435 186.27 41.5405 185.954 41.1543 185.723C40.768 185.492 40.3268 185.374 39.8307 185.37C39.4748 185.367 39.1093 185.422 38.7344 185.535C38.3595 185.645 38.0509 185.787 37.8085 185.961L36.4907 185.802L37.195 180.076H43.239V181.326H38.3766L37.9676 184.757H38.0357C38.2743 184.568 38.5735 184.41 38.9332 184.285C39.293 184.16 39.6679 184.098 40.058 184.098C40.7699 184.098 41.4042 184.268 41.9609 184.609C42.5214 184.946 42.9606 185.408 43.2787 185.995C43.6006 186.582 43.7616 187.253 43.7616 188.006C43.7616 188.748 43.595 189.411 43.2617 189.994C42.9322 190.574 42.4778 191.032 41.8984 191.369C41.319 191.702 40.6601 191.869 39.9216 191.869Z" fill="black"/>
  <defs>
    <linearGradient id="paint0_linear_0_1" x1="-6.48279" y1="197.025" x2="-6.48279" y2="76.11" gradientUnits="userSpaceOnUse">
      <stop stop-color="#717174" stop-opacity="0"/>
      <stop offset="0.02" stop-opacity="0"/>
      <stop offset="0.04" stop-opacity="0"/>
      <stop offset="0.06" stop-opacity="0"/>
      <stop offset="0.08" stop-opacity="0"/>
      <stop offset="0.1" stop-opacity="0"/>
      <stop offset="0.12" stop-opacity="0"/>
      <stop offset="0.14" stop-opacity="0"/>
      <stop offset="0.16" stop-opacity="0"/>
      <stop offset="0.18" stop-opacity="0"/>
      <stop offset="0.2" stop-color="#8A8779" stop-opacity="0"/>
      <stop offset="0.219396" stop-color="#AA9977" stop-opacity="0.0588235"/>
      <stop offset="0.238792" stop-color="#A59C73" stop-opacity="0.121569"/>
      <stop offset="0.258188" stop-color="#A89D72" stop-opacity="0.184314"/>
      <stop offset="0.277584" stop-color="#A69E75" stop-opacity="0.247059"/>
      <stop offset="0.29698" stop-color="#A89E74" stop-opacity="0.309804"/>
      <stop offset="0.316377" stop-color="#A69E73" stop-opacity="0.372549"/>
      <stop offset="0.335773" stop-color="#A89F75" stop-opacity="0.435294"/>
      <stop offset="0.355169" stop-color="#A79F74" stop-opacity="0.498039"/>
      <stop offset="0.374565" stop-color="#A69D74" stop-opacity="0.560784"/>
      <stop offset="0.393961" stop-color="#A79D75" stop-opacity="0.623529"/>
      <stop offset="0.413357" stop-color="#A69D75" stop-opacity="0.686275"/>
      <stop offset="0.432753" stop-color="#A79E74" stop-opacity="0.74902"/>
      <stop offset="0.452149" stop-color="#A69E75" stop-opacity="0.811765"/>
      <stop offset="0.471545" stop-color="#A79E75" stop-opacity="0.87451"/>
      <stop offset="0.490941" stop-color="#A69E74" stop-opacity="0.937255"/>
      <stop offset="0.510338" stop-color="#A79E75"/>
      <stop offset="0.52827" stop-color="#ACA273"/>
      <stop offset="0.546203" stop-color="#B2A771"/>
      <stop offset="0.564135" stop-color="#B8AB6F"/>
      <stop offset="0.582068" stop-color="#BEB06D"/>
      <stop offset="0.6" stop-color="#C5B56C"/>
      <stop offset="0.618182" stop-color="#C7B76A"/>
      <stop offset="0.636364" stop-color="#CAB968"/>
      <stop offset="0.654545" stop-color="#CDBC67"/>
      <stop offset="0.672727" stop-color="#D0BE65"/>
      <stop offset="0.690909" stop-color="#D3C163"/>
      <stop offset="0.709091" stop-color="#D6C362"/>
      <stop offset="0.727273" stop-color="#D9C660"/>
      <stop offset="0.745455" stop-color="#DCC85E"/>
      <stop offset="0.763636" stop-color="#DFCB5D"/>
      <stop offset="0.781818" stop-color="#E2CD5B"/>
      <stop offset="0.8" stop-color="#E5D05A"/>
      <stop offset="0.82" stop-color="#E7D258"/>
      <stop offset="0.84" stop-color="#EAD556"/>
      <stop offset="0.86" stop-color="#ECD754"/>
      <stop offset="0.88" stop-color="#EFDA52"/>
      <stop offset="0.9" stop-color="#F2DD50"/>
      <stop offset="0.92" stop-color="#F4DF4E"/>
      <stop offset="0.94" stop-color="#F7E24C"/>
      <stop offset="0.96" stop-color="#F9E44A"/>
      <stop offset="0.98" stop-color="#FCE748"/>
      <stop offset="1" stop-color="#FFEA46"/>
    </linearGradient>
  </defs>
</svg>