<svg width="156" height="181" viewBox="0 0 156 181" fill="none" xmlns="http://www.w3.org/2000/svg">
  <path d="M138.753 11.1018L138.668 11.7161C138.612 12.1669 138.516 12.6366 138.381 13.125C138.249 13.6172 138.112 14.0737 137.969 14.4945C137.83 14.9153 137.716 15.2497 137.626 15.4976H136.431C136.48 15.2647 136.547 14.9491 136.634 14.5508C136.72 14.1563 136.805 13.7149 136.887 13.2265C136.97 12.738 137.032 12.2402 137.073 11.733L137.13 11.1018H138.753Z" fill="black"/>
  <path d="M130.977 12.8545C130.124 12.8545 129.39 12.6722 128.773 12.3078C128.161 11.9396 127.688 11.423 127.353 10.758C127.023 10.0892 126.857 9.30586 126.857 8.40791C126.857 7.52123 127.023 6.73975 127.353 6.06347C127.688 5.38719 128.154 4.85932 128.751 4.47985C129.352 4.10038 130.055 3.91064 130.859 3.91064C131.347 3.91064 131.82 3.99142 132.279 4.15298C132.737 4.31453 133.149 4.56814 133.513 4.91379C133.877 5.25945 134.165 5.70842 134.375 6.26072C134.586 6.80926 134.691 7.47615 134.691 8.26138V8.85877H127.81V7.59638H133.04C133.04 7.15304 132.949 6.76042 132.769 6.41852C132.589 6.07287 132.335 5.80047 132.008 5.60135C131.685 5.40222 131.306 5.30266 130.87 5.30266C130.397 5.30266 129.983 5.41913 129.63 5.65207C129.281 5.88125 129.01 6.18182 128.819 6.55378C128.631 6.92197 128.537 7.32211 128.537 7.75417V8.74042C128.537 9.31901 128.638 9.8112 128.841 10.217C129.048 10.6227 129.335 10.9327 129.703 11.1469C130.072 11.3572 130.502 11.4624 130.994 11.4624C131.313 11.4624 131.604 11.4174 131.867 11.3272C132.13 11.2333 132.358 11.0943 132.549 10.9102C132.741 10.7261 132.887 10.4987 132.989 10.2282L134.584 10.5157C134.456 10.9853 134.227 11.3967 133.896 11.7499C133.569 12.0993 133.158 12.3717 132.662 12.567C132.17 12.7587 131.608 12.8545 130.977 12.8545Z" fill="black"/>
  <path d="M120.552 12.8489C119.854 12.8489 119.23 12.6704 118.681 12.3135C118.137 11.9528 117.708 11.44 117.396 10.7749C117.088 10.1062 116.934 9.30403 116.934 8.36851C116.934 7.43299 117.09 6.63272 117.402 5.96771C117.718 5.3027 118.15 4.79361 118.698 4.44045C119.247 4.08728 119.869 3.91069 120.564 3.91069C121.101 3.91069 121.533 4.00086 121.86 4.1812C122.19 4.35779 122.446 4.56443 122.626 4.80113C122.81 5.03783 122.953 5.24635 123.055 5.42669H123.156V1.13794H124.841V12.6798H123.196V11.3329H123.055C122.953 11.517 122.807 11.7274 122.615 11.9641C122.427 12.2008 122.168 12.4074 121.837 12.584C121.507 12.7606 121.078 12.8489 120.552 12.8489ZM120.924 11.4118C121.409 11.4118 121.819 11.284 122.153 11.0285C122.491 10.7693 122.747 10.4105 122.919 9.95214C123.096 9.49377 123.184 8.96026 123.184 8.3516C123.184 7.75046 123.098 7.22447 122.925 6.77361C122.752 6.32276 122.499 5.97147 122.164 5.71974C121.83 5.46802 121.417 5.34215 120.924 5.34215C120.417 5.34215 119.994 5.47365 119.656 5.73665C119.318 5.99965 119.063 6.35845 118.89 6.81306C118.721 7.26768 118.636 7.78052 118.636 8.3516C118.636 8.9302 118.723 9.45056 118.895 9.91269C119.068 10.3748 119.324 10.7411 119.662 11.0116C120.004 11.2784 120.425 11.4118 120.924 11.4118Z" fill="black"/>
  <path d="M113.36 12.6798V4.02337H115.045V12.6798H113.36ZM114.211 2.68772C113.918 2.68772 113.666 2.59003 113.456 2.39466C113.249 2.19553 113.146 1.95884 113.146 1.68457C113.146 1.40654 113.249 1.16984 113.456 0.974472C113.666 0.775345 113.918 0.675781 114.211 0.675781C114.504 0.675781 114.754 0.775345 114.96 0.974472C115.171 1.16984 115.276 1.40654 115.276 1.68457C115.276 1.95884 115.171 2.19553 114.96 2.39466C114.754 2.59003 114.504 2.68772 114.211 2.68772Z" fill="black"/>
  <path d="M105.949 4.02332L107.859 7.39345L109.787 4.02332H111.63L108.93 8.35151L111.652 12.6797H109.809L107.859 9.44483L105.915 12.6797H104.067L106.761 8.35151L104.1 4.02332H105.949Z" fill="black"/>
  <path d="M99.0438 12.8545C98.2323 12.8545 97.5241 12.6685 96.9192 12.2965C96.3143 11.9246 95.8446 11.4042 95.5102 10.7354C95.1759 10.0667 95.0087 9.2852 95.0087 8.39101C95.0087 7.49305 95.1759 6.70782 95.5102 6.03529C95.8446 5.36277 96.3143 4.84053 96.9192 4.46858C97.5241 4.09662 98.2323 3.91064 99.0438 3.91064C99.8553 3.91064 100.564 4.09662 101.168 4.46858C101.773 4.84053 102.243 5.36277 102.577 6.03529C102.912 6.70782 103.079 7.49305 103.079 8.39101C103.079 9.2852 102.912 10.0667 102.577 10.7354C102.243 11.4042 101.773 11.9246 101.168 12.2965C100.564 12.6685 99.8553 12.8545 99.0438 12.8545ZM99.0494 11.4399C99.5754 11.4399 100.011 11.3009 100.357 11.0229C100.703 10.7448 100.958 10.3748 101.123 9.91264C101.292 9.45051 101.377 8.94142 101.377 8.38537C101.377 7.83307 101.292 7.32586 101.123 6.86374C100.958 6.39786 100.703 6.02402 100.357 5.74224C100.011 5.46045 99.5754 5.31956 99.0494 5.31956C98.5197 5.31956 98.0801 5.46045 97.7307 5.74224C97.385 6.02402 97.1277 6.39786 96.9586 6.86374C96.7933 7.32586 96.7106 7.83307 96.7106 8.38537C96.7106 8.94142 96.7933 9.45051 96.9586 9.91264C97.1277 10.3748 97.385 10.7448 97.7307 11.0229C98.0801 11.3009 98.5197 11.4399 99.0494 11.4399Z" fill="black"/>
  <path d="M87.5978 7.54002V12.6798H85.9127V4.02336H87.5302V5.43228H87.6372C87.8364 4.97391 88.1482 4.60571 88.5728 4.32768C89.0011 4.04966 89.5402 3.91064 90.1902 3.91064C90.7801 3.91064 91.2967 4.03463 91.74 4.2826C92.1833 4.52681 92.5271 4.89125 92.7713 5.37592C93.0155 5.86059 93.1376 6.45985 93.1376 7.1737V12.6798H91.4526V7.37658C91.4526 6.74915 91.2891 6.25884 90.9623 5.90567C90.6354 5.54875 90.1864 5.37028 89.6154 5.37028C89.2246 5.37028 88.8771 5.45482 88.5728 5.62389C88.2722 5.79296 88.0336 6.04093 87.857 6.3678C87.6842 6.69091 87.5978 7.08165 87.5978 7.54002Z" fill="black"/>
  <path d="M79.9967 12.8545C79.1852 12.8545 78.4769 12.6685 77.872 12.2965C77.2671 11.9246 76.7975 11.4042 76.4631 10.7354C76.1287 10.0667 75.9615 9.2852 75.9615 8.39101C75.9615 7.49305 76.1287 6.70782 76.4631 6.03529C76.7975 5.36277 77.2671 4.84053 77.872 4.46858C78.4769 4.09662 79.1852 3.91064 79.9967 3.91064C80.8082 3.91064 81.5164 4.09662 82.1213 4.46858C82.7262 4.84053 83.1959 5.36277 83.5303 6.03529C83.8646 6.70782 84.0318 7.49305 84.0318 8.39101C84.0318 9.2852 83.8646 10.0667 83.5303 10.7354C83.1959 11.4042 82.7262 11.9246 82.1213 12.2965C81.5164 12.6685 80.8082 12.8545 79.9967 12.8545ZM80.0023 11.4399C80.5283 11.4399 80.9641 11.3009 81.3098 11.0229C81.6555 10.7448 81.9109 10.3748 82.0763 9.91264C82.2453 9.45051 82.3299 8.94142 82.3299 8.38537C82.3299 7.83307 82.2453 7.32586 82.0763 6.86374C81.9109 6.39786 81.6555 6.02402 81.3098 5.74224C80.9641 5.46045 80.5283 5.31956 80.0023 5.31956C79.4726 5.31956 79.033 5.46045 78.6836 5.74224C78.3379 6.02402 78.0806 6.39786 77.9115 6.86374C77.7462 7.32586 77.6635 7.83307 77.6635 8.38537C77.6635 8.94142 77.7462 9.45051 77.9115 9.91264C78.0806 10.3748 78.3379 10.7448 78.6836 11.0229C79.033 11.3009 79.4726 11.4399 80.0023 11.4399Z" fill="black"/>
  <path d="M62.3246 12.6798V4.02336H63.942V5.43228H64.0491C64.2294 4.95512 64.5244 4.58317 64.9339 4.31641C65.3434 4.0459 65.8337 3.91064 66.4048 3.91064C66.9834 3.91064 67.4681 4.0459 67.8588 4.31641C68.2533 4.58693 68.5445 4.95888 68.7323 5.43228H68.8225C69.0292 4.97015 69.3579 4.60195 69.8088 4.32768C70.2596 4.04966 70.7969 3.91064 71.4206 3.91064C72.2058 3.91064 72.8464 4.15674 73.3423 4.64892C73.842 5.1411 74.0919 5.88313 74.0919 6.87501V12.6798H72.4068V7.03281C72.4068 6.4467 72.2471 6.02214 71.9278 5.75915C71.6084 5.49615 71.2271 5.36465 70.7837 5.36465C70.2352 5.36465 69.8088 5.53372 69.5044 5.87186C69.2001 6.20624 69.0479 6.63643 69.0479 7.16243V12.6798H67.3685V6.92573C67.3685 6.45609 67.222 6.0785 66.9289 5.79296C66.6359 5.50742 66.2545 5.36465 65.7849 5.36465C65.4655 5.36465 65.1706 5.44918 64.9001 5.61825C64.6333 5.78357 64.4173 6.01463 64.252 6.31144C64.0904 6.60825 64.0097 6.95203 64.0097 7.34277V12.6798H62.3246Z" fill="black"/>
  <path d="M50.3248 7.54002V12.6798H48.6398V4.02336H50.2572V5.43228H50.3643C50.5634 4.97391 50.8753 4.60571 51.2998 4.32768C51.7281 4.04966 52.2673 3.91064 52.9172 3.91064C53.5071 3.91064 54.0237 4.03463 54.4671 4.2826C54.9104 4.52681 55.2542 4.89125 55.4984 5.37592C55.7426 5.86059 55.8647 6.45985 55.8647 7.1737V12.6798H54.1796V7.37658C54.1796 6.74915 54.0162 6.25884 53.6893 5.90567C53.3625 5.54875 52.9135 5.37028 52.3424 5.37028C51.9517 5.37028 51.6041 5.45482 51.2998 5.62389C50.9992 5.79296 50.7607 6.04093 50.5841 6.3678C50.4113 6.69091 50.3248 7.08165 50.3248 7.54002Z" fill="black"/>
  <path d="M42.7237 12.8545C41.9122 12.8545 41.204 12.6685 40.5991 12.2965C39.9942 11.9246 39.5246 11.4042 39.1902 10.7354C38.8558 10.0667 38.6886 9.2852 38.6886 8.39101C38.6886 7.49305 38.8558 6.70782 39.1902 6.03529C39.5246 5.36277 39.9942 4.84053 40.5991 4.46858C41.204 4.09662 41.9122 3.91064 42.7237 3.91064C43.5353 3.91064 44.2435 4.09662 44.8484 4.46858C45.4533 4.84053 45.9229 5.36277 46.2573 6.03529C46.5917 6.70782 46.7589 7.49305 46.7589 8.39101C46.7589 9.2852 46.5917 10.0667 46.2573 10.7354C45.9229 11.4042 45.4533 11.9246 44.8484 12.2965C44.2435 12.6685 43.5353 12.8545 42.7237 12.8545ZM42.7294 11.4399C43.2554 11.4399 43.6912 11.3009 44.0369 11.0229C44.3825 10.7448 44.638 10.3748 44.8033 9.91264C44.9724 9.45051 45.0569 8.94142 45.0569 8.38537C45.0569 7.83307 44.9724 7.32586 44.8033 6.86374C44.638 6.39786 44.3825 6.02402 44.0369 5.74224C43.6912 5.46045 43.2554 5.31956 42.7294 5.31956C42.1996 5.31956 41.76 5.46045 41.4106 5.74224C41.065 6.02402 40.8076 6.39786 40.6385 6.86374C40.4732 7.32586 40.3906 7.83307 40.3906 8.38537C40.3906 8.94142 40.4732 9.45051 40.6385 9.91264C40.8076 10.3748 41.065 10.7448 41.4106 11.0229C41.76 11.3009 42.1996 11.4399 42.7294 11.4399Z" fill="black"/>
  <path d="M29.2784 12.6798V1.13794H30.9635V5.42669H31.065C31.1626 5.24635 31.3035 5.03783 31.4876 4.80113C31.6717 4.56443 31.9272 4.35779 32.2541 4.1812C32.5809 4.00086 33.013 3.91069 33.5503 3.91069C34.2491 3.91069 34.8728 4.08728 35.4213 4.44045C35.9699 4.79361 36.4001 5.3027 36.7119 5.96771C37.0275 6.63272 37.1853 7.43299 37.1853 8.36851C37.1853 9.30403 37.0294 10.1062 36.7175 10.7749C36.4057 11.44 35.9774 11.9528 35.4326 12.3135C34.8878 12.6704 34.266 12.8489 33.5672 12.8489C33.0412 12.8489 32.611 12.7606 32.2766 12.584C31.946 12.4074 31.6868 12.2008 31.4989 11.9641C31.311 11.7274 31.1664 11.517 31.065 11.3329H30.9241V12.6798H29.2784ZM30.9297 8.3516C30.9297 8.96026 31.018 9.49377 31.1946 9.95214C31.3712 10.4105 31.6266 10.7693 31.961 11.0285C32.2954 11.284 32.7049 11.4118 33.1896 11.4118C33.6931 11.4118 34.1139 11.2784 34.452 11.0116C34.7901 10.7411 35.0456 10.3748 35.2184 9.91269C35.395 9.45056 35.4833 8.9302 35.4833 8.3516C35.4833 7.78052 35.3969 7.26768 35.2241 6.81306C35.055 6.35845 34.7995 5.99965 34.4576 5.73665C34.1195 5.47365 33.6968 5.34215 33.1896 5.34215C32.7012 5.34215 32.2879 5.46802 31.9498 5.71974C31.6154 5.97147 31.3618 6.32276 31.1889 6.77361C31.0161 7.22447 30.9297 7.75046 30.9297 8.3516Z" fill="black"/>
  <path d="M23.0524 12.6798V4.02342H24.6811V5.39852H24.7712C24.929 4.93264 25.2071 4.56632 25.6053 4.29957C26.0073 4.02906 26.462 3.8938 26.9692 3.8938C27.0744 3.8938 27.1983 3.89756 27.3411 3.90507C27.4876 3.91258 27.6022 3.92198 27.6849 3.93325V5.54505C27.6173 5.52627 27.497 5.5056 27.3242 5.48306C27.1514 5.45676 26.9786 5.44361 26.8057 5.44361C26.4075 5.44361 26.0524 5.52814 25.7406 5.69722C25.4325 5.86253 25.1883 6.09359 25.0079 6.3904C24.8276 6.68346 24.7374 7.01784 24.7374 7.39355V12.6798H23.0524Z" fill="black"/>
  <path d="M16.5361 12.8714C15.9876 12.8714 15.4916 12.7699 15.0483 12.567C14.605 12.3604 14.2537 12.0617 13.9944 11.671C13.7389 11.2802 13.6112 10.8012 13.6112 10.2339C13.6112 9.74545 13.7051 9.34343 13.893 9.02784C14.0808 8.71224 14.3345 8.46239 14.6538 8.27829C14.9732 8.09419 15.3301 7.95518 15.7246 7.86125C16.1191 7.76732 16.5211 7.69594 16.9306 7.6471C17.4491 7.58698 17.8699 7.53814 18.193 7.50057C18.5161 7.45924 18.7509 7.39349 18.8975 7.30332C19.044 7.21315 19.1173 7.06662 19.1173 6.86374V6.82429C19.1173 6.33211 18.9782 5.95076 18.7002 5.68025C18.426 5.40973 18.0164 5.27448 17.4716 5.27448C16.9043 5.27448 16.4572 5.40034 16.1304 5.65207C15.8072 5.90004 15.5837 6.17619 15.4597 6.48051L13.8761 6.11983C14.0639 5.59383 14.3382 5.16928 14.6989 4.84617C15.0633 4.5193 15.4822 4.2826 15.9556 4.13607C16.429 3.98579 16.9269 3.91064 17.4491 3.91064C17.7948 3.91064 18.1611 3.95197 18.5481 4.03463C18.9388 4.11353 19.3032 4.26006 19.6414 4.47421C19.9833 4.68837 20.2632 4.99457 20.4811 5.39283C20.699 5.78732 20.808 6.30017 20.808 6.93137V12.6798H19.1623V11.4963H19.0947C18.9858 11.7142 18.8223 11.9283 18.6044 12.1387C18.3865 12.3491 18.1066 12.5238 17.7647 12.6628C17.4228 12.8019 17.0133 12.8714 16.5361 12.8714ZM16.9024 11.5188C17.3683 11.5188 17.7666 11.4268 18.0972 11.2427C18.4316 11.0586 18.6852 10.8181 18.858 10.5213C19.0346 10.2207 19.1229 9.89949 19.1229 9.55759V8.44173C19.0628 8.50184 18.9463 8.5582 18.7735 8.6108C18.6044 8.65964 18.4109 8.70285 18.193 8.74042C17.9751 8.77423 17.7628 8.80617 17.5562 8.83622C17.3495 8.86252 17.1767 8.88507 17.0377 8.90385C16.7108 8.94518 16.4121 9.01469 16.1416 9.11237C15.8749 9.21006 15.6607 9.35095 15.4992 9.53505C15.3414 9.71539 15.2625 9.95585 15.2625 10.2564C15.2625 10.6735 15.4165 10.9891 15.7246 11.2032C16.0327 11.4136 16.4253 11.5188 16.9024 11.5188Z" fill="black"/>
  <path d="M12.0685 4.89126H10.3101C10.2425 4.51555 10.1166 4.18492 9.93255 3.89938C9.74845 3.61384 9.52302 3.37151 9.25627 3.17238C8.98951 2.97325 8.69082 2.82297 8.36019 2.72153C8.03332 2.62008 7.68579 2.56936 7.31759 2.56936C6.65258 2.56936 6.05708 2.73655 5.53108 3.07094C5.00884 3.40532 4.59556 3.89563 4.29124 4.54185C3.99067 5.18807 3.84038 5.97707 3.84038 6.90883C3.84038 7.84811 3.99067 8.64086 4.29124 9.28709C4.59556 9.93331 5.01072 10.4217 5.53672 10.7524C6.06272 11.083 6.65446 11.2483 7.31196 11.2483C7.6764 11.2483 8.02205 11.1995 8.34892 11.1018C8.67955 11.0003 8.97824 10.8519 9.24499 10.6566C9.51175 10.4612 9.73718 10.2226 9.92127 9.94083C10.1091 9.65528 10.2388 9.32842 10.3101 8.96022L12.0685 8.96585C11.9745 9.53318 11.7923 10.0554 11.5218 10.5326C11.2551 11.006 10.9113 11.4155 10.4905 11.7611C10.0734 12.103 9.59628 12.3679 9.05902 12.5558C8.52175 12.7436 7.93564 12.8376 7.30069 12.8376C6.30129 12.8376 5.41086 12.6009 4.62938 12.1275C3.8479 11.6503 3.23173 10.9684 2.78087 10.0817C2.33378 9.19504 2.11023 8.13741 2.11023 6.90883C2.11023 5.6765 2.33566 4.61887 2.78651 3.73595C3.23736 2.84927 3.85353 2.16923 4.63501 1.69583C5.41649 1.21868 6.30505 0.980103 7.30069 0.980103C7.9131 0.980103 8.48418 1.06839 9.01393 1.24498C9.54744 1.41781 10.0265 1.67329 10.451 2.01143C10.8756 2.34581 11.2269 2.75534 11.5049 3.24001C11.7829 3.72092 11.9708 4.27134 12.0685 4.89126Z" fill="black"/>
  <path d="M45.3232 34.3284V33.314L49.133 29.1436C49.5801 28.6551 49.9483 28.2306 50.2375 27.8699C50.5268 27.5055 50.741 27.1636 50.88 26.8442C51.0228 26.5211 51.0942 26.183 51.0942 25.8298C51.0942 25.424 50.9965 25.0727 50.8011 24.7759C50.6095 24.4791 50.3465 24.2499 50.0121 24.0884C49.6777 23.9268 49.302 23.846 48.885 23.846C48.4416 23.846 48.0547 23.9381 47.724 24.1222C47.3972 24.3025 47.1436 24.5561 46.9632 24.883C46.7866 25.2099 46.6983 25.5931 46.6983 26.0327H45.3683C45.3683 25.3564 45.5242 24.7628 45.8361 24.2518C46.1479 23.7408 46.5725 23.3426 47.1098 23.057C47.6508 22.7715 48.2575 22.6287 48.9301 22.6287C49.6064 22.6287 50.2056 22.7715 50.7279 23.057C51.2501 23.3426 51.6596 23.7277 51.9564 24.2123C52.2532 24.697 52.4016 25.2362 52.4016 25.8298C52.4016 26.2543 52.3246 26.6695 52.1706 27.0753C52.0203 27.4773 51.7573 27.9263 51.3816 28.4222C51.0096 28.9144 50.493 29.5155 49.8318 30.2256L47.2394 32.9984V33.0885H52.6045V34.3284H45.3232Z" fill="black"/>
  <path d="M31.5524 34.3284V25.672H32.8374V27.0245H32.9501C33.1304 26.5624 33.4216 26.2036 33.8236 25.9481C34.2256 25.6889 34.7084 25.5593 35.272 25.5593C35.8431 25.5593 36.3183 25.6889 36.6978 25.9481C37.081 26.2036 37.3797 26.5624 37.5939 27.0245H37.684C37.9057 26.5774 38.2382 26.2224 38.6816 25.9594C39.1249 25.6926 39.6565 25.5593 40.2765 25.5593C41.0504 25.5593 41.6835 25.8016 42.1757 26.2863C42.6679 26.7672 42.9139 27.5167 42.9139 28.5349V34.3284H41.5839V28.5349C41.5839 27.8962 41.4092 27.4397 41.0598 27.1654C40.7104 26.8912 40.299 26.754 39.8256 26.754C39.2169 26.754 38.7454 26.9381 38.411 27.3063C38.0767 27.6708 37.9095 28.1329 37.9095 28.6927V34.3284H36.5569V28.3996C36.5569 27.9075 36.3972 27.5111 36.0779 27.2105C35.7585 26.9062 35.3471 26.754 34.8437 26.754C34.498 26.754 34.1749 26.8461 33.8743 27.0302C33.5775 27.2143 33.3371 27.4698 33.153 27.7966C32.9726 28.1197 32.8824 28.4936 32.8824 28.9181V34.3284H31.5524Z" fill="black"/>
  <path d="M29.9759 22.2455L26.2564 36.0642H25.0391L28.7586 22.2455H29.9759Z" fill="black"/>
  <path d="M19.719 37.7549C19.0765 37.7549 18.5242 37.6722 18.0621 37.5069C17.6 37.3453 17.2149 37.1312 16.9068 36.8644C16.6025 36.6014 16.3601 36.3196 16.1798 36.0191L17.2393 35.2752C17.3595 35.433 17.5117 35.6133 17.6958 35.8162C17.8799 36.0228 18.1316 36.2013 18.451 36.3516C18.7741 36.5056 19.1967 36.5826 19.719 36.5826C20.4178 36.5826 20.9945 36.4136 21.4491 36.0754C21.9037 35.7373 22.131 35.2075 22.131 34.4862V32.7278H22.0183C21.9207 32.8856 21.7816 33.081 21.6013 33.314C21.4247 33.5431 21.1692 33.7479 20.8348 33.9282C20.5042 34.1048 20.0571 34.1931 19.4936 34.1931C18.7947 34.1931 18.1673 34.0278 17.6112 33.6972C17.0589 33.3666 16.6212 32.8856 16.2981 32.2544C15.9788 31.6233 15.8191 30.8568 15.8191 29.9551C15.8191 29.0684 15.975 28.2963 16.2869 27.6388C16.5987 26.9776 17.0326 26.4666 17.5887 26.1059C18.1447 25.7415 18.7872 25.5593 19.5161 25.5593C20.0797 25.5593 20.5268 25.6532 20.8574 25.841C21.1918 26.0251 21.4473 26.2355 21.6238 26.4722C21.8042 26.7052 21.9432 26.8968 22.0409 27.0471H22.1761V25.672H23.4611V34.5763C23.4611 35.3203 23.292 35.9251 22.9539 36.391C22.6195 36.8607 22.1686 37.2044 21.6013 37.4224C21.0377 37.644 20.4103 37.7549 19.719 37.7549ZM19.6739 32.9984C20.2074 32.9984 20.6583 32.8762 21.0265 32.632C21.3947 32.3878 21.6746 32.0365 21.8662 31.5782C22.0578 31.1198 22.1536 30.5713 22.1536 29.9325C22.1536 29.3089 22.0597 28.7584 21.8718 28.2813C21.684 27.8041 21.4059 27.4303 21.0377 27.1598C20.6695 26.8893 20.2149 26.754 19.6739 26.754C19.1103 26.754 18.6407 26.8968 18.265 27.1823C17.893 27.4679 17.6131 27.8511 17.4253 28.332C17.2412 28.8129 17.1491 29.3464 17.1491 29.9325C17.1491 30.5337 17.243 31.0653 17.4309 31.5274C17.6225 31.9858 17.9043 32.3465 18.2762 32.6095C18.652 32.8687 19.1178 32.9984 19.6739 32.9984Z" fill="black"/>
  <path d="M2.43152 34.3284V25.672H3.71645V27.0245H3.82917C4.00951 26.5624 4.30068 26.2036 4.7027 25.9481C5.10471 25.6889 5.5875 25.5593 6.15106 25.5593C6.72215 25.5593 7.19742 25.6889 7.57689 25.9481C7.96012 26.2036 8.25881 26.5624 8.47296 27.0245H8.56313C8.7848 26.5774 9.11731 26.2224 9.56065 25.9594C10.004 25.6926 10.5356 25.5593 11.1555 25.5593C11.9295 25.5593 12.5626 25.8016 13.0548 26.2863C13.5469 26.7672 13.793 27.5167 13.793 28.5349V34.3284H12.463V28.5349C12.463 27.8962 12.2883 27.4397 11.9389 27.1654C11.5895 26.8912 11.1781 26.754 10.7047 26.754C10.096 26.754 9.62452 26.9381 9.29013 27.3063C8.95575 27.6708 8.78856 28.1329 8.78856 28.6927V34.3284H7.436V28.3996C7.436 27.9075 7.27632 27.5111 6.95697 27.2105C6.63761 26.9062 6.22621 26.754 5.72275 26.754C5.3771 26.754 5.05399 26.8461 4.75342 27.0302C4.4566 27.2143 4.21615 27.4698 4.03205 27.7966C3.85171 28.1197 3.76154 28.4936 3.76154 28.9181V34.3284H2.43152Z" fill="black"/>
  <path d="M27.2486 53.6783H1.01514V174.288H27.2486V53.6783Z" fill="url(#paint0_linear_0_1)"/>
  <path fill-rule="evenodd" clip-rule="evenodd" d="M0.855225 53.5183H27.4086V174.448H0.855225V53.5183ZM1.17514 53.8382V174.128H27.0886V53.8382H1.17514Z" fill="black"/>
  <path d="M60.1158 68.0198C59.3357 68.0198 58.6464 67.8816 58.0481 67.6052C57.4536 67.3249 56.9897 66.9406 56.6564 66.4521C56.3232 65.9598 56.1584 65.3993 56.1622 64.7707C56.1584 64.2784 56.255 63.8239 56.4519 63.4074C56.6488 62.987 56.9177 62.6367 57.2585 62.3565C57.6031 62.0725 57.9875 61.8926 58.4117 61.8169V61.7487C57.855 61.6048 57.4119 61.2924 57.0824 60.8114C56.753 60.3267 56.5901 59.7757 56.5939 59.1584C56.5901 58.5677 56.7397 58.0394 57.0427 57.5736C57.3456 57.1078 57.7622 56.7405 58.2924 56.4716C58.8263 56.2027 59.4341 56.0683 60.1158 56.0683C60.7898 56.0683 61.392 56.2027 61.9221 56.4716C62.4523 56.7405 62.8689 57.1078 63.1718 57.5736C63.4786 58.0394 63.6338 58.5677 63.6376 59.1584C63.6338 59.7757 63.4653 60.3267 63.1321 60.8114C62.8026 61.2924 62.3652 61.6048 61.8199 61.7487V61.8169C62.2402 61.8926 62.6189 62.0725 62.956 62.3565C63.293 62.6367 63.5619 62.987 63.7626 63.4074C63.9633 63.8239 64.0655 64.2784 64.0693 64.7707C64.0655 65.3993 63.8951 65.9598 63.5581 66.4521C63.2248 66.9406 62.7609 67.3249 62.1664 67.6052C61.5756 67.8816 60.8921 68.0198 60.1158 68.0198ZM60.1158 66.7702C60.6422 66.7702 61.0966 66.685 61.4791 66.5145C61.8615 66.3441 62.1569 66.1037 62.3652 65.7931C62.5735 65.4826 62.6795 65.1191 62.6833 64.7025C62.6795 64.2632 62.5659 63.8751 62.3425 63.538C62.1191 63.201 61.8142 62.9359 61.4279 62.7428C61.0455 62.5496 60.6081 62.4531 60.1158 62.4531C59.6197 62.4531 59.1766 62.5496 58.7866 62.7428C58.4003 62.9359 58.0954 63.201 57.872 63.538C57.6524 63.8751 57.5444 64.2632 57.5482 64.7025C57.5444 65.1191 57.6448 65.4826 57.8493 65.7931C58.0576 66.1037 58.3548 66.3441 58.7411 66.5145C59.1274 66.685 59.5856 66.7702 60.1158 66.7702ZM60.1158 61.2488C60.5323 61.2488 60.9016 61.1655 61.2234 60.9989C61.5491 60.8323 61.8047 60.5994 61.9903 60.3002C62.1759 60.001 62.2705 59.6507 62.2743 59.2493C62.2705 58.8555 62.1778 58.5128 61.996 58.2212C61.8142 57.9258 61.5624 57.6986 61.2405 57.5395C60.9186 57.3767 60.5437 57.2953 60.1158 57.2953C59.6803 57.2953 59.2997 57.3767 58.974 57.5395C58.6483 57.6986 58.3965 57.9258 58.2185 58.2212C58.0405 58.5128 57.9534 58.8555 57.9572 59.2493C57.9534 59.6507 58.0424 60.001 58.2242 60.3002C58.4098 60.5994 58.6654 60.8323 58.9911 60.9989C59.3167 61.1655 59.6916 61.2488 60.1158 61.2488Z" fill="black"/>
  <path d="M50.1112 56.0683C50.5883 56.0721 51.0655 56.163 51.5426 56.3409C52.0198 56.5189 52.4553 56.8143 52.8491 57.2271C53.243 57.6361 53.5592 58.1946 53.7977 58.9028C54.0363 59.611 54.1556 60.499 54.1556 61.5669C54.1556 62.6007 54.0571 63.5191 53.8602 64.3219C53.6671 65.1209 53.3869 65.795 53.0195 66.3441C52.656 66.8932 52.2129 67.3098 51.6903 67.5938C51.1715 67.8778 50.5845 68.0198 49.9294 68.0198C49.278 68.0198 48.6967 67.8911 48.1855 67.6336C47.6781 67.3723 47.2615 67.0106 46.9358 66.5486C46.6139 66.0828 46.4075 65.5432 46.3167 64.9297H47.7027C47.8276 65.4637 48.0757 65.9048 48.4468 66.2532C48.8217 66.5978 49.3159 66.7701 49.9294 66.7701C50.8269 66.7701 51.535 66.3782 52.0539 65.5943C52.5765 64.8104 52.8377 63.7027 52.8377 62.2713H52.7469C52.5348 62.5894 52.283 62.8639 51.9914 63.0949C51.6998 63.3259 51.376 63.5039 51.02 63.6289C50.6641 63.7539 50.2854 63.8163 49.8839 63.8163C49.2174 63.8163 48.6059 63.6516 48.0492 63.3221C47.4963 62.9889 47.0532 62.5326 46.72 61.9532C46.3905 61.37 46.2258 60.7035 46.2258 59.9537C46.2258 59.2417 46.3848 58.5904 46.7029 57.9996C47.0248 57.4051 47.4755 56.9317 48.0549 56.5795C48.638 56.2273 49.3235 56.0569 50.1112 56.0683ZM50.1112 57.318C49.634 57.318 49.2042 57.4373 48.8217 57.6758C48.443 57.9106 48.142 58.2287 47.9185 58.6301C47.6989 59.0278 47.5891 59.4689 47.5891 59.9537C47.5891 60.4384 47.6951 60.8796 47.9072 61.2772C48.123 61.671 48.4165 61.9854 48.7876 62.2201C49.1625 62.4512 49.5886 62.5667 50.0657 62.5667C50.4255 62.5667 50.7606 62.4966 51.0711 62.3565C51.3817 62.2126 51.6524 62.0175 51.8834 61.7714C52.1182 61.5215 52.3019 61.2393 52.4344 60.925C52.567 60.6069 52.6333 60.2756 52.6333 59.9309C52.6333 59.4765 52.5234 59.0505 52.3038 58.6529C52.0879 58.2552 51.7888 57.9333 51.4063 57.6872C51.0276 57.441 50.5959 57.318 50.1112 57.318Z" fill="black"/>
  <path d="M40.1293 56.0683C40.6064 56.0721 41.0836 56.163 41.5607 56.3409C42.0379 56.5189 42.4734 56.8143 42.8672 57.2271C43.2611 57.6361 43.5773 58.1946 43.8159 58.9028C44.0544 59.611 44.1737 60.499 44.1737 61.5669C44.1737 62.6007 44.0753 63.5191 43.8783 64.3219C43.6852 65.1209 43.405 65.795 43.0376 66.3441C42.6741 66.8932 42.231 67.3098 41.7084 67.5938C41.1896 67.8778 40.6027 68.0198 39.9475 68.0198C39.2962 68.0198 38.7149 67.8911 38.2036 67.6336C37.6962 67.3723 37.2796 67.0106 36.9539 66.5486C36.6321 66.0828 36.4257 65.5432 36.3348 64.9297H37.7208C37.8458 65.4637 38.0938 65.9048 38.4649 66.2532C38.8398 66.5978 39.334 66.7701 39.9475 66.7701C40.845 66.7701 41.5532 66.3782 42.072 65.5943C42.5946 64.8104 42.8559 63.7027 42.8559 62.2713H42.765C42.5529 62.5894 42.3011 62.8639 42.0095 63.0949C41.7179 63.3259 41.3941 63.5039 41.0381 63.6289C40.6822 63.7539 40.3035 63.8163 39.9021 63.8163C39.2356 63.8163 38.624 63.6516 38.0673 63.3221C37.5144 62.9889 37.0713 62.5326 36.7381 61.9532C36.4086 61.37 36.2439 60.7035 36.2439 59.9537C36.2439 59.2417 36.4029 58.5904 36.721 57.9996C37.0429 57.4051 37.4936 56.9317 38.073 56.5795C38.6562 56.2273 39.3416 56.0569 40.1293 56.0683ZM40.1293 57.318C39.6521 57.318 39.2223 57.4373 38.8398 57.6758C38.4611 57.9106 38.1601 58.2287 37.9367 58.6301C37.717 59.0278 37.6072 59.4689 37.6072 59.9537C37.6072 60.4384 37.7132 60.8796 37.9253 61.2772C38.1411 61.671 38.4346 61.9854 38.8058 62.2201C39.1807 62.4512 39.6067 62.5667 40.0838 62.5667C40.4436 62.5667 40.7787 62.4966 41.0893 62.3565C41.3998 62.2126 41.6706 62.0175 41.9016 61.7714C42.1364 61.5215 42.32 61.2393 42.4526 60.925C42.5851 60.6069 42.6514 60.2756 42.6514 59.9309C42.6514 59.4765 42.5416 59.0505 42.3219 58.6529C42.1061 58.2552 41.8069 57.9333 41.4244 57.6872C41.0457 57.441 40.614 57.318 40.1293 57.318Z" fill="black"/>
  <path d="M59.2764 157.947V169.58H57.8677V159.424H57.7995L54.9594 161.31V159.878L57.8677 157.947H59.2764Z" fill="black"/>
  <path d="M49.056 169.739C48.2759 169.739 47.5867 169.601 46.9884 169.325C46.3938 169.044 45.9299 168.66 45.5967 168.172C45.2634 167.679 45.0987 167.119 45.1025 166.49C45.0987 165.998 45.1952 165.543 45.3922 165.127C45.5891 164.707 45.858 164.356 46.1988 164.076C46.5434 163.792 46.9278 163.612 47.3519 163.536V163.468C46.7952 163.324 46.3522 163.012 46.0227 162.531C45.6932 162.046 45.5304 161.495 45.5342 160.878C45.5304 160.287 45.68 159.759 45.9829 159.293C46.2859 158.827 46.7024 158.46 47.2326 158.191C47.7666 157.922 48.3744 157.788 49.056 157.788C49.7301 157.788 50.3322 157.922 50.8624 158.191C51.3926 158.46 51.8091 158.827 52.1121 159.293C52.4188 159.759 52.5741 160.287 52.5779 160.878C52.5741 161.495 52.4056 162.046 52.0723 162.531C51.7428 163.012 51.3055 163.324 50.7601 163.468V163.536C51.1805 163.612 51.5592 163.792 51.8962 164.076C52.2333 164.356 52.5021 164.707 52.7028 165.127C52.9035 165.543 53.0058 165.998 53.0096 166.49C53.0058 167.119 52.8354 167.679 52.4983 168.172C52.1651 168.66 51.7012 169.044 51.1066 169.325C50.5159 169.601 49.8323 169.739 49.056 169.739ZM49.056 168.49C49.5824 168.49 50.0368 168.404 50.4193 168.234C50.8018 168.064 51.0972 167.823 51.3055 167.513C51.5137 167.202 51.6198 166.839 51.6236 166.422C51.6198 165.983 51.5062 165.595 51.2827 165.258C51.0593 164.921 50.7545 164.655 50.3682 164.462C49.9857 164.269 49.5483 164.173 49.056 164.173C48.5599 164.173 48.1169 164.269 47.7268 164.462C47.3405 164.655 47.0357 164.921 46.8123 165.258C46.5926 165.595 46.4847 165.983 46.4885 166.422C46.4847 166.839 46.585 167.202 46.7895 167.513C46.9978 167.823 47.2951 168.064 47.6814 168.234C48.0676 168.404 48.5258 168.49 49.056 168.49ZM49.056 162.968C49.4726 162.968 49.8418 162.885 50.1637 162.718C50.4894 162.552 50.745 162.319 50.9305 162.02C51.1161 161.721 51.2108 161.37 51.2146 160.969C51.2108 160.575 51.118 160.232 50.9362 159.941C50.7545 159.645 50.5026 159.418 50.1807 159.259C49.8588 159.096 49.4839 159.015 49.056 159.015C48.6205 159.015 48.2399 159.096 47.9143 159.259C47.5886 159.418 47.3368 159.645 47.1588 159.941C46.9808 160.232 46.8937 160.575 46.8975 160.969C46.8937 161.37 46.9827 161.721 47.1644 162.02C47.35 162.319 47.6056 162.552 47.9313 162.718C48.257 162.885 48.6319 162.968 49.056 162.968Z" fill="black"/>
  <path d="M36.7892 169.58L41.9925 159.287V159.197H35.994V157.947H43.4466V159.265L38.2661 169.58H36.7892Z" fill="black"/>
  <defs>
    <linearGradient id="paint0_linear_0_1" x1="-6.34302" y1="174.895" x2="-6.34302" y2="53.9806" gradientUnits="userSpaceOnUse">
      <stop stop-color="#F6EFF7"/>
      <stop offset="0.166667" stop-color="#EBE8F3"/>
      <stop offset="0.333333" stop-color="#E0E1EE"/>
      <stop offset="0.5" stop-color="#D5D9EA"/>
      <stop offset="0.666667" stop-color="#9DBDDA"/>
      <stop offset="0.833333" stop-color="#1C898E"/>
      <stop offset="1" stop-color="#016C59"/>
    </linearGradient>
  </defs>
</svg>