<svg width="156" height="181" viewBox="0 0 156 181" fill="none" xmlns="http://www.w3.org/2000/svg">
  <path d="M1.65244 18.6798V5.58887H6.31864C7.3371 5.58887 8.18085 5.77424 8.84989 6.14498C9.51892 6.51572 10.0196 7.02282 10.352 7.66628C10.6844 8.30549 10.8506 9.02566 10.8506 9.8268C10.8506 10.6322 10.6823 11.3566 10.3456 12.0001C10.0132 12.6393 9.5104 13.1464 8.8371 13.5214C8.16807 13.8921 7.32645 14.0775 6.31224 14.0775H3.10344V12.4028H6.13327C6.77673 12.4028 7.29875 12.292 7.69932 12.0704C8.09989 11.8446 8.39392 11.5377 8.58142 11.1499C8.76892 10.7622 8.86267 10.3211 8.86267 9.8268C8.86267 9.33248 8.76892 8.89356 8.58142 8.51003C8.39392 8.12651 8.09776 7.82609 7.69293 7.60876C7.29236 7.39143 6.76395 7.28276 6.1077 7.28276H3.62759V18.6798H1.65244ZM17.0253 18.8779C16.1049 18.8779 15.3016 18.667 14.6155 18.2451C13.9294 17.8232 13.3968 17.233 13.0175 16.4745C12.6382 15.716 12.4486 14.8296 12.4486 13.8154C12.4486 12.797 12.6382 11.9063 13.0175 11.1436C13.3968 10.3808 13.9294 9.78844 14.6155 9.36657C15.3016 8.94469 16.1049 8.73376 17.0253 8.73376C17.9458 8.73376 18.749 8.94469 19.4351 9.36657C20.1212 9.78844 20.6539 10.3808 21.0331 11.1436C21.4124 11.9063 21.602 12.797 21.602 13.8154C21.602 14.8296 21.4124 15.716 21.0331 16.4745C20.6539 17.233 20.1212 17.8232 19.4351 18.2451C18.749 18.667 17.9458 18.8779 17.0253 18.8779ZM17.0317 17.2735C17.6283 17.2735 18.1226 17.1159 18.5147 16.8005C18.9067 16.4852 19.1965 16.0654 19.384 15.5413C19.5757 15.0171 19.6716 14.4397 19.6716 13.809C19.6716 13.1826 19.5757 12.6073 19.384 12.0832C19.1965 11.5548 18.9067 11.1308 18.5147 10.8112C18.1226 10.4916 17.6283 10.3318 17.0317 10.3318C16.4309 10.3318 15.9323 10.4916 15.536 10.8112C15.1439 11.1308 14.852 11.5548 14.6603 12.0832C14.4728 12.6073 14.379 13.1826 14.379 13.809C14.379 14.4397 14.4728 15.0171 14.6603 15.5413C14.852 16.0654 15.1439 16.4852 15.536 16.8005C15.9323 17.1159 16.4309 17.2735 17.0317 17.2735ZM23.7354 22.3616V8.8616H25.6018V10.4532H25.7616C25.8724 10.2487 26.0322 10.0122 26.241 9.7437C26.4499 9.47523 26.7396 9.24086 27.1104 9.04057C27.4811 8.83603 27.9712 8.73376 28.5805 8.73376C29.3731 8.73376 30.0805 8.93404 30.7027 9.33461C31.3249 9.73518 31.8128 10.3126 32.1665 11.0669C32.5244 11.8211 32.7034 12.7288 32.7034 13.7899C32.7034 14.8509 32.5266 15.7607 32.1729 16.5193C31.8192 17.2735 31.3334 17.8552 30.7155 18.2643C30.0976 18.6691 29.3923 18.8715 28.5997 18.8715C28.0031 18.8715 27.5152 18.7714 27.1359 18.5711C26.7609 18.3708 26.4669 18.1365 26.2538 17.868C26.0408 17.5995 25.8767 17.3609 25.7616 17.1521H25.6466V22.3616H23.7354ZM25.6082 13.7707C25.6082 14.461 25.7084 15.0661 25.9087 15.586C26.1089 16.1059 26.3987 16.5129 26.778 16.8069C27.1572 17.0967 27.6217 17.2416 28.1714 17.2416C28.7425 17.2416 29.2197 17.0903 29.6033 16.7877C29.9868 16.4809 30.2766 16.0654 30.4726 15.5413C30.6729 15.0171 30.773 14.4269 30.773 13.7707C30.773 13.123 30.675 12.5413 30.479 12.0257C30.2872 11.51 29.9974 11.1031 29.6097 10.8048C29.2261 10.5065 28.7467 10.3573 28.1714 10.3573C27.6175 10.3573 27.1487 10.5001 26.7652 10.7856C26.3859 11.0711 26.0983 11.4696 25.9023 11.9809C25.7062 12.4923 25.6082 13.0889 25.6082 13.7707ZM41.0642 14.608V8.8616H42.9818V18.6798H41.1026V16.9795H41.0003C40.7744 17.5036 40.4122 17.9404 39.9136 18.2899C39.4193 18.635 38.8035 18.8076 38.0663 18.8076C37.4356 18.8076 36.8774 18.6691 36.3916 18.3921C35.9101 18.1109 35.5308 17.6954 35.2538 17.1457C34.9811 16.596 34.8447 15.9163 34.8447 15.1066V8.8616H36.756V14.8765C36.756 15.5455 36.9413 16.0782 37.3121 16.4745C37.6828 16.8708 38.1643 17.069 38.7567 17.069C39.1146 17.069 39.4704 16.9795 39.8241 16.8005C40.1821 16.6215 40.4783 16.3509 40.7126 15.9887C40.9513 15.6265 41.0685 15.1663 41.0642 14.608ZM47.461 5.58887V18.6798H45.5498V5.58887H47.461ZM52.8895 18.8971C52.2673 18.8971 51.7048 18.7821 51.202 18.5519C50.6991 18.3176 50.3007 17.9788 50.0067 17.5356C49.7169 17.0924 49.572 16.5491 49.572 15.9056C49.572 15.3517 49.6785 14.8957 49.8916 14.5377C50.1047 14.1798 50.3923 13.8964 50.7545 13.6876C51.1168 13.4788 51.5216 13.3211 51.969 13.2146C52.4165 13.108 52.8724 13.0271 53.3369 12.9717C53.925 12.9035 54.4023 12.8481 54.7687 12.8055C55.1352 12.7586 55.4016 12.684 55.5677 12.5818C55.7339 12.4795 55.817 12.3133 55.817 12.0832V12.0384C55.817 11.4802 55.6594 11.0477 55.344 10.7409C55.0329 10.434 54.5685 10.2806 53.9506 10.2806C53.3071 10.2806 52.8 10.4234 52.4293 10.7089C52.0628 10.9901 51.8092 11.3034 51.6686 11.6485L49.8724 11.2394C50.0855 10.6428 50.3966 10.1613 50.8057 9.79484C51.219 9.4241 51.6942 9.15563 52.2311 8.98944C52.768 8.81898 53.3327 8.73376 53.925 8.73376C54.317 8.73376 54.7325 8.78063 55.1714 8.87438C55.6146 8.96387 56.028 9.13006 56.4115 9.37296C56.7993 9.61586 57.1168 9.96316 57.3639 10.4149C57.6111 10.8623 57.7347 11.444 57.7347 12.1599V18.6798H55.8682V17.3374H55.7915C55.6679 17.5846 55.4825 17.8275 55.2354 18.0661C54.9882 18.3048 54.6707 18.5029 54.2829 18.6606C53.8952 18.8183 53.4307 18.8971 52.8895 18.8971ZM53.305 17.363C53.8334 17.363 54.2851 17.2586 54.6601 17.0498C55.0393 16.841 55.327 16.5683 55.523 16.2316C55.7233 15.8907 55.8234 15.5264 55.8234 15.1386V13.873C55.7552 13.9411 55.6231 14.0051 55.4271 14.0647C55.2354 14.1201 55.0159 14.1691 54.7687 14.2117C54.5216 14.2501 54.2808 14.2863 54.0464 14.3204C53.8121 14.3502 53.616 14.3758 53.4584 14.3971C53.0876 14.444 52.7489 14.5228 52.442 14.6336C52.1395 14.7444 51.8966 14.9042 51.7133 15.113C51.5344 15.3176 51.4449 15.5903 51.4449 15.9312C51.4449 16.4042 51.6196 16.7622 51.969 17.0051C52.3185 17.2437 52.7638 17.363 53.305 17.363ZM64.8634 8.8616V10.3957H59.5005V8.8616H64.8634ZM60.9387 6.50932H62.8499V15.797C62.8499 16.1677 62.9053 16.4468 63.0161 16.6343C63.1269 16.8176 63.2696 16.9433 63.4443 17.0115C63.6233 17.0754 63.8172 17.1073 64.026 17.1073C64.1794 17.1073 64.3137 17.0967 64.4287 17.0754C64.5438 17.0541 64.6333 17.037 64.6972 17.0242L65.0424 18.6031C64.9316 18.6457 64.7739 18.6883 64.5693 18.7309C64.3648 18.7778 64.1091 18.8034 63.8023 18.8076C63.2995 18.8161 62.8307 18.7267 62.3961 18.5392C61.9614 18.3517 61.6098 18.0619 61.3414 17.6698C61.0729 17.2778 60.9387 16.7856 60.9387 16.1933V6.50932ZM66.9776 18.6798V8.8616H68.8888V18.6798H66.9776ZM67.9427 7.34668C67.6104 7.34668 67.3249 7.23589 67.0862 7.0143C66.8518 6.78844 66.7347 6.51998 66.7347 6.2089C66.7347 5.89356 66.8518 5.62509 67.0862 5.4035C67.3249 5.17765 67.6104 5.06472 67.9427 5.06472C68.2751 5.06472 68.5585 5.17765 68.7929 5.4035C69.0315 5.62509 69.1508 5.89356 69.1508 6.2089C69.1508 6.51998 69.0315 6.78844 68.7929 7.0143C68.5585 7.23589 68.2751 7.34668 67.9427 7.34668ZM75.5956 18.8779C74.6752 18.8779 73.8719 18.667 73.1858 18.2451C72.4997 17.8232 71.9671 17.233 71.5878 16.4745C71.2086 15.716 71.0189 14.8296 71.0189 13.8154C71.0189 12.797 71.2086 11.9063 71.5878 11.1436C71.9671 10.3808 72.4997 9.78844 73.1858 9.36657C73.8719 8.94469 74.6752 8.73376 75.5956 8.73376C76.5161 8.73376 77.3193 8.94469 78.0054 9.36657C78.6915 9.78844 79.2242 10.3808 79.6034 11.1436C79.9827 11.9063 80.1723 12.797 80.1723 13.8154C80.1723 14.8296 79.9827 15.716 79.6034 16.4745C79.2242 17.233 78.6915 17.8232 78.0054 18.2451C77.3193 18.667 76.5161 18.8779 75.5956 18.8779ZM75.602 17.2735C76.1986 17.2735 76.6929 17.1159 77.085 16.8005C77.477 16.4852 77.7668 16.0654 77.9543 15.5413C78.1461 15.0171 78.2419 14.4397 78.2419 13.809C78.2419 13.1826 78.1461 12.6073 77.9543 12.0832C77.7668 11.5548 77.477 11.1308 77.085 10.8112C76.6929 10.4916 76.1986 10.3318 75.602 10.3318C75.0012 10.3318 74.5026 10.4916 74.1063 10.8112C73.7142 11.1308 73.4223 11.5548 73.2306 12.0832C73.0431 12.6073 72.9493 13.1826 72.9493 13.809C72.9493 14.4397 73.0431 15.0171 73.2306 15.5413C73.4223 16.0654 73.7142 16.4852 74.1063 16.8005C74.5026 17.1159 75.0012 17.2735 75.602 17.2735ZM84.2169 12.8502V18.6798H82.3057V8.8616H84.1402V10.4596H84.2616C84.4875 9.93972 84.8412 9.52211 85.3227 9.20677C85.8085 8.89143 86.42 8.73376 87.1572 8.73376C87.8263 8.73376 88.4122 8.87438 88.9151 9.15563C89.4179 9.43262 89.8078 9.84597 90.0848 10.3957C90.3618 10.9454 90.5003 11.6251 90.5003 12.4348V18.6798H88.5891V12.6649C88.5891 11.9532 88.4037 11.3971 88.0329 10.9965C87.6622 10.5917 87.153 10.3893 86.5052 10.3893C86.0621 10.3893 85.6679 10.4852 85.3227 10.6769C84.9818 10.8687 84.7112 11.1499 84.5109 11.5207C84.3149 11.8872 84.2169 12.3303 84.2169 12.8502ZM95.55 16.89L95.4541 17.5867C95.3902 18.0981 95.2815 18.6308 95.1281 19.1848C94.979 19.743 94.8234 20.2607 94.6615 20.738C94.5038 21.2153 94.3739 21.5946 94.2716 21.8758H92.9165C92.9719 21.6116 93.0486 21.2536 93.1466 20.8019C93.2446 20.3545 93.3405 19.8538 93.4342 19.2998C93.528 18.7458 93.5983 18.1812 93.6452 17.6059L93.7091 16.89H95.55Z" fill="black"/>
  <path d="M2.78242 32.0784V37.3284H1.44151V28.6012H2.73696V29.9648H2.8506C3.05514 29.5216 3.36575 29.1656 3.78242 28.8966C4.19908 28.6239 4.73696 28.4875 5.39605 28.4875C5.98696 28.4875 6.50401 28.6087 6.94719 28.8512C7.39037 29.0898 7.73507 29.4534 7.98128 29.9421C8.22749 30.4269 8.3506 31.0406 8.3506 31.783V37.3284H7.00969V31.8739C7.00969 31.1883 6.83166 30.6542 6.4756 30.2716C6.11954 29.8852 5.6309 29.6921 5.00969 29.6921C4.58166 29.6921 4.19908 29.7849 3.86196 29.9705C3.52863 30.1561 3.26537 30.4269 3.07219 30.783C2.87901 31.139 2.78242 31.5709 2.78242 32.0784ZM16.3009 33.7602V28.6012H17.6418V37.3284H16.3009V35.8512H16.21C16.0054 36.2943 15.6872 36.6712 15.2554 36.9818C14.8236 37.2887 14.2782 37.4421 13.6191 37.4421C13.0736 37.4421 12.5888 37.3227 12.1645 37.0841C11.7403 36.8417 11.4069 36.4781 11.1645 35.9932C10.9221 35.5046 10.8009 34.889 10.8009 34.1466V28.6012H12.1418V34.0557C12.1418 34.6921 12.3198 35.1996 12.6759 35.5784C13.0357 35.9572 13.4941 36.1466 14.0509 36.1466C14.3842 36.1466 14.7232 36.0614 15.0679 35.8909C15.4164 35.7205 15.7081 35.4591 15.9429 35.1068C16.1816 34.7546 16.3009 34.3057 16.3009 33.7602ZM20.0978 37.3284V28.6012H21.3932V29.9648H21.5068C21.6887 29.4989 21.9822 29.1371 22.3875 28.8796C22.7928 28.6182 23.2796 28.4875 23.8478 28.4875C24.4235 28.4875 24.9027 28.6182 25.2853 28.8796C25.6716 29.1371 25.9728 29.4989 26.1887 29.9648H26.2796C26.5031 29.514 26.8383 29.1561 27.2853 28.8909C27.7322 28.622 28.2682 28.4875 28.8932 28.4875C29.6735 28.4875 30.3118 28.7318 30.808 29.2205C31.3042 29.7053 31.5523 30.461 31.5523 31.4875V37.3284H30.2114V31.4875C30.2114 30.8436 30.0353 30.3834 29.683 30.1068C29.3307 29.8303 28.9159 29.6921 28.4387 29.6921C27.825 29.6921 27.3497 29.8777 27.0125 30.2489C26.6754 30.6163 26.5068 31.0822 26.5068 31.6466V37.3284H25.1432V31.3512C25.1432 30.8549 24.9822 30.4553 24.6603 30.1523C24.3383 29.8455 23.9235 29.6921 23.4159 29.6921C23.0675 29.6921 22.7417 29.7849 22.4387 29.9705C22.1394 30.1561 21.897 30.4137 21.7114 30.7432C21.5296 31.069 21.4387 31.4459 21.4387 31.8739V37.3284H20.0978ZM34.1858 37.3284V25.6921H35.5267V29.9875H35.6404C35.7389 29.836 35.8752 29.6428 36.0495 29.408C36.2275 29.1693 36.4813 28.9572 36.8108 28.7716C37.1442 28.5822 37.5949 28.4875 38.1631 28.4875C38.8979 28.4875 39.5457 28.6712 40.1063 29.0387C40.6669 29.4061 41.1044 29.9269 41.4188 30.6012C41.7332 31.2754 41.8904 32.0709 41.8904 32.9875C41.8904 33.9118 41.7332 34.7129 41.4188 35.3909C41.1044 36.0652 40.6688 36.5879 40.112 36.9591C39.5551 37.3265 38.9131 37.5102 38.1858 37.5102C37.6252 37.5102 37.1764 37.4174 36.8392 37.2318C36.5021 37.0424 36.2426 36.8284 36.0608 36.5898C35.879 36.3474 35.7389 36.1466 35.6404 35.9875H35.4813V37.3284H34.1858ZM35.504 32.9648C35.504 33.6239 35.6006 34.2053 35.7938 34.7091C35.987 35.2091 36.2692 35.6012 36.6404 35.8852C37.0116 36.1656 37.4661 36.3057 38.004 36.3057C38.5646 36.3057 39.0324 36.158 39.4074 35.8625C39.7862 35.5633 40.0703 35.1618 40.2597 34.658C40.4529 34.1504 40.5495 33.586 40.5495 32.9648C40.5495 32.3512 40.4548 31.7981 40.2654 31.3057C40.0798 30.8095 39.7976 30.4174 39.4188 30.1296C39.0438 29.8379 38.5722 29.6921 38.004 29.6921C37.4586 29.6921 37.0002 29.8303 36.629 30.1068C36.2578 30.3796 35.9775 30.7621 35.7881 31.2546C35.5987 31.7432 35.504 32.3133 35.504 32.9648ZM47.6006 37.5102C46.7597 37.5102 46.0343 37.3246 45.4245 36.9534C44.8184 36.5784 44.3506 36.0557 44.0211 35.3852C43.6953 34.711 43.5324 33.9269 43.5324 33.033C43.5324 32.139 43.6953 31.3512 44.0211 30.6693C44.3506 29.9837 44.8089 29.4496 45.3961 29.0671C45.987 28.6807 46.6764 28.4875 47.4642 28.4875C47.9188 28.4875 48.3676 28.5633 48.8108 28.7148C49.254 28.8663 49.6574 29.1125 50.0211 29.4534C50.3847 29.7906 50.6745 30.2375 50.8904 30.7943C51.1063 31.3512 51.2142 32.0368 51.2142 32.8512V33.4193H44.487V32.2602H49.8506C49.8506 31.7678 49.7521 31.3284 49.5551 30.9421C49.362 30.5557 49.0854 30.2508 48.7256 30.0273C48.3695 29.8038 47.9491 29.6921 47.4642 29.6921C46.9301 29.6921 46.468 29.8246 46.0779 30.0898C45.6915 30.3512 45.3942 30.6921 45.1858 31.1125C44.9775 31.533 44.8733 31.9837 44.8733 32.4648V33.2375C44.8733 33.8966 44.987 34.4553 45.2142 34.9137C45.4453 35.3682 45.7654 35.7148 46.1745 35.9534C46.5836 36.1883 47.0589 36.3057 47.6006 36.3057C47.9529 36.3057 48.2711 36.2565 48.5551 36.158C48.843 36.0557 49.0911 35.9042 49.2995 35.7034C49.5078 35.4989 49.6688 35.2451 49.7824 34.9421L51.0779 35.3057C50.9415 35.7451 50.7123 36.1315 50.3904 36.4648C50.0684 36.7943 49.6707 37.0519 49.1972 37.2375C48.7237 37.4193 48.1915 37.5102 47.6006 37.5102ZM53.254 37.3284V28.6012H54.5495V29.9193H54.6404C54.7995 29.4875 55.0873 29.1371 55.504 28.8682C55.9207 28.5993 56.3904 28.4648 56.9131 28.4648C57.0116 28.4648 57.1347 28.4667 57.2824 28.4705C57.4301 28.4743 57.5419 28.4799 57.6176 28.4875V29.8512C57.5722 29.8398 57.468 29.8227 57.3051 29.8C57.1461 29.7735 56.9775 29.7602 56.7995 29.7602C56.3752 29.7602 55.9964 29.8493 55.6631 30.0273C55.3336 30.2015 55.0722 30.444 54.879 30.7546C54.6896 31.0614 54.5949 31.4118 54.5949 31.8057V37.3284H53.254ZM67.2526 37.5102C66.4647 37.5102 65.7734 37.3227 65.1787 36.9477C64.5878 36.5727 64.1257 36.0481 63.7924 35.3739C63.4628 34.6996 63.298 33.9118 63.298 33.0102C63.298 32.1012 63.4628 31.3076 63.7924 30.6296C64.1257 29.9515 64.5878 29.425 65.1787 29.05C65.7734 28.675 66.4647 28.4875 67.2526 28.4875C68.0405 28.4875 68.7299 28.675 69.3208 29.05C69.9155 29.425 70.3776 29.9515 70.7071 30.6296C71.0405 31.3076 71.2071 32.1012 71.2071 33.0102C71.2071 33.9118 71.0405 34.6996 70.7071 35.3739C70.3776 36.0481 69.9155 36.5727 69.3208 36.9477C68.7299 37.3227 68.0405 37.5102 67.2526 37.5102ZM67.2526 36.3057C67.8511 36.3057 68.3435 36.1523 68.7299 35.8455C69.1162 35.5387 69.4022 35.1352 69.5878 34.6352C69.7734 34.1352 69.8662 33.5936 69.8662 33.0102C69.8662 32.4269 69.7734 31.8834 69.5878 31.3796C69.4022 30.8758 69.1162 30.4686 68.7299 30.158C68.3435 29.8474 67.8511 29.6921 67.2526 29.6921C66.6541 29.6921 66.1617 29.8474 65.7753 30.158C65.3889 30.4686 65.103 30.8758 64.9174 31.3796C64.7318 31.8834 64.6389 32.4269 64.6389 33.0102C64.6389 33.5936 64.7318 34.1352 64.9174 34.6352C65.103 35.1352 65.3889 35.5387 65.7753 35.8455C66.1617 36.1523 66.6541 36.3057 67.2526 36.3057ZM77.1404 28.6012V29.7375H72.4358V28.6012H77.1404ZM73.8449 37.3284V27.3966C73.8449 26.8966 73.9623 26.4799 74.1972 26.1466C74.432 25.8133 74.737 25.5633 75.112 25.3966C75.487 25.2299 75.8828 25.1466 76.2995 25.1466C76.629 25.1466 76.8979 25.1731 77.1063 25.2262C77.3146 25.2792 77.4699 25.3284 77.5722 25.3739L77.1858 26.533C77.1176 26.5102 77.0229 26.4818 76.9017 26.4477C76.7843 26.4137 76.629 26.3966 76.4358 26.3966C75.9926 26.3966 75.6726 26.5084 75.4756 26.7318C75.2824 26.9553 75.1858 27.283 75.1858 27.7148V37.3284H73.8449ZM83.5196 40.6012V28.6012H84.8151V29.9875H84.9742C85.0727 29.836 85.209 29.6428 85.3833 29.408C85.5613 29.1693 85.8151 28.9572 86.1446 28.7716C86.478 28.5822 86.9287 28.4875 87.4969 28.4875C88.2318 28.4875 88.8795 28.6712 89.4401 29.0387C90.0007 29.4061 90.4382 29.9269 90.7526 30.6012C91.067 31.2754 91.2242 32.0709 91.2242 32.9875C91.2242 33.9118 91.067 34.7129 90.7526 35.3909C90.4382 36.0652 90.0026 36.5879 89.4458 36.9591C88.8889 37.3265 88.2469 37.5102 87.5196 37.5102C86.959 37.5102 86.5102 37.4174 86.173 37.2318C85.8359 37.0424 85.5764 36.8284 85.3946 36.5898C85.2128 36.3474 85.0727 36.1466 84.9742 35.9875H84.8605V40.6012H83.5196ZM84.8378 32.9648C84.8378 33.6239 84.9344 34.2053 85.1276 34.7091C85.3208 35.2091 85.603 35.6012 85.9742 35.8852C86.3454 36.1656 86.7999 36.3057 87.3378 36.3057C87.8984 36.3057 88.3662 36.158 88.7412 35.8625C89.12 35.5633 89.4041 35.1618 89.5935 34.658C89.7867 34.1504 89.8833 33.586 89.8833 32.9648C89.8833 32.3512 89.7886 31.7981 89.5992 31.3057C89.4136 30.8095 89.1314 30.4174 88.7526 30.1296C88.3776 29.8379 87.906 29.6921 87.3378 29.6921C86.7924 29.6921 86.334 29.8303 85.9628 30.1068C85.5916 30.3796 85.3113 30.7621 85.1219 31.2546C84.9325 31.7432 84.8378 32.3133 84.8378 32.9648ZM96.9287 37.5102C96.0878 37.5102 95.3624 37.3246 94.7526 36.9534C94.1465 36.5784 93.6787 36.0557 93.3492 35.3852C93.0234 34.711 92.8605 33.9269 92.8605 33.033C92.8605 32.139 93.0234 31.3512 93.3492 30.6693C93.6787 29.9837 94.1371 29.4496 94.7242 29.0671C95.3151 28.6807 96.0045 28.4875 96.7924 28.4875C97.2469 28.4875 97.6958 28.5633 98.1389 28.7148C98.5821 28.8663 98.9855 29.1125 99.3492 29.4534C99.7128 29.7906 100.003 30.2375 100.218 30.7943C100.434 31.3512 100.542 32.0368 100.542 32.8512V33.4193H93.8151V32.2602H99.1787C99.1787 31.7678 99.0802 31.3284 98.8833 30.9421C98.6901 30.5557 98.4136 30.2508 98.0537 30.0273C97.6977 29.8038 97.2772 29.6921 96.7924 29.6921C96.2583 29.6921 95.7961 29.8246 95.406 30.0898C95.0196 30.3512 94.7223 30.6921 94.5139 31.1125C94.3056 31.533 94.2014 31.9837 94.2014 32.4648V33.2375C94.2014 33.8966 94.3151 34.4553 94.5424 34.9137C94.7734 35.3682 95.0935 35.7148 95.5026 35.9534C95.9117 36.1883 96.3871 36.3057 96.9287 36.3057C97.281 36.3057 97.5992 36.2565 97.8833 36.158C98.1711 36.0557 98.4193 35.9042 98.6276 35.7034C98.8359 35.4989 98.9969 35.2451 99.1105 34.9421L100.406 35.3057C100.27 35.7451 100.04 36.1315 99.7185 36.4648C99.3965 36.7943 98.9988 37.0519 98.5253 37.2375C98.0518 37.4193 97.5196 37.5102 96.9287 37.5102ZM106.128 37.5102C105.34 37.5102 104.648 37.3227 104.054 36.9477C103.463 36.5727 103.001 36.0481 102.667 35.3739C102.338 34.6996 102.173 33.9118 102.173 33.0102C102.173 32.1012 102.338 31.3076 102.667 30.6296C103.001 29.9515 103.463 29.425 104.054 29.05C104.648 28.675 105.34 28.4875 106.128 28.4875C106.915 28.4875 107.605 28.675 108.196 29.05C108.79 29.425 109.253 29.9515 109.582 30.6296C109.915 31.3076 110.082 32.1012 110.082 33.0102C110.082 33.9118 109.915 34.6996 109.582 35.3739C109.253 36.0481 108.79 36.5727 108.196 36.9477C107.605 37.3227 106.915 37.5102 106.128 37.5102ZM106.128 36.3057C106.726 36.3057 107.218 36.1523 107.605 35.8455C107.991 35.5387 108.277 35.1352 108.463 34.6352C108.648 34.1352 108.741 33.5936 108.741 33.0102C108.741 32.4269 108.648 31.8834 108.463 31.3796C108.277 30.8758 107.991 30.4686 107.605 30.158C107.218 29.8474 106.726 29.6921 106.128 29.6921C105.529 29.6921 105.037 29.8474 104.65 30.158C104.264 30.4686 103.978 30.8758 103.792 31.3796C103.607 31.8834 103.514 32.4269 103.514 33.0102C103.514 33.5936 103.607 34.1352 103.792 34.6352C103.978 35.1352 104.264 35.5387 104.65 35.8455C105.037 36.1523 105.529 36.3057 106.128 36.3057ZM112.129 40.6012V28.6012H113.424V29.9875H113.584C113.682 29.836 113.818 29.6428 113.993 29.408C114.171 29.1693 114.424 28.9572 114.754 28.7716C115.087 28.5822 115.538 28.4875 116.106 28.4875C116.841 28.4875 117.489 28.6712 118.049 29.0387C118.61 29.4061 119.048 29.9269 119.362 30.6012C119.676 31.2754 119.834 32.0709 119.834 32.9875C119.834 33.9118 119.676 34.7129 119.362 35.3909C119.048 36.0652 118.612 36.5879 118.055 36.9591C117.498 37.3265 116.856 37.5102 116.129 37.5102C115.568 37.5102 115.12 37.4174 114.782 37.2318C114.445 37.0424 114.186 36.8284 114.004 36.5898C113.822 36.3474 113.682 36.1466 113.584 35.9875H113.47V40.6012H112.129ZM113.447 32.9648C113.447 33.6239 113.544 34.2053 113.737 34.7091C113.93 35.2091 114.212 35.6012 114.584 35.8852C114.955 36.1656 115.409 36.3057 115.947 36.3057C116.508 36.3057 116.976 36.158 117.351 35.8625C117.729 35.5633 118.013 35.1618 118.203 34.658C118.396 34.1504 118.493 33.586 118.493 32.9648C118.493 32.3512 118.398 31.7981 118.209 31.3057C118.023 30.8095 117.741 30.4174 117.362 30.1296C116.987 29.8379 116.515 29.6921 115.947 29.6921C115.402 29.6921 114.943 29.8303 114.572 30.1068C114.201 30.3796 113.921 30.7621 113.731 31.2546C113.542 31.7432 113.447 32.3133 113.447 32.9648ZM123.22 25.6921V37.3284H121.879V25.6921H123.22ZM129.335 37.5102C128.494 37.5102 127.769 37.3246 127.159 36.9534C126.553 36.5784 126.085 36.0557 125.755 35.3852C125.43 34.711 125.267 33.9269 125.267 33.033C125.267 32.139 125.43 31.3512 125.755 30.6693C126.085 29.9837 126.543 29.4496 127.13 29.0671C127.721 28.6807 128.411 28.4875 129.199 28.4875C129.653 28.4875 130.102 28.5633 130.545 28.7148C130.988 28.8663 131.392 29.1125 131.755 29.4534C132.119 29.7906 132.409 30.2375 132.625 30.7943C132.841 31.3512 132.949 32.0368 132.949 32.8512V33.4193H126.221V32.2602H131.585C131.585 31.7678 131.486 31.3284 131.29 30.9421C131.096 30.5557 130.82 30.2508 130.46 30.0273C130.104 29.8038 129.683 29.6921 129.199 29.6921C128.665 29.6921 128.202 29.8246 127.812 30.0898C127.426 30.3512 127.129 30.6921 126.92 31.1125C126.712 31.533 126.608 31.9837 126.608 32.4648V33.2375C126.608 33.8966 126.721 34.4553 126.949 34.9137C127.18 35.3682 127.5 35.7148 127.909 35.9534C128.318 36.1883 128.793 36.3057 129.335 36.3057C129.687 36.3057 130.005 36.2565 130.29 36.158C130.577 36.0557 130.826 35.9042 131.034 35.7034C131.242 35.4989 131.403 35.2451 131.517 34.9421L132.812 35.3057C132.676 35.7451 132.447 36.1315 132.125 36.4648C131.803 36.7943 131.405 37.0519 130.932 37.2375C130.458 37.4193 129.926 37.5102 129.335 37.5102Z" fill="black"/>
  <path d="M28.9267 56.6783H2.6933V177.288H28.9267V56.6783Z" fill="url(#paint0_linear_0_1)" stroke="black" stroke-width="0.31992" stroke-miterlimit="2" stroke-linecap="square"/>
  <path d="M41.7092 71.0198C40.9291 71.0198 40.2398 70.8816 39.6415 70.6052C39.047 70.3249 38.5831 69.9406 38.2498 69.452C37.9166 68.9597 37.7518 68.3993 37.7556 67.7706C37.7518 67.2783 37.8484 66.8239 38.0453 66.4073C38.2422 65.987 38.5111 65.6367 38.8519 65.3565C39.1965 65.0725 39.5809 64.8926 40.0051 64.8168V64.7487C39.4484 64.6048 39.0053 64.2923 38.6758 63.8114C38.3464 63.3267 38.1835 62.7757 38.1873 62.1584C38.1835 61.5677 38.3331 61.0394 38.6361 60.5736C38.939 60.1078 39.3556 59.7405 39.8858 59.4716C40.4197 59.2027 41.0275 59.0683 41.7092 59.0683C42.3833 59.0683 42.9854 59.2027 43.5155 59.4716C44.0457 59.7405 44.4623 60.1078 44.7652 60.5736C45.072 61.0394 45.2272 61.5677 45.231 62.1584C45.2272 62.7757 45.0587 63.3267 44.7255 63.8114C44.396 64.2923 43.9586 64.6048 43.4133 64.7487V64.8168C43.8336 64.8926 44.2123 65.0725 44.5494 65.3565C44.8864 65.6367 45.1553 65.987 45.356 66.4073C45.5567 66.8239 45.6589 67.2783 45.6627 67.7706C45.6589 68.3993 45.4885 68.9597 45.1515 69.452C44.8182 69.9406 44.3543 70.3249 43.7598 70.6052C43.169 70.8816 42.4855 71.0198 41.7092 71.0198ZM41.7092 69.7701C42.2356 69.7701 42.69 69.6849 43.0725 69.5145C43.455 69.3441 43.7503 69.1036 43.9586 68.7931C44.1669 68.4826 44.2729 68.119 44.2767 67.7025C44.2729 67.2632 44.1593 66.875 43.9359 66.538C43.7125 66.201 43.4076 65.9359 43.0213 65.7427C42.6389 65.5496 42.2015 65.453 41.7092 65.453C41.2131 65.453 40.77 65.5496 40.38 65.7427C39.9937 65.9359 39.6889 66.201 39.4654 66.538C39.2458 66.875 39.1379 67.2632 39.1416 67.7025C39.1379 68.119 39.2382 68.4826 39.4427 68.7931C39.651 69.1036 39.9483 69.3441 40.3345 69.5145C40.7208 69.6849 41.179 69.7701 41.7092 69.7701ZM41.7092 64.2488C42.1257 64.2488 42.495 64.1655 42.8169 63.9989C43.1425 63.8322 43.3981 63.5993 43.5837 63.3002C43.7693 63.001 43.8639 62.6507 43.8677 62.2493C43.8639 61.8555 43.7712 61.5127 43.5894 61.2211C43.4076 60.9258 43.1558 60.6986 42.8339 60.5395C42.512 60.3767 42.1371 60.2952 41.7092 60.2952C41.2737 60.2952 40.8931 60.3767 40.5674 60.5395C40.2417 60.6986 39.9899 60.9258 39.8119 61.2211C39.6339 61.5127 39.5468 61.8555 39.5506 62.2493C39.5468 62.6507 39.6358 63.001 39.8176 63.3002C40.0032 63.5993 40.2588 63.8322 40.5845 63.9989C40.9101 64.1655 41.285 64.2488 41.7092 64.2488ZM47.8397 70.8608V69.8383L51.6797 65.6348C52.1303 65.1425 52.5015 64.7146 52.793 64.351C53.0846 63.9837 53.3005 63.6391 53.4406 63.3172C53.5845 62.9915 53.6565 62.6507 53.6565 62.2947C53.6565 61.8858 53.558 61.5317 53.3611 61.2325C53.168 60.9333 52.9029 60.7023 52.5658 60.5395C52.2288 60.3767 51.8501 60.2952 51.4298 60.2952C50.9829 60.2952 50.5928 60.388 50.2596 60.5736C49.9301 60.7554 49.6745 61.011 49.4927 61.3404C49.3148 61.6699 49.2258 62.0562 49.2258 62.4992H47.8852C47.8852 61.8176 48.0423 61.2193 48.3567 60.7042C48.671 60.1892 49.0989 59.7878 49.6404 59.5C50.1857 59.2122 50.7973 59.0683 51.4752 59.0683C52.1568 59.0683 52.7609 59.2122 53.2872 59.5C53.8136 59.7878 54.2264 60.176 54.5256 60.6645C54.8247 61.153 54.9743 61.6964 54.9743 62.2947C54.9743 62.7227 54.8967 63.1411 54.7414 63.5501C54.5899 63.9553 54.3249 64.4079 53.9462 64.9077C53.5713 65.4038 53.0506 66.0097 52.3841 66.7255L49.7711 69.5202V69.6111H55.1788V70.8608H47.8397ZM57.8884 70.8608L63.0916 60.5679V60.477H57.0931V59.2273H64.5458V60.5452L59.3653 70.8608H57.8884Z" fill="black"/>
  <path d="M41.7773 173.739C40.9215 173.739 40.1925 173.506 39.5904 173.041C38.9883 172.571 38.5282 171.891 38.2101 171.001C37.892 170.108 37.7329 169.028 37.7329 167.764C37.7329 166.506 37.892 165.433 38.2101 164.543C38.5319 163.649 38.9939 162.967 39.5961 162.498C40.202 162.025 40.9291 161.788 41.7773 161.788C42.6256 161.788 43.3508 162.025 43.9529 162.498C44.5588 162.967 45.0208 163.649 45.3389 164.543C45.6608 165.433 45.8218 166.506 45.8218 167.764C45.8218 169.028 45.6627 170.108 45.3446 171.001C45.0265 171.891 44.5664 172.571 43.9643 173.041C43.3622 173.506 42.6332 173.739 41.7773 173.739ZM41.7773 172.49C42.6256 172.49 43.2845 172.081 43.7541 171.263C44.2237 170.445 44.4585 169.278 44.4585 167.764C44.4585 166.756 44.3506 165.899 44.1347 165.19C43.9226 164.482 43.6159 163.943 43.2145 163.571C42.8169 163.2 42.3378 163.015 41.7773 163.015C40.9366 163.015 40.2796 163.429 39.8062 164.259C39.3329 165.084 39.0962 166.253 39.0962 167.764C39.0962 168.771 39.2022 169.627 39.4143 170.331C39.6264 171.036 39.9312 171.571 40.3288 171.939C40.7303 172.306 41.2131 172.49 41.7773 172.49Z" fill="black"/>
  <defs>
    <linearGradient id="paint0_linear_0_1" x1="-12.3429" y1="177.895" x2="-12.3429" y2="56.9806" gradientUnits="userSpaceOnUse">
      <stop stop-color="#F1EEF6" stop-opacity="0"/>
      <stop offset="0.0185185" stop-color="#E6D3EC" stop-opacity="0.160784"/>
      <stop offset="0.037037" stop-color="#E7D5EA" stop-opacity="0.329412"/>
      <stop offset="0.0555556" stop-color="#E5D5E9" stop-opacity="0.498039"/>
      <stop offset="0.0740741" stop-color="#E5D5E8" stop-opacity="0.662745"/>
      <stop offset="0.0925926" stop-color="#E5D5E8" stop-opacity="0.831373"/>
      <stop offset="0.111111" stop-color="#E5D5E9"/>
      <stop offset="0.12963" stop-color="#E3D0E6"/>
      <stop offset="0.148148" stop-color="#E1CCE4"/>
      <stop offset="0.166667" stop-color="#DFC8E2"/>
      <stop offset="0.185185" stop-color="#DDC3DF"/>
      <stop offset="0.203704" stop-color="#DBBFDD"/>
      <stop offset="0.222222" stop-color="#DABBDB"/>
      <stop offset="0.240741" stop-color="#DAB5D8"/>
      <stop offset="0.259259" stop-color="#DAB0D5"/>
      <stop offset="0.277778" stop-color="#DAAAD3"/>
      <stop offset="0.296296" stop-color="#DAA5D0"/>
      <stop offset="0.314815" stop-color="#DA9FCD"/>
      <stop offset="0.333333" stop-color="#DA9ACB"/>
      <stop offset="0.351852" stop-color="#DA94C8"/>
      <stop offset="0.37037" stop-color="#DA8EC5"/>
      <stop offset="0.388889" stop-color="#DB88C2"/>
      <stop offset="0.407407" stop-color="#DB82BF"/>
      <stop offset="0.425926" stop-color="#DC7CBC"/>
      <stop offset="0.444444" stop-color="#DD77B9"/>
      <stop offset="0.462963" stop-color="#DD71B5"/>
      <stop offset="0.481481" stop-color="#DD6BB1"/>
      <stop offset="0.5" stop-color="#DE66AE"/>
      <stop offset="0.518519" stop-color="#DE60AA"/>
      <stop offset="0.537037" stop-color="#DE5AA6"/>
      <stop offset="0.555556" stop-color="#DF55A3"/>
      <stop offset="0.574074" stop-color="#DE4F9E"/>
      <stop offset="0.592593" stop-color="#DE4A9A"/>
      <stop offset="0.611111" stop-color="#DE4496"/>
      <stop offset="0.62963" stop-color="#DE3F92"/>
      <stop offset="0.648148" stop-color="#DE398E"/>
      <stop offset="0.666667" stop-color="#DE348A"/>
      <stop offset="0.685185" stop-color="#DC2F85"/>
      <stop offset="0.703704" stop-color="#DB2B81"/>
      <stop offset="0.722222" stop-color="#D9267D"/>
      <stop offset="0.740741" stop-color="#D82279"/>
      <stop offset="0.759259" stop-color="#D61D75"/>
      <stop offset="0.777778" stop-color="#D51971"/>
      <stop offset="0.796296" stop-color="#D0166D"/>
      <stop offset="0.814815" stop-color="#CB1469"/>
      <stop offset="0.833333" stop-color="#C61265"/>
      <stop offset="0.851852" stop-color="#C11061"/>
      <stop offset="0.87037" stop-color="#BC0E5D"/>
      <stop offset="0.888889" stop-color="#B70C5A"/>
      <stop offset="0.907407" stop-color="#B10A56"/>
      <stop offset="0.925926" stop-color="#AC0852"/>
      <stop offset="0.944444" stop-color="#A7064E"/>
      <stop offset="0.962963" stop-color="#A2044A"/>
      <stop offset="0.981481" stop-color="#9D0246"/>
      <stop offset="1" stop-color="#980043"/>
    </linearGradient>
  </defs>
</svg>
