<svg width="156" height="181" viewBox="0 0 156 181" fill="none" xmlns="http://www.w3.org/2000/svg">
  <path d="M146.648 11.89L146.552 12.5867C146.488 13.0981 146.379 13.6308 146.226 14.1848C146.077 14.743 145.921 15.2608 145.759 15.738C145.602 16.2153 145.472 16.5946 145.369 16.8758H144.014C144.07 16.6116 144.146 16.2537 144.244 15.8019C144.342 15.3545 144.438 14.8538 144.532 14.2998C144.626 13.7458 144.696 13.1812 144.743 12.6059L144.807 11.89H146.648Z" fill="black"/>
  <path d="M137.828 13.8779C136.861 13.8779 136.028 13.6713 135.329 13.2579C134.634 12.8403 134.097 12.2544 133.718 11.5001C133.343 10.7416 133.156 9.85308 133.156 8.83462C133.156 7.82893 133.343 6.94257 133.718 6.17553C134.097 5.40848 134.626 4.80976 135.303 4.37936C135.985 3.94896 136.782 3.73376 137.694 3.73376C138.248 3.73376 138.785 3.82538 139.305 4.00862C139.825 4.19186 140.291 4.4795 140.705 4.87155C141.118 5.26359 141.444 5.77283 141.683 6.39925C141.921 7.02141 142.041 7.7778 142.041 8.66842V9.34598H134.236V7.91416H140.168C140.168 7.41132 140.065 6.96601 139.861 6.57823C139.656 6.18618 139.369 5.87723 138.998 5.65138C138.631 5.42553 138.201 5.3126 137.707 5.3126C137.17 5.3126 136.701 5.4447 136.301 5.70891C135.904 5.96885 135.597 6.30976 135.38 6.73163C135.167 7.14925 135.06 7.60308 135.06 8.09314V9.21175C135.06 9.868 135.176 10.4262 135.406 10.8865C135.64 11.3467 135.966 11.6983 136.384 11.9412C136.801 12.1798 137.289 12.2991 137.847 12.2991C138.21 12.2991 138.54 12.248 138.838 12.1457C139.136 12.0392 139.394 11.8815 139.612 11.6727C139.829 11.4639 139.995 11.2061 140.11 10.8992L141.919 11.2252C141.774 11.7579 141.514 12.2245 141.139 12.6251C140.769 13.0214 140.302 13.3304 139.739 13.5519C139.181 13.7693 138.544 13.8779 137.828 13.8779Z" fill="black"/>
  <path d="M126.005 13.8715C125.212 13.8715 124.505 13.6691 123.882 13.2643C123.265 12.8552 122.779 12.2735 122.425 11.5193C122.076 10.7607 121.901 9.85094 121.901 8.78986C121.901 7.72878 122.078 6.82111 122.431 6.06685C122.789 5.31259 123.279 4.73517 123.902 4.33461C124.524 3.93404 125.229 3.73375 126.017 3.73375C126.627 3.73375 127.117 3.83603 127.488 4.04057C127.863 4.24086 128.152 4.47523 128.357 4.7437C128.566 5.01216 128.728 5.24867 128.843 5.45321H128.958V0.588867H130.869V13.6798H129.002V12.1521H128.843C128.728 12.3609 128.561 12.5995 128.344 12.868C128.131 13.1365 127.837 13.3708 127.462 13.5711C127.087 13.7714 126.601 13.8715 126.005 13.8715ZM126.426 12.2416C126.976 12.2416 127.441 12.0967 127.82 11.8069C128.203 11.5129 128.493 11.1059 128.689 10.586C128.89 10.0661 128.99 9.46103 128.99 8.77069C128.99 8.08887 128.892 7.49228 128.696 6.98091C128.5 6.46955 128.212 6.07111 127.833 5.7856C127.453 5.50009 126.985 5.35733 126.426 5.35733C125.851 5.35733 125.372 5.50648 124.988 5.80478C124.605 6.10307 124.315 6.51003 124.119 7.02566C123.927 7.54128 123.831 8.12296 123.831 8.77069C123.831 9.42694 123.929 10.0171 124.125 10.5413C124.321 11.0654 124.611 11.4809 124.995 11.7877C125.382 12.0903 125.86 12.2416 126.426 12.2416Z" fill="black"/>
  <path d="M117.847 13.6798V3.86157H119.758V13.6798H117.847ZM118.812 2.34666C118.479 2.34666 118.194 2.23586 117.955 2.01427C117.721 1.78842 117.604 1.51995 117.604 1.20887C117.604 0.893532 117.721 0.625067 117.955 0.403475C118.194 0.177623 118.479 0.0646973 118.812 0.0646973C119.144 0.0646973 119.428 0.177623 119.662 0.403475C119.901 0.625067 120.02 0.893532 120.02 1.20887C120.02 1.51995 119.901 1.78842 119.662 2.01427C119.428 2.23586 119.144 2.34666 118.812 2.34666Z" fill="black"/>
  <path d="M109.441 3.86157L111.608 7.68402L113.794 3.86157H115.884L112.823 8.77066L115.91 13.6798H113.82L111.608 10.0107L109.403 13.6798H107.306L110.362 8.77066L107.345 3.86157H109.441Z" fill="black"/>
  <path d="M101.609 13.8779C100.689 13.8779 99.8856 13.667 99.1995 13.2451C98.5134 12.8233 97.9807 12.2331 97.6015 11.4745C97.2222 10.716 97.0326 9.82964 97.0326 8.81544C97.0326 7.79697 97.2222 6.90635 97.6015 6.14357C97.9807 5.38078 98.5134 4.78845 99.1995 4.36658C99.8856 3.9447 100.689 3.73376 101.609 3.73376C102.53 3.73376 103.333 3.9447 104.019 4.36658C104.705 4.78845 105.238 5.38078 105.617 6.14357C105.996 6.90635 106.186 7.79697 106.186 8.81544C106.186 9.82964 105.996 10.716 105.617 11.4745C105.238 12.2331 104.705 12.8233 104.019 13.2451C103.333 13.667 102.53 13.8779 101.609 13.8779ZM101.616 12.2735C102.212 12.2735 102.707 12.1159 103.099 11.8005C103.491 11.4852 103.78 11.0654 103.968 10.5413C104.16 10.0171 104.256 9.43973 104.256 8.80905C104.256 8.18263 104.16 7.60734 103.968 7.0832C103.78 6.55479 103.491 6.13078 103.099 5.81118C102.707 5.49158 102.212 5.33178 101.616 5.33178C101.015 5.33178 100.516 5.49158 100.12 5.81118C99.7279 6.13078 99.436 6.55479 99.2442 7.0832C99.0567 7.60734 98.963 8.18263 98.963 8.80905C98.963 9.43973 99.0567 10.0171 99.2442 10.5413C99.436 11.0654 99.7279 11.4852 100.12 11.8005C100.516 12.1159 101.015 12.2735 101.616 12.2735Z" fill="black"/>
  <path d="M92.9912 13.6798V3.86157H94.9024V13.6798H92.9912ZM93.9564 2.34666C93.624 2.34666 93.3385 2.23586 93.0999 2.01427C92.8655 1.78842 92.7483 1.51995 92.7483 1.20887C92.7483 0.893532 92.8655 0.625067 93.0999 0.403475C93.3385 0.177623 93.624 0.0646973 93.9564 0.0646973C94.2888 0.0646973 94.5722 0.177623 94.8065 0.403475C95.0452 0.625067 95.1645 0.893532 95.1645 1.20887C95.1645 1.51995 95.0452 1.78842 94.8065 2.01427C94.5722 2.23586 94.2888 2.34666 93.9564 2.34666Z" fill="black"/>
  <path d="M85.3991 13.8715C84.6065 13.8715 83.8991 13.6691 83.2769 13.2643C82.659 12.8552 82.1733 12.2735 81.8196 11.5193C81.4701 10.7607 81.2954 9.85094 81.2954 8.78986C81.2954 7.72878 81.4723 6.82111 81.826 6.06685C82.1839 5.31259 82.674 4.73517 83.2961 4.33461C83.9183 3.93404 84.6235 3.73375 85.4119 3.73375C86.0213 3.73375 86.5113 3.83603 86.8821 4.04057C87.2571 4.24086 87.5468 4.47523 87.7514 4.7437C87.9602 5.01216 88.1221 5.24867 88.2372 5.45321H88.3522V0.588867H90.2635V13.6798H88.397V12.1521H88.2372C88.1221 12.3609 87.9559 12.5995 87.7386 12.868C87.5255 13.1365 87.2315 13.3708 86.8565 13.5711C86.4815 13.7714 85.9957 13.8715 85.3991 13.8715ZM85.821 12.2416C86.3707 12.2416 86.8352 12.0967 87.2144 11.8069C87.598 11.5129 87.8877 11.1059 88.0838 10.586C88.284 10.0661 88.3842 9.46103 88.3842 8.77069C88.3842 8.08887 88.2862 7.49228 88.0901 6.98091C87.8941 6.46955 87.6065 6.07111 87.2272 5.7856C86.848 5.50009 86.3792 5.35733 85.821 5.35733C85.2457 5.35733 84.7663 5.50648 84.3828 5.80478C83.9992 6.10307 83.7095 6.51003 83.5135 7.02566C83.3217 7.54128 83.2258 8.12296 83.2258 8.77069C83.2258 9.42694 83.3238 10.0171 83.5198 10.5413C83.7159 11.0654 84.0056 11.4809 84.3892 11.7877C84.7769 12.0903 85.2542 12.2416 85.821 12.2416Z" fill="black"/>
  <path d="M68.1134 7.85024V13.6798H66.2021V3.86161H68.0367V5.45962H68.1581C68.384 4.93973 68.7377 4.52212 69.2192 4.20678C69.705 3.89144 70.3165 3.73376 71.0537 3.73376C71.7227 3.73376 72.3087 3.87439 72.8115 4.15564C73.3144 4.43263 73.7043 4.84598 73.9813 5.3957C74.2583 5.94541 74.3968 6.6251 74.3968 7.43476V13.6798H72.4855V7.66487C72.4855 6.95323 72.3002 6.39712 71.9294 5.99655C71.5587 5.59172 71.0495 5.3893 70.4017 5.3893C69.9585 5.3893 69.5644 5.48519 69.2192 5.67695C68.8783 5.86871 68.6077 6.14996 68.4074 6.5207C68.2114 6.88717 68.1134 7.33036 68.1134 7.85024Z" fill="black"/>
  <path d="M59.8692 13.8779C58.9019 13.8779 58.0688 13.6713 57.3699 13.2579C56.6753 12.8403 56.1384 12.2544 55.7592 11.5001C55.3842 10.7416 55.1967 9.85308 55.1967 8.83462C55.1967 7.82893 55.3842 6.94257 55.7592 6.17553C56.1384 5.40848 56.6668 4.80976 57.3444 4.37936C58.0262 3.94896 58.8231 3.73376 59.735 3.73376C60.289 3.73376 60.8259 3.82538 61.3458 4.00862C61.8657 4.19186 62.3323 4.4795 62.7457 4.87155C63.159 5.26359 63.485 5.77283 63.7236 6.39925C63.9623 7.02141 64.0816 7.7778 64.0816 8.66842V9.34598H56.2769V7.91416H62.2087C62.2087 7.41132 62.1065 6.96601 61.9019 6.57823C61.6974 6.18618 61.4097 5.87723 61.039 5.65138C60.6725 5.42553 60.2421 5.3126 59.7478 5.3126C59.2109 5.3126 58.7421 5.4447 58.3415 5.70891C57.9452 5.96885 57.6384 6.30976 57.4211 6.73163C57.208 7.14925 57.1015 7.60308 57.1015 8.09314V9.21175C57.1015 9.868 57.2165 10.4262 57.4467 10.8865C57.681 11.3467 58.007 11.6983 58.4246 11.9412C58.8423 12.1798 59.3302 12.2991 59.8884 12.2991C60.2506 12.2991 60.5809 12.248 60.8792 12.1457C61.1775 12.0392 61.4353 11.8815 61.6526 11.6727C61.87 11.4639 62.0361 11.2061 62.1512 10.8992L63.9602 11.2252C63.8153 11.7579 63.5553 12.2245 63.1803 12.6251C62.8096 13.0214 62.343 13.3304 61.7805 13.5519C61.2222 13.7693 60.5851 13.8779 59.8692 13.8779Z" fill="black"/>
  <path d="M48.6448 17.5662C47.865 17.5662 47.1938 17.4639 46.6313 17.2593C46.0731 17.0548 45.6171 16.7842 45.2635 16.4475C44.9098 16.1109 44.6456 15.7423 44.4708 15.3417L46.1136 14.6642C46.2287 14.8517 46.3821 15.0498 46.5738 15.2586C46.7698 15.4717 47.034 15.6528 47.3664 15.8019C47.7031 15.9511 48.1356 16.0257 48.664 16.0257C49.3885 16.0257 49.9872 15.8488 50.4602 15.4951C50.9332 15.1457 51.1697 14.5875 51.1697 13.8204V11.89H51.0483C50.9332 12.0988 50.767 12.3311 50.5497 12.5867C50.3366 12.8424 50.0426 13.064 49.6676 13.2515C49.2926 13.439 48.8046 13.5328 48.2038 13.5328C47.4282 13.5328 46.7294 13.3517 46.1072 12.9894C45.4893 12.623 44.9992 12.0839 44.637 11.3723C44.2791 10.6564 44.1001 9.77638 44.1001 8.73234C44.1001 7.68831 44.2769 6.79342 44.6306 6.04769C44.9886 5.30195 45.4786 4.73092 46.1008 4.33462C46.723 3.93405 47.4282 3.73376 48.2166 3.73376C48.826 3.73376 49.3181 3.83604 49.6931 4.04058C50.0681 4.24087 50.36 4.47524 50.5688 4.74371C50.7819 5.01217 50.946 5.24868 51.061 5.45323H51.2017V3.86161H53.0745V13.8971C53.0745 14.7409 52.8785 15.4333 52.4865 15.9745C52.0944 16.5157 51.5639 16.9163 50.8948 17.1762C50.2301 17.4362 49.4801 17.5662 48.6448 17.5662ZM48.6257 11.9475C49.1754 11.9475 49.6399 11.8197 50.0191 11.564C50.4027 11.3041 50.6924 10.9333 50.8885 10.4518C51.0887 9.96601 51.1889 9.38433 51.1889 8.70678C51.1889 8.04627 51.0909 7.46459 50.8948 6.96175C50.6988 6.45891 50.4112 6.06686 50.0319 5.78561C49.6527 5.5001 49.1839 5.35734 48.6257 5.35734C48.0504 5.35734 47.571 5.50649 47.1875 5.80479C46.8039 6.09882 46.5142 6.49939 46.3181 7.00649C46.1264 7.51359 46.0305 8.08036 46.0305 8.70678C46.0305 9.35024 46.1285 9.91487 46.3245 10.4007C46.5206 10.8865 46.8103 11.2657 47.1938 11.5385C47.5816 11.8112 48.0589 11.9475 48.6257 11.9475Z" fill="black"/>
  <path d="M37.8183 13.8779C36.8978 13.8779 36.0946 13.667 35.4085 13.2451C34.7224 12.8233 34.1897 12.2331 33.8105 11.4745C33.4312 10.716 33.2416 9.82964 33.2416 8.81544C33.2416 7.79697 33.4312 6.90635 33.8105 6.14357C34.1897 5.38078 34.7224 4.78845 35.4085 4.36658C36.0946 3.9447 36.8978 3.73376 37.8183 3.73376C38.7387 3.73376 39.542 3.9447 40.2281 4.36658C40.9142 4.78845 41.4468 5.38078 41.8261 6.14357C42.2054 6.90635 42.395 7.79697 42.395 8.81544C42.395 9.82964 42.2054 10.716 41.8261 11.4745C41.4468 12.2331 40.9142 12.8233 40.2281 13.2451C39.542 13.667 38.7387 13.8779 37.8183 13.8779ZM37.8247 12.2735C38.4213 12.2735 38.9156 12.1159 39.3076 11.8005C39.6997 11.4852 39.9894 11.0654 40.1769 10.5413C40.3687 10.0171 40.4646 9.43973 40.4646 8.80905C40.4646 8.18263 40.3687 7.60734 40.1769 7.0832C39.9894 6.55479 39.6997 6.13078 39.3076 5.81118C38.9156 5.49158 38.4213 5.33178 37.8247 5.33178C37.2238 5.33178 36.7252 5.49158 36.3289 5.81118C35.9369 6.13078 35.645 6.55479 35.4532 7.0832C35.2657 7.60734 35.172 8.18263 35.172 8.80905C35.172 9.43973 35.2657 10.0171 35.4532 10.5413C35.645 11.0654 35.9369 11.4852 36.3289 11.8005C36.7252 12.1159 37.2238 12.2735 37.8247 12.2735Z" fill="black"/>
  <path d="M27.126 13.6798V3.86162H28.9733V5.42128H29.0756C29.2545 4.89287 29.5699 4.47738 30.0216 4.17483C30.4775 3.86801 30.9932 3.7146 31.5684 3.7146C31.6878 3.7146 31.8284 3.71886 31.9903 3.72738C32.1565 3.73591 32.2865 3.74656 32.3802 3.75934V5.58747C32.3035 5.56616 32.1672 5.54272 31.9711 5.51716C31.7751 5.48733 31.5791 5.47241 31.3831 5.47241C30.9314 5.47241 30.5287 5.56829 30.175 5.76005C29.8256 5.94755 29.5486 6.20963 29.344 6.54628C29.1395 6.87866 29.0372 7.25792 29.0372 7.68406V13.6798H27.126Z" fill="black"/>
  <path d="M25.0119 3.86155V5.39564H19.6489V3.86155H25.0119ZM21.0871 1.50928H22.9984V10.7969C22.9984 11.1677 23.0538 11.4468 23.1646 11.6343C23.2753 11.8175 23.4181 11.9432 23.5928 12.0114C23.7718 12.0753 23.9657 12.1073 24.1745 12.1073C24.3279 12.1073 24.4621 12.0966 24.5772 12.0753C24.6922 12.054 24.7817 12.037 24.8457 12.0242L25.1908 13.603C25.08 13.6456 24.9224 13.6883 24.7178 13.7309C24.5133 13.7777 24.2576 13.8033 23.9508 13.8076C23.4479 13.8161 22.9792 13.7266 22.5445 13.5391C22.1099 13.3516 21.7583 13.0618 21.4898 12.6698C21.2214 12.2777 21.0871 11.7856 21.0871 11.1932V1.50928Z" fill="black"/>
  <path d="M15.9463 13.6798V3.86157H17.8575V13.6798H15.9463ZM16.9115 2.34666C16.5791 2.34666 16.2936 2.23586 16.0549 2.01427C15.8206 1.78842 15.7034 1.51995 15.7034 1.20887C15.7034 0.893532 15.8206 0.625067 16.0549 0.403475C16.2936 0.177623 16.5791 0.0646973 16.9115 0.0646973C17.2439 0.0646973 17.5272 0.177623 17.7616 0.403475C18.0002 0.625067 18.1196 0.893532 18.1196 1.20887C18.1196 1.51995 18.0002 1.78842 17.7616 2.01427C17.5272 2.23586 17.2439 2.34666 16.9115 2.34666Z" fill="black"/>
  <path d="M13.2185 0.588867V13.6798H11.4032L4.74906 4.07892H4.62761V13.6798H2.65247V0.588867H4.48059L11.1411 10.2025H11.2626V0.588867H13.2185Z" fill="black"/>
  <path d="M45.3232 33.3283V32.3139L49.133 28.1435C49.5801 27.6551 49.9483 27.2305 50.2375 26.8698C50.5268 26.5054 50.741 26.1635 50.88 25.8441C51.0228 25.521 51.0942 25.1829 51.0942 24.8297C51.0942 24.424 50.9965 24.0727 50.8011 23.7759C50.6095 23.479 50.3465 23.2499 50.0121 23.0883C49.6777 22.9267 49.302 22.846 48.885 22.846C48.4416 22.846 48.0547 22.938 47.724 23.1221C47.3972 23.3025 47.1436 23.5561 46.9632 23.8829C46.7866 24.2098 46.6983 24.593 46.6983 25.0326H45.3683C45.3683 24.3563 45.5242 23.7627 45.8361 23.2517C46.1479 22.7408 46.5725 22.3425 47.1098 22.057C47.6508 21.7714 48.2575 21.6287 48.9301 21.6287C49.6064 21.6287 50.2056 21.7714 50.7279 22.057C51.2501 22.3425 51.6596 22.7276 51.9564 23.2123C52.2532 23.697 52.4016 24.2361 52.4016 24.8297C52.4016 25.2543 52.3246 25.6694 52.1706 26.0752C52.0203 26.4772 51.7573 26.9262 51.3816 27.4221C51.0096 27.9143 50.493 28.5155 49.8318 29.2256L47.2394 31.9983V32.0885H52.6045V33.3283H45.3232Z" fill="black"/>
  <path d="M31.5525 33.3283V24.6719H32.8374V26.0245H32.9501C33.1305 25.5624 33.4217 25.2035 33.8237 24.9481C34.2257 24.6888 34.7085 24.5592 35.272 24.5592C35.8431 24.5592 36.3184 24.6888 36.6979 24.9481C37.0811 25.2035 37.3798 25.5624 37.5939 26.0245H37.6841C37.9058 25.5774 38.2383 25.2223 38.6816 24.9593C39.125 24.6926 39.6566 24.5592 40.2765 24.5592C41.0505 24.5592 41.6836 24.8015 42.1757 25.2862C42.6679 25.7671 42.914 26.5167 42.914 27.5348V33.3283H41.584V27.5348C41.584 26.8961 41.4093 26.4396 41.0599 26.1654C40.7105 25.8911 40.2991 25.754 39.8257 25.754C39.217 25.754 38.7455 25.9381 38.4111 26.3063C38.0767 26.6707 37.9095 27.1328 37.9095 27.6926V33.3283H36.557V27.3996C36.557 26.9074 36.3973 26.511 36.0779 26.2105C35.7586 25.9061 35.3472 25.754 34.8437 25.754C34.4981 25.754 34.175 25.846 33.8744 26.0301C33.5776 26.2142 33.3371 26.4697 33.153 26.7966C32.9727 27.1197 32.8825 27.4935 32.8825 27.9181V33.3283H31.5525Z" fill="black"/>
  <path d="M29.9759 21.2455L26.2564 35.0642H25.0391L28.7586 21.2455H29.9759Z" fill="black"/>
  <path d="M19.719 36.7548C19.0765 36.7548 18.5242 36.6721 18.0621 36.5068C17.6 36.3453 17.2149 36.1311 16.9068 35.8644C16.6025 35.6014 16.3601 35.3196 16.1798 35.019L17.2393 34.2751C17.3595 34.4329 17.5117 34.6132 17.6958 34.8161C17.8799 35.0228 18.1316 35.2012 18.451 35.3515C18.7741 35.5056 19.1967 35.5826 19.719 35.5826C20.4178 35.5826 20.9945 35.4135 21.4491 35.0754C21.9037 34.7372 22.131 34.2075 22.131 33.4861V31.7278H22.0183C21.9207 31.8856 21.7816 32.081 21.6013 32.3139C21.4247 32.5431 21.1692 32.7478 20.8348 32.9282C20.5042 33.1048 20.0571 33.1931 19.4936 33.1931C18.7947 33.1931 18.1673 33.0277 17.6112 32.6971C17.0589 32.3665 16.6212 31.8856 16.2981 31.2544C15.9788 30.6232 15.8191 29.8567 15.8191 28.955C15.8191 28.0684 15.975 27.2963 16.2869 26.6388C16.5987 25.9775 17.0326 25.4665 17.5887 25.1059C18.1447 24.7414 18.7872 24.5592 19.5161 24.5592C20.0797 24.5592 20.5268 24.6531 20.8574 24.841C21.1918 25.0251 21.4473 25.2355 21.6238 25.4722C21.8042 25.7051 21.9432 25.8967 22.0409 26.047H22.1761V24.6719H23.4611V33.5763C23.4611 34.3202 23.292 34.9251 22.9539 35.391C22.6195 35.8606 22.1686 36.2044 21.6013 36.4223C21.0377 36.644 20.4103 36.7548 19.719 36.7548ZM19.6739 31.9983C20.2074 31.9983 20.6583 31.8762 21.0265 31.632C21.3947 31.3878 21.6746 31.0365 21.8662 30.5781C22.0578 30.1197 22.1536 29.5712 22.1536 28.9325C22.1536 28.3088 22.0597 27.7584 21.8718 27.2812C21.684 26.8041 21.4059 26.4302 21.0377 26.1597C20.6695 25.8892 20.2149 25.754 19.6739 25.754C19.1103 25.754 18.6407 25.8967 18.265 26.1823C17.893 26.4678 17.6131 26.851 17.4253 27.332C17.2412 27.8129 17.1491 28.3464 17.1491 28.9325C17.1491 29.5336 17.243 30.0653 17.4309 30.5274C17.6225 30.9858 17.9043 31.3464 18.2762 31.6094C18.652 31.8687 19.1178 31.9983 19.6739 31.9983Z" fill="black"/>
  <path d="M2.43152 33.3283V24.6719H3.71645V26.0245H3.82917C4.00951 25.5624 4.30068 25.2035 4.7027 24.9481C5.10471 24.6888 5.5875 24.5592 6.15106 24.5592C6.72215 24.5592 7.19742 24.6888 7.57689 24.9481C7.96012 25.2035 8.25881 25.5624 8.47296 26.0245H8.56313C8.7848 25.5774 9.11731 25.2223 9.56065 24.9593C10.004 24.6926 10.5356 24.5592 11.1555 24.5592C11.9295 24.5592 12.5626 24.8015 13.0548 25.2862C13.5469 25.7671 13.793 26.5167 13.793 27.5348V33.3283H12.463V27.5348C12.463 26.8961 12.2883 26.4396 11.9389 26.1654C11.5895 25.8911 11.1781 25.754 10.7047 25.754C10.096 25.754 9.62452 25.9381 9.29013 26.3063C8.95575 26.6707 8.78856 27.1328 8.78856 27.6926V33.3283H7.436V27.3996C7.436 26.9074 7.27632 26.511 6.95697 26.2105C6.63761 25.9061 6.22621 25.754 5.72275 25.754C5.3771 25.754 5.05399 25.846 4.75342 26.0301C4.4566 26.2142 4.21615 26.4697 4.03205 26.7966C3.85171 27.1197 3.76154 27.4935 3.76154 27.9181V33.3283H2.43152Z" fill="black"/>
  <path d="M27.2486 51.6782H1.01514V172.288H27.2486V51.6782Z" fill="url(#paint0_linear_0_1)"/>
  <path fill-rule="evenodd" clip-rule="evenodd" d="M0.855225 51.5183H27.4086V172.448H0.855225V51.5183ZM1.17514 51.8382V172.128H27.0886V51.8382H1.17514Z" fill="black"/>
  <path d="M43.8613 65.8607V64.8383L47.7013 60.6348C48.1519 60.1425 48.523 59.7145 48.8146 59.351C49.1062 58.9837 49.3221 58.6391 49.4622 58.3172C49.6061 57.9915 49.6781 57.6507 49.6781 57.2947C49.6781 56.8857 49.5796 56.5316 49.3827 56.2325C49.1895 55.9333 48.9245 55.7023 48.5874 55.5395C48.2504 55.3766 47.8717 55.2952 47.4513 55.2952C47.0045 55.2952 46.6144 55.388 46.2812 55.5735C45.9517 55.7553 45.6961 56.0109 45.5143 56.3404C45.3363 56.6699 45.2473 57.0561 45.2473 57.4992H43.9068C43.9068 56.8175 44.0639 56.2192 44.3782 55.7042C44.6926 55.1892 45.1205 54.7878 45.662 54.4999C46.2073 54.2121 46.8189 54.0682 47.4968 54.0682C48.1784 54.0682 48.7824 54.2121 49.3088 54.4999C49.8352 54.7878 50.248 55.1759 50.5472 55.6644C50.8463 56.1529 50.9959 56.6964 50.9959 57.2947C50.9959 57.7226 50.9183 58.1411 50.763 58.5501C50.6115 58.9553 50.3464 59.4078 49.9678 59.9077C49.5928 60.4038 49.0721 61.0097 48.4056 61.7254L45.7927 64.5202V64.611H51.2004V65.8607H43.8613Z" fill="black"/>
  <path d="M40.5156 54.2273V65.8607H39.1068V55.7042H39.0387L36.1985 57.5901V56.1586L39.1068 54.2273H40.5156Z" fill="black"/>
  <path d="M40.5156 155.947V167.58H39.1068V157.424H39.0387L36.1985 159.31V157.878L39.1068 155.947H40.5156Z" fill="black"/>
  <defs>
    <linearGradient id="paint0_linear_0_1" x1="-6.34302" y1="172.895" x2="-6.34302" y2="51.9805" gradientUnits="userSpaceOnUse">
      <stop stop-color="#440154"/>
      <stop offset="0.0909091" stop-color="#482173"/>
      <stop offset="0.181818" stop-color="#423E85"/>
      <stop offset="0.272727" stop-color="#38588C"/>
      <stop offset="0.363636" stop-color="#2D6F8E"/>
      <stop offset="0.454545" stop-color="#25858E"/>
      <stop offset="0.545455" stop-color="#1E9B89"/>
      <stop offset="0.636364" stop-color="#2BB07E"/>
      <stop offset="0.727273" stop-color="#51C469"/>
      <stop offset="0.818182" stop-color="#85D44A"/>
      <stop offset="0.909091" stop-color="#C2E023"/>
      <stop offset="1" stop-color="#FDE725"/>
    </linearGradient>
  </defs>
</svg>