<svg width="156" height="194" viewBox="0 0 156 194" fill="none" xmlns="http://www.w3.org/2000/svg">
  <path d="M77.0806 36.378C76.0706 36.3737 75.2077 36.1074 74.4918 35.579C73.7759 35.0505 73.2283 34.2814 72.849 33.2714C72.4698 32.2615 72.2802 31.0449 72.2802 29.6216C72.2802 28.2025 72.4698 26.9902 72.849 25.9845C73.2326 24.9788 73.7823 24.2118 74.4982 23.6834C75.2184 23.155 76.0792 22.8907 77.0806 22.8907C78.082 22.8907 78.9407 23.1571 79.6566 23.6898C80.3725 24.2182 80.9201 24.9852 81.2993 25.9909C81.6829 26.9923 81.8746 28.2025 81.8746 29.6216C81.8746 31.0491 81.685 32.2679 81.3057 33.2778C80.9265 34.2835 80.3789 35.0527 79.663 35.5854C78.9471 36.1138 78.0863 36.378 77.0806 36.378ZM77.0806 34.6713C77.9669 34.6713 78.6594 34.2388 79.158 33.3737C79.6608 32.5086 79.9123 31.2579 79.9123 29.6216C79.9123 28.5349 79.7972 27.6166 79.5671 26.8666C79.3412 26.1123 79.0152 25.5413 78.5891 25.1535C78.1672 24.7615 77.6644 24.5655 77.0806 24.5655C76.1985 24.5655 75.506 25.0001 75.0032 25.8694C74.5003 26.7388 74.2468 27.9895 74.2425 29.6216C74.2425 30.7125 74.3554 31.6351 74.5813 32.3893C74.8114 33.1393 75.1374 33.7082 75.5593 34.096C75.9811 34.4795 76.4883 34.6713 77.0806 34.6713Z" fill="black"/>
  <path d="M68.9818 23.0697V36.1606H67.0003V25.0512H66.9236L63.7915 27.0967V25.2046L67.0578 23.0697H68.9818Z" fill="black"/>
  <path d="M52.3689 36.1606V26.3425H54.2162V27.9021H54.3185C54.4974 27.3737 54.8128 26.9582 55.2645 26.6557C55.7205 26.3488 56.2361 26.1954 56.8114 26.1954C56.9307 26.1954 57.0713 26.1997 57.2332 26.2082C57.3994 26.2167 57.5294 26.2274 57.6232 26.2402V28.0683C57.5465 28.047 57.4101 28.0236 57.2141 27.998C57.018 27.9682 56.822 27.9532 56.626 27.9532C56.1743 27.9532 55.7716 28.0491 55.4179 28.2409C55.0685 28.4284 54.7915 28.6905 54.5869 29.0271C54.3824 29.3595 54.2801 29.7388 54.2801 30.1649V36.1606H52.3689Z" fill="black"/>
  <path d="M46.036 36.3588C45.0687 36.3588 44.2356 36.1521 43.5367 35.7387C42.8421 35.3211 42.3052 34.7352 41.9259 33.9809C41.5509 33.2224 41.3634 32.3339 41.3634 31.3155C41.3634 30.3098 41.5509 29.4234 41.9259 28.6564C42.3052 27.8893 42.8336 27.2906 43.5111 26.8602C44.1929 26.4298 44.9898 26.2146 45.9018 26.2146C46.4557 26.2146 46.9927 26.3062 47.5126 26.4895C48.0324 26.6727 48.4991 26.9603 48.9124 27.3524C49.3258 27.7444 49.6518 28.2537 49.8904 28.8801C50.129 29.5022 50.2483 30.2586 50.2483 31.1493V31.8268H42.4437V30.395H48.3755C48.3755 29.8922 48.2732 29.4468 48.0687 29.0591C47.8641 28.667 47.5765 28.3581 47.2057 28.1322C46.8393 27.9064 46.4089 27.7934 45.9145 27.7934C45.3776 27.7934 44.9089 27.9255 44.5083 28.1897C44.112 28.4497 43.8052 28.7906 43.5878 29.2125C43.3748 29.6301 43.2682 30.0839 43.2682 30.574V31.6926C43.2682 32.3488 43.3833 32.9071 43.6134 33.3673C43.8478 33.8275 44.1738 34.1791 44.5914 34.422C45.009 34.6606 45.4969 34.7799 46.0552 34.7799C46.4174 34.7799 46.7476 34.7288 47.0459 34.6265C47.3442 34.52 47.602 34.3623 47.8194 34.1535C48.0367 33.9447 48.2029 33.6869 48.3179 33.3801L50.1269 33.7061C49.982 34.2387 49.7221 34.7054 49.3471 35.1059C48.9763 35.5022 48.5097 35.8112 47.9472 36.0328C47.389 36.2501 46.7519 36.3588 46.036 36.3588Z" fill="black"/>
  <path d="M39.7958 26.3424V27.8765H34.4329V26.3424H39.7958ZM35.8711 23.9901H37.7823V33.2778C37.7823 33.6485 37.8377 33.9276 37.9485 34.1151C38.0593 34.2983 38.202 34.4241 38.3768 34.4922C38.5557 34.5562 38.7496 34.5881 38.9584 34.5881C39.1118 34.5881 39.2461 34.5775 39.3611 34.5562C39.4762 34.5349 39.5657 34.5178 39.6296 34.505L39.9748 36.0839C39.864 36.1265 39.7063 36.1691 39.5018 36.2117C39.2972 36.2586 39.0415 36.2841 38.7347 36.2884C38.2319 36.2969 37.7631 36.2074 37.3285 36.0199C36.8938 35.8324 36.5422 35.5427 36.2738 35.1506C36.0053 34.7586 35.8711 34.2664 35.8711 33.6741V23.9901Z" fill="black"/>
  <path d="M33.0985 26.3424V27.8765H27.7356V26.3424H33.0985ZM29.1738 23.9901H31.085V33.2778C31.085 33.6485 31.1404 33.9276 31.2512 34.1151C31.362 34.2983 31.5048 34.4241 31.6795 34.4922C31.8585 34.5562 32.0524 34.5881 32.2612 34.5881C32.4146 34.5881 32.5488 34.5775 32.6639 34.5562C32.7789 34.5349 32.8684 34.5178 32.9323 34.505L33.2775 36.0839C33.1667 36.1265 33.009 36.1691 32.8045 36.2117C32.5999 36.2586 32.3443 36.2841 32.0374 36.2884C31.5346 36.2969 31.0659 36.2074 30.6312 36.0199C30.1965 35.8324 29.845 35.5427 29.5765 35.1506C29.308 34.7586 29.1738 34.2664 29.1738 33.6741V23.9901Z" fill="black"/>
  <path d="M21.1246 36.378C20.5024 36.378 19.9399 36.2629 19.4371 36.0328C18.9343 35.7984 18.5358 35.4596 18.2418 35.0164C17.952 34.5733 17.8071 34.0299 17.8071 33.3865C17.8071 32.8325 17.9137 32.3765 18.1267 32.0186C18.3398 31.6606 18.6274 31.3772 18.9897 31.1684C19.3519 30.9596 19.7567 30.802 20.2041 30.6954C20.6516 30.5889 21.1076 30.5079 21.572 30.4525C22.1601 30.3843 22.6374 30.3289 23.0039 30.2863C23.3703 30.2395 23.6367 30.1649 23.8029 30.0626C23.9691 29.9603 24.0522 29.7941 24.0522 29.564V29.5193C24.0522 28.961 23.8945 28.5285 23.5791 28.2217C23.2681 27.9149 22.8036 27.7615 22.1857 27.7615C21.5422 27.7615 21.0351 27.9042 20.6644 28.1897C20.2979 28.471 20.0443 28.7842 19.9037 29.1294L18.1076 28.7203C18.3206 28.1237 18.6317 27.6422 19.0408 27.2757C19.4541 26.9049 19.9293 26.6365 20.4662 26.4703C21.0032 26.2998 21.5678 26.2146 22.1601 26.2146C22.5522 26.2146 22.9676 26.2615 23.4066 26.3552C23.8497 26.4447 24.2631 26.6109 24.6466 26.8538C25.0344 27.0967 25.3519 27.444 25.599 27.8957C25.8462 28.3431 25.9698 28.9248 25.9698 29.6407V36.1606H24.1033V34.8183H24.0266C23.903 35.0654 23.7176 35.3083 23.4705 35.547C23.2233 35.7856 22.9059 35.9838 22.5181 36.1414C22.1303 36.2991 21.6658 36.378 21.1246 36.378ZM21.5401 34.8439C22.0685 34.8439 22.5202 34.7395 22.8952 34.5307C23.2745 34.3218 23.5621 34.0491 23.7581 33.7125C23.9584 33.3716 24.0585 33.0072 24.0585 32.6194V31.3538C23.9904 31.422 23.8583 31.4859 23.6622 31.5456C23.4705 31.601 23.251 31.65 23.0039 31.6926C22.7567 31.7309 22.5159 31.7672 22.2816 31.8012C22.0472 31.8311 21.8512 31.8566 21.6935 31.878C21.3228 31.9248 20.984 32.0037 20.6772 32.1145C20.3746 32.2253 20.1317 32.3851 19.9485 32.5939C19.7695 32.7984 19.68 33.0711 19.68 33.412C19.68 33.8851 19.8547 34.243 20.2041 34.4859C20.5536 34.7245 20.9989 34.8439 21.5401 34.8439Z" fill="black"/>
  <path d="M2.35913 36.1606V26.3424H4.19365V27.9405H4.3151C4.51964 27.3993 4.85416 26.9774 5.31865 26.6748C5.78314 26.368 6.33924 26.2146 6.98697 26.2146C7.64322 26.2146 8.19294 26.368 8.63612 26.6748C9.08356 26.9816 9.41382 27.4035 9.62689 27.9405H9.72916C9.96353 27.4163 10.3364 26.9987 10.8478 26.6876C11.3591 26.3723 11.9685 26.2146 12.6759 26.2146C13.5665 26.2146 14.2931 26.4937 14.8556 27.052C15.4223 27.6102 15.7057 28.4518 15.7057 29.5768V36.1606H13.7945V29.7558C13.7945 29.091 13.6134 28.6095 13.2512 28.3112C12.889 28.0129 12.4564 27.8637 11.9536 27.8637C11.3314 27.8637 10.8478 28.0555 10.5026 28.439C10.1574 28.8183 9.98484 29.3062 9.98484 29.9028V36.1606H8.08001V29.6343C8.08001 29.1017 7.91382 28.6734 7.58143 28.3495C7.24905 28.0257 6.81652 27.8637 6.28385 27.8637C5.92163 27.8637 5.58711 27.9596 5.2803 28.1514C4.97774 28.3389 4.73271 28.601 4.54521 28.9376C4.36197 29.2743 4.27035 29.6642 4.27035 30.1074V36.1606H2.35913Z" fill="black"/>
  <path d="M89.1727 14.3588C88.2054 14.3588 87.3723 14.1521 86.6734 13.7387C85.9788 13.3211 85.4419 12.7352 85.0626 11.9809C84.6876 11.2224 84.5001 10.3339 84.5001 9.31545C84.5001 8.30977 84.6876 7.42341 85.0626 6.65636C85.4419 5.88932 85.9703 5.29059 86.6479 4.8602C87.3297 4.4298 88.1265 4.2146 89.0385 4.2146C89.5925 4.2146 90.1294 4.30622 90.6493 4.48946C91.1692 4.6727 91.6358 4.96034 92.0491 5.35238C92.4625 5.74443 92.7885 6.25366 93.0271 6.88008C93.2658 7.50224 93.3851 8.25863 93.3851 9.14926V9.82682H85.5804V8.395H91.5122C91.5122 7.89216 91.4099 7.44684 91.2054 7.05906C91.0008 6.66701 90.7132 6.35807 90.3425 6.13221C89.976 5.90636 89.5456 5.79344 89.0513 5.79344C88.5143 5.79344 88.0456 5.92554 87.645 6.18974C87.2487 6.44969 86.9419 6.79059 86.7246 7.21247C86.5115 7.63008 86.405 8.08392 86.405 8.57397V9.69258C86.405 10.3488 86.52 10.9071 86.7501 11.3673C86.9845 11.8275 87.3105 12.1791 87.7281 12.422C88.1457 12.6606 88.6336 12.7799 89.1919 12.7799C89.5541 12.7799 89.8844 12.7288 90.1826 12.6265C90.4809 12.52 90.7388 12.3623 90.9561 12.1535C91.1734 11.9447 91.3396 11.6869 91.4547 11.3801L93.2636 11.7061C93.1187 12.2387 92.8588 12.7054 92.4838 13.1059C92.113 13.5022 91.6464 13.8112 91.0839 14.0328C90.5257 14.2501 89.8886 14.3588 89.1727 14.3588Z" fill="black"/>
  <path d="M82.9325 4.34239V5.87648H77.5696V4.34239H82.9325ZM79.0078 1.99011H80.919V11.2778C80.919 11.6485 80.9744 11.9276 81.0852 12.1151C81.196 12.2984 81.3388 12.4241 81.5135 12.4922C81.6924 12.5562 81.8863 12.5881 82.0951 12.5881C82.2486 12.5881 82.3828 12.5775 82.4978 12.5562C82.6129 12.5349 82.7024 12.5178 82.7663 12.505L83.1115 14.0839C83.0007 14.1265 82.843 14.1691 82.6385 14.2117C82.4339 14.2586 82.1782 14.2841 81.8714 14.2884C81.3686 14.2969 80.8998 14.2074 80.4652 14.0199C80.0305 13.8324 79.679 13.5427 79.4105 13.1506C79.142 12.7586 79.0078 12.2664 79.0078 11.6741V1.99011Z" fill="black"/>
  <path d="M70.9586 14.378C70.3364 14.378 69.7739 14.2629 69.2711 14.0328C68.7682 13.7984 68.3698 13.4596 68.0758 13.0164C67.786 12.5733 67.6411 12.0299 67.6411 11.3865C67.6411 10.8325 67.7476 10.3765 67.9607 10.0186C68.1738 9.66062 68.4614 9.37724 68.8236 9.16844C69.1859 8.95963 69.5907 8.80196 70.0381 8.69542C70.4856 8.58889 70.9415 8.50792 71.406 8.45253C71.9941 8.38434 72.4714 8.32895 72.8378 8.28633C73.2043 8.23946 73.4707 8.16488 73.6368 8.06261C73.803 7.96034 73.8861 7.79415 73.8861 7.56403V7.51929C73.8861 6.96105 73.7285 6.52852 73.4131 6.2217C73.102 5.91488 72.6376 5.76147 72.0197 5.76147C71.3762 5.76147 70.8691 5.90423 70.4984 6.18974C70.1319 6.47099 69.8783 6.7842 69.7377 7.12937L67.9415 6.72028C68.1546 6.12369 68.4657 5.64216 68.8748 5.27568C69.2881 4.90494 69.7633 4.63647 70.3002 4.47028C70.8371 4.29983 71.4018 4.2146 71.9941 4.2146C72.3861 4.2146 72.8016 4.26147 73.2405 4.35522C73.6837 4.44471 74.0971 4.61091 74.4806 4.8538C74.8684 5.0967 75.1859 5.444 75.433 5.89571C75.6802 6.34315 75.8037 6.92483 75.8037 7.64074V14.1606H73.9373V12.8183H73.8606C73.737 13.0655 73.5516 13.3084 73.3045 13.547C73.0573 13.7856 72.7398 13.9838 72.3521 14.1414C71.9643 14.2991 71.4998 14.378 70.9586 14.378ZM71.3741 12.8439C71.9025 12.8439 72.3542 12.7395 72.7292 12.5307C73.1084 12.3218 73.3961 12.0491 73.5921 11.7125C73.7924 11.3716 73.8925 11.0072 73.8925 10.6194V9.3538C73.8244 9.42199 73.6922 9.48591 73.4962 9.54557C73.3045 9.60096 73.085 9.64997 72.8378 9.69258C72.5907 9.73094 72.3499 9.76716 72.1155 9.80125C71.8812 9.83108 71.6851 9.85664 71.5275 9.87795C71.1567 9.92483 70.818 10.0037 70.5111 10.1145C70.2086 10.2253 69.9657 10.3851 69.7824 10.5939C69.6035 10.7984 69.514 11.0711 69.514 11.412C69.514 11.8851 69.6887 12.243 70.0381 12.4859C70.3876 12.7245 70.8329 12.8439 71.3741 12.8439Z" fill="black"/>
  <path d="M65.5301 1.0697V14.1606H63.6189V1.0697H65.5301Z" fill="black"/>
  <path d="M59.1333 10.0889V4.34241H61.0509V14.1606H59.1716V12.4603H59.0694C58.8435 12.9845 58.4813 13.4212 57.9827 13.7707C57.4884 14.1158 56.8726 14.2884 56.1354 14.2884C55.5047 14.2884 54.9465 14.1499 54.4607 13.8729C53.9792 13.5917 53.5999 13.1762 53.3229 12.6265C53.0502 12.0768 52.9138 11.3971 52.9138 10.5874V4.34241H54.825V10.3573C54.825 11.0264 55.0104 11.559 55.3811 11.9553C55.7519 12.3516 56.2334 12.5498 56.8257 12.5498C57.1837 12.5498 57.5395 12.4603 57.8932 12.2813C58.2512 12.1024 58.5473 11.8318 58.7817 11.4695C59.0204 11.1073 59.1375 10.6471 59.1333 10.0889Z" fill="black"/>
  <path d="M46.8366 14.3588C45.8863 14.3588 45.0681 14.1436 44.382 13.7132C43.7002 13.2785 43.1761 12.6798 42.8096 11.917C42.4431 11.1542 42.2599 10.2807 42.2599 9.29628C42.2599 8.29912 42.4474 7.41914 42.8224 6.65636C43.1974 5.88932 43.7258 5.29059 44.4076 4.8602C45.0894 4.4298 45.8927 4.2146 46.8174 4.2146C47.5632 4.2146 48.2279 4.35309 48.8117 4.63008C49.3955 4.90281 49.8664 5.28633 50.2244 5.78065C50.5866 6.27497 50.8018 6.85238 50.87 7.5129H49.0099C48.9076 7.05267 48.6732 6.65636 48.3068 6.32397C47.9445 5.99159 47.4588 5.8254 46.8494 5.8254C46.3167 5.8254 45.8501 5.96602 45.4495 6.24727C45.0532 6.52426 44.7443 6.92057 44.5227 7.43619C44.3011 7.94755 44.1903 8.55267 44.1903 9.25153C44.1903 9.96744 44.299 10.5853 44.5163 11.1052C44.7336 11.6251 45.0404 12.0278 45.4367 12.3133C45.8373 12.5988 46.3082 12.7416 46.8494 12.7416C47.2116 12.7416 47.5397 12.6755 47.8338 12.5434C48.132 12.4071 48.3813 12.2132 48.5816 11.9618C48.7862 11.7103 48.9289 11.4078 49.0099 11.0541H50.87C50.8018 11.689 50.5951 12.2558 50.2499 12.7544C49.9048 13.253 49.4424 13.645 48.8629 13.9305C48.2876 14.216 47.6122 14.3588 46.8366 14.3588Z" fill="black"/>
  <path d="M38.2185 14.1606V4.34241H40.1297V14.1606H38.2185ZM39.1837 2.82749C38.8513 2.82749 38.5658 2.7167 38.3271 2.49511C38.0928 2.26925 37.9756 2.00079 37.9756 1.68971C37.9756 1.37437 38.0928 1.1059 38.3271 0.88431C38.5658 0.658458 38.8513 0.545532 39.1837 0.545532C39.5161 0.545532 39.7994 0.658458 40.0338 0.88431C40.2725 1.1059 40.3918 1.37437 40.3918 1.68971C40.3918 2.00079 40.2725 2.26925 40.0338 2.49511C39.7994 2.7167 39.5161 2.82749 39.1837 2.82749Z" fill="black"/>
  <path d="M36.1044 4.34239V5.87648H30.7415V4.34239H36.1044ZM32.1797 1.99011H34.0909V11.2778C34.0909 11.6485 34.1463 11.9276 34.2571 12.1151C34.3679 12.2984 34.5106 12.4241 34.6853 12.4922C34.8643 12.5562 35.0582 12.5881 35.267 12.5881C35.4204 12.5881 35.5547 12.5775 35.6697 12.5562C35.7848 12.5349 35.8743 12.5178 35.9382 12.505L36.2834 14.0839C36.1726 14.1265 36.0149 14.1691 35.8103 14.2117C35.6058 14.2586 35.3501 14.2841 35.0433 14.2884C34.5405 14.2969 34.0717 14.2074 33.6371 14.0199C33.2024 13.8324 32.8508 13.5427 32.5824 13.1506C32.3139 12.7586 32.1797 12.2664 32.1797 11.6741V1.99011Z" fill="black"/>
  <path d="M24.033 14.1606V4.34245H25.8803V5.90211H25.9825C26.1615 5.3737 26.4768 4.95822 26.9286 4.65566C27.3845 4.34884 27.9001 4.19543 28.4754 4.19543C28.5947 4.19543 28.7354 4.1997 28.8973 4.20822C29.0635 4.21674 29.1935 4.22739 29.2872 4.24018V6.0683C29.2105 6.047 29.0742 6.02356 28.8781 5.99799C28.6821 5.96816 28.4861 5.95325 28.2901 5.95325C27.8384 5.95325 27.4357 6.04913 27.082 6.24089C26.7325 6.42839 26.4555 6.69046 26.251 7.02711C26.0465 7.3595 25.9442 7.73876 25.9442 8.1649V14.1606H24.033Z" fill="black"/>
  <path d="M16.6422 14.378C16.02 14.378 15.4575 14.2629 14.9547 14.0328C14.4518 13.7984 14.0534 13.4596 13.7594 13.0164C13.4696 12.5733 13.3247 12.0299 13.3247 11.3865C13.3247 10.8325 13.4312 10.3765 13.6443 10.0186C13.8574 9.66062 14.145 9.37724 14.5072 9.16844C14.8695 8.95963 15.2743 8.80196 15.7217 8.69542C16.1692 8.58889 16.6251 8.50792 17.0896 8.45253C17.6777 8.38434 18.155 8.32895 18.5214 8.28633C18.8879 8.23946 19.1543 8.16488 19.3204 8.06261C19.4866 7.96034 19.5697 7.79415 19.5697 7.56403V7.51929C19.5697 6.96105 19.4121 6.52852 19.0967 6.2217C18.7856 5.91488 18.3212 5.76147 17.7033 5.76147C17.0598 5.76147 16.5527 5.90423 16.182 6.18974C15.8155 6.47099 15.5619 6.7842 15.4213 7.12937L13.6251 6.72028C13.8382 6.12369 14.1493 5.64216 14.5584 5.27568C14.9717 4.90494 15.4469 4.63647 15.9838 4.47028C16.5207 4.29983 17.0854 4.2146 17.6777 4.2146C18.0697 4.2146 18.4852 4.26147 18.9241 4.35522C19.3673 4.44471 19.7807 4.61091 20.1642 4.8538C20.552 5.0967 20.8695 5.444 21.1166 5.89571C21.3638 6.34315 21.4874 6.92483 21.4874 7.64074V14.1606H19.6209V12.8183H19.5442C19.4206 13.0655 19.2352 13.3084 18.9881 13.547C18.7409 13.7856 18.4234 13.9838 18.0356 14.1414C17.6479 14.2991 17.1834 14.378 16.6422 14.378ZM17.0577 12.8439C17.5861 12.8439 18.0378 12.7395 18.4128 12.5307C18.792 12.3218 19.0797 12.0491 19.2757 11.7125C19.476 11.3716 19.5761 11.0072 19.5761 10.6194V9.3538C19.5079 9.42199 19.3758 9.48591 19.1798 9.54557C18.9881 9.60096 18.7686 9.64997 18.5214 9.69258C18.2743 9.73094 18.0335 9.76716 17.7991 9.80125C17.5648 9.83108 17.3687 9.85664 17.2111 9.87795C16.8403 9.92483 16.5016 10.0037 16.1947 10.1145C15.8922 10.2253 15.6493 10.3851 15.466 10.5939C15.2871 10.7984 15.1976 11.0711 15.1976 11.412C15.1976 11.8851 15.3723 12.243 15.7217 12.4859C16.0712 12.7245 16.5165 12.8439 17.0577 12.8439Z" fill="black"/>
  <path d="M2.51257 14.1606V1.0697H7.17877C8.19723 1.0697 9.04098 1.25507 9.71002 1.62581C10.3791 1.99655 10.8798 2.50365 11.2121 3.14712C11.5445 3.78632 11.7107 4.50649 11.7107 5.30763C11.7107 6.11303 11.5424 6.83746 11.2058 7.48092C10.8734 8.12013 10.3705 8.62723 9.69723 9.00223C9.0282 9.37297 8.18658 9.55834 7.17237 9.55834H3.96357V7.88362H6.9934C7.63686 7.88362 8.15888 7.77283 8.55945 7.55124C8.96002 7.32538 9.25405 7.01857 9.44155 6.63078C9.62905 6.243 9.7228 5.80195 9.7228 5.30763C9.7228 4.81331 9.62905 4.37439 9.44155 3.99087C9.25405 3.60734 8.95789 3.30692 8.55306 3.08959C8.15249 2.87226 7.62408 2.76359 6.96783 2.76359H4.48772V14.1606H2.51257Z" fill="black"/>
  <path d="M88.8805 38.8041V25.3424H90.7917V31.0889C90.7917 31.5747 90.8961 32.0029 91.1049 32.3737C91.318 32.7444 91.6142 33.0342 91.9934 33.243C92.3769 33.4475 92.8223 33.5498 93.3294 33.5498C93.8365 33.5498 94.2796 33.4454 94.6589 33.2366C95.0424 33.0278 95.3386 32.7401 95.5474 32.3737C95.7605 32.0029 95.867 31.5747 95.867 31.0889V25.3424H97.7782V35.1606H95.899V33.7224H95.8223C95.5836 34.2082 95.2406 34.581 94.7931 34.841C94.3457 35.0967 93.8578 35.2245 93.3294 35.2245C92.8009 35.2245 92.313 35.0967 91.8656 34.841C91.4224 34.581 91.0772 34.2082 90.8301 33.7224H90.7534V38.8041H88.8805Z" fill="black"/>
  <path d="M118.344 33.3708L118.248 34.0676C118.184 34.5789 118.075 35.1116 117.922 35.6656C117.773 36.2238 117.617 36.7416 117.455 37.2189C117.298 37.6961 117.168 38.0754 117.065 38.3566H115.71C115.766 38.0924 115.842 37.7345 115.94 37.2828C116.038 36.8353 116.134 36.3346 116.228 35.7806C116.322 35.2267 116.392 34.662 116.439 34.0868L116.503 33.3708H118.344Z" fill="black"/>
  <path d="M99.949 35.1606V25.3424H101.783V26.9405H101.905C102.109 26.3993 102.444 25.9774 102.908 25.6748C103.373 25.368 103.929 25.2146 104.577 25.2146C105.233 25.2146 105.783 25.368 106.226 25.6748C106.673 25.9816 107.004 26.4035 107.217 26.9405H107.319C107.553 26.4163 107.926 25.9987 108.438 25.6876C108.949 25.3723 109.558 25.2146 110.266 25.2146C111.156 25.2146 111.883 25.4937 112.445 26.052C113.012 26.6102 113.296 27.4518 113.296 28.5768V35.1606H111.384V28.7558C111.384 28.091 111.203 27.6095 110.841 27.3112C110.479 27.0129 110.046 26.8637 109.543 26.8637C108.921 26.8637 108.438 27.0555 108.092 27.439C107.747 27.8183 107.575 28.3062 107.575 28.9028V35.1606H105.67V28.6343C105.67 28.1017 105.504 27.6734 105.171 27.3495C104.839 27.0257 104.406 26.8637 103.874 26.8637C103.511 26.8637 103.177 26.9596 102.87 27.1514C102.568 27.3389 102.323 27.601 102.135 27.9376C101.952 28.2743 101.86 28.6642 101.86 29.1074V35.1606H99.949Z" fill="black"/>
  <path d="M2.29163 60.0555V48.153H3.62165V53.2701C3.62165 53.7398 3.71933 54.1531 3.9147 54.51C4.11383 54.8632 4.39185 55.1393 4.74878 55.3384C5.10946 55.5376 5.53026 55.6371 6.01117 55.6371C6.49208 55.6371 6.911 55.5376 7.26793 55.3384C7.62861 55.1356 7.90664 54.8575 8.10201 54.5044C8.30113 54.1474 8.4007 53.736 8.4007 53.2701V48.153H9.73072V56.8094H8.4007V55.5244H8.33307C8.10013 55.979 7.77514 56.3266 7.3581 56.567C6.94106 56.8037 6.49208 56.9221 6.01117 56.9221C5.53026 56.9221 5.08128 56.8037 4.66425 56.567C4.25096 56.3266 3.92597 55.979 3.68927 55.5244H3.62165V60.0555H2.29163Z" fill="black"/>
  <path d="M44.3585 56.9671C43.6146 56.9671 42.9514 56.8393 42.3691 56.5839C41.7905 56.3284 41.3302 55.9733 40.9883 55.5187C40.6502 55.0603 40.4661 54.5287 40.436 53.9238H41.8562C41.8863 54.2958 42.014 54.617 42.2395 54.8875C42.4649 55.1543 42.7598 55.3609 43.1243 55.5074C43.4887 55.654 43.8926 55.7272 44.3359 55.7272C44.8319 55.7272 45.2714 55.6408 45.6547 55.468C46.0379 55.2952 46.3385 55.0547 46.5564 54.7466C46.7743 54.4385 46.8832 54.0816 46.8832 53.6758C46.8832 53.2513 46.778 52.8775 46.5676 52.5543C46.3573 52.2275 46.0492 51.972 45.6434 51.7879C45.2376 51.6038 44.7417 51.5117 44.1556 51.5117H43.2313V50.2719H44.1556C44.614 50.2719 45.016 50.1892 45.3616 50.0239C45.711 49.8586 45.9834 49.6257 46.1788 49.3251C46.3779 49.0245 46.4775 48.6714 46.4775 48.2656C46.4775 47.8749 46.3911 47.5348 46.2182 47.2455C46.0454 46.9562 45.8012 46.7308 45.4856 46.5693C45.1738 46.4077 44.8056 46.3269 44.381 46.3269C43.9828 46.3269 43.607 46.4002 43.2539 46.5467C42.9045 46.6895 42.6189 46.898 42.3973 47.1723C42.1756 47.4428 42.0554 47.7697 42.0366 48.1529H40.684C40.7065 47.548 40.8888 47.0182 41.2307 46.5636C41.5726 46.1053 42.0197 45.7483 42.572 45.4928C43.128 45.2374 43.7385 45.1096 44.4035 45.1096C45.1174 45.1096 45.7298 45.2543 46.2408 45.5436C46.7517 45.8291 47.1444 46.2067 47.4186 46.6763C47.6929 47.146 47.83 47.6532 47.83 48.198C47.83 48.8479 47.6591 49.4021 47.3172 49.8605C46.9791 50.3189 46.5188 50.6363 45.9365 50.8129V50.9031C46.6653 51.0233 47.2345 51.3333 47.6441 51.833C48.0536 52.3289 48.2584 52.9432 48.2584 53.6758C48.2584 54.3033 48.0874 54.8669 47.7455 55.3665C47.4074 55.8625 46.9452 56.2532 46.3591 56.5388C45.773 56.8243 45.1061 56.9671 44.3585 56.9671Z" fill="black"/>
  <path d="M26.6879 56.8093V48.1529H27.9728V49.5054H28.0855C28.2659 49.0433 28.557 48.6845 28.959 48.429C29.3611 48.1698 29.8438 48.0402 30.4074 48.0402C30.9785 48.0402 31.4538 48.1698 31.8332 48.429C32.2165 48.6845 32.5152 49.0433 32.7293 49.5054H32.8195C33.0412 49.0583 33.3737 48.7033 33.817 48.4403C34.2603 48.1735 34.792 48.0402 35.4119 48.0402C36.1859 48.0402 36.8189 48.2825 37.3111 48.7672C37.8033 49.2481 38.0494 49.9976 38.0494 51.0158V56.8093H36.7194V51.0158C36.7194 50.3771 36.5447 49.9206 36.1952 49.6463C35.8458 49.3721 35.4344 49.2349 34.961 49.2349C34.3524 49.2349 33.8809 49.419 33.5465 49.7872C33.2121 50.1517 33.0449 50.6138 33.0449 51.1736V56.8093H31.6923V50.8805C31.6923 50.3884 31.5327 49.992 31.2133 49.6914C30.894 49.3871 30.4826 49.2349 29.9791 49.2349C29.6334 49.2349 29.3103 49.327 29.0098 49.5111C28.713 49.6952 28.4725 49.9507 28.2884 50.2775C28.1081 50.6006 28.0179 50.9745 28.0179 51.399V56.8093H26.6879Z" fill="black"/>
  <path d="M25.1113 44.7264L21.3917 58.5451H20.1744L23.894 44.7264H25.1113Z" fill="black"/>
  <path d="M14.8544 60.2358C14.2119 60.2358 13.6596 60.1531 13.1975 59.9878C12.7353 59.8262 12.3502 59.6121 12.0422 59.3453C11.7378 59.0823 11.4955 58.8005 11.3152 58.5L12.3747 57.7561C12.4949 57.9139 12.647 58.0942 12.8311 58.2971C13.0152 58.5037 13.267 58.6822 13.5863 58.8325C13.9094 58.9865 14.3321 59.0635 14.8544 59.0635C15.5532 59.0635 16.1299 58.8945 16.5845 58.5563C17.0391 58.2182 17.2664 57.6884 17.2664 56.9671V55.2087H17.1537C17.056 55.3665 16.917 55.5619 16.7367 55.7948C16.5601 56.024 16.3046 56.2288 15.9702 56.4091C15.6396 56.5857 15.1925 56.674 14.6289 56.674C13.9301 56.674 13.3027 56.5087 12.7466 56.1781C12.1943 55.8474 11.7566 55.3665 11.4335 54.7353C11.1141 54.1041 10.9545 53.3377 10.9545 52.436C10.9545 51.5493 11.1104 50.7772 11.4222 50.1197C11.7341 49.4585 12.168 48.9475 12.7241 48.5868C13.2801 48.2224 13.9226 48.0402 14.6515 48.0402C15.215 48.0402 15.6621 48.1341 15.9928 48.3219C16.3271 48.506 16.5826 48.7164 16.7592 48.9531C16.9396 49.1861 17.0786 49.3777 17.1763 49.528H17.3115V48.1529H18.5964V57.0572C18.5964 57.8011 18.4274 58.406 18.0892 58.8719C17.7548 59.3416 17.304 59.6853 16.7367 59.9033C16.1731 60.1249 15.5457 60.2358 14.8544 60.2358ZM14.8093 55.4793C15.3428 55.4793 15.7936 55.3571 16.1618 55.1129C16.53 54.8687 16.8099 54.5174 17.0015 54.0591C17.1932 53.6007 17.289 53.0522 17.289 52.4134C17.289 51.7898 17.195 51.2393 17.0072 50.7622C16.8193 50.285 16.5413 49.9112 16.1731 49.6407C15.8049 49.3702 15.3503 49.2349 14.8093 49.2349C14.2457 49.2349 13.7761 49.3777 13.4004 49.6632C13.0284 49.9488 12.7485 50.332 12.5606 50.8129C12.3765 51.2938 12.2845 51.8273 12.2845 52.4134C12.2845 53.0146 12.3784 53.5462 12.5663 54.0083C12.7579 54.4667 13.0397 54.8274 13.4116 55.0904C13.7873 55.3496 14.2532 55.4793 14.8093 55.4793Z" fill="black"/>
  <path d="M27.1088 72.9619H0.875366V193.572H27.1088V72.9619Z" fill="url(#paint0_linear_0_1)"/>
  <path fill-rule="evenodd" clip-rule="evenodd" d="M0.715454 72.802H27.2688V193.732H0.715454V72.802ZM1.03537 73.1219V193.412H26.9489V73.1219H1.03537Z" fill="black"/>
  <path d="M57.9967 75.3726V87.006H56.5879V76.8495H56.5198L53.6796 78.7354V77.3039L56.5879 75.3726H57.9967Z" fill="black"/>
  <path d="M47.6527 87.1651C46.9028 87.1651 46.2344 87.0363 45.6475 86.7788C45.0643 86.5213 44.6004 86.1634 44.2558 85.7052C43.915 85.2432 43.7294 84.7073 43.6991 84.0976H45.1306C45.1609 84.4725 45.2896 84.7963 45.5168 85.069C45.744 85.3379 46.0413 85.5461 46.4086 85.6938C46.776 85.8415 47.1831 85.9154 47.6299 85.9154C48.1298 85.9154 48.5729 85.8283 48.9591 85.6541C49.3454 85.4799 49.6484 85.2375 49.868 84.927C50.0876 84.6164 50.1975 84.2567 50.1975 83.8477C50.1975 83.4198 50.0914 83.043 49.8794 82.7173C49.6673 82.3878 49.3568 82.1303 48.9478 81.9448C48.5388 81.7592 48.0389 81.6664 47.4482 81.6664H46.5166V80.4167H47.4482C47.9102 80.4167 48.3154 80.3334 48.6638 80.1668C49.0159 80.0002 49.2905 79.7654 49.4874 79.4624C49.6881 79.1595 49.7885 78.8035 49.7885 78.3945C49.7885 78.0007 49.7014 77.658 49.5272 77.3664C49.353 77.0748 49.1068 76.8476 48.7887 76.6847C48.4744 76.5219 48.1033 76.4405 47.6754 76.4405C47.274 76.4405 46.8953 76.5143 46.5393 76.662C46.1871 76.8059 45.8993 77.0161 45.6759 77.2925C45.4524 77.5652 45.3313 77.8946 45.3123 78.2809H43.949C43.9718 77.6712 44.1554 77.1373 44.5 76.679C44.8446 76.217 45.2953 75.8573 45.852 75.5998C46.4124 75.3423 47.0278 75.2135 47.6981 75.2135C48.4176 75.2135 49.0349 75.3593 49.5499 75.6509C50.0649 75.9387 50.4607 76.3193 50.7371 76.7927C51.0136 77.266 51.1518 77.7773 51.1518 78.3264C51.1518 78.9815 50.9795 79.5401 50.6349 80.0021C50.294 80.4641 49.8301 80.7841 49.2432 80.9621V81.0529C49.9778 81.1741 50.5515 81.4865 50.9643 81.9902C51.3771 82.4901 51.5835 83.1092 51.5835 83.8477C51.5835 84.4801 51.4112 85.0482 51.0666 85.5518C50.7257 86.0517 50.26 86.4455 49.6692 86.7333C49.0784 87.0211 48.4063 87.1651 47.6527 87.1651Z" fill="black"/>
  <path d="M40.3761 75.3726V87.006H38.9673V76.8495H38.8992L36.059 78.7354V77.3039L38.9673 75.3726H40.3761Z" fill="black"/>
  <path d="M49.7217 176.933C50.1988 176.937 50.676 177.028 51.1532 177.206C51.6303 177.384 52.0658 177.679 52.4596 178.092C52.8535 178.501 53.1697 179.059 53.4083 179.767C53.6468 180.476 53.7661 181.364 53.7661 182.432C53.7661 183.465 53.6677 184.384 53.4708 185.187C53.2776 185.986 52.9974 186.66 52.6301 187.209C52.2665 187.758 51.8234 188.174 51.3008 188.458C50.782 188.743 50.1951 188.885 49.5399 188.885C48.8886 188.885 48.3073 188.756 47.796 188.498C47.2886 188.237 46.872 187.875 46.5464 187.413C46.2245 186.948 46.0181 186.408 45.9272 185.794H47.3132C47.4382 186.328 47.6862 186.77 48.0573 187.118C48.4322 187.463 48.9264 187.635 49.5399 187.635C50.4374 187.635 51.1456 187.243 51.6644 186.459C52.187 185.675 52.4483 184.567 52.4483 183.136H52.3574C52.1453 183.454 51.8935 183.729 51.6019 183.96C51.3103 184.191 50.9865 184.369 50.6306 184.494C50.2746 184.619 49.8959 184.681 49.4945 184.681C48.828 184.681 48.2164 184.516 47.6597 184.187C47.1068 183.854 46.6637 183.397 46.3305 182.818C46.001 182.235 45.8363 181.568 45.8363 180.818C45.8363 180.106 45.9954 179.455 46.3135 178.864C46.6353 178.27 47.086 177.796 47.6654 177.444C48.2486 177.092 48.934 176.922 49.7217 176.933ZM49.7217 178.183C49.2445 178.183 48.8147 178.302 48.4322 178.541C48.0536 178.775 47.7525 179.093 47.5291 179.495C47.3094 179.892 47.1996 180.334 47.1996 180.818C47.1996 181.303 47.3056 181.744 47.5177 182.142C47.7336 182.536 48.027 182.85 48.3982 183.085C48.7731 183.316 49.1991 183.431 49.6763 183.431C50.036 183.431 50.3712 183.361 50.6817 183.221C50.9922 183.077 51.263 182.882 51.494 182.636C51.7288 182.386 51.9124 182.104 52.045 181.79C52.1775 181.472 52.2438 181.14 52.2438 180.796C52.2438 180.341 52.134 179.915 51.9143 179.518C51.6985 179.12 51.3993 178.798 51.0168 178.552C50.6381 178.306 50.2064 178.183 49.7217 178.183Z" fill="black"/>
  <path d="M39.9216 188.885C39.2551 188.885 38.6548 188.752 38.1209 188.487C37.5869 188.222 37.159 187.858 36.8371 187.396C36.5152 186.934 36.3391 186.408 36.3088 185.817H37.6721C37.7251 186.344 37.9637 186.779 38.3879 187.124C38.8158 187.464 39.327 187.635 39.9216 187.635C40.3987 187.635 40.8229 187.523 41.194 187.3C41.5689 187.076 41.8624 186.77 42.0744 186.379C42.2903 185.986 42.3982 185.541 42.3982 185.045C42.3982 184.537 42.2865 184.085 42.0631 183.687C41.8434 183.286 41.5405 182.969 41.1542 182.738C40.7679 182.507 40.3268 182.39 39.8307 182.386C39.4747 182.382 39.1093 182.437 38.7344 182.551C38.3595 182.661 38.0508 182.803 37.8085 182.977L36.4906 182.818L37.195 177.092H43.2389V178.342H38.3765L37.9675 181.773H38.0357C38.2743 181.583 38.5734 181.426 38.9332 181.301C39.2929 181.176 39.6678 181.114 40.0579 181.114C40.7698 181.114 41.4042 181.284 41.9608 181.625C42.5213 181.962 42.9606 182.424 43.2787 183.011C43.6006 183.598 43.7615 184.268 43.7615 185.022C43.7615 185.764 43.5949 186.427 43.2616 187.01C42.9322 187.589 42.4777 188.048 41.8983 188.385C41.3189 188.718 40.66 188.885 39.9216 188.885Z" fill="black"/>
  <defs>
    <linearGradient id="paint0_linear_0_1" x1="-6.48279" y1="194.04" x2="-6.48279" y2="73.1257" gradientUnits="userSpaceOnUse">
      <stop stop-color="#717174"/>
      <stop offset="0.2" stop-color="#8A8779"/>
      <stop offset="0.510338" stop-color="#A79E75"/>
      <stop offset="0.6" stop-color="#C5B56C"/>
      <stop offset="0.8" stop-color="#E5D05A"/>
      <stop offset="1" stop-color="#FFEA46"/>
    </linearGradient>
  </defs>
</svg>