<svg width="156" height="181" viewBox="0 0 156 181" fill="none" xmlns="http://www.w3.org/2000/svg">
  <path d="M9.79236 9.0277C9.72418 8.42258 9.44293 7.95383 8.94861 7.62145C8.45429 7.2848 7.83213 7.11648 7.08213 7.11648C6.5452 7.11648 6.08071 7.2017 5.68867 7.37216C5.29662 7.53835 4.99193 7.76847 4.7746 8.0625C4.56153 8.35227 4.455 8.68253 4.455 9.05327C4.455 9.36435 4.52744 9.63281 4.67233 9.85866C4.82148 10.0845 5.01537 10.2741 5.25401 10.4276C5.4969 10.5767 5.75685 10.7024 6.03384 10.8047C6.31082 10.9027 6.57716 10.9837 6.83284 11.0476L8.11125 11.38C8.52886 11.4822 8.95713 11.6207 9.39605 11.7955C9.83497 11.9702 10.2419 12.2003 10.6169 12.4858C10.9919 12.7713 11.2945 13.125 11.5246 13.5469C11.759 13.9688 11.8762 14.4737 11.8762 15.0618C11.8762 15.8033 11.6844 16.4616 11.3009 17.0369C10.9216 17.6122 10.3698 18.0661 9.64534 18.3984C8.92517 18.7308 8.05372 18.897 7.03099 18.897C6.05088 18.897 5.20287 18.7415 4.48696 18.4304C3.77105 18.1193 3.21068 17.6783 2.80585 17.1072C2.40102 16.532 2.1773 15.8501 2.13469 15.0618H4.11622C4.15457 15.5348 4.30798 15.929 4.57645 16.2443C4.84918 16.5554 5.19648 16.7876 5.61835 16.9411C6.04449 17.0902 6.51111 17.1648 7.01821 17.1648C7.57645 17.1648 8.0729 17.0774 8.50756 16.9027C8.94648 16.7237 9.29165 16.4766 9.54307 16.1612C9.79449 15.8416 9.9202 15.4687 9.9202 15.0426C9.9202 14.6548 9.8094 14.3374 9.58781 14.0902C9.37048 13.843 9.07432 13.6385 8.69932 13.4766C8.32858 13.3146 7.90884 13.1719 7.44009 13.0483L5.89321 12.6264C4.84492 12.3409 4.01395 11.9212 3.40031 11.3672C2.79094 10.8132 2.48625 10.0803 2.48625 9.16832C2.48625 8.41406 2.6908 7.75568 3.09989 7.19318C3.50898 6.63068 4.06296 6.19389 4.76182 5.88281C5.46068 5.56747 6.24903 5.4098 7.12688 5.4098C8.01324 5.4098 8.7952 5.56534 9.47276 5.87642C10.1546 6.1875 10.6915 6.61577 11.0836 7.16122C11.4756 7.70241 11.6801 8.32457 11.6972 9.0277H9.79236ZM20.3025 14.608V8.86151H22.2201V18.6797H20.3408V16.9794H20.2386C20.0127 17.5036 19.6505 17.9403 19.1519 18.2898C18.6576 18.6349 18.0418 18.8075 17.3046 18.8075C16.6739 18.8075 16.1157 18.669 15.6299 18.392C15.1484 18.1108 14.7691 17.6953 14.4921 17.1456C14.2194 16.5959 14.083 15.9162 14.083 15.1065V8.86151H15.9942V14.8764C15.9942 15.5455 16.1796 16.0781 16.5503 16.4744C16.9211 16.8707 17.4026 17.0689 17.995 17.0689C18.3529 17.0689 18.7087 16.9794 19.0624 16.8004C19.4204 16.6214 19.7165 16.3509 19.9509 15.9886C20.1896 15.6264 20.3067 15.1662 20.3025 14.608ZM26.6993 5.58878V18.6797H24.7881V5.58878H26.6993ZM33.9431 8.86151V10.3956H28.3948V8.86151H33.9431ZM29.9161 18.6797V7.72372C29.9161 7.11008 30.0503 6.60085 30.3188 6.19602C30.5873 5.78693 30.9431 5.48224 31.3863 5.28196C31.8295 5.07741 32.311 4.97514 32.8309 4.97514C33.2144 4.97514 33.5425 5.0071 33.8153 5.07102C34.088 5.13068 34.2904 5.18608 34.4225 5.23722L33.9751 6.78409C33.8856 6.75852 33.7705 6.72869 33.6299 6.6946C33.4893 6.65625 33.3188 6.63707 33.1185 6.63707C32.654 6.63707 32.3217 6.75213 32.1214 6.98224C31.9253 7.21236 31.8273 7.54474 31.8273 7.9794V18.6797H29.9161ZM42.1345 14.608V8.86151H44.0521V18.6797H42.1729V16.9794H42.0706C41.8447 17.5036 41.4825 17.9403 40.9839 18.2898C40.4896 18.6349 39.8739 18.8075 39.1366 18.8075C38.506 18.8075 37.9477 18.669 37.4619 18.392C36.9804 18.1108 36.6011 17.6953 36.3241 17.1456C36.0514 16.5959 35.9151 15.9162 35.9151 15.1065V8.86151H37.8263V14.8764C37.8263 15.5455 38.0116 16.0781 38.3824 16.4744C38.7531 16.8707 39.2347 17.0689 39.827 17.0689C40.1849 17.0689 40.5408 16.9794 40.8945 16.8004C41.2524 16.6214 41.5486 16.3509 41.7829 15.9886C42.0216 15.6264 42.1388 15.1662 42.1345 14.608ZM46.6201 18.6797V8.86151H48.4674V10.4212H48.5697C48.7487 9.89276 49.064 9.47727 49.5157 9.17472C49.9717 8.8679 50.4873 8.71449 51.0626 8.71449C51.1819 8.71449 51.3225 8.71875 51.4845 8.72727C51.6507 8.73579 51.7806 8.74645 51.8744 8.75923V10.5874C51.7977 10.5661 51.6613 10.5426 51.4653 10.517C51.2693 10.4872 51.0733 10.4723 50.8772 10.4723C50.4255 10.4723 50.0228 10.5682 49.6691 10.7599C49.3197 10.9474 49.0427 11.2095 48.8382 11.5462C48.6336 11.8786 48.5314 12.2578 48.5314 12.6839V18.6797H46.6201ZM61.9674 18.8714C61.1748 18.8714 60.4674 18.669 59.8453 18.2642C59.2274 17.8551 58.7416 17.2734 58.3879 16.5192C58.0385 15.7607 57.8637 14.8509 57.8637 13.7898C57.8637 12.7287 58.0406 11.821 58.3943 11.0668C58.7522 10.3125 59.2423 9.73509 59.8644 9.33452C60.4866 8.93395 61.1919 8.73366 61.9802 8.73366C62.5896 8.73366 63.0796 8.83594 63.4504 9.04048C63.8254 9.24077 64.1152 9.47514 64.3197 9.74361C64.5285 10.0121 64.6904 10.2486 64.8055 10.4531H64.9206V5.58878H66.8318V18.6797H64.9653V17.152H64.8055C64.6904 17.3608 64.5242 17.5994 64.3069 17.8679C64.0938 18.1364 63.7998 18.3707 63.4248 18.571C63.0498 18.7713 62.564 18.8714 61.9674 18.8714ZM62.3893 17.2415C62.939 17.2415 63.4035 17.0966 63.7828 16.8068C64.1663 16.5128 64.4561 16.1058 64.6521 15.5859C64.8524 15.0661 64.9525 14.4609 64.9525 13.7706C64.9525 13.0888 64.8545 12.4922 64.6585 11.9808C64.4625 11.4695 64.1748 11.071 63.7956 10.7855C63.4163 10.5 62.9475 10.3572 62.3893 10.3572C61.814 10.3572 61.3346 10.5064 60.9511 10.8047C60.5676 11.103 60.2778 11.5099 60.0818 12.0256C59.89 12.5412 59.7941 13.1229 59.7941 13.7706C59.7941 14.4268 59.8921 15.017 60.0882 15.5412C60.2842 16.0653 60.574 16.4808 60.9575 16.7876C61.3453 17.0902 61.8225 17.2415 62.3893 17.2415ZM69.5596 18.6797V8.86151H71.4708V18.6797H69.5596ZM70.5248 7.34659C70.1924 7.34659 69.9069 7.23579 69.6682 7.0142C69.4339 6.78835 69.3167 6.51989 69.3167 6.20881C69.3167 5.89347 69.4339 5.625 69.6682 5.40341C69.9069 5.17756 70.1924 5.06463 70.5248 5.06463C70.8572 5.06463 71.1405 5.17756 71.3749 5.40341C71.6136 5.625 71.7329 5.89347 71.7329 6.20881C71.7329 6.51989 71.6136 6.78835 71.3749 7.0142C71.1405 7.23579 70.8572 7.34659 70.5248 7.34659ZM78.1777 18.8778C77.2572 18.8778 76.4539 18.6669 75.7679 18.245C75.0818 17.8232 74.5491 17.233 74.1698 16.4744C73.7906 15.7159 73.601 14.8295 73.601 13.8153C73.601 12.7969 73.7906 11.9062 74.1698 11.1435C74.5491 10.3807 75.0818 9.78835 75.7679 9.36648C76.4539 8.9446 77.2572 8.73366 78.1777 8.73366C79.0981 8.73366 79.9014 8.9446 80.5875 9.36648C81.2735 9.78835 81.8062 10.3807 82.1855 11.1435C82.5647 11.9062 82.7544 12.7969 82.7544 13.8153C82.7544 14.8295 82.5647 15.7159 82.1855 16.4744C81.8062 17.233 81.2735 17.8232 80.5875 18.245C79.9014 18.6669 79.0981 18.8778 78.1777 18.8778ZM78.184 17.2734C78.7806 17.2734 79.275 17.1158 79.667 16.8004C80.059 16.4851 80.3488 16.0653 80.5363 15.5412C80.7281 15.017 80.824 14.4396 80.824 13.8089C80.824 13.1825 80.7281 12.6072 80.5363 12.0831C80.3488 11.5547 80.059 11.1307 79.667 10.8111C79.275 10.4915 78.7806 10.3317 78.184 10.3317C77.5832 10.3317 77.0846 10.4915 76.6883 10.8111C76.2963 11.1307 76.0044 11.5547 75.8126 12.0831C75.6251 12.6072 75.5314 13.1825 75.5314 13.8089C75.5314 14.4396 75.6251 15.017 75.8126 15.5412C76.0044 16.0653 76.2963 16.4851 76.6883 16.8004C77.0846 17.1158 77.5832 17.2734 78.184 17.2734ZM86.0095 8.86151L88.1764 12.6839L90.3625 8.86151H92.4527L89.3909 13.7706L92.4783 18.6797H90.3881L88.1764 15.0107L85.9712 18.6797H83.8746L86.93 13.7706L83.9129 8.86151H86.0095ZM94.4151 18.6797V8.86151H96.3263V18.6797H94.4151ZM95.3802 7.34659C95.0479 7.34659 94.7624 7.23579 94.5237 7.0142C94.2893 6.78835 94.1722 6.51989 94.1722 6.20881C94.1722 5.89347 94.2893 5.625 94.5237 5.40341C94.7624 5.17756 95.0479 5.06463 95.3802 5.06463C95.7126 5.06463 95.996 5.17756 96.2304 5.40341C96.469 5.625 96.5883 5.89347 96.5883 6.20881C96.5883 6.51989 96.469 6.78835 96.2304 7.0142C95.996 7.23579 95.7126 7.34659 95.3802 7.34659ZM102.573 18.8714C101.78 18.8714 101.073 18.669 100.451 18.2642C99.8328 17.8551 99.347 17.2734 98.9934 16.5192C98.6439 15.7607 98.4692 14.8509 98.4692 13.7898C98.4692 12.7287 98.6461 11.821 98.9997 11.0668C99.3577 10.3125 99.8478 9.73509 100.47 9.33452C101.092 8.93395 101.797 8.73366 102.586 8.73366C103.195 8.73366 103.685 8.83594 104.056 9.04048C104.431 9.24077 104.721 9.47514 104.925 9.74361C105.134 10.0121 105.296 10.2486 105.411 10.4531H105.526V5.58878H107.437V18.6797H105.571V17.152H105.411C105.296 17.3608 105.13 17.5994 104.912 17.8679C104.699 18.1364 104.405 18.3707 104.03 18.571C103.655 18.7713 103.169 18.8714 102.573 18.8714ZM102.995 17.2415C103.544 17.2415 104.009 17.0966 104.388 16.8068C104.772 16.5128 105.062 16.1058 105.258 15.5859C105.458 15.0661 105.558 14.4609 105.558 13.7706C105.558 13.0888 105.46 12.4922 105.264 11.9808C105.068 11.4695 104.78 11.071 104.401 10.7855C104.022 10.5 103.553 10.3572 102.995 10.3572C102.419 10.3572 101.94 10.5064 101.557 10.8047C101.173 11.103 100.883 11.5099 100.687 12.0256C100.495 12.5412 100.4 13.1229 100.4 13.7706C100.4 14.4268 100.498 15.017 100.694 15.5412C100.89 16.0653 101.179 16.4808 101.563 16.7876C101.951 17.0902 102.428 17.2415 102.995 17.2415ZM114.397 18.8778C113.429 18.8778 112.596 18.6712 111.897 18.2578C111.203 17.8402 110.666 17.2543 110.286 16.5C109.911 15.7415 109.724 14.853 109.724 13.8345C109.724 12.8288 109.911 11.9425 110.286 11.1754C110.666 10.4084 111.194 9.80966 111.872 9.37926C112.554 8.94886 113.35 8.73366 114.262 8.73366C114.816 8.73366 115.353 8.82528 115.873 9.00852C116.393 9.19176 116.86 9.4794 117.273 9.87145C117.686 10.2635 118.012 10.7727 118.251 11.3991C118.49 12.0213 118.609 12.7777 118.609 13.6683V14.3459H110.804V12.9141H116.736C116.736 12.4112 116.634 11.9659 116.429 11.5781C116.225 11.1861 115.937 10.8771 115.566 10.6513C115.2 10.4254 114.769 10.3125 114.275 10.3125C113.738 10.3125 113.269 10.4446 112.869 10.7088C112.473 10.9687 112.166 11.3097 111.948 11.7315C111.735 12.1491 111.629 12.603 111.629 13.093V14.2116C111.629 14.8679 111.744 15.4261 111.974 15.8864C112.208 16.3466 112.534 16.6982 112.952 16.9411C113.37 17.1797 113.858 17.299 114.416 17.299C114.778 17.299 115.108 17.2479 115.407 17.1456C115.705 17.0391 115.963 16.8814 116.18 16.6726C116.397 16.4638 116.563 16.206 116.679 15.8991L118.487 16.2251C118.343 16.7578 118.083 17.2244 117.708 17.625C117.337 18.0213 116.87 18.3303 116.308 18.5518C115.75 18.7692 115.112 18.8778 114.397 18.8778ZM123.216 16.8899L123.12 17.5866C123.056 18.098 122.948 18.6307 122.794 19.1847C122.645 19.7429 122.489 20.2607 122.328 20.7379C122.17 21.2152 122.04 21.5945 121.938 21.8757H120.582C120.638 21.6115 120.715 21.2536 120.813 20.8018C120.911 20.3544 121.006 19.8537 121.1 19.2997C121.194 18.7457 121.264 18.1811 121.311 17.6058L121.375 16.8899H123.216Z" fill="black"/>
  <path d="M2.43154 38.3284V29.672H3.71647V31.0245H3.82919C4.00953 30.5624 4.3007 30.2036 4.70272 29.9481C5.10473 29.6889 5.58752 29.5593 6.15108 29.5593C6.72217 29.5593 7.19744 29.6889 7.57691 29.9481C7.96014 30.2036 8.25883 30.5624 8.47298 31.0245H8.56315C8.78482 30.5774 9.11733 30.2224 9.56067 29.9594C10.004 29.6926 10.5356 29.5593 11.1556 29.5593C11.9295 29.5593 12.5626 29.8016 13.0548 30.2863C13.547 30.7672 13.7931 31.5167 13.7931 32.5349V38.3284H12.463V32.5349C12.463 31.8962 12.2883 31.4397 11.9389 31.1654C11.5895 30.8912 11.1781 30.754 10.7047 30.754C10.0961 30.754 9.62454 30.9381 9.29016 31.3063C8.95577 31.6708 8.78858 32.1329 8.78858 32.6927V38.3284H7.43602V32.3996C7.43602 31.9075 7.27634 31.5111 6.95699 31.2105C6.63763 30.9062 6.22623 30.754 5.72277 30.754C5.37712 30.754 5.05401 30.8461 4.75344 31.0302C4.45663 31.2143 4.21617 31.4698 4.03207 31.7966C3.85173 32.1197 3.76156 32.4936 3.76156 32.9181V38.3284H2.43154ZM19.719 41.7549C19.0765 41.7549 18.5242 41.6722 18.0621 41.5069C17.6 41.3453 17.2149 41.1312 16.9068 40.8644C16.6024 40.6014 16.3601 40.3196 16.1798 40.0191L17.2393 39.2752C17.3595 39.433 17.5117 39.6133 17.6958 39.8162C17.8799 40.0228 18.1316 40.2013 18.4509 40.3516C18.7741 40.5056 19.1967 40.5826 19.719 40.5826C20.4178 40.5826 20.9945 40.4136 21.4491 40.0754C21.9037 39.7373 22.131 39.2075 22.131 38.4862V36.7278H22.0183C21.9206 36.8856 21.7816 37.081 21.6013 37.3139C21.4247 37.5431 21.1692 37.7479 20.8348 37.9282C20.5042 38.1048 20.0571 38.1931 19.4935 38.1931C18.7947 38.1931 18.1673 38.0278 17.6112 37.6972C17.0589 37.3665 16.6212 36.8856 16.2981 36.2544C15.9788 35.6232 15.8191 34.8568 15.8191 33.9551C15.8191 33.0684 15.975 32.2963 16.2868 31.6388C16.5987 30.9776 17.0326 30.4666 17.5887 30.1059C18.1447 29.7415 18.7872 29.5593 19.5161 29.5593C20.0797 29.5593 20.5268 29.6532 20.8574 29.841C21.1918 30.0251 21.4472 30.2355 21.6238 30.4722C21.8042 30.7052 21.9432 30.8968 22.0409 31.0471H22.1761V29.672H23.4611V38.5763C23.4611 39.3202 23.292 39.9251 22.9538 40.391C22.6195 40.8607 22.1686 41.2044 21.6013 41.4224C21.0377 41.644 20.4103 41.7549 19.719 41.7549ZM19.6739 36.9983C20.2074 36.9983 20.6583 36.8762 21.0264 36.632C21.3946 36.3878 21.6746 36.0365 21.8662 35.5782C22.0578 35.1198 22.1536 34.5713 22.1536 33.9325C22.1536 33.3089 22.0597 32.7584 21.8718 32.2813C21.6839 31.8041 21.4059 31.4303 21.0377 31.1598C20.6695 30.8893 20.2149 30.754 19.6739 30.754C19.1103 30.754 18.6407 30.8968 18.265 31.1823C17.893 31.4679 17.6131 31.8511 17.4253 32.332C17.2412 32.8129 17.1491 33.3464 17.1491 33.9325C17.1491 34.5337 17.243 35.0653 17.4309 35.5274C17.6225 35.9858 17.9043 36.3465 18.2762 36.6095C18.652 36.8687 19.1178 36.9983 19.6739 36.9983ZM29.9759 26.2455L26.2564 40.0642H25.039L28.7586 26.2455H29.9759ZM31.5525 38.3284V29.672H32.8374V31.0245H32.9501C33.1305 30.5624 33.4216 30.2036 33.8237 29.9481C34.2257 29.6889 34.7085 29.5593 35.272 29.5593C35.8431 29.5593 36.3184 29.6889 36.6978 29.9481C37.0811 30.2036 37.3798 30.5624 37.5939 31.0245H37.6841C37.9058 30.5774 38.2383 30.2224 38.6816 29.9594C39.1249 29.6926 39.6566 29.5593 40.2765 29.5593C41.0505 29.5593 41.6835 29.8016 42.1757 30.2863C42.6679 30.7672 42.914 31.5167 42.914 32.5349V38.3284H41.584V32.5349C41.584 31.8962 41.4093 31.4397 41.0599 31.1654C40.7104 30.8912 40.299 30.754 39.8256 30.754C39.217 30.754 38.7455 30.9381 38.4111 31.3063C38.0767 31.6708 37.9095 32.1329 37.9095 32.6927V38.3284H36.557V32.3996C36.557 31.9075 36.3973 31.5111 36.0779 31.2105C35.7586 30.9062 35.3472 30.754 34.8437 30.754C34.4981 30.754 34.1749 30.8461 33.8744 31.0302C33.5776 31.2143 33.3371 31.4698 33.153 31.7966C32.9727 32.1197 32.8825 32.4936 32.8825 32.9181V38.3284H31.5525ZM45.3232 38.3284V37.3139L49.133 33.1435C49.5801 32.6551 49.9483 32.2306 50.2376 31.8699C50.5269 31.5054 50.741 31.1635 50.88 30.8442C51.0228 30.5211 51.0942 30.1829 51.0942 29.8298C51.0942 29.424 50.9965 29.0727 50.8011 28.7759C50.6095 28.4791 50.3465 28.2499 50.0121 28.0883C49.6777 27.9268 49.302 27.846 48.885 27.846C48.4417 27.846 48.0547 27.9381 47.724 28.1222C47.3972 28.3025 47.1436 28.5561 46.9632 28.883C46.7866 29.2098 46.6984 29.5931 46.6984 30.0327H45.3683C45.3683 29.3564 45.5243 28.7628 45.8361 28.2518C46.1479 27.7408 46.5725 27.3426 47.1098 27.057C47.6508 26.7715 48.2576 26.6287 48.9301 26.6287C49.6064 26.6287 50.2056 26.7715 50.7279 27.057C51.2501 27.3426 51.6596 27.7277 51.9564 28.2123C52.2533 28.697 52.4017 29.2361 52.4017 29.8298C52.4017 30.2543 52.3246 30.6695 52.1706 31.0753C52.0203 31.4773 51.7573 31.9262 51.3816 32.4222C51.0096 32.9144 50.493 33.5155 49.8318 34.2256L47.2394 36.9983V37.0885H52.6045V38.3284H45.3232Z" fill="black"/>
  <path d="M27.2487 56.6782H1.01526V177.288H27.2487V56.6782Z" fill="url(#paint0_linear_0_1)" stroke="black" stroke-width="0.31992" stroke-miterlimit="2" stroke-linecap="square"/>
  <path d="M40.5157 59.2273V70.8607H39.1069V60.7042H39.0388L36.1986 62.5901V61.1586L39.1069 59.2273H40.5157ZM44.225 70.8607L49.4282 60.5678V60.477H43.4297V59.2273H50.8824V60.5451L45.7019 70.8607H44.225ZM53.0225 69.2702L52.9316 69.8837C52.8672 70.3154 52.7688 70.7774 52.6362 71.2697C52.5075 71.762 52.373 72.2259 52.2329 72.6614C52.0928 73.0969 51.9773 73.4434 51.8864 73.7009H50.8639C50.9132 73.4586 50.9776 73.1386 51.0571 72.7409C51.1366 72.3433 51.2161 71.8983 51.2957 71.406C51.379 70.9175 51.4471 70.4176 51.5001 69.9064L51.5683 69.2702H53.0225ZM58.8847 71.0198C58.2182 71.0198 57.6179 70.8872 57.084 70.6221C56.55 70.3571 56.1221 69.9935 55.8002 69.5315C55.4783 69.0695 55.3022 68.5431 55.2719 67.9524H56.6352C56.6882 68.4787 56.9268 68.9142 57.351 69.2588C57.7789 69.5997 58.2901 69.7701 58.8847 69.7701C59.3618 69.7701 59.7859 69.6584 60.1571 69.4349C60.532 69.2115 60.8255 68.9048 61.0375 68.5147C61.2534 68.1209 61.3613 67.6759 61.3613 67.1798C61.3613 66.6724 61.2496 66.2198 61.0262 65.8222C60.8065 65.4208 60.5036 65.1046 60.1173 64.8736C59.731 64.6426 59.2899 64.5252 58.7938 64.5214C58.4378 64.5176 58.0724 64.5725 57.6975 64.6861C57.3226 64.796 57.0139 64.938 56.7716 65.1122L55.4537 64.9531L56.1581 59.2273H62.202V60.477H57.3396L56.9306 63.9079H56.9988C57.2373 63.7186 57.5365 63.5614 57.8963 63.4364C58.256 63.3115 58.6309 63.249 59.021 63.249C59.7329 63.249 60.3672 63.4194 60.9239 63.7602C61.4844 64.0973 61.9237 64.5593 62.2418 65.1462C62.5637 65.7332 62.7246 66.4035 62.7246 67.1571C62.7246 67.8993 62.558 68.5621 62.2247 69.1452C61.8953 69.7246 61.4408 70.1829 60.8614 70.5199C60.282 70.8531 59.6231 71.0198 58.8847 71.0198Z" fill="black"/>
  <path d="M36.4258 172.58V171.558L40.2657 167.354C40.7164 166.862 41.0875 166.434 41.3791 166.071C41.6707 165.703 41.8866 165.359 42.0267 165.037C42.1706 164.711 42.2425 164.37 42.2425 164.014C42.2425 163.605 42.1441 163.251 41.9471 162.952C41.754 162.653 41.4889 162.422 41.1519 162.259C40.8149 162.096 40.4362 162.015 40.0158 162.015C39.569 162.015 39.1789 162.108 38.8456 162.293C38.5162 162.475 38.2606 162.73 38.0788 163.06C37.9008 163.389 37.8118 163.776 37.8118 164.219H36.4712C36.4712 163.537 36.6284 162.939 36.9427 162.424C37.257 161.909 37.685 161.507 38.2265 161.219C38.7718 160.932 39.3834 160.788 40.0613 160.788C40.7429 160.788 41.3469 160.932 41.8733 161.219C42.3997 161.507 42.8125 161.895 43.1116 162.384C43.4108 162.872 43.5604 163.416 43.5604 164.014C43.5604 164.442 43.4827 164.861 43.3275 165.27C43.176 165.675 42.9109 166.127 42.5322 166.627C42.1573 167.123 41.6366 167.729 40.9701 168.445L38.3571 171.24V171.331H43.7649V172.58H36.4258Z" fill="black"/>
  <defs>
    <linearGradient id="paint0_linear_0_1" x1="-6.3429" y1="177.895" x2="-6.3429" y2="56.9805" gradientUnits="userSpaceOnUse">
      <stop stop-color="#000004"/>
      <stop offset="0.25" stop-color="#50127B"/>
      <stop offset="0.5" stop-color="#B6377A"/>
      <stop offset="0.75" stop-color="#FB8761"/>
      <stop offset="1" stop-color="#FCFDBF"/>
    </linearGradient>
  </defs>
</svg>