<svg width="156" height="181" viewBox="0 0 156 181" fill="none" xmlns="http://www.w3.org/2000/svg">
  <path d="M9.65247 8.50866C9.58428 7.90354 9.30303 7.43479 8.80872 7.10241C8.3144 6.76576 7.69224 6.59743 6.94224 6.59743C6.40531 6.59743 5.94082 6.68266 5.54877 6.85312C5.15673 7.01931 4.85204 7.24942 4.63471 7.54346C4.42164 7.83323 4.31511 8.16349 4.31511 8.53422C4.31511 8.8453 4.38755 9.11377 4.53244 9.33962C4.68159 9.56547 4.87548 9.7551 5.11411 9.90851C5.35701 10.0577 5.61695 10.1834 5.89394 10.2856C6.17093 10.3837 6.43727 10.4646 6.69295 10.5285L7.97136 10.8609C8.38897 10.9632 8.81724 11.1017 9.25616 11.2764C9.69508 11.4511 10.102 11.6812 10.477 11.9668C10.852 12.2523 11.1546 12.606 11.3847 13.0278C11.6191 13.4497 11.7363 13.9547 11.7363 14.5427C11.7363 15.2842 11.5445 15.9426 11.161 16.5179C10.7817 17.0932 10.2299 17.547 9.50545 17.8794C8.78528 18.2118 7.91383 18.378 6.8911 18.378C5.91099 18.378 5.06298 18.2224 4.34707 17.9114C3.63116 17.6003 3.07079 17.1592 2.66596 16.5882C2.26113 16.0129 2.03741 15.3311 1.9948 14.5427H3.97633C4.01468 15.0158 4.16809 15.4099 4.43656 15.7253C4.70928 16.0364 5.05659 16.2686 5.47846 16.422C5.9046 16.5712 6.37122 16.6457 6.87832 16.6457C7.43656 16.6457 7.93301 16.5584 8.36766 16.3837C8.80659 16.2047 9.15176 15.9575 9.40318 15.6422C9.6546 15.3226 9.78031 14.9497 9.78031 14.5236C9.78031 14.1358 9.66951 13.8183 9.44792 13.5712C9.23059 13.324 8.93443 13.1195 8.55943 12.9575C8.18869 12.7956 7.76894 12.6528 7.30019 12.5293L5.75332 12.1074C4.70502 11.8219 3.87406 11.4021 3.26042 10.8481C2.65105 10.2942 2.34636 9.56121 2.34636 8.64928C2.34636 7.89502 2.5509 7.23664 2.95999 6.67414C3.36909 6.11164 3.92306 5.67485 4.62193 5.36377C5.32079 5.04843 6.10914 4.89076 6.98698 4.89076C7.87335 4.89076 8.65531 5.0463 9.33286 5.35738C10.0147 5.66846 10.5516 6.09672 10.9437 6.64218C11.3357 7.18337 11.5403 7.80553 11.5573 8.50866H9.65247ZM20.1626 14.0889V8.34246H22.0802V18.1606H20.2009V16.4604H20.0987C19.8728 16.9845 19.5106 17.4213 19.012 17.7707C18.5177 18.1159 17.9019 18.2885 17.1647 18.2885C16.534 18.2885 15.9758 18.15 15.49 17.873C15.0085 17.5918 14.6292 17.1763 14.3522 16.6266C14.0795 16.0768 13.9431 15.3972 13.9431 14.5875V8.34246H15.8543V14.3574C15.8543 15.0264 16.0397 15.5591 16.4105 15.9554C16.7812 16.3517 17.2627 16.5498 17.8551 16.5498C18.213 16.5498 18.5688 16.4604 18.9225 16.2814C19.2805 16.1024 19.5766 15.8318 19.811 15.4696C20.0497 15.1074 20.1668 14.6472 20.1626 14.0889ZM26.5594 5.06974V18.1606H24.6482V5.06974H26.5594ZM33.8032 8.34246V9.87655H28.2549V8.34246H33.8032ZM29.7762 18.1606V7.20468C29.7762 6.59104 29.9105 6.08181 30.1789 5.67698C30.4474 5.26789 30.8032 4.9632 31.2464 4.76292C31.6896 4.55837 32.1711 4.4561 32.691 4.4561C33.0745 4.4561 33.4026 4.48806 33.6754 4.55198C33.9481 4.61164 34.1505 4.66704 34.2826 4.71817L33.8352 6.26505C33.7457 6.23948 33.6306 6.20965 33.49 6.17556C33.3494 6.13721 33.1789 6.11803 32.9786 6.11803C32.5141 6.11803 32.1818 6.23309 31.9815 6.4632C31.7855 6.69331 31.6874 7.0257 31.6874 7.46036V18.1606H29.7762ZM41.9946 14.0889V8.34246H43.9122V18.1606H42.033V16.4604H41.9307C41.7048 16.9845 41.3426 17.4213 40.844 17.7707C40.3497 18.1159 39.734 18.2885 38.9967 18.2885C38.3661 18.2885 37.8078 18.15 37.322 17.873C36.8405 17.5918 36.4612 17.1763 36.1842 16.6266C35.9115 16.0768 35.7752 15.3972 35.7752 14.5875V8.34246H37.6864V14.3574C37.6864 15.0264 37.8717 15.5591 38.2425 15.9554C38.6132 16.3517 39.0948 16.5498 39.6871 16.5498C40.045 16.5498 40.4009 16.4604 40.7546 16.2814C41.1125 16.1024 41.4087 15.8318 41.6431 15.4696C41.8817 15.1074 41.9989 14.6472 41.9946 14.0889ZM46.4802 18.1606V8.34246H48.3275V9.90212H48.4298C48.6088 9.37371 48.9241 8.95823 49.3758 8.65567C49.8318 8.34885 50.3474 8.19545 50.9227 8.19545C51.042 8.19545 51.1827 8.19971 51.3446 8.20823C51.5108 8.21675 51.6407 8.22741 51.7345 8.24019V10.0683C51.6578 10.047 51.5214 10.0236 51.3254 9.998C51.1294 9.96817 50.9334 9.95326 50.7373 9.95326C50.2856 9.95326 49.8829 10.0491 49.5292 10.2409C49.1798 10.4284 48.9028 10.6905 48.6983 11.0271C48.4937 11.3595 48.3915 11.7388 48.3915 12.1649V18.1606H46.4802ZM61.8275 18.3524C61.0349 18.3524 60.3275 18.15 59.7054 17.7452C59.0875 17.3361 58.6017 16.7544 58.248 16.0001C57.8986 15.2416 57.7238 14.3318 57.7238 13.2707C57.7238 12.2096 57.9007 11.302 58.2544 10.5477C58.6123 9.79346 59.1024 9.21604 59.7246 8.81547C60.3467 8.41491 61.052 8.21462 61.8403 8.21462C62.4497 8.21462 62.9398 8.31689 63.3105 8.52144C63.6855 8.72172 63.9753 8.9561 64.1798 9.22456C64.3886 9.49303 64.5505 9.72954 64.6656 9.93408H64.7807V5.06974H66.6919V18.1606H64.8254V16.6329H64.6656C64.5505 16.8418 64.3844 17.0804 64.167 17.3489C63.954 17.6173 63.6599 17.8517 63.2849 18.052C62.9099 18.2523 62.4241 18.3524 61.8275 18.3524ZM62.2494 16.7224C62.7991 16.7224 63.2636 16.5775 63.6429 16.2878C64.0264 15.9937 64.3162 15.5868 64.5122 15.0669C64.7125 14.547 64.8126 13.9419 64.8126 13.2516C64.8126 12.5697 64.7146 11.9731 64.5186 11.4618C64.3226 10.9504 64.0349 10.552 63.6557 10.2665C63.2764 9.98096 62.8077 9.8382 62.2494 9.8382C61.6741 9.8382 61.1947 9.98735 60.8112 10.2856C60.4277 10.5839 60.1379 10.9909 59.9419 11.5065C59.7501 12.0221 59.6542 12.6038 59.6542 13.2516C59.6542 13.9078 59.7523 14.498 59.9483 15.0222C60.1443 15.5463 60.4341 15.9618 60.8176 16.2686C61.2054 16.5712 61.6827 16.7224 62.2494 16.7224ZM69.4197 18.1606V8.34246H71.3309V18.1606H69.4197ZM70.3849 6.82755C70.0525 6.82755 69.767 6.71675 69.5284 6.49516C69.294 6.26931 69.1768 6.00084 69.1768 5.68976C69.1768 5.37442 69.294 5.10596 69.5284 4.88437C69.767 4.65851 70.0525 4.54559 70.3849 4.54559C70.7173 4.54559 71.0007 4.65851 71.235 4.88437C71.4737 5.10596 71.593 5.37442 71.593 5.68976C71.593 6.00084 71.4737 6.26931 71.235 6.49516C71.0007 6.71675 70.7173 6.82755 70.3849 6.82755ZM78.0378 18.3588C77.1173 18.3588 76.314 18.1479 75.628 17.726C74.9419 17.3041 74.4092 16.7139 74.03 15.9554C73.6507 15.1969 73.4611 14.3105 73.4611 13.2963C73.4611 12.2778 73.6507 11.3872 74.03 10.6244C74.4092 9.86164 74.9419 9.26931 75.628 8.84743C76.314 8.42556 77.1173 8.21462 78.0378 8.21462C78.9582 8.21462 79.7615 8.42556 80.4476 8.84743C81.1336 9.26931 81.6663 9.86164 82.0456 10.6244C82.4248 11.3872 82.6145 12.2778 82.6145 13.2963C82.6145 14.3105 82.4248 15.1969 82.0456 15.9554C81.6663 16.7139 81.1336 17.3041 80.4476 17.726C79.7615 18.1479 78.9582 18.3588 78.0378 18.3588ZM78.0442 16.7544C78.6407 16.7544 79.1351 16.5967 79.5271 16.2814C79.9192 15.966 80.2089 15.5463 80.3964 15.0222C80.5882 14.498 80.6841 13.9206 80.6841 13.2899C80.6841 12.6635 80.5882 12.0882 80.3964 11.5641C80.2089 11.0356 79.9192 10.6116 79.5271 10.292C79.1351 9.97243 78.6407 9.81263 78.0442 9.81263C77.4433 9.81263 76.9447 9.97243 76.5484 10.292C76.1564 10.6116 75.8645 11.0356 75.6727 11.5641C75.4852 12.0882 75.3915 12.6635 75.3915 13.2899C75.3915 13.9206 75.4852 14.498 75.6727 15.0222C75.8645 15.5463 76.1564 15.966 76.5484 16.2814C76.9447 16.5967 77.4433 16.7544 78.0442 16.7544ZM85.8696 8.34246L88.0365 12.1649L90.2226 8.34246H92.3128L89.251 13.2516L92.3384 18.1606H90.2482L88.0365 14.4916L85.8313 18.1606H83.7347L86.7901 13.2516L83.773 8.34246H85.8696ZM94.2752 18.1606V8.34246H96.1864V18.1606H94.2752ZM95.2404 6.82755C94.908 6.82755 94.6225 6.71675 94.3838 6.49516C94.1494 6.26931 94.0323 6.00084 94.0323 5.68976C94.0323 5.37442 94.1494 5.10596 94.3838 4.88437C94.6225 4.65851 94.908 4.54559 95.2404 4.54559C95.5727 4.54559 95.8561 4.65851 96.0905 4.88437C96.3291 5.10596 96.4485 5.37442 96.4485 5.68976C96.4485 6.00084 96.3291 6.26931 96.0905 6.49516C95.8561 6.71675 95.5727 6.82755 95.2404 6.82755ZM102.433 18.3524C101.64 18.3524 100.933 18.15 100.311 17.7452C99.6929 17.3361 99.2072 16.7544 98.8535 16.0001C98.504 15.2416 98.3293 14.3318 98.3293 13.2707C98.3293 12.2096 98.5062 11.302 98.8599 10.5477C99.2178 9.79346 99.7079 9.21604 100.33 8.81547C100.952 8.41491 101.657 8.21462 102.446 8.21462C103.055 8.21462 103.545 8.31689 103.916 8.52144C104.291 8.72172 104.581 8.9561 104.785 9.22456C104.994 9.49303 105.156 9.72954 105.271 9.93408H105.386V5.06974H107.297V18.1606H105.431V16.6329H105.271C105.156 16.8418 104.99 17.0804 104.772 17.3489C104.559 17.6173 104.265 17.8517 103.89 18.052C103.515 18.2523 103.03 18.3524 102.433 18.3524ZM102.855 16.7224C103.405 16.7224 103.869 16.5775 104.248 16.2878C104.632 15.9937 104.922 15.5868 105.118 15.0669C105.318 14.547 105.418 13.9419 105.418 13.2516C105.418 12.5697 105.32 11.9731 105.124 11.4618C104.928 10.9504 104.64 10.552 104.261 10.2665C103.882 9.98096 103.413 9.8382 102.855 9.8382C102.28 9.8382 101.8 9.98735 101.417 10.2856C101.033 10.5839 100.743 10.9909 100.547 11.5065C100.356 12.0221 100.26 12.6038 100.26 13.2516C100.26 13.9078 100.358 14.498 100.554 15.0222C100.75 15.5463 101.04 15.9618 101.423 16.2686C101.811 16.5712 102.288 16.7224 102.855 16.7224ZM114.257 18.3588C113.289 18.3588 112.456 18.1521 111.757 17.7388C111.063 17.3212 110.526 16.7352 110.147 15.981C109.772 15.2224 109.584 14.3339 109.584 13.3155C109.584 12.3098 109.772 11.4234 110.147 10.6564C110.526 9.88934 111.054 9.29062 111.732 8.86022C112.414 8.42982 113.211 8.21462 114.122 8.21462C114.676 8.21462 115.213 8.30624 115.733 8.48948C116.253 8.67272 116.72 8.96036 117.133 9.35241C117.546 9.74445 117.872 10.2537 118.111 10.8801C118.35 11.5023 118.469 12.2587 118.469 13.1493V13.8268H110.664V12.395H116.596C116.596 11.8922 116.494 11.4469 116.289 11.0591C116.085 10.667 115.797 10.3581 115.426 10.1322C115.06 9.90638 114.63 9.79346 114.135 9.79346C113.598 9.79346 113.13 9.92556 112.729 10.1898C112.333 10.4497 112.026 10.7906 111.809 11.2125C111.595 11.6301 111.489 12.0839 111.489 12.574V13.6926C111.489 14.3489 111.604 14.9071 111.834 15.3673C112.068 15.8275 112.394 16.1791 112.812 16.422C113.23 16.6606 113.718 16.78 114.276 16.78C114.638 16.78 114.968 16.7288 115.267 16.6266C115.565 16.52 115.823 16.3623 116.04 16.1535C116.257 15.9447 116.424 15.6869 116.539 15.3801L118.348 15.7061C118.203 16.2388 117.943 16.7054 117.568 17.106C117.197 17.5023 116.73 17.8112 116.168 18.0328C115.61 18.2501 114.973 18.3588 114.257 18.3588ZM123.076 16.3709L122.98 17.0676C122.916 17.579 122.808 18.1116 122.654 18.6656C122.505 19.2239 122.35 19.7416 122.188 20.2189C122.03 20.6962 121.9 21.0754 121.798 21.3567H120.443C120.498 21.0925 120.575 20.7345 120.673 20.2828C120.771 19.8354 120.867 19.3347 120.96 18.7807C121.054 18.2267 121.124 17.6621 121.171 17.0868L121.235 16.3709H123.076Z" fill="black"/>
  <path d="M2.29165 38.8093V30.1529H3.57658V31.5055H3.68929C3.86964 31.0434 4.16081 30.6846 4.56282 30.4291C4.96483 30.1698 5.44762 30.0402 6.01119 30.0402C6.58227 30.0402 7.05755 30.1698 7.43702 30.4291C7.82024 30.6846 8.11893 31.0434 8.33309 31.5055H8.42326C8.64493 31.0584 8.97744 30.7033 9.42078 30.4403C9.86412 30.1736 10.3957 30.0402 11.0157 30.0402C11.7896 30.0402 12.4227 30.2826 12.9149 30.7672C13.4071 31.2481 13.6532 31.9977 13.6532 33.0159V38.8093H12.3231V33.0159C12.3231 32.3771 12.1484 31.9207 11.799 31.6464C11.4496 31.3721 11.0382 31.235 10.5648 31.235C9.95616 31.235 9.48465 31.4191 9.15026 31.7873C8.81588 32.1517 8.64869 32.6138 8.64869 33.1737V38.8093H7.29613V32.8806C7.29613 32.3884 7.13645 31.992 6.81709 31.6915C6.49774 31.3871 6.08633 31.235 5.58288 31.235C5.23723 31.235 4.91411 31.327 4.61354 31.5111C4.31673 31.6952 4.07628 31.9507 3.89218 32.2776C3.71184 32.6007 3.62167 32.9745 3.62167 33.3991V38.8093H2.29165ZM19.5791 42.2358C18.9366 42.2358 18.3843 42.1532 17.9222 41.9878C17.4601 41.8263 17.075 41.6121 16.7669 41.3454C16.4626 41.0824 16.2202 40.8006 16.0399 40.5L17.0994 39.7561C17.2196 39.9139 17.3718 40.0943 17.5559 40.2971C17.74 40.5038 17.9917 40.6822 18.3111 40.8325C18.6342 40.9866 19.0568 41.0636 19.5791 41.0636C20.2779 41.0636 20.8546 40.8945 21.3092 40.5564C21.7638 40.2182 21.9911 39.6885 21.9911 38.9671V37.2088H21.8784C21.7807 37.3666 21.6417 37.562 21.4614 37.7949C21.2848 38.0241 21.0293 38.2289 20.6949 38.4092C20.3643 38.5858 19.9172 38.6741 19.3537 38.6741C18.6548 38.6741 18.0274 38.5088 17.4713 38.1781C16.919 37.8475 16.4813 37.3666 16.1582 36.7354C15.8389 36.1042 15.6792 35.3378 15.6792 34.436C15.6792 33.5494 15.8351 32.7773 16.147 32.1198C16.4588 31.4585 16.8927 30.9476 17.4488 30.5869C18.0048 30.2224 18.6473 30.0402 19.3762 30.0402C19.9398 30.0402 20.3869 30.1341 20.7175 30.322C21.0519 30.5061 21.3074 30.7165 21.4839 30.9532C21.6643 31.1861 21.8033 31.3777 21.901 31.528H22.0362V30.1529H23.3212V39.0573C23.3212 39.8012 23.1521 40.4061 22.814 40.872C22.4796 41.3416 22.0287 41.6854 21.4614 41.9033C20.8978 42.125 20.2704 42.2358 19.5791 42.2358ZM19.534 37.4793C20.0675 37.4793 20.5184 37.3572 20.8866 37.113C21.2548 36.8688 21.5347 36.5175 21.7263 36.0591C21.9179 35.6007 22.0137 35.0522 22.0137 34.4135C22.0137 33.7898 21.9198 33.2394 21.7319 32.7622C21.5441 32.2851 21.266 31.9113 20.8978 31.6407C20.5296 31.3702 20.075 31.235 19.534 31.235C18.9704 31.235 18.5008 31.3777 18.1251 31.6633C17.7531 31.9488 17.4732 32.3321 17.2854 32.813C17.1013 33.2939 17.0092 33.8274 17.0092 34.4135C17.0092 35.0146 17.1031 35.5463 17.291 36.0084C17.4826 36.4668 17.7644 36.8274 18.1363 37.0904C18.5121 37.3497 18.9779 37.4793 19.534 37.4793ZM29.836 26.7264L26.1165 40.5451H24.8992L28.6187 26.7264H29.836ZM31.4126 38.8093V30.1529H32.6975V31.5055H32.8102C32.9906 31.0434 33.2818 30.6846 33.6838 30.4291C34.0858 30.1698 34.5686 30.0402 35.1321 30.0402C35.7032 30.0402 36.1785 30.1698 36.558 30.4291C36.9412 30.6846 37.2399 31.0434 37.454 31.5055H37.5442C37.7659 31.0584 38.0984 30.7033 38.5417 30.4403C38.9851 30.1736 39.5167 30.0402 40.1366 30.0402C40.9106 30.0402 41.5437 30.2826 42.0358 30.7672C42.528 31.2481 42.7741 31.9977 42.7741 33.0159V38.8093H41.4441V33.0159C41.4441 32.3771 41.2694 31.9207 40.92 31.6464C40.5706 31.3721 40.1592 31.235 39.6858 31.235C39.0771 31.235 38.6056 31.4191 38.2712 31.7873C37.9368 32.1517 37.7696 32.6138 37.7696 33.1737V38.8093H36.4171V32.8806C36.4171 32.3884 36.2574 31.992 35.938 31.6915C35.6187 31.3871 35.2073 31.235 34.7038 31.235C34.3582 31.235 34.0351 31.327 33.7345 31.5111C33.4377 31.6952 33.1972 31.9507 33.0131 32.2776C32.8328 32.6007 32.7426 32.9745 32.7426 33.3991V38.8093H31.4126ZM45.1834 38.8093V37.7949L48.9931 33.6245C49.4402 33.1361 49.8084 32.7115 50.0977 32.3508C50.387 31.9864 50.6011 31.6445 50.7401 31.3251C50.8829 31.002 50.9543 30.6639 50.9543 30.3107C50.9543 29.905 50.8566 29.5537 50.6612 29.2569C50.4696 28.96 50.2066 28.7309 49.8722 28.5693C49.5379 28.4077 49.1621 28.327 48.7451 28.327C48.3018 28.327 47.9148 28.419 47.5842 28.6031C47.2573 28.7835 47.0037 29.0371 46.8233 29.3639C46.6468 29.6908 46.5585 30.074 46.5585 30.5136H45.2284C45.2284 29.8373 45.3844 29.2437 45.6962 28.7327C46.008 28.2218 46.4326 27.8235 46.9699 27.538C47.5109 27.2524 48.1177 27.1097 48.7902 27.1097C49.4665 27.1097 50.0657 27.2524 50.588 27.538C51.1102 27.8235 51.5197 28.2086 51.8165 28.6933C52.1134 29.178 52.2618 29.7171 52.2618 30.3107C52.2618 30.7353 52.1847 31.1504 52.0307 31.5562C51.8804 31.9582 51.6174 32.4072 51.2417 32.9031C50.8698 33.3953 50.3531 33.9965 49.6919 34.7066L47.0995 37.4793V37.5695H52.4646V38.8093H45.1834Z" fill="black"/>
  <path d="M27.1088 56.1592H0.875366V176.769H27.1088V56.1592Z" fill="url(#paint0_linear_0_1)" stroke="black" stroke-width="0.31992" stroke-miterlimit="2" stroke-linecap="square"/>
  <path d="M40.376 58.7085V70.3419H38.9673V60.1854H38.8991L36.0589 62.0713V60.6398L38.9673 58.7085H40.376ZM44.0853 70.3419L49.2886 60.049V59.9582H43.2901V58.7085H50.7428V60.0263L45.5622 70.3419H44.0853Z" fill="black"/>
  <path d="M36.2862 172.061V171.039L40.1261 166.835C40.5767 166.343 40.9479 165.915 41.2395 165.551C41.5311 165.184 41.7469 164.839 41.887 164.518C42.0309 164.192 42.1029 163.851 42.1029 163.495C42.1029 163.086 42.0044 162.732 41.8075 162.433C41.6144 162.134 41.3493 161.903 41.0122 161.74C40.6752 161.577 40.2965 161.496 39.8762 161.496C39.4293 161.496 39.0393 161.588 38.706 161.774C38.3765 161.956 38.1209 162.211 37.9391 162.541C37.7612 162.87 37.6722 163.257 37.6722 163.7H36.3316C36.3316 163.018 36.4888 162.42 36.8031 161.905C37.1174 161.39 37.5453 160.988 38.0868 160.7C38.6322 160.413 39.2437 160.269 39.9216 160.269C40.6033 160.269 41.2073 160.413 41.7337 160.7C42.26 160.988 42.6728 161.376 42.972 161.865C43.2711 162.353 43.4207 162.897 43.4207 163.495C43.4207 163.923 43.3431 164.342 43.1878 164.75C43.0364 165.156 42.7713 165.608 42.3926 166.108C42.0177 166.604 41.497 167.21 40.8305 167.926L38.2175 170.721V170.811H43.6252V172.061H36.2862Z" fill="black"/>
  <defs>
    <linearGradient id="paint0_linear_0_1" x1="-6.48279" y1="177.376" x2="-6.48279" y2="56.4615" gradientUnits="userSpaceOnUse">
      <stop stop-color="#000004" stop-opacity="0"/>
      <stop offset="0.0192308" stop-opacity="0"/>
      <stop offset="0.0384615" stop-opacity="0"/>
      <stop offset="0.0576923" stop-opacity="0"/>
      <stop offset="0.0769231" stop-opacity="0"/>
      <stop offset="0.0961538" stop-opacity="0"/>
      <stop offset="0.115385" stop-opacity="0"/>
      <stop offset="0.134615" stop-opacity="0"/>
      <stop offset="0.153846" stop-opacity="0"/>
      <stop offset="0.173077" stop-opacity="0"/>
      <stop offset="0.192308" stop-opacity="0"/>
      <stop offset="0.211538" stop-opacity="0"/>
      <stop offset="0.230769" stop-opacity="0"/>
      <stop offset="0.25" stop-color="#50127B" stop-opacity="0"/>
      <stop offset="0.269231" stop-color="#B83980" stop-opacity="0.0705882"/>
      <stop offset="0.288462" stop-color="#B53679" stop-opacity="0.14902"/>
      <stop offset="0.307692" stop-color="#B4357B" stop-opacity="0.227451"/>
      <stop offset="0.326923" stop-color="#B6357B" stop-opacity="0.301961"/>
      <stop offset="0.346154" stop-color="#B53779" stop-opacity="0.380392"/>
      <stop offset="0.365385" stop-color="#B5367A" stop-opacity="0.458824"/>
      <stop offset="0.384615" stop-color="#B6367A" stop-opacity="0.533333"/>
      <stop offset="0.403846" stop-color="#B53679" stop-opacity="0.611765"/>
      <stop offset="0.423077" stop-color="#B5377A" stop-opacity="0.690196"/>
      <stop offset="0.442308" stop-color="#B6377A" stop-opacity="0.764706"/>
      <stop offset="0.461538" stop-color="#B53779" stop-opacity="0.843137"/>
      <stop offset="0.480769" stop-color="#B5367A" stop-opacity="0.921569"/>
      <stop offset="0.5" stop-color="#B6377A"/>
      <stop offset="0.519231" stop-color="#BB3C78"/>
      <stop offset="0.538462" stop-color="#C04376"/>
      <stop offset="0.557692" stop-color="#C54974"/>
      <stop offset="0.576923" stop-color="#CB4F72"/>
      <stop offset="0.596154" stop-color="#D05570"/>
      <stop offset="0.615385" stop-color="#D55B6E"/>
      <stop offset="0.634615" stop-color="#DA616C"/>
      <stop offset="0.653846" stop-color="#E0686A"/>
      <stop offset="0.673077" stop-color="#E56E68"/>
      <stop offset="0.692308" stop-color="#EA7466"/>
      <stop offset="0.711538" stop-color="#F07A64"/>
      <stop offset="0.730769" stop-color="#F58062"/>
      <stop offset="0.75" stop-color="#FB8761"/>
      <stop offset="0.769231" stop-color="#FB8F67"/>
      <stop offset="0.788462" stop-color="#FB986F"/>
      <stop offset="0.807692" stop-color="#FBA276"/>
      <stop offset="0.826923" stop-color="#FBAA7D"/>
      <stop offset="0.846154" stop-color="#FBB484"/>
      <stop offset="0.865385" stop-color="#FBBD8C"/>
      <stop offset="0.884615" stop-color="#FBC693"/>
      <stop offset="0.903846" stop-color="#FBCF9A"/>
      <stop offset="0.923077" stop-color="#FBD8A1"/>
      <stop offset="0.942308" stop-color="#FBE1A8"/>
      <stop offset="0.961538" stop-color="#FBEAB0"/>
      <stop offset="0.980769" stop-color="#FBF3B7"/>
      <stop offset="1" stop-color="#FCFDBF"/>
    </linearGradient>
  </defs>
</svg>
